<svg id="Grupo_238386" data-name="Grupo 238386" xmlns="http://www.w3.org/2000/svg" width="64.092" height="64.092" viewBox="0 0 64.092 64.092">
  <circle id="Elipse_5726" data-name="Elipse 5726" cx="32.046" cy="32.046" r="32.046" fill="#ff7d00"/>
  <path id="Trazado_268110" data-name="Trazado 268110" d="M4.265-9.335H5.973A1.776,1.776,0,0,0,8-11.322a1.718,1.718,0,0,0-.483-1.262,1.833,1.833,0,0,0-1.364-.489,1.962,1.962,0,0,0-1.251.419,1.278,1.278,0,0,0-.532,1.042H.752a3.706,3.706,0,0,1,.688-2.2,4.54,4.54,0,0,1,1.907-1.509,6.519,6.519,0,0,1,2.68-.542,6.405,6.405,0,0,1,4.1,1.192A3.964,3.964,0,0,1,11.623-11.4a3.3,3.3,0,0,1-.618,1.907,4.4,4.4,0,0,1-1.8,1.456,4.205,4.205,0,0,1,1.955,1.37,3.607,3.607,0,0,1,.709,2.272,4.036,4.036,0,0,1-1.611,3.352A6.688,6.688,0,0,1,6.026.215,6.936,6.936,0,0,1,3.174-.371,4.468,4.468,0,0,1,1.182-1.993,4.217,4.217,0,0,1,.5-4.351H4.146A1.63,1.63,0,0,0,4.727-3.1a2.048,2.048,0,0,0,1.429.526A2.145,2.145,0,0,0,7.681-3.11,1.777,1.777,0,0,0,8.25-4.469a2.078,2.078,0,0,0-.591-1.676,2.47,2.47,0,0,0-1.633-.494H4.265Z" transform="translate(24.791 38.535)" fill="#fff"/>
</svg>
