<svg xmlns="http://www.w3.org/2000/svg" xmlns:xlink="http://www.w3.org/1999/xlink" width="176" height="176" viewBox="0 0 176 176">
  <defs>
    <filter id="Elipse_5915" x="0" y="0" width="176" height="176" filterUnits="userSpaceOnUse">
      <feOffset dy="6" input="SourceAlpha"/>
      <feGaussianBlur stdDeviation="4.5" result="blur"/>
      <feFlood flood-opacity="0.161"/>
      <feComposite operator="in" in2="blur"/>
      <feComposite in="SourceGraphic"/>
    </filter>
  </defs>
  <g id="Grupo_238385" data-name="Grupo 238385" transform="translate(-166.833 -3129.564)">
    <g transform="matrix(1, 0, 0, 1, 166.83, 3129.56)" filter="url(#Elipse_5915)">
      <circle id="Elipse_5915-2" data-name="Elipse 5915" cx="74.5" cy="74.5" r="74.5" transform="translate(13.5 7.5)" fill="#dbdf9a"/>
    </g>
    <g id="Grupo_237031" data-name="Grupo 237031" transform="translate(210.575 3169.301)">
      <path id="Trazado_259015" data-name="Trazado 259015" d="M145.623,94.351c-2.9,3.767-6.856,6.412-10.308,9.592-3.515,3.238-7.16,6.336-10.767,9.472a1.077,1.077,0,0,0-.394,1.243c1.9,8.348,3.769,16.705,5.667,25.055a3.911,3.911,0,0,1-.66,3.809c-1.284,1.407-2.95,1.589-4.767.516q-5.679-3.352-11.344-6.731c-3.681-2.186-7.369-4.363-11.036-6.572a1.1,1.1,0,0,0-1.316.009Q89.556,137.391,78.39,144c-1.794,1.063-3.445.929-4.723-.372a3.246,3.246,0,0,1-.922-3.089c1.021-4.659,2.086-9.309,3.126-13.964a1.448,1.448,0,0,1,1.607-1.238c1.007.6,1.135.934.845,2.221-.993,4.394-2,8.785-2.956,13.186a1.333,1.333,0,0,0,.289,1.122,1.274,1.274,0,0,0,1.155.02c2.039-1.167,4.039-2.4,6.052-3.614.277-.146.562-.281.832-.441,5.441-3.227,10.893-6.437,16.308-9.706a2.273,2.273,0,0,1,2.679-.022q11.468,6.874,23,13.643a1.642,1.642,0,0,0,1.38.109c.25-.14.341-.863.251-1.27q-2.894-13.049-5.873-26.078a2.289,2.289,0,0,1,.83-2.554q10.065-8.768,20.053-17.625a1.682,1.682,0,0,0,.571-1.266c-.049-.286-.711-.482-1.116-.686a1.476,1.476,0,0,0-.51-.073c-8.685-.807-17.368-1.638-26.058-2.39a2.376,2.376,0,0,1-2.295-1.657c-1.615-3.868-3.324-7.7-5-11.54-.35-.932-.764-1.873.372-2.591,1-.194,1.531.287,1.907,1.176,1.587,3.751,3.226,7.481,4.811,11.233a1.177,1.177,0,0,0,1.1.861q8.812.781,17.621,1.6c2.636.242,5.269.528,7.908.715a4.083,4.083,0,0,1,3.985,2.9Z" transform="translate(-57.107 -60.199)" fill="#040403"/>
      <path id="Trazado_259016" data-name="Trazado 259016" d="M61.787,33.492c-1.137.718-.723,1.659-.372,2.59-1.548,1.838-3.157,3.628-4.631,5.523A100.671,100.671,0,0,0,41.564,69.547,90.958,90.958,0,0,0,37.7,84.5a77.579,77.579,0,0,0-1.338,13.132c-2.013,1.212-4.013,2.447-6.052,3.614a1.275,1.275,0,0,1-1.155-.02,1.333,1.333,0,0,1-.289-1.123c.959-4.4,1.963-8.793,2.956-13.186.291-1.286.162-1.626-.845-2.221q.3-1.481.6-2.963c1.142-.021,1.443-.255,1.706-1.392.516-2.241.98-4.5,1.548-6.724a1.946,1.946,0,0,0-.746-2.181q-8.854-7.73-17.671-15.5c-.888-.779-1.806-1.527-2.642-2.359a1.515,1.515,0,0,1-.447-1.155c.058-.277.592-.548.961-.644A10.961,10.961,0,0,1,16,51.6c8.371-.786,16.739-1.595,25.115-2.33a2.278,2.278,0,0,0,2.169-1.579Q48.5,35.438,53.821,23.227a1.85,1.85,0,0,1,1.013-.977c.67-.184.874.471,1.092.979q1.306,3.052,2.624,6.1c.451,1.038.837,1.235,1.95,1.053l1.286,3.112" transform="translate(-10.606 -19.564)" fill="#fdc74f"/>
      <path id="Trazado_259017" data-name="Trazado 259017" d="M50.728,20.778c-1.113.181-1.5-.016-1.95-1.053q-1.324-3.044-2.624-6.1c-.218-.508-.421-1.163-1.092-.98a1.852,1.852,0,0,0-1.013.977Q38.738,25.839,33.507,38.088a2.278,2.278,0,0,1-2.169,1.579C22.963,40.4,14.594,41.212,6.223,42a10.935,10.935,0,0,0-1.714.181c-.369.1-.9.367-.961.644A1.516,1.516,0,0,0,4,43.977c.835.832,1.754,1.58,2.642,2.359q8.831,7.756,17.671,15.5a1.946,1.946,0,0,1,.746,2.181c-.568,2.228-1.031,4.482-1.548,6.724-.262,1.137-.563,1.371-1.706,1.392a1.508,1.508,0,0,1-.827-1.929c.468-1.926.843-3.875,1.322-5.8a1.065,1.065,0,0,0-.409-1.238q-9.753-8.534-19.479-17.1C.774,44.635.4,43,1.341,41.323a3.39,3.39,0,0,1,2.812-1.738q5.286-.51,10.575-1,7.825-.726,15.652-1.427a1.121,1.121,0,0,0,1.047-.816q5.083-11.873,10.2-23.731c1.019-2.367,3.115-3.309,5.112-2.161a4.344,4.344,0,0,1,1.616,1.814c1.031,2.145,1.908,4.364,2.864,6.546a1.476,1.476,0,0,1-.492,1.969" transform="translate(-0.834 -9.961)" fill="#040403"/>
      <path id="Trazado_259018" data-name="Trazado 259018" d="M119.768,147.8a77.559,77.559,0,0,1,1.338-13.132,90.958,90.958,0,0,1,3.864-14.958A100.671,100.671,0,0,1,140.19,91.767c1.474-1.895,3.083-3.685,4.631-5.523,1.673,3.843,3.382,7.672,5,11.54a2.376,2.376,0,0,0,2.295,1.657c8.69.752,17.373,1.583,26.058,2.39a1.472,1.472,0,0,1,.51.073c.405.2,1.067.4,1.116.686a1.682,1.682,0,0,1-.57,1.266q-10,8.847-20.053,17.624a2.289,2.289,0,0,0-.83,2.555q2.993,13.026,5.873,26.077c.09.407,0,1.131-.251,1.271a1.645,1.645,0,0,1-1.38-.109q-11.524-6.78-23-13.644a2.274,2.274,0,0,0-2.679.022c-5.416,3.269-10.867,6.479-16.308,9.706-.27.16-.554.294-.832.441" transform="translate(-94.013 -69.725)" fill="#fedb63"/>
    </g>
  </g>
</svg>
