<svg xmlns="http://www.w3.org/2000/svg" xmlns:xlink="http://www.w3.org/1999/xlink" width="176" height="176" viewBox="0 0 176 176">
  <defs>
    <filter id="Elipse_5916" x="0" y="0" width="176" height="176" filterUnits="userSpaceOnUse">
      <feOffset dy="6" input="SourceAlpha"/>
      <feGaussianBlur stdDeviation="4.5" result="blur"/>
      <feFlood flood-opacity="0.161"/>
      <feComposite operator="in" in2="blur"/>
      <feComposite in="SourceGraphic"/>
    </filter>
    <clipPath id="clip-path">
      <rect id="Rectángulo_58566" data-name="Rectángulo 58566" width="80.022" height="79.07" transform="translate(0 0)" fill="none"/>
    </clipPath>
  </defs>
  <g id="Grupo_238386" data-name="Grupo 238386" transform="translate(-166.833 -3381.564)">
    <g transform="matrix(1, 0, 0, 1, 166.83, 3381.56)" filter="url(#Elipse_5916)">
      <circle id="Elipse_5916-2" data-name="Elipse 5916" cx="74.5" cy="74.5" r="74.5" transform="translate(13.5 7.5)" fill="#dbdf9a"/>
    </g>
    <g id="Grupo_237032" data-name="Grupo 237032" transform="translate(214.822 3424.029)" clip-path="url(#clip-path)">
      <path id="Trazado_261976" data-name="Trazado 261976" d="M137.778,324.718a3.073,3.073,0,0,0-.518-.261,7.7,7.7,0,0,1-5.727-8.414,7.482,7.482,0,0,1,6.989-6.765,101.382,101.382,0,0,1,11.276.044,6.936,6.936,0,0,1,6.126,4.624,7.5,7.5,0,0,1-.972,7.72c-.593.809-1,.872-1.927.382a1.428,1.428,0,0,1,.132-1.895,5.379,5.379,0,0,0-2.763-8.344,1.183,1.183,0,0,0-.212-.1,5.189,5.189,0,0,0-5.41,1.668,5.409,5.409,0,0,0,3.805,8.975c.8.046,1.437.167,1.685,1.028l-.8,1.333Zm5.374-2.387c-2.818-3.635-2.772-7.2.021-10.809-1.425,0-2.746-.048-4.063.01a5.352,5.352,0,0,0-5.274,5.1,5.27,5.27,0,0,0,4.638,5.664,38.939,38.939,0,0,0,4.678.033" transform="translate(-104.174 -245.346)" fill="#040303"/>
      <path id="Trazado_261977" data-name="Trazado 261977" d="M51.891,14.623c-.718-.7-.784-1.094-.234-1.971C56.113,5.547,62.475,1.271,70.845.593a87.755,87.755,0,0,1,15,.047c9.921.907,18.332,8.323,21.1,18.034A25.175,25.175,0,0,1,91.931,48.833c-1.391.538-1.378.547-1.4,2.016a20.816,20.816,0,0,1-.167,3.49,7.44,7.44,0,0,1-7.1,6.19c-3.549.134-7.113.14-10.661-.01A7.492,7.492,0,0,1,65.5,53.362c-.2-3.571-.077-7.1,1.566-10.41a16.323,16.323,0,0,1,9.122-8.331,9.66,9.66,0,0,0,6.6-9.464,9.445,9.445,0,0,0-4.234-7.666.805.805,0,0,0-1.092,0,9.59,9.59,0,0,0-4.289,8.034,7.682,7.682,0,0,1-6.065,7.487,9.369,9.369,0,0,1-2.007.2c-2.959.021-5.917.017-8.876.007-4.853-.017-8.276-3.425-8.079-8.279a46.9,46.9,0,0,1,.966-6.436c.169-.927.618-1.146,1.584-1.065a1.353,1.353,0,0,1,.638,1.785,21.05,21.05,0,0,0-.888,6.291,5.335,5.335,0,0,0,3.621,5.036c1.858.62,3.774.229,5.851.351a7.533,7.533,0,0,1-2.148-4.765,22.211,22.211,0,0,1,.2-4.189A24.883,24.883,0,0,1,71.28,3.218a4.7,4.7,0,0,0,.477-.343l.041-.007-.027.022a12.972,12.972,0,0,0-1.609.057A22.711,22.711,0,0,0,53.636,13.9a1.34,1.34,0,0,1-1.745.721M67.329,30.481a5.288,5.288,0,0,0,3.512-5.144,11.982,11.982,0,0,1,9.181-11.48,12.221,12.221,0,0,1,8.093.864c.175.108.347.219.525.322a11.888,11.888,0,0,1,5.113,15.125,12.038,12.038,0,0,1-7.2,6.676,13.742,13.742,0,0,0-7.989,7.62,17.07,17.07,0,0,0-1,9.544,5.237,5.237,0,0,0,7.042,3.883,4.779,4.779,0,0,0,3.317-3.505,15.372,15.372,0,0,0,.254-3.47c.033-2.547.559-3.356,2.9-4.262,9.6-3.713,15.762-13.892,14.261-24.013-1.4-9.442-6.785-15.754-15.808-18.869a19.028,19.028,0,0,0-8.894-.884c-.284.013-.571,0-.851.042A22.439,22.439,0,0,0,67.764,8.463a22.023,22.023,0,0,0-7.678,17.25,5.3,5.3,0,0,0,7.243,4.768M80.658,16.1c.357.338.581.546.8.759A11.835,11.835,0,0,1,83.756,31a12.133,12.133,0,0,1-6.795,5.837,13.892,13.892,0,0,0-8.1,7.822c-1.2,2.755-1.147,5.666-1.026,8.571a4.945,4.945,0,0,0,3.749,4.718,36.943,36.943,0,0,0,5.334.391A22.3,22.3,0,0,1,75.271,54.4a21.217,21.217,0,0,1-.208-4.49,16.031,16.031,0,0,1,2.129-7.944,16.653,16.653,0,0,1,8.919-7.482,9.582,9.582,0,0,0,3.6-15.655A9.47,9.47,0,0,0,80.658,16.1" transform="translate(-38.16 -0.761)" fill="#040302"/>
      <path id="Trazado_261978" data-name="Trazado 261978" d="M60.672,24.44a1.34,1.34,0,0,0,1.745-.721A22.711,22.711,0,0,1,78.941,12.763a12.972,12.972,0,0,1,1.609-.057l-.014-.015a4.7,4.7,0,0,1-.477.343A24.883,24.883,0,0,0,66.75,31.771a22.211,22.211,0,0,0-.2,4.189A7.533,7.533,0,0,0,68.7,40.724c-2.077-.122-3.992.27-5.851-.351a5.335,5.335,0,0,1-3.621-5.036,21.05,21.05,0,0,1,.888-6.291,1.353,1.353,0,0,0-.638-1.785l1.195-2.821" transform="translate(-46.94 -10.578)" fill="#a3314f"/>
      <path id="Trazado_261979" data-name="Trazado 261979" d="M195.472,332.5c-.248-.861-.889-.983-1.685-1.028a5.409,5.409,0,0,1-3.805-8.975,5.189,5.189,0,0,1,5.41-1.668,1.169,1.169,0,0,1,.212.1c-.154.173-.3.354-.462.519a6.537,6.537,0,0,0,.051,9.248c.484.482,1,.936,1.5,1.4l-1.217.4" transform="translate(-149.385 -254.456)" fill="#b55a72"/>
      <path id="Trazado_261980" data-name="Trazado 261980" d="M214.441,333.133c-.5-.467-1.012-.92-1.5-1.4a6.537,6.537,0,0,1-.051-9.249c.162-.165.309-.346.462-.519a5.379,5.379,0,0,1,2.763,8.344,1.427,1.427,0,0,0-.132,1.894l-1.546.931" transform="translate(-167.137 -255.499)" fill="#e77a97"/>
      <path id="Trazado_261981" data-name="Trazado 261981" d="M152.021,331.319a38.927,38.927,0,0,1-4.678-.033,5.27,5.27,0,0,1-4.638-5.664,5.352,5.352,0,0,1,5.274-5.1c1.316-.058,2.638-.01,4.063-.01-2.793,3.607-2.839,7.174-.021,10.809" transform="translate(-113.043 -254.334)" fill="#a3314f"/>
      <path id="Trazado_261982" data-name="Trazado 261982" d="M151.25,23.894a12.222,12.222,0,0,0-8.094-.864,11.982,11.982,0,0,0-9.181,11.48,5.287,5.287,0,0,1-3.512,5.144,4.768,4.768,0,0,1-2.543-4.16,21.258,21.258,0,0,1,1.537-9.553,22.848,22.848,0,0,1,8.736-10.9,63.128,63.128,0,0,1,5.582-2.98,19.027,19.027,0,0,1,8.894.884c9.023,3.115,14.408,9.427,15.808,18.869,1.5,10.121-4.658,20.3-14.261,24.013-2.344.906-2.869,1.714-2.9,4.262a15.376,15.376,0,0,1-.254,3.47,4.779,4.779,0,0,1-3.317,3.505,4.193,4.193,0,0,1-2.227-3,17.364,17.364,0,0,1,.06-8.294,14.918,14.918,0,0,1,9.589-10.875,10.666,10.666,0,0,0,6.856-7.177,10.209,10.209,0,0,0-1.553-9.342,10.451,10.451,0,0,0-9.218-4.479" transform="translate(-101.294 -9.934)" fill="#e77a97"/>
      <path id="Trazado_261983" data-name="Trazado 261983" d="M155.416,75.457a9.47,9.47,0,0,1,9.055,2.733,9.582,9.582,0,0,1-3.6,15.655,16.653,16.653,0,0,0-8.919,7.482,16.031,16.031,0,0,0-2.129,7.944,21.216,21.216,0,0,0,.208,4.49,22.3,22.3,0,0,0,1.652,3.943,36.943,36.943,0,0,1-5.334-.391,4.945,4.945,0,0,1-3.749-4.718c-.121-2.906-.17-5.817,1.026-8.571a13.892,13.892,0,0,1,8.1-7.822,12.132,12.132,0,0,0,6.795-5.837,11.835,11.835,0,0,0-2.3-14.148c-.219-.213-.443-.421-.8-.759" transform="translate(-112.918 -60.122)" fill="#a3314f"/>
      <path id="Trazado_261984" data-name="Trazado 261984" d="M199.161,69.6a10.451,10.451,0,0,1,9.218,4.478,10.209,10.209,0,0,1,1.553,9.342,10.666,10.666,0,0,1-6.856,7.177,14.918,14.918,0,0,0-9.589,10.875,17.365,17.365,0,0,0-.06,8.294,4.193,4.193,0,0,0,2.227,3,5.237,5.237,0,0,1-7.042-3.883,17.07,17.07,0,0,1,1-9.544,13.743,13.743,0,0,1,7.989-7.62,12.037,12.037,0,0,0,7.2-6.675,11.888,11.888,0,0,0-5.113-15.125c-.178-.1-.35-.215-.525-.322" transform="translate(-149.206 -55.641)" fill="#b55a72"/>
      <path id="Trazado_261985" data-name="Trazado 261985" d="M126.11,12.751a63.151,63.151,0,0,0-5.582,2.98,22.847,22.847,0,0,0-8.736,10.9,21.255,21.255,0,0,0-1.537,9.553,4.767,4.767,0,0,0,2.543,4.16,5.3,5.3,0,0,1-7.243-4.768,22.023,22.023,0,0,1,7.678-17.25,22.438,22.438,0,0,1,12.026-5.534c.28-.041.567-.029.851-.042" transform="translate(-83.629 -10.625)" fill="#b55a72"/>
      <path id="Trazado_261986" data-name="Trazado 261986" d="M161.663,12.562l.027-.022-.041.007.014.014" transform="translate(-128.052 -10.433)" fill="#fb7b42"/>
    </g>
  </g>
</svg>
