<svg xmlns="http://www.w3.org/2000/svg" xmlns:xlink="http://www.w3.org/1999/xlink" width="176" height="176" viewBox="0 0 176 176">
  <defs>
    <filter id="Elipse_5917" x="0" y="0" width="176" height="176" filterUnits="userSpaceOnUse">
      <feOffset dy="6" input="SourceAlpha"/>
      <feGaussianBlur stdDeviation="4.5" result="blur"/>
      <feFlood flood-opacity="0.161"/>
      <feComposite operator="in" in2="blur"/>
      <feComposite in="SourceGraphic"/>
    </filter>
  </defs>
  <g id="Grupo_238387" data-name="Grupo 238387" transform="translate(-166.833 -3629.564)">
    <g transform="matrix(1, 0, 0, 1, 166.83, 3629.56)" filter="url(#Elipse_5917)">
      <circle id="Elipse_5917-2" data-name="Elipse 5917" cx="74.5" cy="74.5" r="74.5" transform="translate(13.5 7.5)" fill="#dbdf9a"/>
    </g>
    <g id="Grupo_237033" data-name="Grupo 237033" transform="translate(214.994 3670.73)">
      <path id="Trazado_259033" data-name="Trazado 259033" d="M33.783,79.394a1.183,1.183,0,0,1-1.4.95c-5.015-.823-9.06-3.5-10.672-9.043a13.646,13.646,0,0,1,.47-8.871,4.463,4.463,0,0,0,.21-2.744c-.928-3.839-1.9-7.668-2.794-11.515-.474-2.035-.823-4.1-1.2-6.022a55.245,55.245,0,0,1-5.666-2c-5.218-2.48-8.268-6.768-9.707-12.272a2.558,2.558,0,0,1,2.1-3.149c5.206-1.081,10.265-.841,15.062,1.706.017.009.046-.005.092-.012.271-.353.446-.651.088-1.144a21.463,21.463,0,0,1-3.925-13.786,22.866,22.866,0,0,1,2.807-10.2A6.9,6.9,0,0,1,20.433,0h1.1a2.635,2.635,0,0,1,1.618,2.005,35.358,35.358,0,0,0,1.574,4.676,16.549,16.549,0,0,0,6.746,8.152,1.243,1.243,0,0,0,1.231.1,25.529,25.529,0,0,1,18.872-.523,3.819,3.819,0,0,0,4.493-.981c.378-.363.778-.706,1.136-1.088a22.307,22.307,0,0,0,5.143-10.1A2.948,2.948,0,0,1,63.923,0h1.1a3.506,3.506,0,0,1,1.652,1.953,23.1,23.1,0,0,1,.046,20.875A22.87,22.87,0,0,1,65.2,25.293c-.344.528-.363.516-.017,1.141,1.231-.475,2.451-.977,3.693-1.415.973-.343,1.27-.2,1.8.667a1.352,1.352,0,0,1-1.086,1.42c-1.22.432-2.411.946-3.628,1.432a17.041,17.041,0,0,1,.475,1.819c.328,2.326.619,4.658.923,6.988v2.285c.086-.012.188-.018.287-.04A15.786,15.786,0,0,0,80.187,28.124c.362-1.162.277-1.265-.979-1.347-1.392-.151-2.782-.345-4.178-.435a1.288,1.288,0,0,1-1.378-1c.167-.938.49-1.288,1.4-1.211,1.85.157,3.706.326,5.536.633a2.529,2.529,0,0,1,1.9,3.327c-1.839,6.578-5.861,11.117-12.477,13.177-.922.287-1.876.474-2.84.713-.264,1.587-.438,3.231-.822,4.825-.773,3.2-1.7,6.368-2.483,9.569-.378,1.548-.585,3.139-.833,4.716a1.744,1.744,0,0,0,.181.814c1.63,4.294,1.652,8.5-.731,12.55-2.1,3.567-5.421,5.251-9.378,5.894-.6.1-1.2.211-1.793.317h-9.77a2.529,2.529,0,0,0-.582-.146c-1.127-.012-2.254,0-3.382,0l-.752-.966c.169-.838.686-1.124,1.527-1.119,3.676.023,7.353.025,11.029-.014a15.56,15.56,0,0,0,5.867-.91l.348-.124-.007.006a18.23,18.23,0,0,0,3.139-1.858,10.176,10.176,0,0,0,3.291-9.382,11.571,11.571,0,0,0-7.875-10.048,4.79,4.79,0,0,0-.79-.338,72.762,72.762,0,0,0-7.112-1.591,28.682,28.682,0,0,0-15.679,2.27,12.006,12.006,0,0,0-6.814,13.911c1.105,4.537,4.225,6.955,8.705,7.751.791.14,1.244.482,1.322,1.285M61.5,20.681l2.211,2.9c.194-.294.391-.571.567-.862a19.284,19.284,0,0,0,2.55-12.258A40.988,40.988,0,0,0,65.7,5.428l-.984-2.585c-1.69,5.331-4,10.123-8.5,13.3L61.5,20.681M19.623,6.134a2.182,2.182,0,0,0-.161.345,21.235,21.235,0,0,0,.528,13.547c.47,1.221,1.161,2.357,1.8,3.633l2.13-2.8,5.514-4.669c-4.6-3.206-6.907-8.046-8.473-13.625l-1.047,2.7-.1.248-.19.62M18.208,37.34A32.953,32.953,0,0,1,19.4,29.056a.739.739,0,0,0-.283-.644A18.553,18.553,0,0,0,6.407,26.769c-1.342.094-1.415.183-1.013,1.45A15.77,15.77,0,0,0,16.718,39.312c.486.137.986.226,1.489.339ZM59.5,56.6l1.707,1.521c.291-1.272.593-2.666.93-4.052,1.023-4.215,2.516-8.318,2.829-12.7.323-4.516.146-8.966-1.53-13.233a19.224,19.224,0,0,0-11.81-11.412A22.652,22.652,0,0,0,44,15.164a43.262,43.262,0,0,0,.029,4.385c.192,1.845.718,3.657.88,5.5.324,3.692-1.536,6.17-5,6.864a10.731,10.731,0,0,1-2.11.229,7.915,7.915,0,0,0-7.181,4.176c-.5.83-.995,1.666-1.531,2.473-.7,1.047-1.387,2.1-2.157,3.093a7.486,7.486,0,0,1-4.48,2.714l-1.39.3,3.421,13.213c.788-.683,1.568-1.469,2.459-2.1A17.841,17.841,0,0,1,29.8,54.373c8.805-4.045,22.294-3.5,29.7,2.229M41.688,15.169a.81.81,0,0,0-.272-.02,45.8,45.8,0,0,0-5.4.944c-6.928,2.033-11.85,6.32-14.315,13.217a22.918,22.918,0,0,0-1.224,7.176c-.051,2.005.123,4.016.2,6.089a5.645,5.645,0,0,0,4.75-2.342c1.315-1.861,2.469-3.834,3.755-5.716a9.224,9.224,0,0,1,7.382-4.459,21.461,21.461,0,0,0,3.42-.451,3,3,0,0,0,2.543-2.572,13.274,13.274,0,0,0,.028-3.278c-.213-1.893-.617-3.764-.846-5.655a24.954,24.954,0,0,1-.02-2.934" transform="translate(-2.931)" fill="#040303"/>
      <path id="Trazado_259035" data-name="Trazado 259035" d="M222.87,511.04c1.127,0,2.255-.012,3.382,0a2.533,2.533,0,0,1,.582.146h-3.939a.142.142,0,0,0-.025-.146" transform="translate(-188.218 -430.518)" fill="#1c1c1c"/>
      <path id="Trazado_259036" data-name="Trazado 259036" d="M302.036,512h0Z" transform="translate(-254.911 -431.332)" fill="#6c6c6c"/>
      <path id="Trazado_259037" data-name="Trazado 259037" d="M410.7,160.852a1.288,1.288,0,0,0,1.378,1c1.4.09,2.786.284,4.178.435a15.827,15.827,0,0,1-7.413,8.869,32.136,32.136,0,0,1-4.432,1.7c-.3-2.33-.595-4.662-.923-6.988a16.96,16.96,0,0,0-.475-1.818c1.217-.485,2.408-1,3.628-1.432a1.352,1.352,0,0,0,1.086-1.42l2.973-.343" transform="translate(-339.975 -135.509)" fill="#fdbfb7"/>
      <path id="Trazado_259038" data-name="Trazado 259038" d="M143.236,367.713c-.077-.8-.531-1.144-1.322-1.285-4.48-.8-7.6-3.214-8.705-7.751a12.006,12.006,0,0,1,6.814-13.91A28.682,28.682,0,0,1,155.7,342.5a72.753,72.753,0,0,1,7.112,1.591,4.8,4.8,0,0,1,.79.338c.195.2.382.4.585.587a20.716,20.716,0,0,1,2.63,2.445,13.4,13.4,0,0,1,2.787,10.2,11,11,0,0,1-3.881,7.26,6.123,6.123,0,0,0-.676.8l.007-.006-.348.124a15.559,15.559,0,0,1-5.867.91c-3.676.039-7.353.037-11.029.014-.841-.005-1.358.282-1.527,1.119l-3.049-.162m5.781-12.388a11.135,11.135,0,0,0-.756-1.91c-.441-.707-1.159-.665-1.682-.014a3.574,3.574,0,0,0,0,3.9c.529.659,1.236.705,1.677-.01a11.178,11.178,0,0,0,.76-1.967m9.6.037a11.184,11.184,0,0,0-.763-1.956c-.438-.707-1.157-.654-1.68,0a3.558,3.558,0,0,0,.013,3.9c.531.652,1.236.688,1.68-.028a11.148,11.148,0,0,0,.749-1.923" transform="translate(-112.384 -288.319)" fill="#fdc0b7"/>
      <path id="Trazado_259039" data-name="Trazado 259039" d="M156.453,137.685c-7.411-5.729-20.9-6.274-29.7-2.229A17.823,17.823,0,0,0,123.9,137.1c-.891.631-1.671,1.418-2.459,2.1l-3.421-13.213,1.39-.3a7.486,7.486,0,0,0,4.48-2.714c.77-.992,1.461-2.046,2.157-3.093.536-.807,1.03-1.643,1.531-2.473a7.915,7.915,0,0,1,7.181-4.176,10.73,10.73,0,0,0,2.11-.229c3.466-.694,5.326-3.172,5-6.864-.162-1.846-.688-3.658-.88-5.5a43.306,43.306,0,0,1-.029-4.385,22.652,22.652,0,0,1,7.624,1.563,2.213,2.213,0,0,0,.371.457c1.124.806,2.3,1.545,3.385,2.4a18.944,18.944,0,0,1,6.139,9.129,31.057,31.057,0,0,1,1.172,13.07,49.937,49.937,0,0,1-1.916,9.257c-.534,1.823-.859,3.706-1.277,5.563m-7.238-13.019a1.741,1.741,0,0,0-1.721,1.763,1.769,1.769,0,0,0,1.721,1.7,1.731,1.731,0,0,0,1.747-1.737,1.71,1.71,0,0,0-1.746-1.725m-17.251,1.749a1.732,1.732,0,0,0-3.462-.088,1.732,1.732,0,1,0,3.462.088" transform="translate(-99.883 -81.083)" fill="#e5e5e5"/>
      <path id="Trazado_259040" data-name="Trazado 259040" d="M135.456,96.14a24.95,24.95,0,0,0,.02,2.934c.229,1.892.633,3.763.846,5.655a13.276,13.276,0,0,1-.028,3.278,3,3,0,0,1-2.543,2.572,21.463,21.463,0,0,1-3.42.451,9.224,9.224,0,0,0-7.382,4.459c-1.286,1.882-2.441,3.856-3.755,5.716a5.645,5.645,0,0,1-4.75,2.342c-.077-2.074-.25-4.084-.2-6.089a22.919,22.919,0,0,1,1.224-7.176c2.465-6.9,7.387-11.184,14.315-13.217a45.791,45.791,0,0,1,5.4-.944.809.809,0,0,1,.272.02" transform="translate(-96.699 -80.971)" fill="#595b5d"/>
      <path id="Trazado_259041" data-name="Trazado 259041" d="M24.989,167.562A18.553,18.553,0,0,1,37.7,169.205a.739.739,0,0,1,.283.644,32.96,32.96,0,0,0-1.189,8.284,3.107,3.107,0,0,1-.7-.062,16.456,16.456,0,0,1-8.893-6.221,36.5,36.5,0,0,1-2.208-4.289" transform="translate(-21.514 -140.793)" fill="#fdbfb6"/>
      <path id="Trazado_259042" data-name="Trazado 259042" d="M319.884,146.042c.419-1.856.744-3.74,1.277-5.563a49.94,49.94,0,0,0,1.916-9.257,31.056,31.056,0,0,0-1.172-13.07,18.945,18.945,0,0,0-6.139-9.129c-1.085-.855-2.261-1.594-3.385-2.4a2.214,2.214,0,0,1-.371-.457,19.224,19.224,0,0,1,11.81,11.412c1.675,4.267,1.852,8.717,1.53,13.233-.313,4.381-1.806,8.484-2.829,12.7-.337,1.386-.639,2.78-.93,4.052l-1.707-1.521" transform="translate(-263.314 -89.441)" fill="#cbcbcb"/>
      <path id="Trazado_259043" data-name="Trazado 259043" d="M109.165,18.984l1.047-2.7c1.566,5.579,3.872,10.419,8.473,13.625l-5.514,4.669c-.172-.318-.328-.646-.518-.953A22.736,22.736,0,0,1,109.2,22.6c-.045-.921-.214-1.835-.326-2.753l.19-.62.1-.248" transform="translate(-92.182 -13.718)" fill="#ba7b52"/>
      <path id="Trazado_259044" data-name="Trazado 259044" d="M346.371,35.883l-5.288-4.541c4.5-3.174,6.814-7.966,8.5-13.3l.984,2.585c-.013.549-.016,1.1-.04,1.646a37.264,37.264,0,0,1-.212,3.818,21.6,21.6,0,0,1-2.164,6.979c-.517.977-1.184,1.875-1.783,2.809" transform="translate(-287.806 -15.203)" fill="#ba7c52"/>
      <path id="Trazado_259045" data-name="Trazado 259045" d="M411.878,180.522a32.126,32.126,0,0,0,4.432-1.7,15.828,15.828,0,0,0,7.414-8.869c1.255.082,1.341.185.979,1.347a15.787,15.787,0,0,1-12.538,11.465c-.1.021-.2.028-.287.04Z" transform="translate(-347.446 -143.179)" fill="#fab0a5"/>
      <path id="Trazado_259046" data-name="Trazado 259046" d="M18.427,169.9a36.5,36.5,0,0,0,2.208,4.289,16.456,16.456,0,0,0,8.893,6.221,3.1,3.1,0,0,0,.7.062v2.311c-.5-.113-1-.2-1.489-.339A15.77,15.77,0,0,1,17.413,171.35c-.4-1.268-.329-1.357,1.013-1.45" transform="translate(-14.951 -143.131)" fill="#fbb1a6"/>
      <path id="Trazado_259047" data-name="Trazado 259047" d="M374.647,49.705c.6-.934,1.266-1.832,1.783-2.809a21.6,21.6,0,0,0,2.164-6.979,37.273,37.273,0,0,0,.212-3.818c.025-.548.028-1.1.04-1.646a40.991,40.991,0,0,1,1.129,5.028,19.283,19.283,0,0,1-2.55,12.258c-.176.29-.373.568-.567.862l-2.211-2.9" transform="translate(-316.081 -29.025)" fill="#ac653d"/>
      <path id="Trazado_259048" data-name="Trazado 259048" d="M103.43,38.934c.112.917.281,1.832.326,2.753a22.736,22.736,0,0,0,3.454,11.019c.19.307.346.635.518.953l-2.13,2.8c-.64-1.276-1.33-2.412-1.8-3.633a21.236,21.236,0,0,1-.528-13.547,2.2,2.2,0,0,1,.161-.345" transform="translate(-86.738 -32.8)" fill="#ac643d"/>
      <path id="Trazado_259049" data-name="Trazado 259049" d="M329.466,377.4a6.1,6.1,0,0,1,.676-.8,11,11,0,0,0,3.881-7.26,13.4,13.4,0,0,0-2.787-10.2,20.713,20.713,0,0,0-2.63-2.445c-.2-.187-.391-.391-.585-.587a11.571,11.571,0,0,1,7.875,10.048,10.175,10.175,0,0,1-3.291,9.382,18.2,18.2,0,0,1-3.139,1.858" transform="translate(-276.801 -300.004)" fill="#fab0a5"/>
      <path id="Trazado_259050" data-name="Trazado 259050" d="M335.033,491.31l.348-.125-.348.125" transform="translate(-282.709 -413.796)" fill="#fab0a5"/>
      <path id="Trazado_259051" data-name="Trazado 259051" d="M110.182,33.424l-.1.248.1-.248" transform="translate(-93.199 -28.158)" fill="#ac643d"/>
      <path id="Trazado_259052" data-name="Trazado 259052" d="M219.31,412.318a11.181,11.181,0,0,1-.76,1.968c-.441.716-1.148.669-1.677.01a3.573,3.573,0,0,1,0-3.9c.523-.65,1.24-.692,1.682.014a11.146,11.146,0,0,1,.756,1.91" transform="translate(-182.677 -345.312)" fill="#161515"/>
      <path id="Trazado_259053" data-name="Trazado 259053" d="M280.243,412.341a11.142,11.142,0,0,1-.749,1.923c-.443.716-1.149.679-1.68.028a3.558,3.558,0,0,1-.013-3.9c.523-.658,1.242-.71,1.68,0a11.178,11.178,0,0,1,.763,1.956" transform="translate(-234.008 -345.298)" fill="#161514"/>
      <path id="Trazado_259054" data-name="Trazado 259054" d="M306.834,276.621a1.71,1.71,0,0,1,1.746,1.725,1.731,1.731,0,0,1-1.746,1.737,1.769,1.769,0,0,1-1.72-1.7,1.741,1.741,0,0,1,1.721-1.763" transform="translate(-257.502 -233.038)" fill="#151515"/>
      <path id="Trazado_259055" data-name="Trazado 259055" d="M188.027,278.363a1.732,1.732,0,1,1-3.462-.088,1.732,1.732,0,0,1,3.462.088" transform="translate(-155.947 -233.031)" fill="#151515"/>
    </g>
  </g>
</svg>
