<svg xmlns="http://www.w3.org/2000/svg" width="94.904" height="94.91" viewBox="0 0 94.904 94.91">
  <g id="Grupo_237040" data-name="Grupo 237040" transform="translate(-7.96 -27.898)">
    <g id="Grupo_237041" data-name="Grupo 237041" transform="translate(7.96 27.898)">
      <path id="Trazado_262011" data-name="Trazado 262011" d="M53.716,164.578A24.495,24.495,0,1,1,24.3,133.2V114.137H36.528v18.93l6.19,2.519V121.758H54.955v27.474h6.123V130.941H73.325v18.291h6.122V114.106H91.68v36.77c1.995.75,3.95,1.484,5.9,2.22a10.829,10.829,0,0,1,1.151.458,3.6,3.6,0,0,1,2.129,3.454,3.425,3.425,0,0,1-2.2,3.305c-3.662,1.452-7.364,2.8-11.058,4.172a3.066,3.066,0,0,1-1.036.09q-15.88.006-31.76,0Zm-44.557-6.11a21.346,21.346,0,0,0,42.593-.039H45.784A15.48,15.48,0,0,0,31.63,141.661a14.7,14.7,0,0,0-10.312,3.011c-4.532,3.449-6.422,8.14-6.172,13.8ZM88.569,117.2H82.575v32.247h5.994ZM51.836,144.982V124.838H45.769c0,4.226-.006,8.395.015,12.563a1.059,1.059,0,0,0,.34.709,25.986,25.986,0,0,1,5.712,6.872M27.442,132.526h6.018V117.153H27.442Zm42.763,1.5H64.2v15.222h6.009Zm-9.095,21.308H85.505v-2.938H61.111Zm24.43,3.182h-24.4v2.943h24.4Zm3.136,2.309c2.92-1.1,5.768-2.155,8.6-3.247.221-.085.505-.413.488-.6a1.017,1.017,0,0,0-.5-.7c-.625-.3-1.3-.513-1.951-.757l-6.642-2.485Zm-30.719-8.446h-3.2v9.093h3.2Zm-34.3-15.883c.4.961.69,1.724,1.037,2.461.08.171.372.384.524.356,1.232-.229,2.455-.511,3.668-.774v-3.055l-5.23,1.012m8.379,2.049c1.231.266,2.431.538,3.64.77a.6.6,0,0,0,.508-.247c.362-.792.675-1.607,1.07-2.574l-5.218-1.011ZM10.029,150.112l-1.012,5.224h3.076l.8-4.02-2.865-1.2m40.86.008-2.866,1.2.805,4.022h3.084l-1.023-5.217m-11.981-9.585,3.4,2.3,2.206-2.182L40.09,137.7l-1.182,2.839M49.7,147.286l-2.9-4.3-2.256,2.077,2.31,3.429,2.843-1.2m-33.132-6.741,2.1,2.25,3.352-2.261-1.2-2.85-4.254,2.861m-2.448,2.414-2.893,4.33,2.847,1.186,2.3-3.406-2.251-2.109" transform="translate(-5.96 -86.507)" fill="#010101"/>
      <path id="Trazado_262012" data-name="Trazado 262012" d="M79.17,28.641c-2.244,2.8-4.5,5.6-6.719,8.435a1.124,1.124,0,0,0,.066.96,6.138,6.138,0,0,1-5.638,9.181,6.073,6.073,0,0,1-5.622-7.327c.054-.246.1-.492.169-.8l-5.858-3.908c-3.263,2.989-6.9,3.777-10.916,1.829-3.452-1.677-5.117-5-4.935-9.561l-2.612-.893a7.651,7.651,0,0,1-12.128,1.511c-1.256.8-2.475,1.6-3.732,2.346-.515.306-.347.642-.238,1.046a7.634,7.634,0,1,1-2.5-3.892c.2.161.38.338.635.566,1.271-.8,2.57-1.591,3.815-2.456.183-.127.208-.659.13-.958A7.647,7.647,0,1,1,37.87,20.8a23.388,23.388,0,0,1,.358,2.891l2.482.85a9.385,9.385,0,0,1,6.336-4.673,8.881,8.881,0,0,1,6.191.942c4.166,2.265,5.658,6.612,4.042,11.823l5.862,3.913a6.167,6.167,0,0,1,6.189-1.194.9.9,0,0,0,.752-.291c2.248-2.77,4.469-5.562,6.722-8.379a12.218,12.218,0,0,1-3.419-9.513A11.851,11.851,0,0,1,77.053,9.4,12.238,12.238,0,0,1,96.138,24.379,12.359,12.359,0,0,1,79.17,28.641m6.445-1.307a9.182,9.182,0,1,0-9.2-9.162,9.215,9.215,0,0,0,9.2,9.162M54.973,28.846a6.121,6.121,0,1,0-6.126,6.14,6.142,6.142,0,0,0,6.126-6.14M30.4,27.333a4.59,4.59,0,1,0-4.506-4.72,4.618,4.618,0,0,0,4.506,4.72m-12.168,6.1a4.59,4.59,0,1,0-4.609,4.619,4.612,4.612,0,0,0,4.609-4.619M70.284,41.1a3.06,3.06,0,1,0-3.023,3.074A3.086,3.086,0,0,0,70.284,41.1" transform="translate(-5.983 -5.898)" fill="#040303"/>
      <path id="Trazado_262013" data-name="Trazado 262013" d="M18.5,238.8h5.987c-.25-5.655,1.641-10.346,6.172-13.8A14.7,14.7,0,0,1,40.973,222a15.479,15.479,0,0,1,14.153,16.768h5.968A21.346,21.346,0,0,1,18.5,238.8m21.305-14.371a12.08,12.08,0,0,0-4.586,9.294c-.049,3.663,0,7.328-.029,10.992a2.482,2.482,0,0,1-.407,1.3,6.113,6.113,0,1,0,10.043.016,2.5,2.5,0,0,1-.414-1.3c-.033-3.632.005-7.265-.026-10.9a12.161,12.161,0,0,0-4.581-9.407" transform="translate(-15.303 -166.842)" fill="#e2e2e2"/>
      <rect id="Rectángulo_58574" data-name="Rectángulo 58574" width="5.994" height="32.247" transform="translate(76.615 30.688)" fill="#a3314f"/>
      <path id="Trazado_262014" data-name="Trazado 262014" d="M168.1,176.328a25.981,25.981,0,0,0-5.712-6.872,1.061,1.061,0,0,1-.34-.709c-.02-4.168-.015-8.337-.015-12.563H168.1Z" transform="translate(-122.226 -117.852)" fill="#a3314f"/>
      <rect id="Rectángulo_58575" data-name="Rectángulo 58575" width="6.018" height="15.372" transform="translate(21.482 30.647)" fill="#a3314f"/>
      <rect id="Rectángulo_58576" data-name="Rectángulo 58576" width="6.009" height="15.222" transform="translate(58.237 47.517)" fill="#a3314f"/>
      <rect id="Rectángulo_58577" data-name="Rectángulo 58577" width="24.394" height="2.938" transform="translate(55.151 65.887)" fill="#b3dc7f"/>
      <rect id="Rectángulo_58578" data-name="Rectángulo 58578" width="24.398" height="2.943" transform="translate(55.183 72.007)" fill="#a3314f"/>
      <path id="Trazado_262015" data-name="Trazado 262015" d="M330.267,274.506v-7.792l6.642,2.485c.654.245,1.326.453,1.951.758a1.016,1.016,0,0,1,.5.7c.017.191-.268.519-.488.6-2.835,1.092-5.683,2.152-8.6,3.247" transform="translate(-247.55 -200.19)" fill="#a7afba"/>
      <rect id="Rectángulo_58579" data-name="Rectángulo 58579" width="3.198" height="9.093" transform="translate(48.8 65.87)" fill="#a9b0bb"/>
      <path id="Trazado_262016" data-name="Trazado 262016" d="M75.348,198.928l5.23-1.012v3.055c-1.213.263-2.436.545-3.668.774-.153.028-.444-.185-.525-.356-.347-.737-.639-1.5-1.037-2.461" transform="translate(-57.65 -148.94)" fill="#b0d87c"/>
      <path id="Trazado_262017" data-name="Trazado 262017" d="M108.2,200.972v-3.061l5.218,1.01c-.4.967-.708,1.782-1.07,2.574a.6.6,0,0,1-.508.247c-1.208-.232-2.409-.5-3.64-.77" transform="translate(-82.124 -148.936)" fill="#b0d87c"/>
      <path id="Trazado_262018" data-name="Trazado 262018" d="M18.956,255.271l2.865,1.2-.8,4.02H17.944l1.012-5.224" transform="translate(-14.887 -191.666)" fill="#b0d87c"/>
      <path id="Trazado_262019" data-name="Trazado 262019" d="M173.737,255.3l1.023,5.217h-3.084l-.805-4.022,2.866-1.2" transform="translate(-128.809 -191.689)" fill="#b0d87c"/>
      <path id="Trazado_262020" data-name="Trazado 262020" d="M135.138,209.43l1.182-2.839,4.426,2.953-2.206,2.182-3.4-2.3" transform="translate(-102.19 -155.402)" fill="#afd77c"/>
      <path id="Trazado_262021" data-name="Trazado 262021" d="M162.393,231.629l-2.843,1.2-2.31-3.429,2.256-2.077,2.9,4.3" transform="translate(-118.655 -170.85)" fill="#afd77c"/>
      <path id="Trazado_262022" data-name="Trazado 262022" d="M47.546,209.411l4.254-2.861L53,209.4l-3.352,2.261-2.1-2.25" transform="translate(-36.939 -155.373)" fill="#afd77c"/>
      <path id="Trazado_262023" data-name="Trazado 262023" d="M29.5,227.229l2.251,2.109-2.3,3.406-2.847-1.186,2.893-4.33" transform="translate(-21.34 -170.777)" fill="#afd77c"/>
      <path id="Trazado_262024" data-name="Trazado 262024" d="M291.291,36.3a9.182,9.182,0,1,1,9.163-9.2,9.212,9.212,0,0,1-9.163,9.2m6.1-9.217a6.121,6.121,0,1,0-6.112,6.156,6.138,6.138,0,0,0,6.112-6.156" transform="translate(-211.658 -14.869)" fill="#e2e2e2"/>
      <path id="Trazado_262025" data-name="Trazado 262025" d="M162.283,78.051a6.121,6.121,0,1,1-6.164-6.1,6.141,6.141,0,0,1,6.164,6.1" transform="translate(-113.293 -55.103)" fill="#e2e2e2"/>
      <path id="Trazado_262026" data-name="Trazado 262026" d="M88.525,63.127A4.59,4.59,0,1,1,93.2,58.666a4.614,4.614,0,0,1-4.671,4.461" transform="translate(-64.109 -41.692)" fill="#e2e2e2"/>
      <path id="Trazado_262027" data-name="Trazado 262027" d="M27.173,100.516A4.59,4.59,0,1,1,22.6,95.957a4.615,4.615,0,0,1,4.572,4.559" transform="translate(-14.924 -72.987)" fill="#e2e2e2"/>
      <path id="Trazado_262028" data-name="Trazado 262028" d="M240.187,135a3.06,3.06,0,1,1-3.05-3.046,3.089,3.089,0,0,1,3.05,3.046" transform="translate(-175.887 -99.805)" fill="#e2e2e2"/>
      <path id="Trazado_262029" data-name="Trazado 262029" d="M84.152,231.69a12.159,12.159,0,0,1,4.581,9.407c.032,3.632-.006,7.265.027,10.9a2.5,2.5,0,0,0,.414,1.3,6.112,6.112,0,1,1-10.043-.016,2.482,2.482,0,0,0,.407-1.3c.032-3.664-.019-7.329.029-10.992a12.081,12.081,0,0,1,4.586-9.294m1.335,19.091c0-3.791.081-7.6-.053-11.4a12.39,12.39,0,0,0-1.181-3.326,8.944,8.944,0,0,0-1.632,5.063c-.011,3.024-.005,6.048,0,9.073a5.349,5.349,0,0,0,.066.6,14.762,14.762,0,0,1,1.48-.142,12.027,12.027,0,0,1,1.322.13m-1.38,2.92a3.061,3.061,0,1,0,3.1,3.068,3.077,3.077,0,0,0-3.1-3.068" transform="translate(-59.648 -174.1)" fill="#010202"/>
      <path id="Trazado_262030" data-name="Trazado 262030" d="M306.334,36.026a6.122,6.122,0,1,1-6.18-6.086,6.143,6.143,0,0,1,6.18,6.086M300.213,33a3.06,3.06,0,1,0,3.06,3.108A3.076,3.076,0,0,0,300.213,33" transform="translate(-220.601 -23.808)" fill="#030301"/>
      <path id="Trazado_262031" data-name="Trazado 262031" d="M98.877,263.53a12.094,12.094,0,0,0-1.322-.13,14.839,14.839,0,0,0-1.48.142,5.352,5.352,0,0,1-.066-.6c0-3.024-.01-6.049,0-9.073a8.942,8.942,0,0,1,1.632-5.063,12.4,12.4,0,0,1,1.181,3.326c.134,3.8.053,7.609.053,11.4" transform="translate(-73.038 -186.849)" fill="#a3314f"/>
      <path id="Trazado_262032" data-name="Trazado 262032" d="M93.032,317.988a3.061,3.061,0,1,1-3.02,3.052,3.085,3.085,0,0,1,3.02-3.052" transform="translate(-68.574 -238.387)" fill="#a3314f"/>
    </g>
  </g>
</svg>
