<svg xmlns="http://www.w3.org/2000/svg" width="699.75" height="273.977" viewBox="0 0 699.75 273.977">
  <g id="Grupo_238391" data-name="Grupo 238391" transform="translate(-428.607 -9476.38)">
    <g id="Grupo_167779" data-name="Grupo 167779" transform="translate(102.979 2389.736)">
      <g id="Grupo_167772" data-name="Grupo 167772" transform="translate(390 7086.644)">
        <g id="Grupo_167754" data-name="Grupo 167754" transform="translate(-27)">
          <g id="Grupo_167778" data-name="Grupo 167778">
            <path id="Trazado_259366" data-name="Trazado 259366" d="M173.67,102.9a83.2,83.2,0,1,1-83.2-83.2,83.2,83.2,0,0,1,83.2,83.2" transform="translate(1.442 3.908)" fill="#dbdf9a"/>
            <path id="Trazado_259367" data-name="Trazado 259367" d="M103.959,158.62A83.2,83.2,0,0,1,26.7,44.544a83.195,83.195,0,1,0,141.025,84.3,83.012,83.012,0,0,1-63.767,29.776" transform="translate(1.442 8.836)" fill="#ced371"/>
            <path id="Trazado_259368" data-name="Trazado 259368" d="M60.662,147.443a23.2,23.2,0,1,1-23.2-23.2,23.2,23.2,0,0,1,23.2,23.2" transform="translate(-51.64 -63.834)" fill="#dbdf9a"/>
            <path id="Trazado_259369" data-name="Trazado 259369" d="M56.72,146.883A19.815,19.815,0,1,1,36.9,127.068,19.815,19.815,0,0,1,56.72,146.883Z" transform="translate(-51.08 -63.274)" fill="none" stroke="#12263f" stroke-miterlimit="10" stroke-width="0.75"/>
            <path id="Trazado_259370" data-name="Trazado 259370" d="M193.921,111.6a4.794,4.794,0,0,1-4.794-4.793A97.229,97.229,0,0,0,8.885,56.2,4.793,4.793,0,1,1,.7,51.2a106.815,106.815,0,0,1,198.011,55.6,4.794,4.794,0,0,1-4.794,4.793" transform="translate(0)" fill="#ced371"/>
            <path id="Trazado_259371" data-name="Trazado 259371" d="M166.482,101.888l8.532-14.777a3.15,3.15,0,0,0-2.727-4.724H155.223a3.15,3.15,0,0,0-2.728,4.724l8.532,14.777a3.148,3.148,0,0,0,5.454,0" transform="translate(30.167 16.344)" fill="#ced371"/>
          </g>
        </g>
        <path id="Trazado_268221" data-name="Trazado 268221" d="M10.742-5.811A6.789,6.789,0,0,1,9.448-1.367,4.471,4.471,0,0,1,5.8.2,4.5,4.5,0,0,1,2.129-1.377,6.779,6.779,0,0,1,.83-5.811v-2.6a6.789,6.789,0,0,1,1.294-4.443,4.483,4.483,0,0,1,3.657-1.562,4.484,4.484,0,0,1,3.662,1.572,6.8,6.8,0,0,1,1.3,4.443ZM7.451-8.828a5.071,5.071,0,0,0-.4-2.29,1.338,1.338,0,0,0-1.27-.757,1.307,1.307,0,0,0-1.235.7,4.777,4.777,0,0,0-.415,2.129V-5.41a5.109,5.109,0,0,0,.4,2.329,1.343,1.343,0,0,0,1.27.737,1.325,1.325,0,0,0,1.24-.718,4.878,4.878,0,0,0,.41-2.251ZM19.746,0h-3.3V-10.508L13.2-9.561v-2.5l6.24-2.158h.3Z" transform="translate(-52.681 90.224)" fill="#12263f"/>
        <g id="Grupo_167756" data-name="Grupo 167756">
          <g id="Grupo_167777" data-name="Grupo 167777">
            <path id="Trazado_259372" data-name="Trazado 259372" d="M178.3,155.426a83.2,83.2,0,1,0,83.2-83.2,83.2,83.2,0,0,0-83.2,83.2" transform="translate(35.722 14.328)" fill="#fff4d9"/>
            <path id="Trazado_259373" data-name="Trazado 259373" d="M262.659,247.1a106.152,106.152,0,0,1-91.207-51.2,4.793,4.793,0,0,1,8.181-5,97.229,97.229,0,0,0,180.244-50.6,4.793,4.793,0,1,1,9.587,0A106.925,106.925,0,0,1,262.659,247.1" transform="translate(33.872 26.88)" fill="#ffda7f"/>
            <path id="Trazado_259374" data-name="Trazado 259374" d="M337.231,130.225,345.762,145a3.149,3.149,0,0,1-2.726,4.724H325.972A3.15,3.15,0,0,1,323.245,145l8.532-14.777a3.148,3.148,0,0,1,5.454,0" transform="translate(64.039 25.521)" fill="#ffda7f"/>
            <path id="Trazado_259375" data-name="Trazado 259375" d="M274.993,211.148A83.2,83.2,0,0,1,197.735,97.072a83.195,83.195,0,1,0,141.025,84.3,83.012,83.012,0,0,1-63.767,29.776" transform="translate(35.37 19.257)" fill="#ffda7f"/>
            <path id="Trazado_259376" data-name="Trazado 259376" d="M232.625,90.311a23.2,23.2,0,1,1-23.2-23.2,23.2,23.2,0,0,1,23.2,23.2" transform="translate(-20.603 102.64)" fill="#ffda7f"/>
            <path id="Trazado_259377" data-name="Trazado 259377" d="M228.683,89.751a19.815,19.815,0,1,1-19.815-19.815A19.815,19.815,0,0,1,228.683,89.751Z" transform="translate(-20.043 103.199)" fill="none" stroke="#12263f" stroke-miterlimit="10" stroke-width="0.75"/>
          </g>
        </g>
        <path id="Trazado_268222" data-name="Trazado 268222" d="M10.742-5.811A6.789,6.789,0,0,1,9.448-1.367,4.471,4.471,0,0,1,5.8.2,4.5,4.5,0,0,1,2.129-1.377,6.779,6.779,0,0,1,.83-5.811v-2.6a6.789,6.789,0,0,1,1.294-4.443,4.483,4.483,0,0,1,3.657-1.562,4.484,4.484,0,0,1,3.662,1.572,6.8,6.8,0,0,1,1.3,4.443ZM7.451-8.828a5.071,5.071,0,0,0-.4-2.29,1.338,1.338,0,0,0-1.27-.757,1.307,1.307,0,0,0-1.235.7,4.777,4.777,0,0,0-.415,2.129V-5.41a5.109,5.109,0,0,0,.4,2.329,1.343,1.343,0,0,0,1.27.737,1.325,1.325,0,0,0,1.24-.718,4.878,4.878,0,0,0,.41-2.251ZM22.373,0H12.451V-2.148l4.57-4.8q1.689-1.924,1.689-3.057a2.126,2.126,0,0,0-.4-1.4,1.43,1.43,0,0,0-1.162-.479,1.447,1.447,0,0,0-1.221.64,2.629,2.629,0,0,0-.469,1.6h-3.3a4.67,4.67,0,0,1,.654-2.417A4.588,4.588,0,0,1,14.629-13.8a5.4,5.4,0,0,1,2.6-.625,5.308,5.308,0,0,1,3.55,1.064A3.8,3.8,0,0,1,22.021-10.3a4.439,4.439,0,0,1-.312,1.636A7.173,7.173,0,0,1,20.737-7a24.476,24.476,0,0,1-2.124,2.339L16.777-2.539h5.6Z" transform="translate(177.161 199.67)" fill="#12263f"/>
        <g id="Grupo_167758" data-name="Grupo 167758" transform="translate(20)">
          <g id="Grupo_167776" data-name="Grupo 167776">
            <path id="Trazado_259378" data-name="Trazado 259378" d="M515.61,102.9a83.2,83.2,0,1,1-83.2-83.2,83.2,83.2,0,0,1,83.2,83.2" transform="translate(69.274 3.908)" fill="#e77a97"/>
            <path id="Trazado_259379" data-name="Trazado 259379" d="M535.861,111.6a4.794,4.794,0,0,1-4.794-4.793A97.229,97.229,0,0,0,350.825,56.2a4.793,4.793,0,1,1-8.181-5,106.815,106.815,0,0,1,198.011,55.6,4.794,4.794,0,0,1-4.794,4.793" transform="translate(67.832)" fill="#b55a72"/>
            <path id="Trazado_259380" data-name="Trazado 259380" d="M508.422,101.888l8.531-14.777a3.149,3.149,0,0,0-2.726-4.724H497.163a3.15,3.15,0,0,0-2.727,4.724l8.532,14.777a3.148,3.148,0,0,0,5.454,0" transform="translate(97.999 16.344)" fill="#b55a72"/>
            <path id="Trazado_259381" data-name="Trazado 259381" d="M445.911,158.62A83.2,83.2,0,0,1,368.653,44.544a83.195,83.195,0,1,0,141.025,84.3,83.012,83.012,0,0,1-63.767,29.776" transform="translate(69.276 8.836)" fill="#b55a72"/>
            <path id="Trazado_259382" data-name="Trazado 259382" d="M403.235,147.443a23.2,23.2,0,1,1-23.2-23.2,23.2,23.2,0,0,1,23.2,23.2" transform="translate(11.798 -63.834)" fill="#e77a97"/>
            <path id="Trazado_259383" data-name="Trazado 259383" d="M399.293,146.883a19.815,19.815,0,1,1-19.815-19.815A19.815,19.815,0,0,1,399.293,146.883Z" transform="translate(12.358 -63.274)" fill="none" stroke="#12263f" stroke-miterlimit="10" stroke-width="0.75"/>
          </g>
        </g>
        <path id="Trazado_268223" data-name="Trazado 268223" d="M10.742-5.811A6.789,6.789,0,0,1,9.448-1.367,4.471,4.471,0,0,1,5.8.2,4.5,4.5,0,0,1,2.129-1.377,6.779,6.779,0,0,1,.83-5.811v-2.6a6.789,6.789,0,0,1,1.294-4.443,4.483,4.483,0,0,1,3.657-1.562,4.484,4.484,0,0,1,3.662,1.572,6.8,6.8,0,0,1,1.3,4.443ZM7.451-8.828a5.071,5.071,0,0,0-.4-2.29,1.338,1.338,0,0,0-1.27-.757,1.307,1.307,0,0,0-1.235.7,4.777,4.777,0,0,0-.415,2.129V-5.41a5.109,5.109,0,0,0,.4,2.329,1.343,1.343,0,0,0,1.27.737,1.325,1.325,0,0,0,1.24-.718,4.878,4.878,0,0,0,.41-2.251Zm8.008.342h1.553a1.614,1.614,0,0,0,1.846-1.807,1.562,1.562,0,0,0-.439-1.147,1.666,1.666,0,0,0-1.24-.444,1.784,1.784,0,0,0-1.138.381,1.162,1.162,0,0,0-.483.947H12.266a3.369,3.369,0,0,1,.625-2,4.127,4.127,0,0,1,1.733-1.372,5.926,5.926,0,0,1,2.437-.493,5.823,5.823,0,0,1,3.73,1.084,3.6,3.6,0,0,1,1.357,2.979,3,3,0,0,1-.562,1.733A4,4,0,0,1,19.951-7.3,3.823,3.823,0,0,1,21.729-6.06a3.279,3.279,0,0,1,.645,2.065A3.669,3.669,0,0,1,20.908-.947,6.08,6.08,0,0,1,17.061.2a6.306,6.306,0,0,1-2.593-.532,4.062,4.062,0,0,1-1.812-1.475,3.834,3.834,0,0,1-.615-2.144h3.311a1.482,1.482,0,0,0,.527,1.133,1.862,1.862,0,0,0,1.3.479,1.95,1.95,0,0,0,1.387-.483,1.616,1.616,0,0,0,.518-1.235,1.889,1.889,0,0,0-.537-1.523,2.245,2.245,0,0,0-1.484-.449h-1.6Z" transform="translate(400.415 91.224)" fill="#12263f"/>
      </g>
      <path id="Trazado_268217" data-name="Trazado 268217" d="M32.719,17H30.375L25.813,9.516V17H23.469V5.625h2.344l4.57,7.5v-7.5h2.336Zm1.547-4.3a5.013,5.013,0,0,1,.484-2.242A3.546,3.546,0,0,1,36.145,8.93a4.069,4.069,0,0,1,2.113-.539,3.849,3.849,0,0,1,2.793,1.047,4.2,4.2,0,0,1,1.207,2.844l.016.578a4.418,4.418,0,0,1-1.086,3.121,4.209,4.209,0,0,1-5.832,0,4.5,4.5,0,0,1-1.09-3.187Zm2.258.16a3.16,3.16,0,0,0,.453,1.843,1.628,1.628,0,0,0,2.578.008,3.457,3.457,0,0,0,.461-2.015,3.128,3.128,0,0,0-.461-1.831,1.5,1.5,0,0,0-1.3-.649,1.474,1.474,0,0,0-1.281.646A3.516,3.516,0,0,0,36.523,12.856Zm9.258-4.309.07.945a2.971,2.971,0,0,1,2.43-1.1A2.255,2.255,0,0,1,50.523,9.68a2.9,2.9,0,0,1,2.539-1.289,2.521,2.521,0,0,1,2.047.8,3.681,3.681,0,0,1,.672,2.41V17H53.516V11.609a1.61,1.61,0,0,0-.281-1.051,1.246,1.246,0,0,0-.992-.332,1.409,1.409,0,0,0-1.406.969l.008,5.8H48.586V11.617a1.59,1.59,0,0,0-.289-1.062,1.259,1.259,0,0,0-.984-.328,1.463,1.463,0,0,0-1.391.8V17H43.664V8.547ZM59.9,17H57.633V8.547H59.9ZM57.5,6.359a1.112,1.112,0,0,1,.34-.836,1.465,1.465,0,0,1,1.848,0,1.105,1.105,0,0,1,.344.836,1.108,1.108,0,0,1-.348.844,1.448,1.448,0,0,1-1.836,0A1.108,1.108,0,0,1,57.5,6.359Zm6.336,2.188.07.977a2.951,2.951,0,0,1,2.43-1.133,2.453,2.453,0,0,1,2,.789,3.682,3.682,0,0,1,.672,2.359V17H66.75V11.594a1.465,1.465,0,0,0-.312-1.043,1.4,1.4,0,0,0-1.039-.324,1.553,1.553,0,0,0-1.43.813V17H61.711V8.547ZM75.617,17a2.507,2.507,0,0,1-.227-.758,2.732,2.732,0,0,1-2.133.914,3,3,0,0,1-2.059-.719,2.312,2.312,0,0,1-.816-1.812,2.389,2.389,0,0,1,1-2.062,4.915,4.915,0,0,1,2.879-.727H75.3v-.484a1.393,1.393,0,0,0-.3-.937,1.183,1.183,0,0,0-.949-.352,1.345,1.345,0,0,0-.895.273.929.929,0,0,0-.324.75H70.57a2.268,2.268,0,0,1,.453-1.359,3,3,0,0,1,1.281-.98,4.669,4.669,0,0,1,1.859-.355,3.689,3.689,0,0,1,2.48.785,2.747,2.747,0,0,1,.918,2.207v3.664a4.041,4.041,0,0,0,.336,1.82V17ZM73.75,15.43a1.945,1.945,0,0,0,.922-.223,1.462,1.462,0,0,0,.625-.6V13.156h-.844q-1.7,0-1.8,1.172l-.008.133a.9.9,0,0,0,.3.7A1.153,1.153,0,0,0,73.75,15.43ZM81.68,17H79.414V5H81.68Zm5.75.156A4.15,4.15,0,0,1,84.4,16.016a4.054,4.054,0,0,1-1.168-3.039v-.219a5.106,5.106,0,0,1,.492-2.277,3.612,3.612,0,0,1,1.395-1.547,3.914,3.914,0,0,1,2.059-.543,3.508,3.508,0,0,1,2.73,1.094,4.444,4.444,0,0,1,1,3.1v.922H85.523a2.1,2.1,0,0,0,.66,1.328,2,2,0,0,0,1.395.5,2.437,2.437,0,0,0,2.039-.945l1.109,1.242a3.389,3.389,0,0,1-1.375,1.121A4.511,4.511,0,0,1,87.43,17.156Zm-.258-6.945a1.411,1.411,0,0,0-1.09.455,2.357,2.357,0,0,0-.535,1.3h3.141v-.181a1.681,1.681,0,0,0-.406-1.165A1.456,1.456,0,0,0,87.172,10.211Zm9.594,4.453a.727.727,0,0,0-.41-.652,4.659,4.659,0,0,0-1.316-.426q-3.016-.633-3.016-2.562a2.323,2.323,0,0,1,.934-1.879A3.766,3.766,0,0,1,95.4,8.391a4.053,4.053,0,0,1,2.574.758,2.388,2.388,0,0,1,.965,1.969H96.68a1.092,1.092,0,0,0-.312-.8A1.322,1.322,0,0,0,95.391,10a1.351,1.351,0,0,0-.883.258.814.814,0,0,0-.312.656.7.7,0,0,0,.355.605,3.657,3.657,0,0,0,1.2.4,9.8,9.8,0,0,1,1.422.379,2.336,2.336,0,0,1,1.789,2.273,2.2,2.2,0,0,1-.992,1.871,4.28,4.28,0,0,1-2.562.715,4.47,4.47,0,0,1-1.887-.379,3.166,3.166,0,0,1-1.293-1.039,2.414,2.414,0,0,1-.469-1.426H93.9a1.179,1.179,0,0,0,.445.922,1.766,1.766,0,0,0,1.109.32,1.635,1.635,0,0,0,.98-.246A.766.766,0,0,0,96.766,14.664Z" transform="translate(394.333 7134.644)" fill="#12263f"/>
      <path id="Trazado_268219" data-name="Trazado 268219" d="M25.961,11.57a6.867,6.867,0,0,1-.594,2.945,4.472,4.472,0,0,1-1.7,1.953,5.021,5.021,0,0,1-5.059.008,4.515,4.515,0,0,1-1.719-1.941,6.67,6.67,0,0,1-.617-2.9V11.07a6.831,6.831,0,0,1,.605-2.957A4.508,4.508,0,0,1,18.59,6.152a5.014,5.014,0,0,1,5.055,0,4.508,4.508,0,0,1,1.711,1.961,6.811,6.811,0,0,1,.605,2.949Zm-2.375-.516a4.787,4.787,0,0,0-.641-2.719A2.263,2.263,0,0,0,19.3,8.324a4.732,4.732,0,0,0-.648,2.691v.555a4.847,4.847,0,0,0,.641,2.7,2.243,2.243,0,0,0,3.656.035,4.819,4.819,0,0,0,.641-2.7Zm8.68-.391a6.134,6.134,0,0,0-.812-.062,1.654,1.654,0,0,0-1.68.867V17H27.516V8.547h2.133l.063,1.008a2.092,2.092,0,0,1,1.883-1.164,2.366,2.366,0,0,1,.7.1ZM33,12.711a5.094,5.094,0,0,1,.887-3.148,2.877,2.877,0,0,1,2.426-1.172,2.589,2.589,0,0,1,2.039.922V5h2.266V17H38.578l-.109-.9A2.657,2.657,0,0,1,36.3,17.156,2.869,2.869,0,0,1,33.9,15.98,5.258,5.258,0,0,1,33,12.711Zm2.258.168a3.337,3.337,0,0,0,.414,1.823,1.349,1.349,0,0,0,1.2.634,1.511,1.511,0,0,0,1.477-.884V11.111a1.489,1.489,0,0,0-1.461-.884Q35.258,10.227,35.258,12.879ZM44.75,17H42.484V8.547H44.75Zm-2.4-10.641a1.112,1.112,0,0,1,.34-.836,1.465,1.465,0,0,1,1.848,0,1.105,1.105,0,0,1,.344.836,1.108,1.108,0,0,1-.348.844,1.448,1.448,0,0,1-1.836,0A1.108,1.108,0,0,1,42.352,6.359Zm6.336,2.188.07.977a2.951,2.951,0,0,1,2.43-1.133,2.453,2.453,0,0,1,2,.789,3.682,3.682,0,0,1,.672,2.359V17H51.6V11.594a1.465,1.465,0,0,0-.312-1.043,1.4,1.4,0,0,0-1.039-.324,1.553,1.553,0,0,0-1.43.813V17H46.563V8.547ZM60.469,17a2.507,2.507,0,0,1-.227-.758,2.732,2.732,0,0,1-2.133.914,3,3,0,0,1-2.059-.719,2.312,2.312,0,0,1-.816-1.812,2.389,2.389,0,0,1,1-2.062,4.915,4.915,0,0,1,2.879-.727h1.039v-.484a1.393,1.393,0,0,0-.3-.937,1.183,1.183,0,0,0-.949-.352,1.345,1.345,0,0,0-.895.273.929.929,0,0,0-.324.75H55.422a2.268,2.268,0,0,1,.453-1.359,3,3,0,0,1,1.281-.98,4.669,4.669,0,0,1,1.859-.355,3.689,3.689,0,0,1,2.48.785,2.747,2.747,0,0,1,.918,2.207v3.664a4.041,4.041,0,0,0,.336,1.82V17ZM58.6,15.43a1.945,1.945,0,0,0,.922-.223,1.462,1.462,0,0,0,.625-.6V13.156H59.3q-1.7,0-1.8,1.172l-.008.133a.9.9,0,0,0,.3.7A1.153,1.153,0,0,0,58.6,15.43ZM66.531,17H64.266V5h2.266Zm5.75.156a4.15,4.15,0,0,1-3.027-1.141,4.054,4.054,0,0,1-1.168-3.039v-.219a5.106,5.106,0,0,1,.492-2.277,3.612,3.612,0,0,1,1.395-1.547,3.914,3.914,0,0,1,2.059-.543,3.508,3.508,0,0,1,2.73,1.094,4.444,4.444,0,0,1,1,3.1v.922H70.375a2.1,2.1,0,0,0,.66,1.328,2,2,0,0,0,1.395.5,2.437,2.437,0,0,0,2.039-.945l1.109,1.242A3.389,3.389,0,0,1,74.2,16.754,4.511,4.511,0,0,1,72.281,17.156Zm-.258-6.945a1.411,1.411,0,0,0-1.09.455,2.357,2.357,0,0,0-.535,1.3h3.141v-.181a1.681,1.681,0,0,0-.406-1.165A1.456,1.456,0,0,0,72.023,10.211Zm9.594,4.453a.727.727,0,0,0-.41-.652,4.659,4.659,0,0,0-1.316-.426q-3.016-.633-3.016-2.562a2.323,2.323,0,0,1,.934-1.879,3.766,3.766,0,0,1,2.441-.754,4.053,4.053,0,0,1,2.574.758,2.388,2.388,0,0,1,.965,1.969H81.531a1.092,1.092,0,0,0-.312-.8A1.322,1.322,0,0,0,80.242,10a1.351,1.351,0,0,0-.883.258.814.814,0,0,0-.312.656.7.7,0,0,0,.355.605,3.657,3.657,0,0,0,1.2.4,9.8,9.8,0,0,1,1.422.379,2.336,2.336,0,0,1,1.789,2.273,2.2,2.2,0,0,1-.992,1.871,4.28,4.28,0,0,1-2.562.715,4.47,4.47,0,0,1-1.887-.379,3.166,3.166,0,0,1-1.293-1.039,2.414,2.414,0,0,1-.469-1.426H78.75a1.179,1.179,0,0,0,.445.922,1.766,1.766,0,0,0,1.109.32,1.635,1.635,0,0,0,.98-.246A.766.766,0,0,0,81.617,14.664Z" transform="translate(637.022 7304.644)" fill="#12263f"/>
      <path id="Trazado_268218" data-name="Trazado 268218" d="M36.391,17H34.047L29.484,9.516V17H27.141V5.625h2.344l4.57,7.5v-7.5h2.336Zm6.961-.859a2.831,2.831,0,0,1-2.312,1.016,2.67,2.67,0,0,1-2.074-.781,3.335,3.335,0,0,1-.73-2.289V8.547h2.258v5.467q0,1.322,1.2,1.322a1.63,1.63,0,0,0,1.578-.8V8.547h2.266V17H43.414Zm6.008-7.594.07.945a2.971,2.971,0,0,1,2.43-1.1A2.255,2.255,0,0,1,54.1,9.68a2.9,2.9,0,0,1,2.539-1.289,2.521,2.521,0,0,1,2.047.8,3.681,3.681,0,0,1,.672,2.41V17H57.094V11.609a1.61,1.61,0,0,0-.281-1.051,1.246,1.246,0,0,0-.992-.332,1.409,1.409,0,0,0-1.406.969l.008,5.8H52.164V11.617a1.59,1.59,0,0,0-.289-1.062,1.259,1.259,0,0,0-.984-.328,1.463,1.463,0,0,0-1.391.8V17H47.242V8.547Zm15.625,8.609a4.15,4.15,0,0,1-3.027-1.141,4.054,4.054,0,0,1-1.168-3.039v-.219a5.106,5.106,0,0,1,.492-2.277,3.612,3.612,0,0,1,1.395-1.547,3.914,3.914,0,0,1,2.059-.543,3.508,3.508,0,0,1,2.73,1.094,4.444,4.444,0,0,1,1,3.1v.922H63.078a2.1,2.1,0,0,0,.66,1.328,2,2,0,0,0,1.395.5,2.437,2.437,0,0,0,2.039-.945l1.109,1.242a3.389,3.389,0,0,1-1.375,1.121A4.511,4.511,0,0,1,64.984,17.156Zm-.258-6.945a1.411,1.411,0,0,0-1.09.455,2.357,2.357,0,0,0-.535,1.3h3.141v-.181a1.681,1.681,0,0,0-.406-1.165A1.456,1.456,0,0,0,64.727,10.211ZM64.93,5h2.461L65.227,7.422H63.391Zm9.563,5.664a6.134,6.134,0,0,0-.812-.062,1.654,1.654,0,0,0-1.68.867V17H69.742V8.547h2.133l.063,1.008A2.092,2.092,0,0,1,73.82,8.391a2.366,2.366,0,0,1,.7.1ZM77.961,17H75.7V8.547h2.266Zm-2.4-10.641a1.112,1.112,0,0,1,.34-.836,1.465,1.465,0,0,1,1.848,0,1.105,1.105,0,0,1,.344.836,1.108,1.108,0,0,1-.348.844,1.448,1.448,0,0,1-1.836,0A1.108,1.108,0,0,1,75.563,6.359Zm7.773,8.977a1.481,1.481,0,0,0,1.016-.344,1.2,1.2,0,0,0,.406-.914h2.117a2.9,2.9,0,0,1-.469,1.574,3.093,3.093,0,0,1-1.262,1.109,3.949,3.949,0,0,1-1.77.395A3.67,3.67,0,0,1,80.516,16a4.56,4.56,0,0,1-1.047-3.184v-.148a4.508,4.508,0,0,1,1.039-3.117,3.627,3.627,0,0,1,2.852-1.164,3.555,3.555,0,0,1,2.543.9,3.2,3.2,0,0,1,.973,2.4H84.758a1.551,1.551,0,0,0-.406-1.072,1.51,1.51,0,0,0-2.223.163,3.333,3.333,0,0,0-.4,1.866v.235a3.375,3.375,0,0,0,.4,1.878A1.377,1.377,0,0,0,83.336,15.336ZM93.063,17a2.507,2.507,0,0,1-.227-.758,2.732,2.732,0,0,1-2.133.914,3,3,0,0,1-2.059-.719,2.312,2.312,0,0,1-.816-1.812,2.389,2.389,0,0,1,1-2.062,4.915,4.915,0,0,1,2.879-.727h1.039v-.484a1.393,1.393,0,0,0-.3-.937,1.183,1.183,0,0,0-.949-.352,1.345,1.345,0,0,0-.895.273.929.929,0,0,0-.324.75H88.016a2.268,2.268,0,0,1,.453-1.359,3,3,0,0,1,1.281-.98,4.669,4.669,0,0,1,1.859-.355,3.689,3.689,0,0,1,2.48.785,2.747,2.747,0,0,1,.918,2.207v3.664a4.041,4.041,0,0,0,.336,1.82V17ZM91.2,15.43a1.945,1.945,0,0,0,.922-.223,1.462,1.462,0,0,0,.625-.6V13.156H91.9q-1.7,0-1.8,1.172l-.008.133a.9.9,0,0,0,.3.7A1.153,1.153,0,0,0,91.2,15.43Z" transform="translate(852.022 7136.644)" fill="#12263f"/>
    </g>
    <g id="Grupo_168307" data-name="Grupo 168307" transform="translate(522 9540.336)">
      <g id="Grupo_168308" data-name="Grupo 168308" transform="translate(0 16.97)">
        <path id="Trazado_260844" data-name="Trazado 260844" d="M78.667,46.319V87.344a1.066,1.066,0,0,0-.165.226A3.967,3.967,0,0,1,74.409,90.4q-19.354.007-38.708,0a3.945,3.945,0,0,1-4.22-4.224c-.011-2.3,0-4.608,0-6.912,0-.219-.024-.438-.038-.676h-.914q-11.827,0-23.655,0a6.528,6.528,0,0,1-6.242-3.8c-.235-.463-.42-.952-.628-1.428V22.2A2.665,2.665,0,0,0,.29,21.7,6.518,6.518,0,0,1,6.8,16.976q29.257-.012,58.513.025a7.419,7.419,0,0,1,3.1.7,6.386,6.386,0,0,1,3.7,6.279c-.014,6.118,0,12.236,0,18.353v.89c.988,0,1.879-.014,2.769,0a3.513,3.513,0,0,1,2.807,1.348,12.819,12.819,0,0,1,.99,1.748m-11.86-3.134H69.4a2.283,2.283,0,0,0,.064-.352c0-6.513.02-13.026-.024-19.539a3.821,3.821,0,0,0-4.162-3.666c-.229-.013-.459-.037-.688-.037q-28.808,0-57.616,0c-2.762,0-4.355,1.619-4.355,4.416q0,23.777,0,47.554c0,2.831,1.59,4.413,4.43,4.413q11.792,0,23.584,0h.79V72.031H30.53q-10.448,0-20.9,0c-2.151,0-3.068-.93-3.068-3.093q0-17.9,0-35.8c0-2.1.952-3.063,3.04-3.064q26.426,0,52.853,0c2.088,0,3.1,1.024,3.106,3.122q.007,4.571,0,9.142v.848Zm6.324,2.682c-.255-.011-.51-.032-.765-.032q-18.158,0-36.316,0c-1.623,0-1.95.335-1.95,1.993q0,18.965,0,37.93c0,1.672.355,2.03,2.019,2.03q18.081,0,36.163,0c.281,0,.561-.02.842-.031.178.011.357.03.535.032,2.125.019,2.392-.246,2.392-2.363q0-18.738,0-37.477c0-.256.014-.513-.007-.768a1.307,1.307,0,0,0-1.379-1.337c-.51-.018-1.022.015-1.533.025m-52.12-7.957H62.893V32.742H21.011Zm.018,7.827c.107.045.153.082.2.082,3.352.007,6.7.015,10.057,0a.7.7,0,0,0,.53-.3,4.22,4.22,0,0,1,4.221-2.331c8.65.033,17.3.014,25.951.014h.918V40.63H21.029Zm0,7.889H31.439v-5.11H21.03Zm10.434,2.743H21.03v5.108H31.464Zm-10.433,13H31.437V64.2H21.032ZM9.232,37.894h9.063V32.731H9.232Zm0,7.891h9.058V40.62H9.229Zm-.011,7.867H18.3V48.5H9.219Zm9.094,2.7H9.235V61.5h9.078Zm-9.075,13H18.28V64.2H9.237Z" transform="translate(0 -16.97)" fill="#010202"/>
        <path id="Trazado_260847" data-name="Trazado 260847" d="M260.957,246.753c-.281.011-.561.031-.842.031q-18.081,0-36.163,0c-1.664,0-2.019-.358-2.019-2.03q0-18.965,0-37.93c0-1.659.326-1.993,1.95-1.993q18.158,0,36.316,0c.255,0,.51.021.765.032a14.794,14.794,0,0,1,.3,2.1q.027,18.921,0,37.841a12.416,12.416,0,0,1-.305,1.944m-24.334-23.6c.189-1.977.362-3.858.551-5.738.177-1.756.324-3.516.574-5.262a2.479,2.479,0,0,1,2.414-2.078,2.59,2.59,0,0,1,2.614,1.849c.085.292.1.6.163.9a1.285,1.285,0,0,0,2.55-.318,5.208,5.208,0,0,0-10.334-.612c-.3,2.41-.517,4.831-.768,7.247-.137,1.318-.269,2.637-.408,4.008h-.821c-1.05,0-2.1-.008-3.148,0a1.365,1.365,0,0,0-1.442.92,1.278,1.278,0,0,0,1.323,1.689c1.247.027,2.494.006,3.757.006,0,.271.015.449,0,.623-.413,4.174-.837,8.348-1.24,12.523a2.616,2.616,0,0,1-5.229.113c-.117-.952-.7-1.521-1.458-1.423a1.384,1.384,0,0,0-1.136,1.7,5.228,5.228,0,0,0,10.4.056c.346-3.2.639-6.414.96-9.621.132-1.313.277-2.625.42-3.972h1.008c1.408,0,2.816,0,4.223-.012a1.185,1.185,0,0,0,1.233-.953,1.133,1.133,0,0,0-.539-1.387,2.566,2.566,0,0,0-1.094-.258c-1.481-.028-2.962-.012-4.571-.012m13.464,14.332c.178.165.274.248.364.338,1.486,1.484,2.963,2.977,4.459,4.45a1.334,1.334,0,0,0,1.977.176,1.352,1.352,0,0,0-.128-2.033c-.44-.464-.9-.91-1.355-1.361-1.137-1.131-2.275-2.26-3.479-3.455.663-.64,1.256-1.2,1.835-1.776,1.018-1.009,2.039-2.017,3.039-3.045a1.327,1.327,0,0,0,.118-1.975,1.343,1.343,0,0,0-1.978.138c-.169.156-.328.324-.49.488l-4.328,4.358c-1.512-1.517-2.989-3-4.471-4.484a5.1,5.1,0,0,0-.684-.613,1.256,1.256,0,0,0-1.672.165,1.228,1.228,0,0,0-.115,1.618,4.7,4.7,0,0,0,.612.685c1.481,1.483,2.966,2.961,4.482,4.473-.727.718-1.4,1.38-2.074,2.048-.979.977-1.971,1.941-2.922,2.944a1.258,1.258,0,0,0,.022,1.853,1.306,1.306,0,0,0,1.806-.008c.214-.182.4-.391.6-.591l4.379-4.394" transform="translate(-187.835 -175.968)" fill="#fd9701"/>
        <path id="Trazado_260848" data-name="Trazado 260848" d="M81.221,57.614H79.982v-.848q0-4.571,0-9.142c0-2.1-1.018-3.121-3.106-3.122q-26.427,0-52.853,0c-2.088,0-3.04.965-3.04,3.063q0,17.9,0,35.8c0,2.163.917,3.092,3.068,3.093q10.448,0,20.9,0h.892V90.4h-.79q-11.792,0-23.584,0c-2.84,0-4.43-1.582-4.43-4.413q0-23.777,0-47.554c0-2.8,1.593-4.416,4.355-4.416q28.808,0,57.616,0c.229,0,.459.024.688.037a6.181,6.181,0,0,1,1.593,4.478c-.054,5.875-.02,11.751-.023,17.626,0,.485-.027.969-.041,1.453M64.241,37.966q-7.028,0-14.056,0c-1.073,0-1.648.456-1.662,1.277-.014.838.606,1.333,1.693,1.349.077,0,.154,0,.23,0H78.021a4.729,4.729,0,0,0,.69-.022,1.3,1.3,0,0,0-.106-2.6c-.23-.015-.461-.008-.691-.008H64.241m-22.3,0v0c-.818,0-1.636-.016-2.453,0-.9.022-1.42.486-1.446,1.246a1.272,1.272,0,0,0,1.341,1.359q2.567.064,5.135,0a1.3,1.3,0,1,0-.049-2.6c-.842-.026-1.686-.006-2.529-.006M24.866,40.635a13.535,13.535,0,0,0,1.663-.143,1.145,1.145,0,0,0,.955-1.351,1.132,1.132,0,0,0-1.126-1.136c-.966-.049-1.937-.046-2.9,0a1.164,1.164,0,0,0-1.149,1.206,1.145,1.145,0,0,0,.96,1.284,15.416,15.416,0,0,0,1.6.144m7.918-2.651v.006c-.484,0-.971-.034-1.451.008a1.174,1.174,0,0,0-1.15,1.2,1.085,1.085,0,0,0,.943,1.277,19.371,19.371,0,0,0,3.262.007,1.1,1.1,0,0,0,.961-1.332,1.176,1.176,0,0,0-1.19-1.16c-.456-.035-.917-.007-1.375-.007" transform="translate(-14.415 -31.398)" fill="#ccd5d9"/>
        <rect id="Rectángulo_53745" data-name="Rectángulo 53745" width="41.883" height="5.169" transform="translate(21.011 15.773)" fill="#f3f9ff"/>
        <path id="Trazado_260849" data-name="Trazado 260849" d="M136.864,176.07v-5.108h41.877v2.578h-.918c-8.65,0-17.3.018-25.951-.014a4.22,4.22,0,0,0-4.221,2.331.7.7,0,0,1-.53.3c-3.352.014-6.7.005-10.057,0-.046,0-.092-.036-.2-.082" transform="translate(-115.835 -147.302)" fill="#f3f9ff"/>
        <path id="Trazado_260850" data-name="Trazado 260850" d="M475.915,246.772a12.434,12.434,0,0,0,.305-1.944q.027-18.921,0-37.841a14.772,14.772,0,0,0-.3-2.1c.511-.01,1.023-.043,1.533-.025a1.307,1.307,0,0,1,1.379,1.337c.021.254.007.512.007.768q0,18.738,0,37.477c0,2.117-.267,2.382-2.392,2.363-.178,0-.357-.021-.535-.032" transform="translate(-402.792 -175.987)" fill="#fd5622"/>
        <path id="Trazado_260851" data-name="Trazado 260851" d="M426.383,57.8c.014-.484.041-.969.041-1.453,0-5.875-.032-11.751.022-17.626a6.181,6.181,0,0,0-1.593-4.478,3.821,3.821,0,0,1,4.162,3.666c.044,6.513.022,13.026.024,19.539a2.289,2.289,0,0,1-.064.352Z" transform="translate(-359.577 -31.583)" fill="#617d8b"/>
        <rect id="Rectángulo_53746" data-name="Rectángulo 53746" width="10.409" height="5.11" transform="translate(21.03 31.547)" fill="#f3f9ff"/>
        <rect id="Rectángulo_53747" data-name="Rectángulo 53747" width="10.434" height="5.108" transform="translate(21.03 39.399)" fill="#f3f9ff"/>
        <rect id="Rectángulo_53748" data-name="Rectángulo 53748" width="10.405" height="5.167" transform="translate(21.032 47.23)" fill="#f3f9ff"/>
        <rect id="Rectángulo_53749" data-name="Rectángulo 53749" width="9.063" height="5.162" transform="translate(9.232 15.762)" fill="#f3f9ff"/>
        <rect id="Rectángulo_53750" data-name="Rectángulo 53750" width="9.058" height="5.165" transform="translate(9.229 23.65)" fill="#f3f9ff"/>
        <rect id="Rectángulo_53751" data-name="Rectángulo 53751" width="9.08" height="5.147" transform="translate(9.219 31.535)" fill="#f3f9ff"/>
        <rect id="Rectángulo_53752" data-name="Rectángulo 53752" width="9.078" height="5.149" transform="translate(9.235 39.379)" fill="#f3f9ff"/>
        <rect id="Rectángulo_53753" data-name="Rectángulo 53753" width="9.043" height="5.149" transform="translate(9.237 47.231)" fill="#f3f9ff"/>
        <path id="Trazado_260852" data-name="Trazado 260852" d="M251.134,238.252c1.608,0,3.09-.016,4.571.012a2.564,2.564,0,0,1,1.094.258,1.134,1.134,0,0,1,.539,1.388,1.185,1.185,0,0,1-1.233.953c-1.408.016-2.815.01-4.223.012h-1.008c-.143,1.347-.288,2.659-.42,3.972-.321,3.207-.614,6.417-.96,9.621a5.228,5.228,0,0,1-10.4-.056,1.384,1.384,0,0,1,1.136-1.7c.757-.1,1.341.472,1.458,1.423a2.616,2.616,0,0,0,5.229-.113c.4-4.175.827-8.349,1.24-12.523.017-.174,0-.352,0-.624-1.263,0-2.511.02-3.757-.006a1.278,1.278,0,0,1-1.323-1.689,1.366,1.366,0,0,1,1.442-.92c1.049-.012,2.1,0,3.148,0h.821c.139-1.371.271-2.689.408-4.008.251-2.416.464-4.838.768-7.247a5.208,5.208,0,0,1,10.334.612,1.285,1.285,0,1,1-2.55.318c-.066-.3-.078-.611-.163-.9a2.59,2.59,0,0,0-2.614-1.849,2.479,2.479,0,0,0-2.414,2.078c-.25,1.746-.4,3.506-.574,5.262-.189,1.879-.362,3.76-.551,5.738" transform="translate(-202.345 -191.063)" fill="#040200"/>
        <path id="Trazado_260853" data-name="Trazado 260853" d="M365.471,367.5l-4.379,4.394c-.2.2-.39.408-.6.591a1.306,1.306,0,0,1-1.806.008,1.258,1.258,0,0,1-.022-1.853c.951-1,1.943-1.968,2.922-2.944.67-.669,1.347-1.331,2.074-2.048-1.516-1.512-3-2.991-4.482-4.473a4.7,4.7,0,0,1-.612-.685,1.228,1.228,0,0,1,.115-1.618,1.256,1.256,0,0,1,1.672-.165,5.1,5.1,0,0,1,.684.613c1.482,1.481,2.96,2.967,4.471,4.484l4.328-4.358c.162-.163.321-.331.49-.488a1.343,1.343,0,0,1,1.978-.138,1.327,1.327,0,0,1-.118,1.975c-1,1.028-2.02,2.035-3.039,3.045-.58.575-1.173,1.136-1.835,1.776,1.2,1.2,2.342,2.324,3.479,3.455.454.451.915.9,1.355,1.361a1.352,1.352,0,0,1,.128,2.033,1.334,1.334,0,0,1-1.977-.176c-1.5-1.473-2.974-2.966-4.459-4.45-.09-.09-.186-.173-.364-.338" transform="translate(-303.219 -305.984)" fill="#050300"/>
        <path id="Trazado_260854" data-name="Trazado 260854" d="M237.709,59.712h13.672c.23,0,.462-.007.691.008a1.3,1.3,0,0,1,.106,2.6,4.709,4.709,0,0,1-.69.023H223.914c-.077,0-.154,0-.23,0-1.086-.017-1.707-.512-1.692-1.349.014-.821.589-1.276,1.662-1.277q7.028-.007,14.056,0" transform="translate(-187.882 -53.144)" fill="#030303"/>
        <path id="Trazado_260855" data-name="Trazado 260855" d="M157.7,59.7c.843,0,1.687-.02,2.53.006a1.3,1.3,0,1,1,.049,2.6q-2.567.065-5.135,0a1.272,1.272,0,0,1-1.342-1.359c.026-.761.545-1.224,1.446-1.246.817-.02,1.635,0,2.453,0v0" transform="translate(-130.169 -53.123)" fill="#040404"/>
        <path id="Trazado_260856" data-name="Trazado 260856" d="M53.9,62.406a15.335,15.335,0,0,1-1.6-.144,1.145,1.145,0,0,1-.96-1.283,1.164,1.164,0,0,1,1.149-1.206c.966-.044,1.938-.046,2.9,0a1.132,1.132,0,0,1,1.126,1.136,1.145,1.145,0,0,1-.955,1.352,13.534,13.534,0,0,1-1.663.142" transform="translate(-43.45 -53.169)" fill="#040404"/>
        <path id="Trazado_260857" data-name="Trazado 260857" d="M105.211,59.779c.458,0,.919-.028,1.375.007a1.176,1.176,0,0,1,1.19,1.16,1.1,1.1,0,0,1-.961,1.332,19.371,19.371,0,0,1-3.262-.007,1.085,1.085,0,0,1-.943-1.277,1.174,1.174,0,0,1,1.15-1.2c.48-.042.967-.008,1.451-.008v-.006" transform="translate(-86.842 -53.192)" fill="#040404"/>
      </g>
    </g>
    <g id="Grupo_168310" data-name="Grupo 168310" transform="translate(756 9609.748)">
      <g id="Grupo_168311" data-name="Grupo 168311" transform="translate(0 1.053)">
        <path id="Trazado_260858" data-name="Trazado 260858" d="M61.11,67.982h-.262a1.037,1.037,0,0,0-.328-.123c-1.161,0-2.322,0-3.482.007-.487-.118-.617-.5-.68-.927.184-.8.371-.947,1.177-.965.4-.009.809-.029,1.214-.044.565.015,1.13.053,1.694.042a4.423,4.423,0,0,0,4.593-4.692q0-19,0-37.994c0-.208-.021-.416-.031-.613H60.841c-.238-.015-.476-.042-.713-.042q-28.713,0-57.425,0H1.988c-.011.2-.024.329-.024.457q0,19.192.009,38.384a4.9,4.9,0,0,0,.236,1.472,4.433,4.433,0,0,0,4.6,3.032q11.871,0,23.742,0H50.634c.974,0,1.141.124,1.344.962,0,.556-.386.818-.813,1.045h-.131a5.125,5.125,0,0,0-.8-.124q-21.812-.009-43.624,0a2.892,2.892,0,0,0-.593.124H5.627a1.064,1.064,0,0,0-.26-.135A6.33,6.33,0,0,1,.2,63.119a1.992,1.992,0,0,0-.2-.371V11.464c.04-.045.1-.083.118-.135,1.015-3.513,3.167-5.142,6.8-5.142h2.95c.014-.221.025-.368.031-.516a14.748,14.748,0,0,1,.117-2.339,3.064,3.064,0,0,1,3.433-2.259A2.976,2.976,0,0,1,16.369,4c.025.709,0,1.42,0,2.185,1.629,0,3.171.023,4.711-.01.727-.016,1.168.243,1.295.973-.254.848-.446,1-1.347,1-1.133.006-2.267,0-3.4,0H16.373c0,1.149.027,2.193-.007,3.234a2.789,2.789,0,0,1-1.706,2.575,3.239,3.239,0,0,1-4.767-2.9c.017-.949,0-1.9,0-2.906-1.2,0-2.305-.009-3.412,0A4.374,4.374,0,0,0,1.965,12.7c-.008,2.463,0,4.925,0,7.388,0,.185.023.371.037.575h.65q28.772,0,57.544,0c.217,0,.433-.023.65-.035h4.171c0-2.875.089-5.7-.029-8.524a4.238,4.238,0,0,0-4.15-3.936c-.737-.029-1.478.011-2.216.02H57.077c0,1.148.035,2.236-.01,3.321A2.7,2.7,0,0,1,55.5,13.9c-2.079,1.062-5.012-.071-4.889-2.9.041-.929.006-1.861.006-2.848h-.851q-10.79,0-21.58,0c-.982,0-1.208-.169-1.39-1,.2-.834.368-.96,1.343-.96H50.628c0-.806-.027-1.542.006-2.275a2.786,2.786,0,0,1,1.689-2.519C54.2.488,57.182,1.37,57.1,4.338c-.016.6,0,1.2,0,1.849,1.159,0,2.223,0,3.289,0A6.348,6.348,0,0,1,67,12.819q.008,4.381,0,8.763,0,19.879,0,39.758a6.366,6.366,0,0,1-5.042,6.442c-.282.065-.563.134-.845.2M14.417,7.736c0-1.155.01-2.309,0-3.464A1.18,1.18,0,0,0,13.2,2.962,1.206,1.206,0,0,0,11.87,4.245q-.025,3.431,0,6.862a1.159,1.159,0,0,0,1.25,1.276,1.209,1.209,0,0,0,1.293-1.313c.014-1.111,0-2.222,0-3.333m38.163-.066c0,1.133-.01,2.266,0,3.4A1.174,1.174,0,0,0,53.8,12.382a1.2,1.2,0,0,0,1.33-1.275q.028-3.431,0-6.862a1.17,1.17,0,0,0-1.246-1.283,1.214,1.214,0,0,0-1.3,1.311c-.014,1.133,0,2.266,0,3.4" transform="translate(0 -1.053)" fill="#090808"/>
        <path id="Trazado_260861" data-name="Trazado 260861" d="M34.441,383.393a2.9,2.9,0,0,1,.593-.124q21.812-.009,43.624,0a5.128,5.128,0,0,1,.8.124Z" transform="translate(-28.422 -316.464)" fill="#6a6a6a"/>
        <path id="Trazado_260863" data-name="Trazado 260863" d="M326.371,383.413a.172.172,0,0,0-.015-.115c1.161,0,2.321-.012,3.482-.007a1.034,1.034,0,0,1,.328.123Z" transform="translate(-269.318 -316.485)" fill="#6d6d6d"/>
        <path id="Trazado_260864" data-name="Trazado 260864" d="M65.628,168.813l-4.38,0c-.2-.838-.37-.961-1.344-.962H39.825q-11.871,0-23.742,0a4.433,4.433,0,0,1-4.6-3.032,4.9,4.9,0,0,1-.236-1.472q-.019-19.192-.009-38.384c0-.128.013-.256.024-.457h.714q28.713,0,57.425,0c.238,0,.476.027.714.042,0,.712.027,1.425-.006,2.136a2.193,2.193,0,0,1-.265.663A4.874,4.874,0,0,0,67,126.336c-5.186-.006-10.373-.05-15.558.018a4.5,4.5,0,0,0-4.357,5.5,4.554,4.554,0,0,0,4.534,3.591c4.925.013,9.849-.013,14.773.016a5.507,5.507,0,0,0,3.482-1.055,1.658,1.658,0,0,1,.233.551c.019.923,0,1.846-.007,2.769a5.634,5.634,0,0,0-3.874-1.245q-22.791.036-45.583.015c-.916,0-1.832-.018-2.747.006a4.543,4.543,0,0,0-4.205,5.823,4.605,4.605,0,0,0,4.777,3.285q23.9,0,47.806.01a5.7,5.7,0,0,0,3.562-1.023,2.33,2.33,0,0,1,.27.731c.015,5.785.033,11.571-.008,17.356a5.627,5.627,0,0,1-.633,3.144c-.444.684-.962,1.32-1.447,1.977-.4.015-.809.035-1.214.044-.805.019-.993.17-1.177.965M25.784,146.653c-2.442,0-4.883-.006-7.325.005a6.49,6.49,0,0,0-1.427.12,4.536,4.536,0,0,0,1.008,8.96c1.962.018,3.924,0,5.886,0,3.248,0,6.5.029,9.745-.016a4.537,4.537,0,0,0-.366-9.067c-2.507-.024-5.014-.005-7.521-.006M20.411,162.34v0c.5,0,1,.026,1.5-.007a.949.949,0,0,0,.974-1,.93.93,0,0,0-.968-.938c-.978-.03-1.958-.028-2.937,0a.959.959,0,0,0-1.013.968.977.977,0,0,0,1.008.981c.477.027.957.005,1.436.005m11.125,0v0c.479,0,.959.026,1.435-.006a.954.954,0,0,0,.966-1.013.925.925,0,0,0-.98-.931c-.979-.019-1.958-.026-2.937,0a.937.937,0,0,0-1,.977.955.955,0,0,0,1.011.971c.5.028,1,.006,1.5.006m33.571-1.957c-.5,0-1-.025-1.5.006a.936.936,0,0,0-.952.953.919.919,0,0,0,.924.979c1.021.038,2.045.037,3.066,0a.937.937,0,0,0,.928-.983.955.955,0,0,0-.964-.948c-.5-.03-1-.006-1.5-.007M42.684,162.34v0c.5,0,1,.027,1.5-.007a.93.93,0,0,0,.954-1.015.905.905,0,0,0-.972-.927c-.978-.024-1.958-.028-2.936,0a.925.925,0,0,0-.991.979.954.954,0,0,0,1.01.969c.477.026.957.005,1.435.005M53.9,160.384c-.5,0-1-.023-1.5.006a.979.979,0,0,0-.97.949.964.964,0,0,0,.936.984c1.021.035,2.046.036,3.067,0a.956.956,0,0,0,.935-.982.972.972,0,0,0-.966-.951c-.5-.03-1-.006-1.5-.006m0-10.159H52.526c-.022,0-.044,0-.065,0a1,1,0,0,0-1.032.961.984.984,0,0,0,1,.994q1.469.037,2.94,0a.976.976,0,1,0-.035-1.951c-.479-.016-.958,0-1.437,0m-33.467-20.3c-.5,0-1-.019-1.5.005a.93.93,0,0,0-.958.944.894.894,0,0,0,.857.977c1.063.052,2.132.05,3.2,0a.965.965,0,0,0-.092-1.924c-.5-.019-1,0-1.5,0m11.053,0c-.5,0-1-.014-1.5,0a.965.965,0,0,0-.107,1.923c1.063.051,2.132.05,3.2,0a.965.965,0,0,0-.085-1.925c-.5-.017-1,0-1.5,0m11.229,0v0c-.5,0-1-.018-1.5,0a.914.914,0,0,0-.972.923.871.871,0,0,0,.828.993,30.3,30.3,0,0,0,3.257,0,.855.855,0,0,0,.808-1,.885.885,0,0,0-.919-.9c-.5-.026-1-.006-1.5-.006m22.372,20.3c-.479,0-.958-.014-1.436,0a.96.96,0,0,0-.995.912.949.949,0,0,0,.941,1.034c1,.031,2,.029,3,0a.973.973,0,1,0-.011-1.947c-.5-.02-1,0-1.5,0m-22.392,0c-.5,0-1-.018-1.5,0a.971.971,0,0,0-.041,1.941q1.531.05,3.065,0a.971.971,0,0,0-.024-1.941c-.5-.024-1,0-1.5-.005" transform="translate(-9.27 -102.927)" fill="#dee4f0"/>
        <path id="Trazado_260865" data-name="Trazado 260865" d="M31.639,35.925l4.416,0c.182.834.408,1,1.39,1q10.79,0,21.58,0h.851c0,.987.034,1.92-.006,2.848-.124,2.832,2.809,3.965,4.889,2.9a2.7,2.7,0,0,0,1.569-2.395c.045-1.085.01-2.174.01-3.321h1.545A6.1,6.1,0,0,1,70.1,42.081c.019,2.44,0,4.881,0,7.321-.217.012-.433.035-.65.035q-28.772,0-57.544,0h-.65c-.014-.2-.036-.39-.037-.575,0-2.463-.008-4.925,0-7.387a4.374,4.374,0,0,1,4.518-4.547c1.107-.011,2.214,0,3.412,0,0,1.007.014,1.957,0,2.906a3.239,3.239,0,0,0,4.767,2.9,2.789,2.789,0,0,0,1.706-2.575c.034-1.042.007-2.085.007-3.234h1.259c1.134,0,2.267,0,3.4,0,.9,0,1.093-.152,1.347-1" transform="translate(-9.26 -29.829)" fill="#e77a97"/>
        <path id="Trazado_260866" data-name="Trazado 260866" d="M336.141,168.011c.485-.657,1-1.293,1.447-1.977a5.628,5.628,0,0,0,.633-3.144c.041-5.785.023-11.571.008-17.356a2.328,2.328,0,0,0-.27-.731,10.976,10.976,0,0,0,1.414-2.205,4.457,4.457,0,0,0-1.15-4.666c.006-.923.025-1.846.007-2.769a1.659,1.659,0,0,0-.233-.551,9.832,9.832,0,0,0,1.27-1.86,4.486,4.486,0,0,0-1.3-5.2,2.184,2.184,0,0,0,.265-.663c.033-.71.008-1.424.006-2.136H342.4c.01.2.031.405.031.613q0,19,0,37.994a4.423,4.423,0,0,1-4.593,4.692c-.564.011-1.129-.027-1.694-.042" transform="translate(-277.393 -103.135)" fill="#b0c0d2"/>
        <path id="Trazado_260867" data-name="Trazado 260867" d="M337.644,54.166c0-2.44.015-4.881,0-7.321a6.105,6.105,0,0,0-2.219-5.119c.739-.009,1.479-.049,2.216-.02a4.237,4.237,0,0,1,4.15,3.936c.118,2.82.029,5.649.029,8.524Z" transform="translate(-276.799 -34.592)" fill="#b55a72"/>
        <path id="Trazado_260868" data-name="Trazado 260868" d="M70.406,16.746c0,1.111.011,2.222,0,3.333a1.209,1.209,0,0,1-1.293,1.313,1.159,1.159,0,0,1-1.25-1.275q-.025-3.431,0-6.863a1.206,1.206,0,0,1,1.325-1.283,1.18,1.18,0,0,1,1.219,1.31c.013,1.155,0,2.309,0,3.464" transform="translate(-55.989 -10.063)" fill="#727997"/>
        <path id="Trazado_260869" data-name="Trazado 260869" d="M300.836,16.68c0-1.133-.01-2.266,0-3.4a1.214,1.214,0,0,1,1.3-1.311,1.17,1.17,0,0,1,1.246,1.283q.025,3.431,0,6.862a1.2,1.2,0,0,1-1.33,1.275,1.174,1.174,0,0,1-1.213-1.313c-.013-1.133,0-2.266,0-3.4" transform="translate(-248.255 -10.063)" fill="#727997"/>
        <path id="Trazado_260870" data-name="Trazado 260870" d="M80.815,194.275a4.457,4.457,0,0,1,1.151,4.666,10.974,10.974,0,0,1-1.414,2.205,5.7,5.7,0,0,1-3.561,1.023q-23.9-.021-47.806-.01a4.605,4.605,0,0,1-4.777-3.285,4.543,4.543,0,0,1,4.205-5.823c.915-.025,1.831-.007,2.747-.007q22.791,0,45.583-.015a5.634,5.634,0,0,1,3.874,1.245m-27.618.732H29.262c-.218,0-.437-.008-.654.005a2.581,2.581,0,0,0-2.366,3.112,2.622,2.622,0,0,0,2.847,2.072q24.1,0,48.2,0a4.736,4.736,0,0,0,.973-.09,2.525,2.525,0,0,0,1.943-2.128,2.577,2.577,0,0,0-2.743-2.967q-12.131,0-24.262,0" transform="translate(-19.985 -159.478)" fill="#090909"/>
        <path id="Trazado_260871" data-name="Trazado 260871" d="M36.416,251.216c2.507,0,5.014-.019,7.521.005a4.537,4.537,0,0,1,.366,9.067c-3.248.045-6.5.015-9.745.016-1.962,0-3.924.014-5.886,0a4.536,4.536,0,0,1-1.008-8.96,6.5,6.5,0,0,1,1.427-.12c2.442-.011,4.883-.005,7.325-.005m-.093,7.125c2.572,0,5.144.006,7.716,0a2.532,2.532,0,0,0,2.449-1.623,2.565,2.565,0,0,0-2.519-3.526c-5.057-.019-10.114-.009-15.171,0a3.1,3.1,0,0,0-.9.123,2.567,2.567,0,0,0-1.791,2.716,2.537,2.537,0,0,0,2.5,2.306c2.572.02,5.144.006,7.716.008" transform="translate(-19.903 -207.489)" fill="#0a0a09"/>
        <path id="Trazado_260872" data-name="Trazado 260872" d="M238.658,135.913a4.486,4.486,0,0,1,1.3,5.2,9.821,9.821,0,0,1-1.27,1.86,5.507,5.507,0,0,1-3.482,1.055c-4.924-.029-9.849,0-14.773-.016a4.554,4.554,0,0,1-4.534-3.591,4.5,4.5,0,0,1,4.357-5.5c5.185-.068,10.372-.024,15.558-.018a4.874,4.874,0,0,1,2.841,1.008m-10.664,6.139v0c2.507,0,5.014,0,7.521,0a2.6,2.6,0,1,0-.016-5.188q-7.456-.006-14.912.005a3.576,3.576,0,0,0-1.091.159,2.578,2.578,0,0,0,.845,5.017c2.551.02,5.1.006,7.652.006" transform="translate(-178.088 -111.496)" fill="#090909"/>
        <path id="Trazado_260873" data-name="Trazado 260873" d="M52.206,331.687c-.479,0-.959.022-1.436-.006a.977.977,0,0,1-1.008-.981.959.959,0,0,1,1.013-.968c.978-.025,1.958-.026,2.937,0a.93.93,0,0,1,.968.938.95.95,0,0,1-.974,1c-.5.033-1,.007-1.5.007Z" transform="translate(-41.066 -272.273)" fill="#0d0e0e"/>
        <path id="Trazado_260874" data-name="Trazado 260874" d="M115.538,331.7c-.5,0-1,.022-1.5-.006a.955.955,0,0,1-1.01-.971.937.937,0,0,1,1-.977c.978-.027,1.958-.02,2.937,0a.925.925,0,0,1,.98.931.953.953,0,0,1-.966,1.013c-.476.032-.957.007-1.435.007v0" transform="translate(-93.273 -272.284)" fill="#0d0e0e"/>
        <path id="Trazado_260875" data-name="Trazado 260875" d="M307.9,329.76c.5,0,1-.023,1.5.007a.955.955,0,0,1,.964.948.937.937,0,0,1-.927.983c-1.021.037-2.045.038-3.066,0a.918.918,0,0,1-.923-.979.936.936,0,0,1,.952-.953c.5-.031,1-.006,1.5-.006" transform="translate(-252.06 -272.303)" fill="#0d0e0e"/>
        <path id="Trazado_260876" data-name="Trazado 260876" d="M179.639,331.692c-.479,0-.958.021-1.435-.005a.954.954,0,0,1-1.01-.969.925.925,0,0,1,.991-.979c.978-.028,1.957-.024,2.936,0a.906.906,0,0,1,.972.927.93.93,0,0,1-.954,1.015c-.5.034-1,.007-1.5.007v0" transform="translate(-146.225 -272.279)" fill="#0c0d0d"/>
        <path id="Trazado_260877" data-name="Trazado 260877" d="M243.691,329.769c.5,0,1-.024,1.5.006a.971.971,0,0,1,.966.951.956.956,0,0,1-.935.982c-1.021.036-2.046.036-3.067,0a.965.965,0,0,1-.936-.984.979.979,0,0,1,.971-.95c.5-.03,1-.006,1.5-.006" transform="translate(-199.061 -272.311)" fill="#0c0d0d"/>
        <path id="Trazado_260878" data-name="Trazado 260878" d="M243.69,271.663c.479,0,.959-.012,1.438,0a.976.976,0,1,1,.035,1.951q-1.469.037-2.94,0a.984.984,0,0,1-1-.994,1,1,0,0,1,1.032-.96c.022,0,.044,0,.065,0h1.372" transform="translate(-199.062 -224.364)" fill="#0a0a0b"/>
        <path id="Trazado_260879" data-name="Trazado 260879" d="M52.25,155.488c.5,0,1-.015,1.5,0a.965.965,0,0,1,.092,1.924c-1.063.049-2.132.05-3.2,0a.9.9,0,0,1-.857-.977.93.93,0,0,1,.958-.944c.5-.025,1-.005,1.5-.005" transform="translate(-41.089 -128.491)" fill="#0c0c0c"/>
        <path id="Trazado_260880" data-name="Trazado 260880" d="M115.484,155.5c.5,0,1-.013,1.5,0a.965.965,0,0,1,.085,1.925c-1.063.046-2.132.048-3.2,0a.965.965,0,0,1,.107-1.923c.5-.017,1,0,1.5,0" transform="translate(-93.269 -128.501)" fill="#0c0c0c"/>
        <path id="Trazado_260881" data-name="Trazado 260881" d="M179.684,155.488c.5,0,1-.021,1.5.006a.885.885,0,0,1,.919.9.855.855,0,0,1-.808,1,30.348,30.348,0,0,1-3.257,0,.871.871,0,0,1-.828-.993.913.913,0,0,1,.972-.923c.5-.023,1,0,1.5,0v0" transform="translate(-146.24 -128.49)" fill="#0b0c0c"/>
        <path id="Trazado_260882" data-name="Trazado 260882" d="M307.881,271.665c.5,0,1-.016,1.5,0a.973.973,0,1,1,.011,1.947c-1,.028-2,.03-3,0a.95.95,0,0,1-.941-1.034.96.96,0,0,1,.995-.912c.478-.018.957,0,1.436,0" transform="translate(-252.065 -224.365)" fill="#090909"/>
        <path id="Trazado_260883" data-name="Trazado 260883" d="M179.658,271.667c.5,0,1-.019,1.5.005a.971.971,0,0,1,.024,1.941q-1.531.048-3.065,0a.971.971,0,0,1,.041-1.941c.5-.023,1,0,1.5,0" transform="translate(-146.234 -224.365)" fill="#090909"/>
        <path id="Trazado_260884" data-name="Trazado 260884" d="M62.486,204.333q12.131,0,24.262,0a2.577,2.577,0,0,1,2.743,2.967,2.525,2.525,0,0,1-1.943,2.128,4.735,4.735,0,0,1-.973.09q-24.1.006-48.2,0a2.622,2.622,0,0,1-2.847-2.072,2.581,2.581,0,0,1,2.366-3.112c.217-.013.436-.005.654-.005H62.486m11.4,3.556v0c.5,0,1,.02,1.5-.005a.965.965,0,0,0,.979-.934.955.955,0,0,0-.919-1c-1.043-.037-2.089-.042-3.13.008a.911.911,0,0,0-.88.963.946.946,0,0,0,.949.959c.5.028,1,.006,1.5.006m-33.448,0v0c.478,0,.957.016,1.435,0a.954.954,0,0,0,1.011-.96.933.933,0,0,0-.93-.979c-1.02-.036-2.044-.037-3.064,0a.967.967,0,0,0,.049,1.934c.5.025,1,.005,1.5.005m10.991,0c.5,0,1,.017,1.5,0a.97.97,0,1,0,.07-1.939c-1.02-.033-2.044-.035-3.064.005a.926.926,0,0,0-.908,1,.942.942,0,0,0,.968.935c.477.024.956,0,1.434.007m33.638,0c.5,0,1,.018,1.5,0a.97.97,0,1,0,.05-1.94c-1-.032-2-.034-3,0a.97.97,0,1,0,.015,1.94c.477.023.956,0,1.434.005m-22.418-.006v0c.521,0,1.044.022,1.564-.006a.887.887,0,0,0,.92-.9.854.854,0,0,0-.806-1,30.024,30.024,0,0,0-3.253-.006.858.858,0,0,0-.824.99.879.879,0,0,0,.9.92c.5.028,1,.006,1.5.006" transform="translate(-29.275 -168.803)" fill="#cce97c"/>
        <path id="Trazado_260885" data-name="Trazado 260885" d="M45.627,267.636c-2.572,0-5.144.014-7.716-.007a2.537,2.537,0,0,1-2.5-2.307,2.567,2.567,0,0,1,1.791-2.716,3.1,3.1,0,0,1,.9-.123c5.057-.007,10.114-.018,15.171,0a2.565,2.565,0,0,1,2.519,3.526,2.532,2.532,0,0,1-2.449,1.623c-2.572.008-5.144,0-7.716,0m5.835-3.55v0h-1.37c-.043,0-.087,0-.13,0a.975.975,0,0,0-1,.978.95.95,0,0,0,.941.971q1.5.046,3,0a.973.973,0,1,0-.005-1.945c-.477-.021-.956,0-1.435,0m-11.1,0v0h-1.37c-.043,0-.087,0-.13,0a.97.97,0,0,0-.955.959.946.946,0,0,0,.928.985q1.531.049,3.064,0a.942.942,0,0,0,.919-.99.954.954,0,0,0-.956-.95c-.5-.023-1,0-1.5,0" transform="translate(-29.206 -216.785)" fill="#ceec7e"/>
        <path id="Trazado_260886" data-name="Trazado 260886" d="M237.171,151.382c-2.551,0-5.1.014-7.652-.006a2.578,2.578,0,0,1-.845-5.017,3.576,3.576,0,0,1,1.091-.159q7.456-.015,14.912-.005a2.6,2.6,0,1,1,.016,5.188q-3.761.008-7.522,0Zm-5.267-3.558c-.5,0-1-.018-1.5,0a.951.951,0,0,0-.972.936.9.9,0,0,0,.858.98c1.062.054,2.13.051,3.193.005a.963.963,0,0,0-.078-1.922c-.5-.017-1,0-1.5,0M243.1,149.78v0h1.3c.044,0,.087,0,.13,0a1,1,0,0,0,1.03-1.032.957.957,0,0,0-1.05-.922q-1.4-.025-2.8,0a.957.957,0,0,0-1.057.913.97.97,0,0,0,1.012,1.037c.476.029.956.006,1.434.006" transform="translate(-187.265 -120.826)" fill="#cce97c"/>
        <path id="Trazado_260887" data-name="Trazado 260887" d="M243.7,215.417c-.5,0-1,.022-1.5-.006a.947.947,0,0,1-.949-.959.911.911,0,0,1,.881-.963c1.041-.05,2.088-.045,3.13-.008a.955.955,0,0,1,.919,1,.965.965,0,0,1-.979.934c-.5.025-1,.005-1.5.005v0" transform="translate(-199.09 -176.331)" fill="#0c0d09"/>
        <path id="Trazado_260888" data-name="Trazado 260888" d="M52.249,215.414c-.5,0-1,.02-1.5-.005a.967.967,0,0,1-.049-1.934c1.02-.037,2.044-.037,3.064,0a.933.933,0,0,1,.93.979.954.954,0,0,1-1.011.961c-.477.02-.956,0-1.435,0v0" transform="translate(-41.082 -176.327)" fill="#0b0c09"/>
        <path id="Trazado_260889" data-name="Trazado 260889" d="M115.441,215.418c-.478,0-.957.018-1.434-.006a.942.942,0,0,1-.968-.935.926.926,0,0,1,.908-1c1.02-.04,2.043-.038,3.064-.005a.97.97,0,1,1-.07,1.939c-.5.021-1,0-1.5,0" transform="translate(-93.282 -176.329)" fill="#0b0c09"/>
        <path id="Trazado_260890" data-name="Trazado 260890" d="M307.864,215.412c-.478,0-.957.018-1.434,0a.97.97,0,1,1-.015-1.94c1-.033,2-.031,3,0a.97.97,0,1,1-.05,1.94c-.5.023-1,0-1.5,0" transform="translate(-252.068 -176.323)" fill="#0b0c09"/>
        <path id="Trazado_260891" data-name="Trazado 260891" d="M179.645,215.437c-.5,0-1,.023-1.5-.006a.879.879,0,0,1-.9-.92.858.858,0,0,1,.824-.99,30.016,30.016,0,0,1,3.253.006.854.854,0,0,1,.806,1,.887.887,0,0,1-.92.9c-.52.028-1.042.006-1.564.006v0" transform="translate(-146.266 -176.354)" fill="#0b0c09"/>
        <path id="Trazado_260892" data-name="Trazado 260892" d="M115.531,271.668c.478,0,.957-.017,1.435,0a.973.973,0,1,1,.005,1.945q-1.5.042-3,0a.95.95,0,0,1-.941-.971.975.975,0,0,1,1-.978c.043,0,.087,0,.13,0h1.37Z" transform="translate(-93.276 -224.367)" fill="#080907"/>
        <path id="Trazado_260893" data-name="Trazado 260893" d="M52.25,271.668c.5,0,1-.018,1.5,0a.954.954,0,0,1,.956.95.942.942,0,0,1-.919.99q-1.531.05-3.064,0a.946.946,0,0,1-.928-.985.97.97,0,0,1,.955-.959c.043,0,.087,0,.13,0h1.37v0" transform="translate(-41.093 -224.366)" fill="#080907"/>
        <path id="Trazado_260894" data-name="Trazado 260894" d="M243.74,155.5c.5,0,1-.013,1.5,0a.963.963,0,0,1,.078,1.922c-1.063.046-2.131.049-3.193-.005a.9.9,0,0,1-.858-.98.951.951,0,0,1,.972-.936c.5-.023,1,0,1.5,0" transform="translate(-199.101 -128.501)" fill="#0b0c09"/>
        <path id="Trazado_260895" data-name="Trazado 260895" d="M307.9,157.433c-.478,0-.958.023-1.434-.006a.97.97,0,0,1-1.012-1.037.957.957,0,0,1,1.057-.913q1.4-.022,2.8,0a.957.957,0,0,1,1.05.922,1,1,0,0,1-1.03,1.032c-.043,0-.087,0-.13,0h-1.3Z" transform="translate(-252.064 -128.479)" fill="#0b0c09"/>
      </g>
    </g>
    <g id="Grupo_168313" data-name="Grupo 168313" transform="translate(981 9540.932)">
      <g id="Grupo_168314" data-name="Grupo 168314" transform="translate(0 16.97)">
        <path id="Trazado_260896" data-name="Trazado 260896" d="M69.667,42.962V79.293a.944.944,0,0,0-.146.2A3.513,3.513,0,0,1,65.9,82q-17.14.006-34.28,0a3.494,3.494,0,0,1-3.737-3.741c-.01-2.04,0-4.081,0-6.121,0-.194-.021-.388-.034-.6h-.81q-10.474,0-20.949,0A5.781,5.781,0,0,1,.556,68.175C.348,67.765.184,67.333,0,66.91V21.6a2.363,2.363,0,0,0,.257-.437,5.772,5.772,0,0,1,5.765-4.186q25.91-.011,51.819.022a6.57,6.57,0,0,1,2.741.617,5.654,5.654,0,0,1,3.274,5.56c-.012,5.418,0,10.836,0,16.253v.788c.875,0,1.664-.012,2.453,0a3.111,3.111,0,0,1,2.485,1.194,11.354,11.354,0,0,1,.877,1.548m-10.5-2.775h2.3a2.021,2.021,0,0,0,.057-.312c0-5.768.018-11.536-.021-17.3a3.384,3.384,0,0,0-3.686-3.247c-.2-.011-.406-.033-.609-.033q-25.512,0-51.024,0A3.542,3.542,0,0,0,2.318,23.2q0,21.057,0,42.113c0,2.507,1.408,3.908,3.924,3.908H27.828V65.732h-.79q-9.252,0-18.5,0c-1.9,0-2.717-.824-2.717-2.739q0-15.852,0-31.7c0-1.859.843-2.713,2.692-2.713q23.4,0,46.806,0a2.427,2.427,0,0,1,2.75,2.765q.006,4.048,0,8.1v.751Zm5.588,39.469c.158.012.316.032.473.034,1.854.026,2.126-.242,2.126-2.093q0-16.628,0-33.256c0-.2.011-.409-.005-.612a1.164,1.164,0,0,0-1.222-1.181c-.453-.012-.906.009-1.359.016-.249-.009-.5-.026-.747-.026H31.908c-1.4,0-1.708.309-1.708,1.717q0,16.8,0,33.607c0,1.513.315,1.827,1.832,1.827q15.952,0,31.9,0c.271,0,.543-.02.814-.03M18.608,35.516H55.7v-4.58H18.608Zm.017,6.916c.058.039.076.063.1.063,3.012.013,6.024.028,9.037.025a.552.552,0,0,0,.413-.246c.8-1.614,2.149-2.09,3.863-2.082,7.615.034,15.231.015,22.846.015h.811V37.939H18.625Zm-.013,7.011h9.217V44.9H18.612Zm9.217,2.4h-9.19v4.573h9.19Zm-9.2,11.5h9.214V58.8H18.628ZM8.163,35.5h8.043V30.949H8.163ZM16.2,37.928H8.188V42.5H16.2ZM8.164,49.455h8.041V44.9H8.164Zm8.054,2.389H8.179V56.4h8.039Zm-8.051,11.5H16.2v-4.54H8.167Z" transform="translate(0 -16.97)" fill="#010202"/>
        <path id="Trazado_260899" data-name="Trazado 260899" d="M256.5,241.982c-.271.011-.543.03-.814.03q-15.952,0-31.9,0c-1.518,0-1.832-.314-1.832-1.827q0-16.8,0-33.607c0-1.408.306-1.717,1.708-1.717h32.109c.249,0,.5.017.747.026a14.018,14.018,0,0,1,.264,1.929q.024,16.756,0,33.511a9.966,9.966,0,0,1-.276,1.652m-7.863-30.146c0,.946-.029,1.826.009,2.7a1.153,1.153,0,1,0,2.3-.068c.015-.952.018-1.9,0-2.857a2.044,2.044,0,0,0-2.108-2.109q-8.911-.02-17.823,0a2.062,2.062,0,0,0-1.971,1.4,2.117,2.117,0,0,0,.612,2.347c1.674,1.495,3.357,2.979,5.035,4.469,1.729,1.535,3.462,3.067,5.182,4.612.829.744.83,1.373.033,2.122-.363.341-.741.668-1.113,1q-4.522,4.023-9.043,8.048a2.138,2.138,0,0,0-.334,3.086,2.485,2.485,0,0,0,2.085.783q7.687,0,15.374,0c.635,0,1.271.021,1.9-.007a2.1,2.1,0,0,0,2.141-1.808c.068-1.129.047-2.267.009-3.4a1.015,1.015,0,0,0-1-1.02,1.039,1.039,0,0,0-1.2.776,3.069,3.069,0,0,0-.1.87c-.013.737,0,1.475,0,2.214H231.772l-.15-.2a5.033,5.033,0,0,0,.614-.405c3.019-2.678,6.024-5.371,9.049-8.041,2.018-1.781,2.082-3.984.086-5.782-2.678-2.412-5.386-4.791-8.079-7.187-.545-.485-1.081-.979-1.71-1.548Z" transform="translate(-191.746 -179.297)" fill="#d7db8d"/>
        <path id="Trazado_260900" data-name="Trazado 260900" d="M73.878,54.914h-1.1v-.751q0-4.048,0-8.1a2.427,2.427,0,0,0-2.75-2.765q-23.4,0-46.806,0c-1.849,0-2.692.854-2.692,2.713q0,15.852,0,31.7c0,1.916.812,2.738,2.717,2.739q9.252,0,18.5,0h.79v3.492h-.7q-10.443,0-20.886,0c-2.515,0-3.923-1.4-3.924-3.908q0-21.057,0-42.114a3.542,3.542,0,0,1,3.857-3.911q25.512,0,51.024,0c.2,0,.406.021.609.033a5.475,5.475,0,0,1,1.41,3.966c-.048,5.2-.018,10.406-.02,15.61,0,.429-.024.858-.036,1.287m-15-17.4q-6.122,0-12.244,0a3.929,3.929,0,0,0-.813.045,1.058,1.058,0,0,0-.893,1.05,1.037,1.037,0,0,0,.725,1.108,2.615,2.615,0,0,0,.867.118q12.312.009,24.624,0a3.379,3.379,0,0,0,.738-.079,1.064,1.064,0,0,0,.868-1.136,1.093,1.093,0,0,0-1.018-1.082,6.2,6.2,0,0,0-.747-.026q-6.054,0-12.108,0m-19.749.006c-.769,0-1.539-.021-2.308.006a1.1,1.1,0,0,0-1.176,1.064,1.088,1.088,0,0,0,1.087,1.219c1.582.051,3.167.047,4.749,0a1.139,1.139,0,0,0,1.1-1.164,1.152,1.152,0,0,0-1.21-1.121c-.746-.026-1.493-.006-2.24-.005M23.982,39.878a11.719,11.719,0,0,0,1.466-.128,1.121,1.121,0,0,0-.163-2.2c-.855-.041-1.716-.041-2.571,0a1.065,1.065,0,0,0-1.02,1.071,1.049,1.049,0,0,0,.864,1.134,14.1,14.1,0,0,0,1.424.126m7.052-2.34c-.451,0-.9-.032-1.352.008a1.024,1.024,0,0,0-1,1.01.97.97,0,0,0,.843,1.185,16.229,16.229,0,0,0,2.889,0c.618-.056.891-.572.835-1.19a1.024,1.024,0,0,0-1-1c-.4-.039-.811-.007-1.217-.006" transform="translate(-14.714 -31.697)" fill="#ccd5d9"/>
        <rect id="Rectángulo_53754" data-name="Rectángulo 53754" width="37.091" height="4.58" transform="translate(18.608 13.967)" fill="#afafaf"/>
        <path id="Trazado_260901" data-name="Trazado 260901" d="M136.881,175.573V171.08h37.065v2.267h-.811c-7.615,0-15.231.019-22.846-.015-1.714-.008-3.064.469-3.863,2.082a.552.552,0,0,1-.413.246c-3.012,0-6.025-.012-9.037-.025-.019,0-.038-.024-.1-.063" transform="translate(-118.256 -150.11)" fill="#afafaf"/>
        <path id="Trazado_260902" data-name="Trazado 260902" d="M475.874,242.033a9.956,9.956,0,0,0,.276-1.652q.024-16.756,0-33.511a14.022,14.022,0,0,0-.264-1.929c.453-.006.906-.028,1.359-.016a1.164,1.164,0,0,1,1.222,1.181c.016.2.005.408.005.612q0,16.628,0,33.256c0,1.851-.272,2.119-2.126,2.093-.158,0-.316-.022-.473-.034" transform="translate(-411.123 -179.347)" fill="#ced371"/>
        <path id="Trazado_260903" data-name="Trazado 260903" d="M426.208,55.1c.013-.429.036-.858.036-1.287,0-5.2-.028-10.407.02-15.61a5.475,5.475,0,0,0-1.41-3.966,3.384,3.384,0,0,1,3.686,3.247c.039,5.768.02,11.536.021,17.3a2.019,2.019,0,0,1-.057.312Z" transform="translate(-367.045 -31.887)" fill="#617d8b"/>
        <rect id="Rectángulo_53755" data-name="Rectángulo 53755" width="9.217" height="4.547" transform="translate(18.612 27.926)" fill="#afafaf"/>
        <rect id="Rectángulo_53756" data-name="Rectángulo 53756" width="9.19" height="4.573" transform="translate(18.639 34.878)" fill="#afafaf"/>
        <rect id="Rectángulo_53757" data-name="Rectángulo 53757" width="9.214" height="4.551" transform="translate(18.628 41.827)" fill="#afafaf"/>
        <rect id="Rectángulo_53758" data-name="Rectángulo 53758" width="8.043" height="4.554" transform="translate(8.163 13.98)" fill="#afafaf"/>
        <rect id="Rectángulo_53759" data-name="Rectángulo 53759" width="8.016" height="4.569" transform="translate(8.188 20.958)" fill="#afafaf"/>
        <rect id="Rectángulo_53760" data-name="Rectángulo 53760" width="8.041" height="4.558" transform="translate(8.164 27.927)" fill="#afafaf"/>
        <rect id="Rectángulo_53761" data-name="Rectángulo 53761" width="8.039" height="4.559" transform="translate(8.179 34.874)" fill="#afafaf"/>
        <rect id="Rectángulo_53762" data-name="Rectángulo 53762" width="8.038" height="4.54" transform="translate(8.167 41.837)" fill="#afafaf"/>
        <path id="Trazado_260904" data-name="Trazado 260904" d="M292.786,241.261H275.733c.628.569,1.165,1.064,1.71,1.548,2.693,2.4,5.4,4.775,8.079,7.187,2,1.8,1.932,4-.086,5.782-3.025,2.67-6.03,5.363-9.049,8.041a5.038,5.038,0,0,1-.614.405l.15.2h16.858c0-.739-.008-1.476,0-2.214a3.07,3.07,0,0,1,.1-.87,1.039,1.039,0,0,1,1.2-.776,1.015,1.015,0,0,1,1,1.02c.038,1.132.06,2.27-.009,3.4a2.1,2.1,0,0,1-2.141,1.808c-.634.028-1.27.007-1.9.007q-7.687,0-15.374,0a2.485,2.485,0,0,1-2.085-.783,2.138,2.138,0,0,1,.334-3.086q4.512-4.034,9.043-8.048c.373-.331.75-.658,1.113-1,.8-.749.8-1.377-.033-2.122-1.72-1.545-3.453-3.076-5.182-4.612q-2.517-2.235-5.035-4.469a2.117,2.117,0,0,1-.612-2.347,2.062,2.062,0,0,1,1.971-1.4q8.911-.015,17.823,0a2.045,2.045,0,0,1,2.108,2.109c.019.952.016,1.9,0,2.857a1.153,1.153,0,1,1-2.3.068c-.038-.878-.009-1.759-.009-2.7" transform="translate(-235.898 -208.721)" fill="#010201"/>
        <path id="Trazado_260905" data-name="Trazado 260905" d="M235.975,59.718q6.054,0,12.108,0a6.234,6.234,0,0,1,.747.026,1.094,1.094,0,0,1,1.018,1.082,1.064,1.064,0,0,1-.868,1.136,3.387,3.387,0,0,1-.738.079q-12.312.006-24.624,0a2.615,2.615,0,0,1-.867-.118,1.036,1.036,0,0,1-.725-1.108,1.058,1.058,0,0,1,.893-1.05,3.938,3.938,0,0,1,.813-.045q6.122,0,12.244,0" transform="translate(-191.812 -53.902)" fill="#030303"/>
        <path id="Trazado_260906" data-name="Trazado 260906" d="M157.288,59.709c.747,0,1.494-.02,2.24.005a1.152,1.152,0,0,1,1.209,1.121A1.139,1.139,0,0,1,159.64,62c-1.582.047-3.168.05-4.749,0a1.088,1.088,0,0,1-1.087-1.22,1.1,1.1,0,0,1,1.176-1.064c.768-.027,1.539-.006,2.308-.006" transform="translate(-132.874 -53.887)" fill="#040404"/>
        <path id="Trazado_260907" data-name="Trazado 260907" d="M53.582,62.1a14.179,14.179,0,0,1-1.424-.126,1.049,1.049,0,0,1-.864-1.134,1.065,1.065,0,0,1,1.02-1.071c.855-.042,1.716-.042,2.571,0a1.121,1.121,0,0,1,.163,2.2,11.72,11.72,0,0,1-1.466.128" transform="translate(-44.314 -53.92)" fill="#040404"/>
        <path id="Trazado_260908" data-name="Trazado 260908" d="M104.984,59.809c.406,0,.815-.032,1.217.007a1.024,1.024,0,0,1,1,1c.056.618-.217,1.134-.835,1.19a16.231,16.231,0,0,1-2.889,0,.97.97,0,0,1-.843-1.185,1.024,1.024,0,0,1,1-1.01c.447-.04.9-.008,1.352-.009" transform="translate(-88.664 -53.969)" fill="#040404"/>
      </g>
    </g>
    <path id="Trazado_268220" data-name="Trazado 268220" d="M13.082,13.211A4.025,4.025,0,0,1,11.727,16.1,4.76,4.76,0,0,1,8.5,17.156a4.28,4.28,0,0,1-3.441-1.473,6.038,6.038,0,0,1-1.254-4.043v-.7a6.819,6.819,0,0,1,.578-2.891A4.332,4.332,0,0,1,6.039,6.137a4.629,4.629,0,0,1,2.5-.668,4.637,4.637,0,0,1,3.172,1.055A4.326,4.326,0,0,1,13.1,9.484H10.754a2.376,2.376,0,0,0-.613-1.6,2.271,2.271,0,0,0-1.605-.5,1.991,1.991,0,0,0-1.754.84,4.707,4.707,0,0,0-.6,2.605V11.7a5.038,5.038,0,0,0,.559,2.7,1.954,1.954,0,0,0,1.762.852,2.314,2.314,0,0,0,1.621-.5,2.241,2.241,0,0,0,.613-1.535ZM19.371,17a2.507,2.507,0,0,1-.227-.758,2.732,2.732,0,0,1-2.133.914,3,3,0,0,1-2.059-.719,2.312,2.312,0,0,1-.816-1.812,2.389,2.389,0,0,1,1-2.062,4.915,4.915,0,0,1,2.879-.727h1.039v-.484a1.393,1.393,0,0,0-.3-.937,1.183,1.183,0,0,0-.949-.352,1.345,1.345,0,0,0-.895.273.929.929,0,0,0-.324.75H14.324a2.268,2.268,0,0,1,.453-1.359,3,3,0,0,1,1.281-.98,4.669,4.669,0,0,1,1.859-.355,3.689,3.689,0,0,1,2.48.785,2.747,2.747,0,0,1,.918,2.207v3.664a4.041,4.041,0,0,0,.336,1.82V17ZM17.5,15.43a1.945,1.945,0,0,0,.922-.223,1.462,1.462,0,0,0,.625-.6V13.156h-.844q-1.7,0-1.8,1.172l-.008.133a.9.9,0,0,0,.3.7A1.153,1.153,0,0,0,17.5,15.43Zm10.3-4.766a6.134,6.134,0,0,0-.812-.062,1.654,1.654,0,0,0-1.68.867V17H23.051V8.547h2.133l.063,1.008a2.092,2.092,0,0,1,1.883-1.164,2.366,2.366,0,0,1,.7.1ZM33.551,17a2.507,2.507,0,0,1-.227-.758,2.732,2.732,0,0,1-2.133.914,3,3,0,0,1-2.059-.719,2.312,2.312,0,0,1-.816-1.812,2.389,2.389,0,0,1,1-2.062,4.915,4.915,0,0,1,2.879-.727H33.23v-.484a1.393,1.393,0,0,0-.3-.937,1.183,1.183,0,0,0-.949-.352,1.345,1.345,0,0,0-.895.273.929.929,0,0,0-.324.75H28.5a2.268,2.268,0,0,1,.453-1.359,3,3,0,0,1,1.281-.98A4.669,4.669,0,0,1,32.1,8.391a3.689,3.689,0,0,1,2.48.785,2.747,2.747,0,0,1,.918,2.207v3.664a4.041,4.041,0,0,0,.336,1.82V17Zm-1.867-1.57a1.945,1.945,0,0,0,.922-.223,1.462,1.462,0,0,0,.625-.6V13.156h-.844q-1.7,0-1.8,1.172l-.008.133a.9.9,0,0,0,.3.7A1.153,1.153,0,0,0,31.684,15.43Zm9.063-.094a1.481,1.481,0,0,0,1.016-.344,1.2,1.2,0,0,0,.406-.914h2.117a2.9,2.9,0,0,1-.469,1.574,3.093,3.093,0,0,1-1.262,1.109,3.949,3.949,0,0,1-1.77.395A3.67,3.67,0,0,1,37.926,16a4.56,4.56,0,0,1-1.047-3.184v-.148a4.508,4.508,0,0,1,1.039-3.117A3.627,3.627,0,0,1,40.77,8.391a3.555,3.555,0,0,1,2.543.9,3.2,3.2,0,0,1,.973,2.4H42.168a1.551,1.551,0,0,0-.406-1.072,1.51,1.51,0,0,0-2.223.163,3.333,3.333,0,0,0-.4,1.866v.235a3.375,3.375,0,0,0,.4,1.878A1.377,1.377,0,0,0,40.746,15.336Zm7.531-8.867V8.547h1.445V10.2H48.277v4.219a1.007,1.007,0,0,0,.18.672.9.9,0,0,0,.688.2,3.6,3.6,0,0,0,.664-.055v1.711a4.648,4.648,0,0,1-1.367.2,2.156,2.156,0,0,1-2.422-2.4V10.2H44.785V8.547H46.02V6.469Zm6.594,10.688a4.15,4.15,0,0,1-3.027-1.141,4.054,4.054,0,0,1-1.168-3.039v-.219a5.106,5.106,0,0,1,.492-2.277,3.612,3.612,0,0,1,1.395-1.547,3.914,3.914,0,0,1,2.059-.543,3.508,3.508,0,0,1,2.73,1.094,4.444,4.444,0,0,1,1,3.1v.922H52.965a2.1,2.1,0,0,0,.66,1.328,2,2,0,0,0,1.395.5,2.437,2.437,0,0,0,2.039-.945l1.109,1.242a3.389,3.389,0,0,1-1.375,1.121A4.511,4.511,0,0,1,54.871,17.156Zm-.258-6.945a1.411,1.411,0,0,0-1.09.455,2.357,2.357,0,0,0-.535,1.3h3.141v-.181a1.681,1.681,0,0,0-.406-1.165A1.456,1.456,0,0,0,54.613,10.211Zm9.766.453a6.134,6.134,0,0,0-.812-.062,1.654,1.654,0,0,0-1.68.867V17H59.629V8.547h2.133l.063,1.008a2.092,2.092,0,0,1,1.883-1.164,2.366,2.366,0,0,1,.7.1ZM67.9,17H65.645V8.547H67.9ZM67.238,5.117H69.7L67.535,7.539H65.7Zm7.188,9.547a.727.727,0,0,0-.41-.652,4.659,4.659,0,0,0-1.316-.426q-3.016-.633-3.016-2.562a2.323,2.323,0,0,1,.934-1.879,3.766,3.766,0,0,1,2.441-.754,4.053,4.053,0,0,1,2.574.758,2.388,2.388,0,0,1,.965,1.969H74.34a1.092,1.092,0,0,0-.312-.8A1.322,1.322,0,0,0,73.051,10a1.351,1.351,0,0,0-.883.258.814.814,0,0,0-.312.656.7.7,0,0,0,.355.605,3.657,3.657,0,0,0,1.2.4,9.8,9.8,0,0,1,1.422.379,2.336,2.336,0,0,1,1.789,2.273,2.2,2.2,0,0,1-.992,1.871,4.28,4.28,0,0,1-2.562.715,4.47,4.47,0,0,1-1.887-.379,3.166,3.166,0,0,1-1.293-1.039,2.414,2.414,0,0,1-.469-1.426h2.141a1.179,1.179,0,0,0,.445.922,1.766,1.766,0,0,0,1.109.32,1.635,1.635,0,0,0,.98-.246A.766.766,0,0,0,74.426,14.664Zm6.352-8.2V8.547h1.445V10.2H80.777v4.219a1.007,1.007,0,0,0,.18.672.9.9,0,0,0,.688.2,3.6,3.6,0,0,0,.664-.055v1.711a4.648,4.648,0,0,1-1.367.2,2.156,2.156,0,0,1-2.422-2.4V10.2H77.285V8.547H78.52V6.469ZM85.863,17H83.6V8.547h2.266Zm-2.4-10.641a1.112,1.112,0,0,1,.34-.836,1.465,1.465,0,0,1,1.848,0A1.105,1.105,0,0,1,86,6.359a1.108,1.108,0,0,1-.348.844,1.448,1.448,0,0,1-1.836,0A1.108,1.108,0,0,1,83.465,6.359Zm7.773,8.977a1.481,1.481,0,0,0,1.016-.344,1.2,1.2,0,0,0,.406-.914h2.117a2.9,2.9,0,0,1-.469,1.574,3.093,3.093,0,0,1-1.262,1.109,3.949,3.949,0,0,1-1.77.395A3.67,3.67,0,0,1,88.418,16a4.56,4.56,0,0,1-1.047-3.184v-.148A4.508,4.508,0,0,1,88.41,9.555a3.627,3.627,0,0,1,2.852-1.164,3.555,3.555,0,0,1,2.543.9,3.2,3.2,0,0,1,.973,2.4H92.66a1.551,1.551,0,0,0-.406-1.072,1.51,1.51,0,0,0-2.223.163,3.333,3.333,0,0,0-.4,1.866v.235a3.375,3.375,0,0,0,.4,1.878A1.377,1.377,0,0,0,91.238,15.336ZM100.965,17a2.507,2.507,0,0,1-.227-.758,2.732,2.732,0,0,1-2.133.914,3,3,0,0,1-2.059-.719,2.312,2.312,0,0,1-.816-1.812,2.389,2.389,0,0,1,1-2.062,4.915,4.915,0,0,1,2.879-.727h1.039v-.484a1.393,1.393,0,0,0-.3-.937,1.183,1.183,0,0,0-.949-.352,1.345,1.345,0,0,0-.895.273.929.929,0,0,0-.324.75H95.918a2.268,2.268,0,0,1,.453-1.359,3,3,0,0,1,1.281-.98,4.669,4.669,0,0,1,1.859-.355,3.689,3.689,0,0,1,2.48.785,2.747,2.747,0,0,1,.918,2.207v3.664a4.041,4.041,0,0,0,.336,1.82V17ZM99.1,15.43a1.945,1.945,0,0,0,.922-.223,1.462,1.462,0,0,0,.625-.6V13.156H99.8q-1.7,0-1.8,1.172l-.008.133a.9.9,0,0,0,.3.7A1.153,1.153,0,0,0,99.1,15.43Zm10.125-.766a.727.727,0,0,0-.41-.652,4.659,4.659,0,0,0-1.316-.426q-3.016-.633-3.016-2.562a2.323,2.323,0,0,1,.934-1.879,3.766,3.766,0,0,1,2.441-.754,4.053,4.053,0,0,1,2.574.758,2.388,2.388,0,0,1,.965,1.969h-2.258a1.092,1.092,0,0,0-.312-.8,1.322,1.322,0,0,0-.977-.316,1.351,1.351,0,0,0-.883.258.814.814,0,0,0-.312.656.7.7,0,0,0,.355.605,3.657,3.657,0,0,0,1.2.4,9.8,9.8,0,0,1,1.422.379,2.336,2.336,0,0,1,1.789,2.273,2.2,2.2,0,0,1-.992,1.871,4.28,4.28,0,0,1-2.562.715,4.47,4.47,0,0,1-1.887-.379,3.166,3.166,0,0,1-1.293-1.039,2.414,2.414,0,0,1-.469-1.426h2.141a1.179,1.179,0,0,0,.445.922,1.766,1.766,0,0,0,1.109.32,1.635,1.635,0,0,0,.98-.246A.766.766,0,0,0,109.223,14.664ZM116.5,12.7a5.013,5.013,0,0,1,.484-2.242,3.546,3.546,0,0,1,1.395-1.523,4.069,4.069,0,0,1,2.113-.539,3.849,3.849,0,0,1,2.793,1.047,4.2,4.2,0,0,1,1.207,2.844l.016.578a4.418,4.418,0,0,1-1.086,3.121,4.209,4.209,0,0,1-5.832,0A4.5,4.5,0,0,1,116.5,12.8Zm2.258.16a3.16,3.16,0,0,0,.453,1.843,1.628,1.628,0,0,0,2.578.008,3.457,3.457,0,0,0,.461-2.015,3.128,3.128,0,0,0-.461-1.831,1.5,1.5,0,0,0-1.3-.649,1.474,1.474,0,0,0-1.281.646A3.516,3.516,0,0,0,118.762,12.856Zm14.641,2.48a1.481,1.481,0,0,0,1.016-.344,1.2,1.2,0,0,0,.406-.914h2.117a2.9,2.9,0,0,1-.469,1.574,3.093,3.093,0,0,1-1.262,1.109,3.949,3.949,0,0,1-1.77.395A3.67,3.67,0,0,1,130.582,16a4.56,4.56,0,0,1-1.047-3.184v-.148a4.508,4.508,0,0,1,1.039-3.117,3.627,3.627,0,0,1,2.852-1.164,3.555,3.555,0,0,1,2.543.9,3.2,3.2,0,0,1,.973,2.4h-2.117a1.551,1.551,0,0,0-.406-1.072,1.51,1.51,0,0,0-2.223.163,3.333,3.333,0,0,0-.4,1.866v.235a3.375,3.375,0,0,0,.4,1.878A1.377,1.377,0,0,0,133.4,15.336Zm9.891.8a2.831,2.831,0,0,1-2.312,1.016,2.67,2.67,0,0,1-2.074-.781,3.335,3.335,0,0,1-.73-2.289V8.547h2.258v5.467q0,1.322,1.2,1.322a1.63,1.63,0,0,0,1.578-.8V8.547h2.266V17h-2.125Zm8.789.859a2.507,2.507,0,0,1-.227-.758,2.732,2.732,0,0,1-2.133.914,3,3,0,0,1-2.059-.719,2.312,2.312,0,0,1-.816-1.812,2.389,2.389,0,0,1,1-2.062,4.915,4.915,0,0,1,2.879-.727h1.039v-.484a1.393,1.393,0,0,0-.3-.937,1.183,1.183,0,0,0-.949-.352,1.345,1.345,0,0,0-.895.273.929.929,0,0,0-.324.75h-2.258a2.268,2.268,0,0,1,.453-1.359,3,3,0,0,1,1.281-.98,4.669,4.669,0,0,1,1.859-.355,3.689,3.689,0,0,1,2.48.785,2.747,2.747,0,0,1,.918,2.207v3.664a4.041,4.041,0,0,0,.336,1.82V17Zm-1.867-1.57a1.945,1.945,0,0,0,.922-.223,1.462,1.462,0,0,0,.625-.6V13.156h-.844q-1.7,0-1.8,1.172l-.008.133a.9.9,0,0,0,.3.7A1.153,1.153,0,0,0,150.215,15.43Zm7.93,1.57h-2.266V5h2.266Zm4.242,0h-2.266V8.547h2.266Zm-2.4-10.641a1.112,1.112,0,0,1,.34-.836,1.465,1.465,0,0,1,1.848,0,1.105,1.105,0,0,1,.344.836,1.109,1.109,0,0,1-.348.844,1.448,1.448,0,0,1-1.836,0A1.109,1.109,0,0,1,159.988,6.359Zm3.906,6.352a5.094,5.094,0,0,1,.887-3.148,2.877,2.877,0,0,1,2.426-1.172,2.589,2.589,0,0,1,2.039.922V5h2.266V17h-2.039l-.109-.9a2.657,2.657,0,0,1-2.172,1.055A2.869,2.869,0,0,1,164.8,15.98,5.258,5.258,0,0,1,163.895,12.711Zm2.258.168a3.337,3.337,0,0,0,.414,1.823,1.349,1.349,0,0,0,1.2.634,1.511,1.511,0,0,0,1.477-.884V11.111a1.489,1.489,0,0,0-1.461-.884Q166.152,10.227,166.152,12.879ZM178.16,17a2.507,2.507,0,0,1-.227-.758,2.732,2.732,0,0,1-2.133.914,3,3,0,0,1-2.059-.719,2.312,2.312,0,0,1-.816-1.812,2.389,2.389,0,0,1,1-2.062,4.915,4.915,0,0,1,2.879-.727h1.039v-.484a1.393,1.393,0,0,0-.3-.937,1.183,1.183,0,0,0-.949-.352,1.345,1.345,0,0,0-.895.273.929.929,0,0,0-.324.75h-2.258a2.268,2.268,0,0,1,.453-1.359,3,3,0,0,1,1.281-.98,4.669,4.669,0,0,1,1.859-.355,3.689,3.689,0,0,1,2.48.785,2.747,2.747,0,0,1,.918,2.207v3.664a4.041,4.041,0,0,0,.336,1.82V17Zm-1.867-1.57a1.945,1.945,0,0,0,.922-.223,1.462,1.462,0,0,0,.625-.6V13.156H177q-1.7,0-1.8,1.172l-.008.133a.9.9,0,0,0,.3.7A1.153,1.153,0,0,0,176.293,15.43Zm5.2-2.719a5.094,5.094,0,0,1,.887-3.148A2.877,2.877,0,0,1,184.8,8.391a2.589,2.589,0,0,1,2.039.922V5h2.266V17h-2.039l-.109-.9a2.657,2.657,0,0,1-2.172,1.055,2.869,2.869,0,0,1-2.395-1.176A5.258,5.258,0,0,1,181.488,12.711Zm2.258.168a3.337,3.337,0,0,0,.414,1.823,1.349,1.349,0,0,0,1.2.634,1.511,1.511,0,0,0,1.477-.884V11.111a1.489,1.489,0,0,0-1.461-.884Q183.746,10.227,183.746,12.879Zm11,4.277a4.15,4.15,0,0,1-3.027-1.141,4.054,4.054,0,0,1-1.168-3.039v-.219a5.106,5.106,0,0,1,.492-2.277,3.612,3.612,0,0,1,1.395-1.547,3.914,3.914,0,0,1,2.059-.543,3.508,3.508,0,0,1,2.73,1.094,4.444,4.444,0,0,1,1,3.1v.922H192.84a2.1,2.1,0,0,0,.66,1.328,2,2,0,0,0,1.395.5,2.437,2.437,0,0,0,2.039-.945l1.109,1.242a3.389,3.389,0,0,1-1.375,1.121A4.511,4.511,0,0,1,194.746,17.156Zm-.258-6.945a1.411,1.411,0,0,0-1.09.455,2.357,2.357,0,0,0-.535,1.3H196v-.181a1.681,1.681,0,0,0-.406-1.165A1.456,1.456,0,0,0,194.488,10.211Zm9.594,4.453a.727.727,0,0,0-.41-.652,4.659,4.659,0,0,0-1.316-.426q-3.016-.633-3.016-2.562a2.323,2.323,0,0,1,.934-1.879,3.766,3.766,0,0,1,2.441-.754,4.053,4.053,0,0,1,2.574.758,2.388,2.388,0,0,1,.965,1.969H204a1.092,1.092,0,0,0-.312-.8,1.322,1.322,0,0,0-.977-.316,1.351,1.351,0,0,0-.883.258.814.814,0,0,0-.312.656.7.7,0,0,0,.355.605,3.657,3.657,0,0,0,1.2.4,9.8,9.8,0,0,1,1.422.379,2.336,2.336,0,0,1,1.789,2.273,2.205,2.205,0,0,1-.992,1.871,4.28,4.28,0,0,1-2.562.715,4.47,4.47,0,0,1-1.887-.379,3.166,3.166,0,0,1-1.293-1.039,2.414,2.414,0,0,1-.469-1.426h2.141a1.179,1.179,0,0,0,.445.922,1.766,1.766,0,0,0,1.109.32,1.635,1.635,0,0,0,.98-.246A.766.766,0,0,0,204.082,14.664ZM11.379,36.711a5.094,5.094,0,0,1,.887-3.148,2.877,2.877,0,0,1,2.426-1.172,2.589,2.589,0,0,1,2.039.922V29H19V41H16.957l-.109-.9a2.657,2.657,0,0,1-2.172,1.055,2.869,2.869,0,0,1-2.395-1.176A5.258,5.258,0,0,1,11.379,36.711Zm2.258.168a3.337,3.337,0,0,0,.414,1.823,1.349,1.349,0,0,0,1.2.634,1.511,1.511,0,0,0,1.477-.884V35.111a1.489,1.489,0,0,0-1.461-.884Q13.637,34.227,13.637,36.879Zm11,4.277a4.15,4.15,0,0,1-3.027-1.141,4.054,4.054,0,0,1-1.168-3.039v-.219a5.106,5.106,0,0,1,.492-2.277,3.612,3.612,0,0,1,1.395-1.547,3.914,3.914,0,0,1,2.059-.543,3.508,3.508,0,0,1,2.73,1.094,4.444,4.444,0,0,1,1,3.1v.922H22.73a2.1,2.1,0,0,0,.66,1.328,2,2,0,0,0,1.395.5,2.437,2.437,0,0,0,2.039-.945l1.109,1.242a3.389,3.389,0,0,1-1.375,1.121A4.511,4.511,0,0,1,24.637,41.156Zm-.258-6.945a1.411,1.411,0,0,0-1.09.455,2.357,2.357,0,0,0-.535,1.3h3.141v-.181a1.681,1.681,0,0,0-.406-1.165A1.456,1.456,0,0,0,24.379,34.211Zm14.063,5.93a2.831,2.831,0,0,1-2.312,1.016,2.67,2.67,0,0,1-2.074-.781,3.335,3.335,0,0,1-.73-2.289V32.547h2.258v5.467q0,1.322,1.2,1.322a1.63,1.63,0,0,0,1.578-.8V32.547h2.266V41H38.5Zm5.969-7.594.07.977a2.951,2.951,0,0,1,2.43-1.133,2.453,2.453,0,0,1,2,.789,3.682,3.682,0,0,1,.672,2.359V41H47.324V35.594a1.465,1.465,0,0,0-.312-1.043,1.4,1.4,0,0,0-1.039-.324,1.553,1.553,0,0,0-1.43.813V41H42.285V32.547ZM56.191,41a2.507,2.507,0,0,1-.227-.758,2.732,2.732,0,0,1-2.133.914,3,3,0,0,1-2.059-.719,2.312,2.312,0,0,1-.816-1.812,2.389,2.389,0,0,1,1-2.062,4.915,4.915,0,0,1,2.879-.727h1.039v-.484a1.393,1.393,0,0,0-.3-.937,1.183,1.183,0,0,0-.949-.352,1.345,1.345,0,0,0-.895.273.929.929,0,0,0-.324.75H51.145a2.268,2.268,0,0,1,.453-1.359,3,3,0,0,1,1.281-.98,4.669,4.669,0,0,1,1.859-.355,3.689,3.689,0,0,1,2.48.785,2.747,2.747,0,0,1,.918,2.207v3.664a4.041,4.041,0,0,0,.336,1.82V41Zm-1.867-1.57a1.945,1.945,0,0,0,.922-.223,1.462,1.462,0,0,0,.625-.6V37.156h-.844q-1.7,0-1.8,1.172l-.008.133a.9.9,0,0,0,.3.7A1.153,1.153,0,0,0,54.324,39.43Zm17.141-2.578a5.07,5.07,0,0,1-.887,3.129,2.843,2.843,0,0,1-2.395,1.176,2.633,2.633,0,0,1-2.07-.891V44.25H63.855v-11.7h2.094l.078.828a2.654,2.654,0,0,1,2.141-.984,2.862,2.862,0,0,1,2.43,1.156,5.207,5.207,0,0,1,.867,3.188Zm-2.258-.164a3.327,3.327,0,0,0-.418-1.82,1.361,1.361,0,0,0-1.215-.641,1.478,1.478,0,0,0-1.461.813V38.5a1.5,1.5,0,0,0,1.477.836Q69.207,39.336,69.207,36.688Zm3.3.008A5.013,5.013,0,0,1,73,34.453a3.546,3.546,0,0,1,1.395-1.523,4.069,4.069,0,0,1,2.113-.539A3.849,3.849,0,0,1,79.3,33.438,4.2,4.2,0,0,1,80.5,36.281l.016.578a4.418,4.418,0,0,1-1.086,3.121,4.209,4.209,0,0,1-5.832,0,4.5,4.5,0,0,1-1.09-3.187Zm2.258.16a3.16,3.16,0,0,0,.453,1.843,1.628,1.628,0,0,0,2.578.008,3.457,3.457,0,0,0,.461-2.015A3.128,3.128,0,0,0,77.8,34.86a1.5,1.5,0,0,0-1.3-.649,1.474,1.474,0,0,0-1.281.646A3.516,3.516,0,0,0,74.77,36.856Zm14.758,0a5.119,5.119,0,0,1-.867,3.168,2.872,2.872,0,0,1-2.422,1.137,2.639,2.639,0,0,1-2.2-1.055l-.1.9H81.91V29h2.258v4.3a2.571,2.571,0,0,1,2.055-.914,2.9,2.9,0,0,1,2.426,1.137,5.126,5.126,0,0,1,.879,3.2Zm-2.258-.164a3.363,3.363,0,0,0-.406-1.871,1.374,1.374,0,0,0-1.211-.59,1.489,1.489,0,0,0-1.484.883v3.336a1.509,1.509,0,0,0,1.5.891,1.394,1.394,0,0,0,1.438-1.078A5.562,5.562,0,0,0,87.27,36.688ZM93.3,41H91.035V29H93.3Zm6.758,0a2.507,2.507,0,0,1-.227-.758,2.732,2.732,0,0,1-2.133.914,3,3,0,0,1-2.059-.719,2.312,2.312,0,0,1-.816-1.812,2.389,2.389,0,0,1,1-2.062,4.915,4.915,0,0,1,2.879-.727h1.039v-.484a1.393,1.393,0,0,0-.3-.937,1.183,1.183,0,0,0-.949-.352,1.345,1.345,0,0,0-.895.273.929.929,0,0,0-.324.75H95.012a2.268,2.268,0,0,1,.453-1.359,3,3,0,0,1,1.281-.98,4.669,4.669,0,0,1,1.859-.355,3.689,3.689,0,0,1,2.48.785A2.747,2.747,0,0,1,102,35.383v3.664a4.041,4.041,0,0,0,.336,1.82V41Zm-1.867-1.57a1.945,1.945,0,0,0,.922-.223,1.462,1.462,0,0,0,.625-.6V37.156h-.844q-1.7,0-1.8,1.172l-.008.133a.9.9,0,0,0,.3.7A1.153,1.153,0,0,0,98.191,39.43Zm9.063-.094a1.481,1.481,0,0,0,1.016-.344,1.2,1.2,0,0,0,.406-.914h2.117a2.9,2.9,0,0,1-.469,1.574,3.093,3.093,0,0,1-1.262,1.109,3.949,3.949,0,0,1-1.77.395A3.67,3.67,0,0,1,104.434,40a4.56,4.56,0,0,1-1.047-3.184v-.148a4.508,4.508,0,0,1,1.039-3.117,3.627,3.627,0,0,1,2.852-1.164,3.555,3.555,0,0,1,2.543.9,3.2,3.2,0,0,1,.973,2.4h-2.117a1.551,1.551,0,0,0-.406-1.072,1.51,1.51,0,0,0-2.223.163,3.333,3.333,0,0,0-.4,1.866v.235a3.375,3.375,0,0,0,.4,1.878A1.377,1.377,0,0,0,107.254,39.336ZM114.465,41H112.2V32.547h2.266Zm-2.4-10.641a1.112,1.112,0,0,1,.34-.836,1.465,1.465,0,0,1,1.848,0,1.193,1.193,0,0,1,0,1.68,1.448,1.448,0,0,1-1.836,0A1.108,1.108,0,0,1,112.066,30.359Zm3.906,6.336a5.013,5.013,0,0,1,.484-2.242,3.546,3.546,0,0,1,1.395-1.523,4.069,4.069,0,0,1,2.113-.539,3.849,3.849,0,0,1,2.793,1.047,4.2,4.2,0,0,1,1.207,2.844l.016.578a4.418,4.418,0,0,1-1.086,3.121,4.209,4.209,0,0,1-5.832,0,4.5,4.5,0,0,1-1.09-3.187Zm2.258.16a3.16,3.16,0,0,0,.453,1.843,1.628,1.628,0,0,0,2.578.008,3.457,3.457,0,0,0,.461-2.015,3.128,3.128,0,0,0-.461-1.831,1.5,1.5,0,0,0-1.3-.649,1.474,1.474,0,0,0-1.281.646A3.516,3.516,0,0,0,118.23,36.856ZM120.41,29h2.461l-2.164,2.422h-1.836Zm7.039,3.547.07.977a2.951,2.951,0,0,1,2.43-1.133,2.453,2.453,0,0,1,2,.789,3.682,3.682,0,0,1,.672,2.359V41h-2.258V35.594a1.465,1.465,0,0,0-.312-1.043,1.4,1.4,0,0,0-1.039-.324,1.553,1.553,0,0,0-1.43.813V41h-2.258V32.547Zm10.516,4.164a5.094,5.094,0,0,1,.887-3.148,2.877,2.877,0,0,1,2.426-1.172,2.589,2.589,0,0,1,2.039.922V29h2.266V41h-2.039l-.109-.9a2.657,2.657,0,0,1-2.172,1.055,2.869,2.869,0,0,1-2.395-1.176A5.258,5.258,0,0,1,137.965,36.711Zm2.258.168a3.337,3.337,0,0,0,.414,1.823,1.349,1.349,0,0,0,1.2.634,1.511,1.511,0,0,0,1.477-.884V35.111a1.489,1.489,0,0,0-1.461-.884Q140.223,34.227,140.223,36.879Zm11,4.277a4.15,4.15,0,0,1-3.027-1.141,4.054,4.054,0,0,1-1.168-3.039v-.219a5.106,5.106,0,0,1,.492-2.277,3.612,3.612,0,0,1,1.395-1.547,3.914,3.914,0,0,1,2.059-.543,3.508,3.508,0,0,1,2.73,1.094,4.444,4.444,0,0,1,1,3.1v.922h-5.383a2.1,2.1,0,0,0,.66,1.328,2,2,0,0,0,1.395.5,2.437,2.437,0,0,0,2.039-.945l1.109,1.242a3.389,3.389,0,0,1-1.375,1.121A4.511,4.511,0,0,1,151.223,41.156Zm-.258-6.945a1.411,1.411,0,0,0-1.09.455,2.357,2.357,0,0,0-.535,1.3h3.141v-.181a1.681,1.681,0,0,0-.406-1.165A1.456,1.456,0,0,0,150.965,34.211Zm8.648,2.5a5.094,5.094,0,0,1,.887-3.148,2.877,2.877,0,0,1,2.426-1.172,2.589,2.589,0,0,1,2.039.922V29h2.266V41h-2.039l-.109-.9a2.657,2.657,0,0,1-2.172,1.055,2.869,2.869,0,0,1-2.395-1.176A5.258,5.258,0,0,1,159.613,36.711Zm2.258.168a3.337,3.337,0,0,0,.414,1.823,1.349,1.349,0,0,0,1.2.634,1.511,1.511,0,0,0,1.477-.884V35.111a1.489,1.489,0,0,0-1.461-.884Q161.871,34.227,161.871,36.879ZM173.879,41a2.507,2.507,0,0,1-.227-.758,2.732,2.732,0,0,1-2.133.914,3,3,0,0,1-2.059-.719,2.312,2.312,0,0,1-.816-1.812,2.389,2.389,0,0,1,1-2.062,4.915,4.915,0,0,1,2.879-.727h1.039v-.484a1.393,1.393,0,0,0-.3-.937,1.183,1.183,0,0,0-.949-.352,1.345,1.345,0,0,0-.895.273.929.929,0,0,0-.324.75h-2.258a2.268,2.268,0,0,1,.453-1.359,3,3,0,0,1,1.281-.98,4.669,4.669,0,0,1,1.859-.355,3.689,3.689,0,0,1,2.48.785,2.747,2.747,0,0,1,.918,2.207v3.664a4.041,4.041,0,0,0,.336,1.82V41Zm-1.867-1.57a1.945,1.945,0,0,0,.922-.223,1.462,1.462,0,0,0,.625-.6V37.156h-.844q-1.7,0-1.8,1.172l-.008.133a.9.9,0,0,0,.3.7A1.153,1.153,0,0,0,172.012,39.43Zm8.25-8.961v2.078h1.445V34.2h-1.445v4.219a1.007,1.007,0,0,0,.18.672.9.9,0,0,0,.688.2,3.6,3.6,0,0,0,.664-.055v1.711a4.648,4.648,0,0,1-1.367.2,2.156,2.156,0,0,1-2.422-2.4V34.2H176.77V32.547H178V30.469Zm2.117,6.227a5.013,5.013,0,0,1,.484-2.242,3.546,3.546,0,0,1,1.395-1.523,4.069,4.069,0,0,1,2.113-.539,3.849,3.849,0,0,1,2.793,1.047,4.2,4.2,0,0,1,1.207,2.844l.016.578A4.418,4.418,0,0,1,189.3,39.98a4.209,4.209,0,0,1-5.832,0,4.5,4.5,0,0,1-1.09-3.187Zm2.258.16a3.16,3.16,0,0,0,.453,1.843,1.628,1.628,0,0,0,2.578.008,3.457,3.457,0,0,0,.461-2.015,3.128,3.128,0,0,0-.461-1.831,1.5,1.5,0,0,0-1.3-.649,1.474,1.474,0,0,0-1.281.646A3.516,3.516,0,0,0,184.637,36.856Zm11.719,1.808a.727.727,0,0,0-.41-.652,4.659,4.659,0,0,0-1.316-.426q-3.016-.633-3.016-2.562a2.323,2.323,0,0,1,.934-1.879,3.766,3.766,0,0,1,2.441-.754,4.053,4.053,0,0,1,2.574.758,2.388,2.388,0,0,1,.965,1.969H196.27a1.092,1.092,0,0,0-.312-.8A1.322,1.322,0,0,0,194.98,34a1.351,1.351,0,0,0-.883.258.814.814,0,0,0-.312.656.7.7,0,0,0,.355.605,3.657,3.657,0,0,0,1.2.4,9.8,9.8,0,0,1,1.422.379,2.336,2.336,0,0,1,1.789,2.273,2.205,2.205,0,0,1-.992,1.871,4.28,4.28,0,0,1-2.562.715,4.47,4.47,0,0,1-1.887-.379,3.166,3.166,0,0,1-1.293-1.039,2.414,2.414,0,0,1-.469-1.426h2.141a1.179,1.179,0,0,0,.445.922,1.766,1.766,0,0,0,1.109.32,1.635,1.635,0,0,0,.98-.246A.766.766,0,0,0,196.355,38.664Z" transform="translate(685 9495.247)" fill="#12263f"/>
  </g>
</svg>
