<svg xmlns="http://www.w3.org/2000/svg" width="712" height="336" viewBox="0 0 712 336">
  <g id="Grupo_238384" data-name="Grupo 238384" transform="translate(-653.333 -1403.064)">
    <path id="Trazado_268093" data-name="Trazado 268093" d="M0,0H120V34H0Z" transform="translate(687.333 1403.064)" fill="#ffb500"/>
    <path id="Trazado_268098" data-name="Trazado 268098" d="M0,0H105V34H0Z" transform="translate(863.333 1403.064)" fill="#ffb500"/>
    <path id="Trazado_268104" data-name="Trazado 268104" d="M0,0H106V33H0Z" transform="translate(1031.333 1403.064)" fill="#ffb500"/>
    <path id="Trazado_268108" data-name="Trazado 268108" d="M0,0H120V35H0Z" transform="translate(673.333 1704.064)" fill="#ffb500"/>
    <path id="Trazado_268109" data-name="Trazado 268109" d="M0,0H105V35H0Z" transform="translate(863.333 1704.064)" fill="#ffb500"/>
    <path id="Trazado_268110" data-name="Trazado 268110" d="M0,0H106V35H0Z" transform="translate(1031.333 1704.064)" fill="#ffb500"/>
    <path id="Trazado_268111" data-name="Trazado 268111" d="M0,0H151V32H0Z" transform="translate(1214.333 1557.064)" fill="#ffb500"/>
    <g id="Grupo_167686" data-name="Grupo 167686" transform="translate(52.667 -50)">
      <line id="Línea_1128" data-name="Línea 1128" x1="538" transform="translate(600.666 1623.064)" fill="none" stroke="#707070" stroke-width="3"/>
      <path id="Polígono_72" data-name="Polígono 72" d="M12,0,24,20H0Z" transform="translate(1157.666 1611.064) rotate(90)" fill="#636363"/>
      <g id="Grupo_236994" data-name="Grupo 236994" transform="translate(1027.166 1492.564)">
        <line id="Línea_1130" data-name="Línea 1130" x2="71" y2="119" fill="none" stroke="#707070" stroke-width="3"/>
        <path id="Polígono_73" data-name="Polígono 73" d="M4.5,0,9,8H0Z" transform="matrix(0.899, 0.438, -0.438, 0.899, 68.708, 111.932)" fill="#636363"/>
      </g>
      <g id="Grupo_236995" data-name="Grupo 236995" transform="translate(865.694 1494.318)">
        <line id="Línea_1132" data-name="Línea 1132" x2="75.606" y2="117.246" fill="none" stroke="#707070" stroke-width="3"/>
        <path id="Polígono_74" data-name="Polígono 74" d="M4.5,0,9,8H0Z" transform="matrix(0.899, 0.438, -0.438, 0.899, 73.314, 110.178)" fill="#636363"/>
      </g>
      <g id="Grupo_236996" data-name="Grupo 236996" transform="translate(692.16 1494.076)">
        <line id="Línea_1134" data-name="Línea 1134" x2="86" y2="117.488" fill="none" stroke="#707070" stroke-width="3"/>
        <path id="Polígono_75" data-name="Polígono 75" d="M4.5,0,9,8H0Z" transform="matrix(0.899, 0.438, -0.438, 0.899, 83.708, 110.42)" fill="#636363"/>
      </g>
      <g id="Grupo_236991" data-name="Grupo 236991" transform="translate(1006.166 1627.831)">
        <line id="Línea_1129" data-name="Línea 1129" y1="110" x2="86" transform="translate(24 7.733)" fill="none" stroke="#707070" stroke-width="3"/>
        <path id="Polígono_76" data-name="Polígono 76" d="M4.5,0,9,8H0Z" transform="matrix(0.208, -0.978, 0.978, 0.208, 105.152, 8.803)" fill="#636363"/>
      </g>
      <g id="Grupo_236992" data-name="Grupo 236992" transform="translate(865.694 1627.831)">
        <line id="Línea_1131" data-name="Línea 1131" y1="112" x2="94.303" transform="translate(0 7.733)" fill="none" stroke="#707070" stroke-width="3"/>
        <path id="Polígono_77" data-name="Polígono 77" d="M4.5,0,9,8H0Z" transform="matrix(0.208, -0.978, 0.978, 0.208, 89.455, 8.803)" fill="#636363"/>
      </g>
      <g id="Grupo_236993" data-name="Grupo 236993" transform="translate(689.293 1627.831)">
        <line id="Línea_1133" data-name="Línea 1133" y1="112" x2="115" transform="translate(0 7.733)" fill="none" stroke="#707070" stroke-width="3"/>
        <path id="Polígono_78" data-name="Polígono 78" d="M4.5,0,9,8H0Z" transform="matrix(0.208, -0.978, 0.978, 0.208, 110.152, 8.803)" fill="#636363"/>
      </g>
    </g>
    <path id="Trazado_268094" data-name="Trazado 268094" d="M12.289,7.523H8.8V17H6.461V7.523H3.023v-1.9h9.266Zm5.43,3.141a6.134,6.134,0,0,0-.812-.062,1.654,1.654,0,0,0-1.68.867V17H12.969V8.547H15.1l.063,1.008a2.092,2.092,0,0,1,1.883-1.164,2.366,2.366,0,0,1,.7.1ZM23.469,17a2.507,2.507,0,0,1-.227-.758,2.732,2.732,0,0,1-2.133.914,3,3,0,0,1-2.059-.719,2.312,2.312,0,0,1-.816-1.812,2.389,2.389,0,0,1,1-2.062,4.915,4.915,0,0,1,2.879-.727h1.039v-.484a1.393,1.393,0,0,0-.3-.937,1.183,1.183,0,0,0-.949-.352,1.345,1.345,0,0,0-.895.273.929.929,0,0,0-.324.75H18.422a2.268,2.268,0,0,1,.453-1.359,3,3,0,0,1,1.281-.98,4.669,4.669,0,0,1,1.859-.355,3.689,3.689,0,0,1,2.48.785,2.747,2.747,0,0,1,.918,2.207v3.664a4.041,4.041,0,0,0,.336,1.82V17ZM21.6,15.43a1.945,1.945,0,0,0,.922-.223,1.462,1.462,0,0,0,.625-.6V13.156H22.3q-1.7,0-1.8,1.172l-.008.133a.9.9,0,0,0,.3.7A1.153,1.153,0,0,0,21.6,15.43Zm13.164-2.578A5.119,5.119,0,0,1,33.9,16.02a2.872,2.872,0,0,1-2.422,1.137,2.639,2.639,0,0,1-2.2-1.055l-.1.9H27.148V5h2.258V9.3a2.571,2.571,0,0,1,2.055-.914,2.9,2.9,0,0,1,2.426,1.137,5.126,5.126,0,0,1,.879,3.2Zm-2.258-.164a3.363,3.363,0,0,0-.406-1.871,1.374,1.374,0,0,0-1.211-.59,1.489,1.489,0,0,0-1.484.883v3.336a1.509,1.509,0,0,0,1.5.891,1.394,1.394,0,0,0,1.438-1.078A5.562,5.562,0,0,0,32.508,12.688ZM41.055,17a2.507,2.507,0,0,1-.227-.758,2.732,2.732,0,0,1-2.133.914,3,3,0,0,1-2.059-.719,2.312,2.312,0,0,1-.816-1.812,2.389,2.389,0,0,1,1-2.062,4.915,4.915,0,0,1,2.879-.727h1.039v-.484a1.393,1.393,0,0,0-.3-.937,1.183,1.183,0,0,0-.949-.352,1.345,1.345,0,0,0-.895.273.929.929,0,0,0-.324.75H36.008a2.268,2.268,0,0,1,.453-1.359,3,3,0,0,1,1.281-.98A4.669,4.669,0,0,1,39.6,8.391a3.689,3.689,0,0,1,2.48.785A2.747,2.747,0,0,1,43,11.383v3.664a4.041,4.041,0,0,0,.336,1.82V17Zm-1.867-1.57a1.945,1.945,0,0,0,.922-.223,1.462,1.462,0,0,0,.625-.6V13.156h-.844q-1.7,0-1.8,1.172l-.008.133a.9.9,0,0,0,.3.7A1.153,1.153,0,0,0,39.188,15.43Zm7.938-6.883v8.914a3.024,3.024,0,0,1-.742,2.176,2.821,2.821,0,0,1-2.141.777,4.591,4.591,0,0,1-1.117-.133V18.492a4.238,4.238,0,0,0,.711.07q1.023,0,1.023-1.086V8.547ZM44.68,6.359a1.112,1.112,0,0,1,.34-.836,1.47,1.47,0,0,1,1.852,0,1.112,1.112,0,0,1,.34.836,1.108,1.108,0,0,1-.348.844,1.448,1.448,0,0,1-1.836,0A1.108,1.108,0,0,1,44.68,6.359ZM48.539,12.7a5.013,5.013,0,0,1,.484-2.242A3.546,3.546,0,0,1,50.418,8.93a4.069,4.069,0,0,1,2.113-.539,3.849,3.849,0,0,1,2.793,1.047,4.2,4.2,0,0,1,1.207,2.844l.016.578a4.418,4.418,0,0,1-1.086,3.121,4.209,4.209,0,0,1-5.832,0,4.5,4.5,0,0,1-1.09-3.187Zm2.258.16A3.16,3.16,0,0,0,51.25,14.7a1.628,1.628,0,0,0,2.578.008,3.457,3.457,0,0,0,.461-2.015,3.128,3.128,0,0,0-.461-1.831,1.5,1.5,0,0,0-1.3-.649,1.474,1.474,0,0,0-1.281.646A3.516,3.516,0,0,0,50.8,12.856ZM61.57,12.7a5.013,5.013,0,0,1,.484-2.242A3.546,3.546,0,0,1,63.449,8.93a4.069,4.069,0,0,1,2.113-.539,3.849,3.849,0,0,1,2.793,1.047,4.2,4.2,0,0,1,1.207,2.844l.016.578a4.418,4.418,0,0,1-1.086,3.121,4.209,4.209,0,0,1-5.832,0A4.5,4.5,0,0,1,61.57,12.8Zm2.258.16a3.16,3.16,0,0,0,.453,1.843,1.628,1.628,0,0,0,2.578.008,3.457,3.457,0,0,0,.461-2.015,3.128,3.128,0,0,0-.461-1.831,1.5,1.5,0,0,0-1.3-.649,1.474,1.474,0,0,0-1.281.646A3.516,3.516,0,0,0,63.828,12.856Zm14.758,0a5.119,5.119,0,0,1-.867,3.168A2.872,2.872,0,0,1,75.3,17.156,2.639,2.639,0,0,1,73.1,16.1L73,17H70.969V5h2.258V9.3a2.571,2.571,0,0,1,2.055-.914,2.9,2.9,0,0,1,2.426,1.137,5.126,5.126,0,0,1,.879,3.2Zm-2.258-.164a3.363,3.363,0,0,0-.406-1.871,1.374,1.374,0,0,0-1.211-.59,1.489,1.489,0,0,0-1.484.883v3.336a1.509,1.509,0,0,0,1.5.891,1.394,1.394,0,0,0,1.438-1.078A5.562,5.562,0,0,0,76.328,12.688Zm8.4-2.023a6.134,6.134,0,0,0-.812-.062,1.654,1.654,0,0,0-1.68.867V17H79.977V8.547h2.133l.063,1.008a2.092,2.092,0,0,1,1.883-1.164,2.366,2.366,0,0,1,.7.1ZM90.477,17a2.507,2.507,0,0,1-.227-.758,2.732,2.732,0,0,1-2.133.914,3,3,0,0,1-2.059-.719,2.312,2.312,0,0,1-.816-1.812,2.389,2.389,0,0,1,1-2.062,4.915,4.915,0,0,1,2.879-.727h1.039v-.484a1.393,1.393,0,0,0-.3-.937,1.183,1.183,0,0,0-.949-.352,1.345,1.345,0,0,0-.895.273.929.929,0,0,0-.324.75H85.43a2.268,2.268,0,0,1,.453-1.359,3,3,0,0,1,1.281-.98,4.669,4.669,0,0,1,1.859-.355,3.689,3.689,0,0,1,2.48.785,2.747,2.747,0,0,1,.918,2.207v3.664a4.041,4.041,0,0,0,.336,1.82V17Zm-1.867-1.57a1.945,1.945,0,0,0,.922-.223,1.462,1.462,0,0,0,.625-.6V13.156h-.844q-1.7,0-1.8,1.172l-.008.133a.9.9,0,0,0,.3.7A1.153,1.153,0,0,0,88.609,15.43Z" transform="translate(699.333 1411.064)" fill="#12263f"/>
    <path id="Trazado_268099" data-name="Trazado 268099" d="M11.066,5.625l2.922,8.25,2.906-8.25h3.078V17H17.621V13.891l.234-5.367L14.785,17H13.176L10.113,8.531l.234,5.359V17H8V5.625ZM26.77,17a2.507,2.507,0,0,1-.227-.758,2.732,2.732,0,0,1-2.133.914,3,3,0,0,1-2.059-.719,2.312,2.312,0,0,1-.816-1.812,2.389,2.389,0,0,1,1-2.062,4.915,4.915,0,0,1,2.879-.727h1.039v-.484a1.393,1.393,0,0,0-.3-.937,1.183,1.183,0,0,0-.949-.352,1.345,1.345,0,0,0-.895.273.929.929,0,0,0-.324.75H21.723a2.268,2.268,0,0,1,.453-1.359,3,3,0,0,1,1.281-.98,4.669,4.669,0,0,1,1.859-.355,3.689,3.689,0,0,1,2.48.785,2.747,2.747,0,0,1,.918,2.207v3.664a4.041,4.041,0,0,0,.336,1.82V17ZM24.9,15.43a1.945,1.945,0,0,0,.922-.223,1.462,1.462,0,0,0,.625-.6V13.156h-.844q-1.7,0-1.8,1.172l-.008.133a.9.9,0,0,0,.3.7A1.153,1.153,0,0,0,24.9,15.43ZM30.1,12.7a5.053,5.053,0,0,1,.887-3.148,2.9,2.9,0,0,1,2.434-1.156A2.6,2.6,0,0,1,35.582,9.43l.148-.883h1.984v11.7H35.449V16.273a2.6,2.6,0,0,1-2.047.883A2.878,2.878,0,0,1,31,15.984,5.3,5.3,0,0,1,30.1,12.7Zm2.258.16a3.314,3.314,0,0,0,.426,1.847,1.363,1.363,0,0,0,1.2.634,1.518,1.518,0,0,0,1.469-.829v-3.5a1.506,1.506,0,0,0-1.453-.8,1.38,1.38,0,0,0-1.211.634A3.661,3.661,0,0,0,32.355,12.856Zm12.2,3.285a2.831,2.831,0,0,1-2.312,1.016,2.67,2.67,0,0,1-2.074-.781,3.335,3.335,0,0,1-.73-2.289V8.547h2.258v5.467q0,1.322,1.2,1.322a1.63,1.63,0,0,0,1.578-.8V8.547h2.266V17H44.613ZM50.824,17H48.559V8.547h2.266Zm-2.4-10.641a1.112,1.112,0,0,1,.34-.836,1.465,1.465,0,0,1,1.848,0,1.105,1.105,0,0,1,.344.836,1.108,1.108,0,0,1-.348.844,1.448,1.448,0,0,1-1.836,0A1.108,1.108,0,0,1,48.426,6.359Zm6.336,2.188.07.977a2.951,2.951,0,0,1,2.43-1.133,2.453,2.453,0,0,1,2,.789,3.682,3.682,0,0,1,.672,2.359V17H57.676V11.594a1.465,1.465,0,0,0-.312-1.043,1.4,1.4,0,0,0-1.039-.324,1.553,1.553,0,0,0-1.43.813V17H52.637V8.547ZM66.543,17a2.507,2.507,0,0,1-.227-.758,2.732,2.732,0,0,1-2.133.914,3,3,0,0,1-2.059-.719,2.312,2.312,0,0,1-.816-1.812,2.389,2.389,0,0,1,1-2.062,4.915,4.915,0,0,1,2.879-.727h1.039v-.484a1.393,1.393,0,0,0-.3-.937,1.183,1.183,0,0,0-.949-.352,1.345,1.345,0,0,0-.895.273.929.929,0,0,0-.324.75H61.5a2.268,2.268,0,0,1,.453-1.359,3,3,0,0,1,1.281-.98,4.669,4.669,0,0,1,1.859-.355,3.689,3.689,0,0,1,2.48.785,2.747,2.747,0,0,1,.918,2.207v3.664a4.041,4.041,0,0,0,.336,1.82V17Zm-1.867-1.57a1.945,1.945,0,0,0,.922-.223,1.462,1.462,0,0,0,.625-.6V13.156h-.844q-1.7,0-1.8,1.172l-.008.133a.9.9,0,0,0,.3.7A1.153,1.153,0,0,0,64.676,15.43Zm10.3-4.766a6.134,6.134,0,0,0-.812-.062,1.654,1.654,0,0,0-1.68.867V17H70.223V8.547h2.133l.063,1.008A2.092,2.092,0,0,1,74.3,8.391a2.366,2.366,0,0,1,.7.1ZM78.441,17H76.176V8.547h2.266Zm-2.4-10.641a1.112,1.112,0,0,1,.34-.836,1.465,1.465,0,0,1,1.848,0,1.105,1.105,0,0,1,.344.836,1.108,1.108,0,0,1-.348.844,1.448,1.448,0,0,1-1.836,0A1.108,1.108,0,0,1,76.043,6.359ZM85.2,17a2.507,2.507,0,0,1-.227-.758,2.732,2.732,0,0,1-2.133.914,3,3,0,0,1-2.059-.719,2.312,2.312,0,0,1-.816-1.812,2.389,2.389,0,0,1,1-2.062,4.915,4.915,0,0,1,2.879-.727h1.039v-.484a1.393,1.393,0,0,0-.3-.937,1.183,1.183,0,0,0-.949-.352,1.345,1.345,0,0,0-.895.273.929.929,0,0,0-.324.75H80.152a2.268,2.268,0,0,1,.453-1.359,3,3,0,0,1,1.281-.98,4.669,4.669,0,0,1,1.859-.355,3.689,3.689,0,0,1,2.48.785,2.747,2.747,0,0,1,.918,2.207v3.664a4.041,4.041,0,0,0,.336,1.82V17Zm-1.867-1.57a1.945,1.945,0,0,0,.922-.223,1.462,1.462,0,0,0,.625-.6V13.156h-.844q-1.7,0-1.8,1.172l-.008.133a.9.9,0,0,0,.3.7A1.153,1.153,0,0,0,83.332,15.43Z" transform="translate(868.333 1410.064)" fill="#12263f"/>
    <path id="Trazado_268105" data-name="Trazado 268105" d="M25.348,12.07h-4.5v3.047h5.281V17H18.5V5.625h7.609v1.9H20.848v2.711h4.5Zm4.086-3.523.07.977a2.951,2.951,0,0,1,2.43-1.133,2.453,2.453,0,0,1,2,.789,3.682,3.682,0,0,1,.672,2.359V17H32.348V11.594a1.465,1.465,0,0,0-.312-1.043A1.4,1.4,0,0,0,31,10.227a1.553,1.553,0,0,0-1.43.813V17H27.309V8.547ZM39.02,6.469V8.547h1.445V10.2H39.02v4.219a1.007,1.007,0,0,0,.18.672.9.9,0,0,0,.688.2,3.6,3.6,0,0,0,.664-.055v1.711a4.648,4.648,0,0,1-1.367.2,2.156,2.156,0,0,1-2.422-2.4V10.2H35.527V8.547h1.234V6.469ZM41.137,12.7a5.013,5.013,0,0,1,.484-2.242A3.546,3.546,0,0,1,43.016,8.93a4.069,4.069,0,0,1,2.113-.539,3.849,3.849,0,0,1,2.793,1.047,4.2,4.2,0,0,1,1.207,2.844l.016.578a4.418,4.418,0,0,1-1.086,3.121,4.209,4.209,0,0,1-5.832,0,4.5,4.5,0,0,1-1.09-3.187Zm2.258.16a3.16,3.16,0,0,0,.453,1.843,1.628,1.628,0,0,0,2.578.008,3.457,3.457,0,0,0,.461-2.015,3.128,3.128,0,0,0-.461-1.831,1.5,1.5,0,0,0-1.3-.649,1.474,1.474,0,0,0-1.281.646A3.516,3.516,0,0,0,43.395,12.856Zm11.891-2.192a6.134,6.134,0,0,0-.812-.062,1.654,1.654,0,0,0-1.68.867V17H50.535V8.547h2.133l.063,1.008a2.092,2.092,0,0,1,1.883-1.164,2.366,2.366,0,0,1,.7.1Zm3.164-2.117.07.977a2.951,2.951,0,0,1,2.43-1.133,2.453,2.453,0,0,1,2,.789,3.682,3.682,0,0,1,.672,2.359V17H61.363V11.594a1.465,1.465,0,0,0-.312-1.043,1.4,1.4,0,0,0-1.039-.324,1.553,1.553,0,0,0-1.43.813V17H56.324V8.547ZM64.98,12.7a5.013,5.013,0,0,1,.484-2.242A3.546,3.546,0,0,1,66.859,8.93a4.069,4.069,0,0,1,2.113-.539,3.849,3.849,0,0,1,2.793,1.047,4.2,4.2,0,0,1,1.207,2.844l.016.578A4.418,4.418,0,0,1,71.9,15.98a4.209,4.209,0,0,1-5.832,0A4.5,4.5,0,0,1,64.98,12.8Zm2.258.16a3.16,3.16,0,0,0,.453,1.843,1.628,1.628,0,0,0,2.578.008,3.457,3.457,0,0,0,.461-2.015,3.128,3.128,0,0,0-.461-1.831,1.5,1.5,0,0,0-1.3-.649,1.474,1.474,0,0,0-1.281.646A3.516,3.516,0,0,0,67.238,12.856Z" transform="translate(1039.333 1410.064)" fill="#12263f"/>
    <path id="Trazado_268112" data-name="Trazado 268112" d="M6.367,5.625l2.922,8.25L12.2,5.625h3.078V17H12.922V13.891l.234-5.367L10.086,17H8.477L5.414,8.531l.234,5.359V17H3.3V5.625ZM22.07,17a2.507,2.507,0,0,1-.227-.758,2.732,2.732,0,0,1-2.133.914,3,3,0,0,1-2.059-.719,2.312,2.312,0,0,1-.816-1.812,2.389,2.389,0,0,1,1-2.062,4.915,4.915,0,0,1,2.879-.727H21.75v-.484a1.393,1.393,0,0,0-.3-.937,1.183,1.183,0,0,0-.949-.352,1.345,1.345,0,0,0-.895.273.929.929,0,0,0-.324.75H17.023a2.268,2.268,0,0,1,.453-1.359,3,3,0,0,1,1.281-.98,4.669,4.669,0,0,1,1.859-.355,3.689,3.689,0,0,1,2.48.785,2.747,2.747,0,0,1,.918,2.207v3.664a4.041,4.041,0,0,0,.336,1.82V17ZM20.2,15.43a1.945,1.945,0,0,0,.922-.223,1.462,1.462,0,0,0,.625-.6V13.156h-.844q-1.7,0-1.8,1.172l-.008.133a.9.9,0,0,0,.3.7A1.153,1.153,0,0,0,20.2,15.43Zm8.25-8.961V8.547H29.9V10.2H28.453v4.219a1.007,1.007,0,0,0,.18.672.9.9,0,0,0,.688.2,3.6,3.6,0,0,0,.664-.055v1.711a4.648,4.648,0,0,1-1.367.2,2.156,2.156,0,0,1-2.422-2.4V10.2H24.961V8.547H26.2V6.469Zm6.594,10.688a4.15,4.15,0,0,1-3.027-1.141,4.054,4.054,0,0,1-1.168-3.039v-.219a5.106,5.106,0,0,1,.492-2.277,3.612,3.612,0,0,1,1.395-1.547A3.914,3.914,0,0,1,34.8,8.391a3.508,3.508,0,0,1,2.73,1.094,4.444,4.444,0,0,1,1,3.1v.922H33.141a2.1,2.1,0,0,0,.66,1.328,2,2,0,0,0,1.395.5,2.437,2.437,0,0,0,2.039-.945l1.109,1.242a3.389,3.389,0,0,1-1.375,1.121A4.511,4.511,0,0,1,35.047,17.156Zm-.258-6.945a1.411,1.411,0,0,0-1.09.455,2.357,2.357,0,0,0-.535,1.3H36.3v-.181a1.681,1.681,0,0,0-.406-1.165A1.456,1.456,0,0,0,34.789,10.211Zm9.766.453a6.134,6.134,0,0,0-.812-.062,1.654,1.654,0,0,0-1.68.867V17H39.8V8.547h2.133L42,9.555a2.092,2.092,0,0,1,1.883-1.164,2.366,2.366,0,0,1,.7.1ZM48.023,17H45.758V8.547h2.266Zm-2.4-10.641a1.112,1.112,0,0,1,.34-.836,1.465,1.465,0,0,1,1.848,0,1.105,1.105,0,0,1,.344.836,1.108,1.108,0,0,1-.348.844,1.448,1.448,0,0,1-1.836,0A1.108,1.108,0,0,1,45.625,6.359ZM54.781,17a2.507,2.507,0,0,1-.227-.758,2.732,2.732,0,0,1-2.133.914,3,3,0,0,1-2.059-.719,2.312,2.312,0,0,1-.816-1.812,2.389,2.389,0,0,1,1-2.062,4.915,4.915,0,0,1,2.879-.727h1.039v-.484a1.393,1.393,0,0,0-.3-.937,1.183,1.183,0,0,0-.949-.352,1.345,1.345,0,0,0-.895.273.929.929,0,0,0-.324.75H49.734a2.268,2.268,0,0,1,.453-1.359,3,3,0,0,1,1.281-.98,4.669,4.669,0,0,1,1.859-.355,3.689,3.689,0,0,1,2.48.785,2.747,2.747,0,0,1,.918,2.207v3.664a4.041,4.041,0,0,0,.336,1.82V17Zm-1.867-1.57a1.945,1.945,0,0,0,.922-.223,1.462,1.462,0,0,0,.625-.6V13.156h-.844q-1.7,0-1.8,1.172l-.008.133a.9.9,0,0,0,.3.7A1.153,1.153,0,0,0,52.914,15.43ZM60.844,17H58.578V5h2.266Zm5.75.156a4.15,4.15,0,0,1-3.027-1.141A4.054,4.054,0,0,1,62.4,12.977v-.219a5.106,5.106,0,0,1,.492-2.277,3.612,3.612,0,0,1,1.395-1.547,3.914,3.914,0,0,1,2.059-.543,3.508,3.508,0,0,1,2.73,1.094,4.444,4.444,0,0,1,1,3.1v.922H64.688a2.1,2.1,0,0,0,.66,1.328,2,2,0,0,0,1.395.5,2.437,2.437,0,0,0,2.039-.945l1.109,1.242a3.389,3.389,0,0,1-1.375,1.121A4.511,4.511,0,0,1,66.594,17.156Zm-.258-6.945a1.411,1.411,0,0,0-1.09.455,2.357,2.357,0,0,0-.535,1.3h3.141v-.181a1.681,1.681,0,0,0-.406-1.165A1.456,1.456,0,0,0,66.336,10.211Zm9.594,4.453a.727.727,0,0,0-.41-.652,4.659,4.659,0,0,0-1.316-.426q-3.016-.633-3.016-2.562a2.323,2.323,0,0,1,.934-1.879,3.766,3.766,0,0,1,2.441-.754,4.053,4.053,0,0,1,2.574.758,2.388,2.388,0,0,1,.965,1.969H75.844a1.092,1.092,0,0,0-.312-.8A1.322,1.322,0,0,0,74.555,10a1.351,1.351,0,0,0-.883.258.814.814,0,0,0-.312.656.7.7,0,0,0,.355.605,3.657,3.657,0,0,0,1.2.4,9.8,9.8,0,0,1,1.422.379,2.336,2.336,0,0,1,1.789,2.273,2.2,2.2,0,0,1-.992,1.871,4.28,4.28,0,0,1-2.562.715,4.47,4.47,0,0,1-1.887-.379,3.166,3.166,0,0,1-1.293-1.039,2.414,2.414,0,0,1-.469-1.426h2.141a1.179,1.179,0,0,0,.445.922,1.766,1.766,0,0,0,1.109.32,1.635,1.635,0,0,0,.98-.246A.766.766,0,0,0,75.93,14.664Z" transform="translate(692.333 1713.064)" fill="#12263f"/>
    <path id="Trazado_268113" data-name="Trazado 268113" d="M11.82,5.625l2.922,8.25,2.906-8.25h3.078V17H18.375V13.891l.234-5.367L15.539,17H13.93L10.867,8.531l.234,5.359V17H8.758V5.625Zm14.7,11.531a4.15,4.15,0,0,1-3.027-1.141,4.054,4.054,0,0,1-1.168-3.039v-.219a5.106,5.106,0,0,1,.492-2.277,3.612,3.612,0,0,1,1.395-1.547,3.914,3.914,0,0,1,2.059-.543A3.508,3.508,0,0,1,29,9.484a4.444,4.444,0,0,1,1,3.1v.922H24.609a2.1,2.1,0,0,0,.66,1.328,2,2,0,0,0,1.395.5,2.437,2.437,0,0,0,2.039-.945l1.109,1.242a3.389,3.389,0,0,1-1.375,1.121A4.511,4.511,0,0,1,26.516,17.156Zm-.258-6.945a1.411,1.411,0,0,0-1.09.455,2.357,2.357,0,0,0-.535,1.3h3.141v-.181a1.681,1.681,0,0,0-.406-1.165A1.456,1.456,0,0,0,26.258,10.211Zm4.664,2.5a5.094,5.094,0,0,1,.887-3.148,2.877,2.877,0,0,1,2.426-1.172,2.589,2.589,0,0,1,2.039.922V5h2.266V17H36.5l-.109-.9a2.657,2.657,0,0,1-2.172,1.055,2.869,2.869,0,0,1-2.395-1.176A5.258,5.258,0,0,1,30.922,12.711Zm2.258.168a3.337,3.337,0,0,0,.414,1.823,1.349,1.349,0,0,0,1.2.634,1.511,1.511,0,0,0,1.477-.884V11.111a1.489,1.489,0,0,0-1.461-.884Q33.18,10.227,33.18,12.879ZM42.672,17H40.406V8.547h2.266Zm-2.4-10.641a1.112,1.112,0,0,1,.34-.836,1.465,1.465,0,0,1,1.848,0,1.105,1.105,0,0,1,.344.836,1.108,1.108,0,0,1-.348.844,1.448,1.448,0,0,1-1.836,0A1.108,1.108,0,0,1,40.273,6.359Zm7.773,8.977a1.481,1.481,0,0,0,1.016-.344,1.2,1.2,0,0,0,.406-.914h2.117a2.9,2.9,0,0,1-.469,1.574,3.093,3.093,0,0,1-1.262,1.109,3.949,3.949,0,0,1-1.77.395A3.67,3.67,0,0,1,45.227,16,4.56,4.56,0,0,1,44.18,12.82v-.148a4.508,4.508,0,0,1,1.039-3.117A3.627,3.627,0,0,1,48.07,8.391a3.555,3.555,0,0,1,2.543.9,3.2,3.2,0,0,1,.973,2.4H49.469a1.551,1.551,0,0,0-.406-1.072,1.51,1.51,0,0,0-2.223.163,3.333,3.333,0,0,0-.4,1.866v.235a3.375,3.375,0,0,0,.4,1.878A1.377,1.377,0,0,0,48.047,15.336ZM55.258,17H52.992V8.547h2.266Zm-2.4-10.641a1.112,1.112,0,0,1,.34-.836,1.465,1.465,0,0,1,1.848,0,1.105,1.105,0,0,1,.344.836,1.108,1.108,0,0,1-.348.844,1.448,1.448,0,0,1-1.836,0A1.108,1.108,0,0,1,52.859,6.359ZM56.766,12.7a5.013,5.013,0,0,1,.484-2.242A3.546,3.546,0,0,1,58.645,8.93a4.069,4.069,0,0,1,2.113-.539,3.849,3.849,0,0,1,2.793,1.047,4.2,4.2,0,0,1,1.207,2.844l.016.578a4.418,4.418,0,0,1-1.086,3.121,4.209,4.209,0,0,1-5.832,0,4.5,4.5,0,0,1-1.09-3.187Zm2.258.16a3.16,3.16,0,0,0,.453,1.843,1.628,1.628,0,0,0,2.578.008,3.457,3.457,0,0,0,.461-2.015,3.128,3.128,0,0,0-.461-1.831,1.5,1.5,0,0,0-1.3-.649,1.474,1.474,0,0,0-1.281.646A3.516,3.516,0,0,0,59.023,12.856ZM61.2,5h2.461L61.5,7.422H59.664Zm7.039,3.547.07.977a2.951,2.951,0,0,1,2.43-1.133,2.453,2.453,0,0,1,2,.789,3.682,3.682,0,0,1,.672,2.359V17H71.156V11.594a1.465,1.465,0,0,0-.312-1.043,1.4,1.4,0,0,0-1.039-.324,1.553,1.553,0,0,0-1.43.813V17H66.117V8.547Z" transform="translate(875.333 1713.064)" fill="#12263f"/>
    <path id="Trazado_268114" data-name="Trazado 268114" d="M14.605,5.625l2.922,8.25,2.906-8.25h3.078V17H21.16V13.891l.234-5.367L18.324,17H16.715L13.652,8.531l.234,5.359V17H11.543V5.625ZM29.3,17.156a4.15,4.15,0,0,1-3.027-1.141,4.054,4.054,0,0,1-1.168-3.039v-.219A5.106,5.106,0,0,1,25.6,10.48a3.612,3.612,0,0,1,1.395-1.547,3.914,3.914,0,0,1,2.059-.543,3.508,3.508,0,0,1,2.73,1.094,4.444,4.444,0,0,1,1,3.1v.922H27.395a2.1,2.1,0,0,0,.66,1.328,2,2,0,0,0,1.395.5,2.437,2.437,0,0,0,2.039-.945L32.6,15.633a3.389,3.389,0,0,1-1.375,1.121A4.511,4.511,0,0,1,29.3,17.156Zm-.258-6.945a1.411,1.411,0,0,0-1.09.455,2.357,2.357,0,0,0-.535,1.3h3.141v-.181a1.681,1.681,0,0,0-.406-1.165A1.456,1.456,0,0,0,29.043,10.211ZM29.246,5h2.461L29.543,7.422H27.707Zm7.516,1.469V8.547h1.445V10.2H36.762v4.219a1.007,1.007,0,0,0,.18.672.9.9,0,0,0,.688.2,3.6,3.6,0,0,0,.664-.055v1.711a4.648,4.648,0,0,1-1.367.2,2.156,2.156,0,0,1-2.422-2.4V10.2H33.27V8.547H34.5V6.469ZM38.879,12.7a5.013,5.013,0,0,1,.484-2.242A3.546,3.546,0,0,1,40.758,8.93a4.069,4.069,0,0,1,2.113-.539,3.849,3.849,0,0,1,2.793,1.047,4.2,4.2,0,0,1,1.207,2.844l.016.578A4.418,4.418,0,0,1,45.8,15.98a4.209,4.209,0,0,1-5.832,0,4.5,4.5,0,0,1-1.09-3.187Zm2.258.16A3.16,3.16,0,0,0,41.59,14.7a1.628,1.628,0,0,0,2.578.008,3.457,3.457,0,0,0,.461-2.015,3.128,3.128,0,0,0-.461-1.831,1.5,1.5,0,0,0-1.3-.649,1.474,1.474,0,0,0-1.281.646A3.516,3.516,0,0,0,41.137,12.856Zm6.789-.145a5.094,5.094,0,0,1,.887-3.148,2.877,2.877,0,0,1,2.426-1.172,2.589,2.589,0,0,1,2.039.922V5h2.266V17H53.5l-.109-.9a2.657,2.657,0,0,1-2.172,1.055,2.869,2.869,0,0,1-2.395-1.176A5.258,5.258,0,0,1,47.926,12.711Zm2.258.168A3.337,3.337,0,0,0,50.6,14.7a1.349,1.349,0,0,0,1.2.634,1.511,1.511,0,0,0,1.477-.884V11.111a1.489,1.489,0,0,0-1.461-.884Q50.184,10.227,50.184,12.879Zm6.758-.184a5.013,5.013,0,0,1,.484-2.242A3.546,3.546,0,0,1,58.82,8.93a4.069,4.069,0,0,1,2.113-.539,3.849,3.849,0,0,1,2.793,1.047,4.2,4.2,0,0,1,1.207,2.844l.016.578a4.418,4.418,0,0,1-1.086,3.121,4.209,4.209,0,0,1-5.832,0,4.5,4.5,0,0,1-1.09-3.187Zm2.258.16a3.16,3.16,0,0,0,.453,1.843,1.628,1.628,0,0,0,2.578.008,3.457,3.457,0,0,0,.461-2.015,3.128,3.128,0,0,0-.461-1.831,1.5,1.5,0,0,0-1.3-.649,1.474,1.474,0,0,0-1.281.646A3.516,3.516,0,0,0,59.2,12.856Z" transform="translate(1046.333 1713.064)" fill="#12263f"/>
    <path id="Trazado_268095" data-name="Trazado 268095" d="M8.51,11.067A3.4,3.4,0,0,1,7.428,13.33a3.547,3.547,0,0,1-2.422.8,3.257,3.257,0,0,1-2.625-1.174,4.724,4.724,0,0,1-.987-3.142V8.922a5.266,5.266,0,0,1,.46-2.266,3.438,3.438,0,0,1,1.3-1.5,3.632,3.632,0,0,1,1.955-.524,3.34,3.34,0,0,1,2.361.822A3.441,3.441,0,0,1,8.51,7.729H7.285a2.655,2.655,0,0,0-.689-1.6,2.084,2.084,0,0,0-1.482-.5,2.181,2.181,0,0,0-1.831.864A3.966,3.966,0,0,0,2.62,8.95v.9a4.077,4.077,0,0,0,.628,2.4,2.031,2.031,0,0,0,1.758.889,2.345,2.345,0,0,0,1.558-.46,2.554,2.554,0,0,0,.72-1.6ZM14.23,14a2.467,2.467,0,0,1-.165-.724,2.62,2.62,0,0,1-1.955.851,2.424,2.424,0,0,1-1.666-.574A1.859,1.859,0,0,1,9.793,12.1a1.942,1.942,0,0,1,.816-1.666A3.846,3.846,0,0,1,12.9,9.836h1.143V9.3a1.319,1.319,0,0,0-.368-.981,1.48,1.48,0,0,0-1.085-.365,1.712,1.712,0,0,0-1.054.317.935.935,0,0,0-.425.768H9.932a1.621,1.621,0,0,1,.365-.993,2.491,2.491,0,0,1,.99-.759A3.331,3.331,0,0,1,12.662,7a2.715,2.715,0,0,1,1.86.594,2.141,2.141,0,0,1,.7,1.635v3.161a3.865,3.865,0,0,0,.241,1.5V14Zm-1.949-.9a2.064,2.064,0,0,0,1.047-.286,1.728,1.728,0,0,0,.717-.743V10.667h-.92q-2.158,0-2.158,1.263a1.069,1.069,0,0,0,.368.863A1.415,1.415,0,0,0,12.281,13.1Zm10.582-2.463a4.113,4.113,0,0,1-.717,2.526,2.3,2.3,0,0,1-1.942.958,2.519,2.519,0,0,1-1.968-.793v3.307H17.061V7.132h1.073l.057.762A2.419,2.419,0,0,1,20.184,7a2.342,2.342,0,0,1,1.958.933,4.157,4.157,0,0,1,.72,2.6Zm-1.174-.133a3.035,3.035,0,0,0-.5-1.834A1.6,1.6,0,0,0,19.835,8a1.726,1.726,0,0,0-1.6.946v3.282a1.73,1.73,0,0,0,1.612.939,1.587,1.587,0,0,0,1.343-.67A3.312,3.312,0,0,0,21.688,10.509ZM28.594,14a2.467,2.467,0,0,1-.165-.724,2.62,2.62,0,0,1-1.955.851,2.424,2.424,0,0,1-1.666-.574,1.859,1.859,0,0,1-.651-1.457,1.942,1.942,0,0,1,.816-1.666,3.846,3.846,0,0,1,2.295-.594H28.41V9.3a1.319,1.319,0,0,0-.368-.981,1.48,1.48,0,0,0-1.085-.365,1.712,1.712,0,0,0-1.054.317.935.935,0,0,0-.425.768H24.3a1.621,1.621,0,0,1,.365-.993,2.491,2.491,0,0,1,.99-.759A3.331,3.331,0,0,1,27.027,7a2.715,2.715,0,0,1,1.86.594,2.141,2.141,0,0,1,.7,1.635v3.161a3.865,3.865,0,0,0,.241,1.5V14Zm-1.949-.9a2.064,2.064,0,0,0,1.047-.286,1.728,1.728,0,0,0,.717-.743V10.667h-.92q-2.158,0-2.158,1.263a1.069,1.069,0,0,0,.368.863A1.415,1.415,0,0,0,26.646,13.1Zm7.535.063a1.692,1.692,0,0,0,1.1-.381,1.34,1.34,0,0,0,.521-.952H36.91a2.13,2.13,0,0,1-.406,1.124,2.676,2.676,0,0,1-1,.851,2.885,2.885,0,0,1-1.323.317,2.829,2.829,0,0,1-2.231-.936,3.729,3.729,0,0,1-.828-2.561v-.2a4.135,4.135,0,0,1,.368-1.784,2.8,2.8,0,0,1,1.057-1.212A3,3,0,0,1,34.174,7a2.755,2.755,0,0,1,1.92.692,2.473,2.473,0,0,1,.816,1.8H35.8a1.618,1.618,0,0,0-.5-1.095,1.57,1.57,0,0,0-1.12-.428,1.644,1.644,0,0,0-1.387.644,3.026,3.026,0,0,0-.492,1.863V10.7a2.965,2.965,0,0,0,.489,1.828A1.651,1.651,0,0,0,34.18,13.168ZM39.506,14H38.332V7.132h1.174Zm-1.27-8.69a.7.7,0,0,1,.175-.482.655.655,0,0,1,.517-.2.666.666,0,0,1,.521.2.694.694,0,0,1,.178.482.671.671,0,0,1-.178.476.678.678,0,0,1-.521.19.667.667,0,0,1-.517-.19A.678.678,0,0,1,38.237,5.31Zm4.742.159V7.132H44.26V8.04H42.978V12.3a.953.953,0,0,0,.171.62.721.721,0,0,0,.584.207,2.843,2.843,0,0,0,.559-.076V14a3.424,3.424,0,0,1-.9.126,1.462,1.462,0,0,1-1.187-.476,2.045,2.045,0,0,1-.4-1.352V8.04h-1.25V7.132H41.8V5.469ZM49.872,14a2.467,2.467,0,0,1-.165-.724,2.62,2.62,0,0,1-1.955.851,2.424,2.424,0,0,1-1.666-.574,1.859,1.859,0,0,1-.651-1.457,1.942,1.942,0,0,1,.816-1.666,3.846,3.846,0,0,1,2.295-.594h1.143V9.3a1.319,1.319,0,0,0-.368-.981,1.48,1.48,0,0,0-1.085-.365,1.712,1.712,0,0,0-1.054.317.935.935,0,0,0-.425.768H45.574a1.621,1.621,0,0,1,.365-.993,2.491,2.491,0,0,1,.99-.759A3.331,3.331,0,0,1,48.3,7a2.715,2.715,0,0,1,1.86.594,2.141,2.141,0,0,1,.7,1.635v3.161a3.865,3.865,0,0,0,.241,1.5V14Zm-1.949-.9a2.064,2.064,0,0,0,1.047-.286,1.728,1.728,0,0,0,.717-.743V10.667h-.92q-2.158,0-2.158,1.263a1.069,1.069,0,0,0,.368.863A1.415,1.415,0,0,0,47.923,13.1Zm7.535.063a1.692,1.692,0,0,0,1.1-.381,1.34,1.34,0,0,0,.521-.952h1.111a2.13,2.13,0,0,1-.406,1.124,2.676,2.676,0,0,1-1,.851,2.885,2.885,0,0,1-1.323.317,2.829,2.829,0,0,1-2.231-.936,3.729,3.729,0,0,1-.828-2.561v-.2a4.135,4.135,0,0,1,.368-1.784,2.8,2.8,0,0,1,1.057-1.212A3,3,0,0,1,55.451,7a2.755,2.755,0,0,1,1.92.692,2.473,2.473,0,0,1,.816,1.8H57.076a1.618,1.618,0,0,0-.5-1.095,1.57,1.57,0,0,0-1.12-.428,1.644,1.644,0,0,0-1.387.644,3.026,3.026,0,0,0-.492,1.863V10.7a2.965,2.965,0,0,0,.489,1.828A1.651,1.651,0,0,0,55.458,13.168ZM60.783,14H59.609V7.132h1.174Zm-1.27-8.69a.7.7,0,0,1,.175-.482.655.655,0,0,1,.517-.2.666.666,0,0,1,.521.2.694.694,0,0,1,.178.482.671.671,0,0,1-.178.476.678.678,0,0,1-.521.19.667.667,0,0,1-.517-.19A.678.678,0,0,1,59.514,5.31ZM62.351,10.5a4.057,4.057,0,0,1,.4-1.815,2.96,2.96,0,0,1,1.1-1.244A3.007,3.007,0,0,1,65.468,7a2.9,2.9,0,0,1,2.269.971A3.736,3.736,0,0,1,68.6,10.56v.083a4.092,4.092,0,0,1-.384,1.8,2.916,2.916,0,0,1-1.1,1.241,3.041,3.041,0,0,1-1.641.444,2.889,2.889,0,0,1-2.263-.971,3.718,3.718,0,0,1-.866-2.571Zm1.181.14a2.938,2.938,0,0,0,.53,1.834,1.8,1.8,0,0,0,2.841-.01,3.213,3.213,0,0,0,.527-1.965,2.933,2.933,0,0,0-.536-1.831,1.705,1.705,0,0,0-1.425-.7,1.686,1.686,0,0,0-1.4.692A3.189,3.189,0,0,0,63.532,10.642ZM66,4.25h1.422l-1.7,1.866-.946,0Zm5.186,2.882L71.225,8A2.5,2.5,0,0,1,73.282,7q2.177,0,2.2,2.457V14H74.3V9.455a1.581,1.581,0,0,0-.34-1.1A1.361,1.361,0,0,0,72.927,8a1.7,1.7,0,0,0-1,.3,2.069,2.069,0,0,0-.673.8V14H70.076V7.132Z" transform="translate(678.333 1474.064)" fill="#12263f"/>
    <path id="Trazado_268096" data-name="Trazado 268096" d="M10.6,10.261H8.432V14H7.207V4.758h3.06a3.621,3.621,0,0,1,2.4.711,2.558,2.558,0,0,1,.841,2.069,2.488,2.488,0,0,1-.467,1.5,2.785,2.785,0,0,1-1.3.958l2.171,3.923V14H12.608Zm-2.171-1H10.3a2.112,2.112,0,0,0,1.444-.471,1.591,1.591,0,0,0,.536-1.259,1.676,1.676,0,0,0-.511-1.316A2.164,2.164,0,0,0,10.3,5.754H8.432ZM14.722,10.5a4.057,4.057,0,0,1,.4-1.815,2.96,2.96,0,0,1,1.1-1.244A3.007,3.007,0,0,1,17.839,7a2.9,2.9,0,0,1,2.269.971,3.736,3.736,0,0,1,.866,2.583v.083a4.092,4.092,0,0,1-.384,1.8,2.916,2.916,0,0,1-1.1,1.241,3.041,3.041,0,0,1-1.641.444,2.889,2.889,0,0,1-2.263-.971,3.718,3.718,0,0,1-.866-2.571Zm1.181.14a2.938,2.938,0,0,0,.53,1.834,1.8,1.8,0,0,0,2.841-.01A3.213,3.213,0,0,0,19.8,10.5a2.933,2.933,0,0,0-.536-1.831,1.705,1.705,0,0,0-1.425-.7,1.686,1.686,0,0,0-1.4.692A3.189,3.189,0,0,0,15.9,10.642Zm8.138-5.173V7.132h1.282V8.04H24.041V12.3a.953.953,0,0,0,.171.62.721.721,0,0,0,.584.207,2.843,2.843,0,0,0,.559-.076V14a3.424,3.424,0,0,1-.9.126,1.462,1.462,0,0,1-1.187-.476,2.045,2.045,0,0,1-.4-1.352V8.04h-1.25V7.132h1.25V5.469ZM30.934,14a2.467,2.467,0,0,1-.165-.724,2.62,2.62,0,0,1-1.955.851,2.424,2.424,0,0,1-1.666-.574A1.859,1.859,0,0,1,26.5,12.1a1.942,1.942,0,0,1,.816-1.666,3.846,3.846,0,0,1,2.295-.594H30.75V9.3a1.319,1.319,0,0,0-.368-.981A1.48,1.48,0,0,0,29.3,7.951a1.712,1.712,0,0,0-1.054.317.935.935,0,0,0-.425.768H26.637A1.621,1.621,0,0,1,27,8.043a2.491,2.491,0,0,1,.99-.759A3.331,3.331,0,0,1,29.366,7a2.715,2.715,0,0,1,1.86.594,2.141,2.141,0,0,1,.7,1.635v3.161a3.865,3.865,0,0,0,.241,1.5V14Zm-1.949-.9a2.064,2.064,0,0,0,1.047-.286,1.728,1.728,0,0,0,.717-.743V10.667h-.92q-2.158,0-2.158,1.263a1.069,1.069,0,0,0,.368.863A1.415,1.415,0,0,0,28.985,13.1Zm7.535.063a1.692,1.692,0,0,0,1.1-.381,1.34,1.34,0,0,0,.521-.952H39.25a2.13,2.13,0,0,1-.406,1.124,2.676,2.676,0,0,1-1,.851,2.885,2.885,0,0,1-1.323.317,2.829,2.829,0,0,1-2.231-.936,3.729,3.729,0,0,1-.828-2.561v-.2a4.135,4.135,0,0,1,.368-1.784,2.8,2.8,0,0,1,1.057-1.212A3,3,0,0,1,36.514,7a2.755,2.755,0,0,1,1.92.692,2.473,2.473,0,0,1,.816,1.8H38.139a1.618,1.618,0,0,0-.5-1.095,1.57,1.57,0,0,0-1.12-.428,1.644,1.644,0,0,0-1.387.644,3.026,3.026,0,0,0-.492,1.863V10.7a2.965,2.965,0,0,0,.489,1.828A1.651,1.651,0,0,0,36.52,13.168ZM41.846,14H40.671V7.132h1.174Zm-1.27-8.69a.7.7,0,0,1,.175-.482.655.655,0,0,1,.517-.2.666.666,0,0,1,.521.2.694.694,0,0,1,.178.482.671.671,0,0,1-.178.476.678.678,0,0,1-.521.19.667.667,0,0,1-.517-.19A.678.678,0,0,1,40.576,5.31ZM43.414,10.5a4.057,4.057,0,0,1,.4-1.815,2.96,2.96,0,0,1,1.1-1.244A3.007,3.007,0,0,1,46.53,7a2.9,2.9,0,0,1,2.269.971,3.736,3.736,0,0,1,.866,2.583v.083a4.092,4.092,0,0,1-.384,1.8,2.916,2.916,0,0,1-1.1,1.241,3.041,3.041,0,0,1-1.641.444,2.889,2.889,0,0,1-2.263-.971,3.718,3.718,0,0,1-.866-2.571Zm1.181.14a2.938,2.938,0,0,0,.53,1.834,1.8,1.8,0,0,0,2.841-.01,3.213,3.213,0,0,0,.527-1.965,2.933,2.933,0,0,0-.536-1.831,1.705,1.705,0,0,0-1.425-.7,1.686,1.686,0,0,0-1.4.692A3.189,3.189,0,0,0,44.594,10.642ZM47.063,4.25h1.422l-1.7,1.866-.946,0ZM52.25,7.132,52.288,8A2.5,2.5,0,0,1,54.344,7q2.177,0,2.2,2.457V14H55.366V9.455a1.581,1.581,0,0,0-.34-1.1A1.361,1.361,0,0,0,53.989,8a1.7,1.7,0,0,0-1,.3,2.069,2.069,0,0,0-.673.8V14H51.139V7.132Zm8.995,3.377a4.023,4.023,0,0,1,.749-2.542,2.548,2.548,0,0,1,3.872-.136V4.25H67.04V14H65.96l-.057-.736a2.391,2.391,0,0,1-1.961.863A2.346,2.346,0,0,1,62,13.149a4.069,4.069,0,0,1-.752-2.552Zm1.174.133A3.046,3.046,0,0,0,62.9,12.47a1.56,1.56,0,0,0,1.333.66,1.713,1.713,0,0,0,1.631-1V8.973A1.726,1.726,0,0,0,64.247,8a1.567,1.567,0,0,0-1.346.667A3.354,3.354,0,0,0,62.418,10.642Zm9.293,3.485a3,3,0,0,1-2.272-.917,3.4,3.4,0,0,1-.876-2.453v-.216a4.121,4.121,0,0,1,.39-1.825,3.045,3.045,0,0,1,1.092-1.257A2.745,2.745,0,0,1,71.565,7a2.572,2.572,0,0,1,2.082.882,3.82,3.82,0,0,1,.743,2.526V10.9H69.737a2.441,2.441,0,0,0,.594,1.641,1.866,1.866,0,0,0,1.444.625,2.045,2.045,0,0,0,1.054-.254,2.648,2.648,0,0,0,.755-.673l.717.559A2.884,2.884,0,0,1,71.711,14.127ZM71.565,7.97a1.566,1.566,0,0,0-1.193.517,2.515,2.515,0,0,0-.6,1.45h3.44V9.849a2.237,2.237,0,0,0-.482-1.387A1.475,1.475,0,0,0,71.565,7.97ZM6.613,23.469v1.663H7.9v.908H6.613V30.3a.953.953,0,0,0,.171.62.721.721,0,0,0,.584.207,2.843,2.843,0,0,0,.559-.076V32a3.424,3.424,0,0,1-.9.126,1.462,1.462,0,0,1-1.187-.476,2.045,2.045,0,0,1-.4-1.352V26.04H4.188v-.908h1.25V23.469Zm5.973,2.717a3.519,3.519,0,0,0-.578-.044,1.547,1.547,0,0,0-1.568.984V32H9.266V25.132h1.143l.019.793A1.829,1.829,0,0,1,12.066,25a1.2,1.2,0,0,1,.521.089ZM17.652,32a2.467,2.467,0,0,1-.165-.724,2.62,2.62,0,0,1-1.955.851,2.424,2.424,0,0,1-1.666-.574,1.859,1.859,0,0,1-.651-1.457,1.942,1.942,0,0,1,.816-1.666,3.846,3.846,0,0,1,2.295-.594h1.143V27.3a1.319,1.319,0,0,0-.368-.981,1.48,1.48,0,0,0-1.085-.365,1.712,1.712,0,0,0-1.054.317.935.935,0,0,0-.425.768H13.354a1.621,1.621,0,0,1,.365-.993,2.491,2.491,0,0,1,.99-.759A3.331,3.331,0,0,1,16.084,25a2.715,2.715,0,0,1,1.86.594,2.141,2.141,0,0,1,.7,1.635v3.161a3.865,3.865,0,0,0,.241,1.5V32ZM15.7,31.1a2.064,2.064,0,0,0,1.047-.286,1.728,1.728,0,0,0,.717-.743V28.667h-.92q-2.158,0-2.158,1.263a1.069,1.069,0,0,0,.368.863A1.415,1.415,0,0,0,15.7,31.1ZM26.3,28.642a4.084,4.084,0,0,1-.724,2.53,2.312,2.312,0,0,1-1.942.955,2.394,2.394,0,0,1-2.012-.92L21.562,32H20.483V22.25h1.174v3.637A2.381,2.381,0,0,1,23.618,25a2.326,2.326,0,0,1,1.965.946,4.206,4.206,0,0,1,.714,2.59Zm-1.174-.133a3.173,3.173,0,0,0-.463-1.854A1.534,1.534,0,0,0,23.326,26a1.724,1.724,0,0,0-1.669,1.079v2.971a1.772,1.772,0,0,0,1.682,1.079,1.526,1.526,0,0,0,1.314-.654A3.375,3.375,0,0,0,25.123,28.509ZM32.016,32a2.467,2.467,0,0,1-.165-.724,2.62,2.62,0,0,1-1.955.851,2.424,2.424,0,0,1-1.666-.574,1.859,1.859,0,0,1-.651-1.457,1.942,1.942,0,0,1,.816-1.666,3.846,3.846,0,0,1,2.295-.594h1.143V27.3a1.319,1.319,0,0,0-.368-.981,1.48,1.48,0,0,0-1.085-.365,1.712,1.712,0,0,0-1.054.317.935.935,0,0,0-.425.768H27.719a1.621,1.621,0,0,1,.365-.993,2.491,2.491,0,0,1,.99-.759A3.331,3.331,0,0,1,30.448,25a2.715,2.715,0,0,1,1.86.594,2.141,2.141,0,0,1,.7,1.635v3.161a3.865,3.865,0,0,0,.241,1.5V32Zm-1.949-.9a2.064,2.064,0,0,0,1.047-.286,1.728,1.728,0,0,0,.717-.743V28.667h-.92q-2.158,0-2.158,1.263a1.069,1.069,0,0,0,.368.863A1.415,1.415,0,0,0,30.068,31.1Zm5.992-5.973v7.662q0,1.98-1.8,1.98a2.191,2.191,0,0,1-.717-.114v-.934a2.27,2.27,0,0,0,.533.051.8.8,0,0,0,.6-.213,1.052,1.052,0,0,0,.206-.74V25.132ZM34.765,23.31a.7.7,0,0,1,.175-.479.642.642,0,0,1,.511-.2.666.666,0,0,1,.521.2.694.694,0,0,1,.178.482.671.671,0,0,1-.178.476.678.678,0,0,1-.521.19.657.657,0,0,1-.514-.19A.685.685,0,0,1,34.765,23.31ZM42.192,32a2.467,2.467,0,0,1-.165-.724,2.62,2.62,0,0,1-1.955.851,2.424,2.424,0,0,1-1.666-.574,1.859,1.859,0,0,1-.651-1.457,1.942,1.942,0,0,1,.816-1.666,3.846,3.846,0,0,1,2.295-.594h1.143V27.3a1.319,1.319,0,0,0-.368-.981,1.48,1.48,0,0,0-1.085-.365,1.712,1.712,0,0,0-1.054.317.935.935,0,0,0-.425.768H37.894a1.621,1.621,0,0,1,.365-.993,2.491,2.491,0,0,1,.99-.759A3.331,3.331,0,0,1,40.624,25a2.715,2.715,0,0,1,1.86.594,2.141,2.141,0,0,1,.7,1.635v3.161a3.865,3.865,0,0,0,.241,1.5V32Zm-1.949-.9a2.064,2.064,0,0,0,1.047-.286,1.728,1.728,0,0,0,.717-.743V28.667h-.92q-2.158,0-2.158,1.263a1.069,1.069,0,0,0,.368.863A1.415,1.415,0,0,0,40.243,31.1Zm4.494-2.6a4.023,4.023,0,0,1,.749-2.542,2.548,2.548,0,0,1,3.872-.136V22.25h1.174V32H49.453l-.057-.736a2.391,2.391,0,0,1-1.961.863,2.346,2.346,0,0,1-1.946-.978,4.069,4.069,0,0,1-.752-2.552Zm1.174.133a3.046,3.046,0,0,0,.482,1.828,1.56,1.56,0,0,0,1.333.66,1.713,1.713,0,0,0,1.631-1V26.973A1.726,1.726,0,0,0,47.74,26a1.567,1.567,0,0,0-1.346.667A3.354,3.354,0,0,0,45.911,28.642Zm6.132-.14a4.057,4.057,0,0,1,.4-1.815,2.96,2.96,0,0,1,1.1-1.244A3.007,3.007,0,0,1,55.16,25a2.9,2.9,0,0,1,2.269.971A3.736,3.736,0,0,1,58.3,28.56v.083a4.092,4.092,0,0,1-.384,1.8,2.916,2.916,0,0,1-1.1,1.241,3.041,3.041,0,0,1-1.641.444,2.889,2.889,0,0,1-2.263-.971,3.718,3.718,0,0,1-.866-2.571Zm1.181.14a2.938,2.938,0,0,0,.53,1.834,1.8,1.8,0,0,0,2.841-.01,3.213,3.213,0,0,0,.527-1.965,2.933,2.933,0,0,0-.536-1.831,1.705,1.705,0,0,0-1.425-.7,1.686,1.686,0,0,0-1.4.692A3.189,3.189,0,0,0,53.224,28.642Zm9.864-2.457a3.519,3.519,0,0,0-.578-.044,1.547,1.547,0,0,0-1.568.984V32H59.768V25.132h1.143l.019.793A1.829,1.829,0,0,1,62.568,25a1.2,1.2,0,0,1,.521.089Zm3.929,5.941a3,3,0,0,1-2.272-.917,3.4,3.4,0,0,1-.876-2.453v-.216a4.121,4.121,0,0,1,.39-1.825,3.045,3.045,0,0,1,1.092-1.257A2.745,2.745,0,0,1,66.871,25a2.572,2.572,0,0,1,2.082.882,3.82,3.82,0,0,1,.743,2.526V28.9H65.043a2.441,2.441,0,0,0,.594,1.641,1.866,1.866,0,0,0,1.444.625,2.045,2.045,0,0,0,1.054-.254,2.648,2.648,0,0,0,.755-.673l.717.559A2.884,2.884,0,0,1,67.017,32.127Zm-.146-6.157a1.566,1.566,0,0,0-1.193.517,2.515,2.515,0,0,0-.6,1.45h3.44v-.089a2.237,2.237,0,0,0-.482-1.387A1.475,1.475,0,0,0,66.871,25.97Zm8.182,4.208a.864.864,0,0,0-.359-.74,3.452,3.452,0,0,0-1.25-.454,5.912,5.912,0,0,1-1.416-.457,2.014,2.014,0,0,1-.774-.635A1.518,1.518,0,0,1,71,27.017a1.782,1.782,0,0,1,.714-1.428A2.789,2.789,0,0,1,73.543,25a2.87,2.87,0,0,1,1.895.6,1.915,1.915,0,0,1,.727,1.542H74.984a1.06,1.06,0,0,0-.409-.832,1.534,1.534,0,0,0-1.031-.349,1.606,1.606,0,0,0-1,.279.879.879,0,0,0-.362.73.712.712,0,0,0,.336.641,4.139,4.139,0,0,0,1.216.413,6.334,6.334,0,0,1,1.425.47,2.079,2.079,0,0,1,.809.657,1.615,1.615,0,0,1,.263.936,1.758,1.758,0,0,1-.736,1.476,3.089,3.089,0,0,1-1.911.555,3.459,3.459,0,0,1-1.46-.292,2.375,2.375,0,0,1-.993-.816,1.966,1.966,0,0,1-.359-1.133h1.174a1.216,1.216,0,0,0,.473.936,1.835,1.835,0,0,0,1.165.346,1.894,1.894,0,0,0,1.07-.27A.829.829,0,0,0,75.053,30.178Z" transform="translate(703.333 1516.064)" fill="#12263f"/>
    <path id="Trazado_268097" data-name="Trazado 268097" d="M3.048,4.758,6.07,12.3,9.091,4.758h1.581V14H9.453V10.4l.114-3.885L6.533,14H5.6L2.572,6.535,2.693,10.4V14H1.474V4.758ZM16.88,14a2.467,2.467,0,0,1-.165-.724,2.62,2.62,0,0,1-1.955.851,2.424,2.424,0,0,1-1.666-.574,1.859,1.859,0,0,1-.651-1.457,1.942,1.942,0,0,1,.816-1.666,3.846,3.846,0,0,1,2.295-.594H16.7V9.3a1.319,1.319,0,0,0-.368-.981,1.48,1.48,0,0,0-1.085-.365,1.712,1.712,0,0,0-1.054.317.935.935,0,0,0-.425.768H12.582a1.621,1.621,0,0,1,.365-.993,2.491,2.491,0,0,1,.99-.759A3.331,3.331,0,0,1,15.312,7a2.715,2.715,0,0,1,1.86.594,2.141,2.141,0,0,1,.7,1.635v3.161a3.865,3.865,0,0,0,.241,1.5V14Zm-1.949-.9a2.064,2.064,0,0,0,1.047-.286,1.728,1.728,0,0,0,.717-.743V10.667h-.92q-2.158,0-2.158,1.263a1.069,1.069,0,0,0,.368.863A1.415,1.415,0,0,0,14.931,13.1Zm5.891-5.973L20.86,8A2.5,2.5,0,0,1,22.916,7q2.177,0,2.2,2.457V14H23.938V9.455a1.581,1.581,0,0,0-.34-1.1A1.361,1.361,0,0,0,22.561,8a1.7,1.7,0,0,0-1,.3,2.069,2.069,0,0,0-.673.8V14H19.711V7.132Zm7.655-1.663V7.132h1.282V8.04H28.477V12.3a.953.953,0,0,0,.171.62.721.721,0,0,0,.584.207,2.843,2.843,0,0,0,.559-.076V14a3.424,3.424,0,0,1-.9.126,1.462,1.462,0,0,1-1.187-.476,2.045,2.045,0,0,1-.4-1.352V8.04h-1.25V7.132H27.3V5.469Zm5.5,8.658a3,3,0,0,1-2.272-.917,3.4,3.4,0,0,1-.876-2.453v-.216a4.121,4.121,0,0,1,.39-1.825,3.045,3.045,0,0,1,1.092-1.257A2.745,2.745,0,0,1,33.834,7a2.572,2.572,0,0,1,2.082.882,3.82,3.82,0,0,1,.743,2.526V10.9H32.006a2.441,2.441,0,0,0,.594,1.641,1.866,1.866,0,0,0,1.444.625,2.045,2.045,0,0,0,1.054-.254,2.648,2.648,0,0,0,.755-.673l.717.559A2.884,2.884,0,0,1,33.98,14.127ZM33.834,7.97a1.566,1.566,0,0,0-1.193.517,2.515,2.515,0,0,0-.6,1.45h3.44V9.849A2.237,2.237,0,0,0,35,8.462,1.475,1.475,0,0,0,33.834,7.97Zm5.294-.838L39.166,8A2.5,2.5,0,0,1,41.223,7q2.177,0,2.2,2.457V14H42.245V9.455a1.581,1.581,0,0,0-.34-1.1A1.361,1.361,0,0,0,40.867,8a1.7,1.7,0,0,0-1,.3,2.069,2.069,0,0,0-.673.8V14H38.017V7.132ZM46.466,14H45.292V7.132h1.174ZM45.2,5.31a.7.7,0,0,1,.175-.482.655.655,0,0,1,.517-.2.666.666,0,0,1,.521.2.694.694,0,0,1,.178.482.671.671,0,0,1-.178.476.678.678,0,0,1-.521.19.667.667,0,0,1-.517-.19A.678.678,0,0,1,45.2,5.31Zm4.253,1.822.032.762A2.536,2.536,0,0,1,51.519,7a1.964,1.964,0,0,1,1.961,1.1,2.6,2.6,0,0,1,.892-.8,2.634,2.634,0,0,1,1.3-.3q2.26,0,2.3,2.393V14H56.794V9.468a1.577,1.577,0,0,0-.336-1.1A1.482,1.482,0,0,0,55.327,8a1.557,1.557,0,0,0-1.085.39,1.584,1.584,0,0,0-.5,1.051V14H52.56V9.5A1.31,1.31,0,0,0,51.094,8a1.571,1.571,0,0,0-1.581.984V14H48.339V7.132ZM61.015,14H59.841V7.132h1.174Zm-1.27-8.69a.7.7,0,0,1,.175-.482.655.655,0,0,1,.517-.2.666.666,0,0,1,.521.2.694.694,0,0,1,.178.482.671.671,0,0,1-.178.476.678.678,0,0,1-.521.19.667.667,0,0,1-.517-.19A.678.678,0,0,1,59.745,5.31Zm6,8.817a3,3,0,0,1-2.272-.917,3.4,3.4,0,0,1-.876-2.453v-.216a4.121,4.121,0,0,1,.39-1.825,3.045,3.045,0,0,1,1.092-1.257A2.745,2.745,0,0,1,65.6,7a2.572,2.572,0,0,1,2.082.882,3.82,3.82,0,0,1,.743,2.526V10.9H63.77a2.441,2.441,0,0,0,.594,1.641,1.866,1.866,0,0,0,1.444.625,2.045,2.045,0,0,0,1.054-.254,2.648,2.648,0,0,0,.755-.673l.717.559A2.884,2.884,0,0,1,65.744,14.127ZM65.6,7.97a1.566,1.566,0,0,0-1.193.517,2.515,2.515,0,0,0-.6,1.45h3.44V9.849a2.237,2.237,0,0,0-.482-1.387A1.475,1.475,0,0,0,65.6,7.97Zm5.294-.838L70.93,8A2.5,2.5,0,0,1,72.987,7q2.177,0,2.2,2.457V14H74.009V9.455a1.581,1.581,0,0,0-.34-1.1A1.361,1.361,0,0,0,72.631,8a1.7,1.7,0,0,0-1,.3,2.069,2.069,0,0,0-.673.8V14H69.781V7.132Zm7.655-1.663V7.132h1.282V8.04H78.547V12.3a.953.953,0,0,0,.171.62.721.721,0,0,0,.584.207,2.843,2.843,0,0,0,.559-.076V14a3.424,3.424,0,0,1-.9.126,1.462,1.462,0,0,1-1.187-.476,2.045,2.045,0,0,1-.4-1.352V8.04h-1.25V7.132h1.25V5.469ZM80.762,10.5a4.057,4.057,0,0,1,.4-1.815,2.96,2.96,0,0,1,1.1-1.244A3.007,3.007,0,0,1,83.879,7a2.9,2.9,0,0,1,2.269.971,3.736,3.736,0,0,1,.866,2.583v.083a4.092,4.092,0,0,1-.384,1.8,2.916,2.916,0,0,1-1.1,1.241,3.041,3.041,0,0,1-1.641.444,2.889,2.889,0,0,1-2.263-.971,3.718,3.718,0,0,1-.866-2.571Zm1.181.14a2.938,2.938,0,0,0,.53,1.834,1.8,1.8,0,0,0,2.841-.01,3.213,3.213,0,0,0,.527-1.965A2.933,2.933,0,0,0,85.3,8.671a1.705,1.705,0,0,0-1.425-.7,1.686,1.686,0,0,0-1.4.692A3.189,3.189,0,0,0,81.943,10.642Z" transform="translate(831.333 1494.064)" fill="#12263f"/>
    <path id="Trazado_268102" data-name="Trazado 268102" d="M7.611,5.754H4.641V14H3.428V5.754H.464v-1H7.611ZM12.321,14a2.467,2.467,0,0,1-.165-.724,2.62,2.62,0,0,1-1.955.851,2.424,2.424,0,0,1-1.666-.574A1.859,1.859,0,0,1,7.884,12.1,1.942,1.942,0,0,1,8.7,10.429a3.846,3.846,0,0,1,2.295-.594h1.143V9.3a1.319,1.319,0,0,0-.368-.981,1.48,1.48,0,0,0-1.085-.365,1.712,1.712,0,0,0-1.054.317.935.935,0,0,0-.425.768H8.024a1.621,1.621,0,0,1,.365-.993,2.491,2.491,0,0,1,.99-.759A3.331,3.331,0,0,1,10.753,7a2.715,2.715,0,0,1,1.86.594,2.141,2.141,0,0,1,.7,1.635v3.161a3.865,3.865,0,0,0,.241,1.5V14Zm-1.949-.9a2.064,2.064,0,0,0,1.047-.286,1.728,1.728,0,0,0,.717-.743V10.667h-.92q-2.158,0-2.158,1.263a1.069,1.069,0,0,0,.368.863A1.415,1.415,0,0,0,10.373,13.1Zm8.779-.927a.864.864,0,0,0-.359-.74,3.452,3.452,0,0,0-1.25-.454,5.912,5.912,0,0,1-1.416-.457,2.014,2.014,0,0,1-.774-.635,1.518,1.518,0,0,1-.251-.876,1.782,1.782,0,0,1,.714-1.428A2.789,2.789,0,0,1,17.641,7a2.87,2.87,0,0,1,1.895.6,1.915,1.915,0,0,1,.727,1.542H19.082a1.06,1.06,0,0,0-.409-.832,1.534,1.534,0,0,0-1.031-.349,1.605,1.605,0,0,0-1,.279.879.879,0,0,0-.362.73.712.712,0,0,0,.336.641,4.139,4.139,0,0,0,1.216.413,6.334,6.334,0,0,1,1.425.47,2.079,2.079,0,0,1,.809.657,1.615,1.615,0,0,1,.263.936,1.758,1.758,0,0,1-.736,1.476,3.089,3.089,0,0,1-1.911.555,3.459,3.459,0,0,1-1.46-.292,2.375,2.375,0,0,1-.993-.816,1.966,1.966,0,0,1-.359-1.133h1.174a1.216,1.216,0,0,0,.473.936,1.835,1.835,0,0,0,1.165.346,1.894,1.894,0,0,0,1.07-.27A.829.829,0,0,0,19.151,12.178ZM26.1,14a2.467,2.467,0,0,1-.165-.724,2.62,2.62,0,0,1-1.955.851,2.424,2.424,0,0,1-1.666-.574,1.859,1.859,0,0,1-.651-1.457,1.942,1.942,0,0,1,.816-1.666,3.846,3.846,0,0,1,2.295-.594h1.143V9.3a1.319,1.319,0,0,0-.368-.981,1.48,1.48,0,0,0-1.085-.365,1.712,1.712,0,0,0-1.054.317.935.935,0,0,0-.425.768H21.8a1.621,1.621,0,0,1,.365-.993,2.491,2.491,0,0,1,.99-.759A3.331,3.331,0,0,1,24.528,7a2.715,2.715,0,0,1,1.86.594,2.141,2.141,0,0,1,.7,1.635v3.161a3.865,3.865,0,0,0,.241,1.5V14Zm-1.949-.9a2.064,2.064,0,0,0,1.047-.286,1.728,1.728,0,0,0,.717-.743V10.667h-.92q-2.158,0-2.158,1.263a1.069,1.069,0,0,0,.368.863A1.415,1.415,0,0,0,24.147,13.1Zm8.779-.927a.865.865,0,0,0-.359-.74,3.452,3.452,0,0,0-1.25-.454,5.912,5.912,0,0,1-1.416-.457,2.014,2.014,0,0,1-.774-.635,1.518,1.518,0,0,1-.251-.876,1.782,1.782,0,0,1,.714-1.428A2.789,2.789,0,0,1,31.415,7a2.87,2.87,0,0,1,1.895.6,1.915,1.915,0,0,1,.727,1.542H32.856a1.06,1.06,0,0,0-.409-.832,1.534,1.534,0,0,0-1.031-.349,1.605,1.605,0,0,0-1,.279.879.879,0,0,0-.362.73.712.712,0,0,0,.336.641,4.139,4.139,0,0,0,1.216.413,6.334,6.334,0,0,1,1.425.47,2.079,2.079,0,0,1,.809.657,1.615,1.615,0,0,1,.263.936,1.758,1.758,0,0,1-.736,1.476,3.089,3.089,0,0,1-1.911.555,3.459,3.459,0,0,1-1.46-.292A2.375,2.375,0,0,1,29,13.019a1.966,1.966,0,0,1-.359-1.133h1.174a1.216,1.216,0,0,0,.473.936,1.835,1.835,0,0,0,1.165.346,1.894,1.894,0,0,0,1.07-.27A.829.829,0,0,0,32.926,12.178Zm5.637-1.669a4.023,4.023,0,0,1,.749-2.542,2.548,2.548,0,0,1,3.872-.136V4.25h1.174V14H43.279l-.057-.736a2.391,2.391,0,0,1-1.961.863,2.346,2.346,0,0,1-1.946-.978,4.069,4.069,0,0,1-.752-2.552Zm1.174.133a3.046,3.046,0,0,0,.482,1.828,1.56,1.56,0,0,0,1.333.66,1.713,1.713,0,0,0,1.631-1V8.973A1.726,1.726,0,0,0,41.565,8a1.567,1.567,0,0,0-1.346.667A3.354,3.354,0,0,0,39.737,10.642Zm9.293,3.485a3,3,0,0,1-2.272-.917,3.4,3.4,0,0,1-.876-2.453v-.216a4.121,4.121,0,0,1,.39-1.825,3.045,3.045,0,0,1,1.092-1.257A2.745,2.745,0,0,1,48.884,7a2.572,2.572,0,0,1,2.082.882,3.82,3.82,0,0,1,.743,2.526V10.9H47.056a2.441,2.441,0,0,0,.594,1.641,1.866,1.866,0,0,0,1.444.625,2.045,2.045,0,0,0,1.054-.254,2.648,2.648,0,0,0,.755-.673l.717.559A2.884,2.884,0,0,1,49.03,14.127ZM48.884,7.97a1.566,1.566,0,0,0-1.193.517,2.515,2.515,0,0,0-.6,1.45h3.44V9.849a2.237,2.237,0,0,0-.482-1.387A1.475,1.475,0,0,0,48.884,7.97ZM57.561,14H56.387V7.132h1.174Zm-1.27-8.69a.7.7,0,0,1,.175-.482.655.655,0,0,1,.517-.2.666.666,0,0,1,.521.2.694.694,0,0,1,.178.482.671.671,0,0,1-.178.476.678.678,0,0,1-.521.19.667.667,0,0,1-.517-.19A.678.678,0,0,1,56.292,5.31Zm4.259,1.822L60.589,8A2.5,2.5,0,0,1,62.646,7q2.177,0,2.2,2.457V14H63.667V9.455a1.581,1.581,0,0,0-.34-1.1A1.361,1.361,0,0,0,62.29,8a1.7,1.7,0,0,0-1,.3,2.069,2.069,0,0,0-.673.8V14H59.44V7.132Zm7.655-1.663V7.132h1.282V8.04H68.206V12.3a.953.953,0,0,0,.171.62.721.721,0,0,0,.584.207,2.843,2.843,0,0,0,.559-.076V14a3.424,3.424,0,0,1-.9.126,1.462,1.462,0,0,1-1.187-.476,2.045,2.045,0,0,1-.4-1.352V8.04h-1.25V7.132h1.25V5.469Zm5.5,8.658a3,3,0,0,1-2.272-.917,3.4,3.4,0,0,1-.876-2.453v-.216a4.121,4.121,0,0,1,.39-1.825,3.045,3.045,0,0,1,1.092-1.257A2.745,2.745,0,0,1,73.563,7a2.572,2.572,0,0,1,2.082.882,3.82,3.82,0,0,1,.743,2.526V10.9H71.735a2.441,2.441,0,0,0,.594,1.641,1.866,1.866,0,0,0,1.444.625,2.045,2.045,0,0,0,1.054-.254,2.648,2.648,0,0,0,.755-.673l.717.559A2.884,2.884,0,0,1,73.709,14.127ZM73.563,7.97a1.566,1.566,0,0,0-1.193.517,2.515,2.515,0,0,0-.6,1.45h3.44V9.849a2.237,2.237,0,0,0-.482-1.387A1.475,1.475,0,0,0,73.563,7.97Zm7.5.216a3.519,3.519,0,0,0-.578-.044,1.547,1.547,0,0,0-1.568.984V14H77.747V7.132h1.143l.019.793A1.829,1.829,0,0,1,80.546,7a1.2,1.2,0,0,1,.521.089ZM85,14.127a3,3,0,0,1-2.272-.917,3.4,3.4,0,0,1-.876-2.453v-.216a4.121,4.121,0,0,1,.39-1.825,3.045,3.045,0,0,1,1.092-1.257A2.745,2.745,0,0,1,84.85,7a2.572,2.572,0,0,1,2.082.882,3.82,3.82,0,0,1,.743,2.526V10.9H83.021a2.441,2.441,0,0,0,.594,1.641,1.866,1.866,0,0,0,1.444.625,2.045,2.045,0,0,0,1.054-.254,2.648,2.648,0,0,0,.755-.673l.717.559A2.884,2.884,0,0,1,85,14.127ZM84.85,7.97a1.566,1.566,0,0,0-1.193.517,2.515,2.515,0,0,0-.6,1.45H86.5V9.849a2.237,2.237,0,0,0-.482-1.387A1.475,1.475,0,0,0,84.85,7.97Zm.571-3.72h1.422l-1.7,1.866-.946,0Zm7.611,7.928a.864.864,0,0,0-.359-.74,3.452,3.452,0,0,0-1.25-.454,5.912,5.912,0,0,1-1.416-.457,2.014,2.014,0,0,1-.774-.635,1.518,1.518,0,0,1-.251-.876A1.782,1.782,0,0,1,89.7,7.589,2.789,2.789,0,0,1,91.521,7a2.87,2.87,0,0,1,1.895.6,1.915,1.915,0,0,1,.727,1.542H92.962a1.06,1.06,0,0,0-.409-.832,1.534,1.534,0,0,0-1.031-.349,1.606,1.606,0,0,0-1,.279.879.879,0,0,0-.362.73.712.712,0,0,0,.336.641,4.139,4.139,0,0,0,1.216.413,6.334,6.334,0,0,1,1.425.47,2.079,2.079,0,0,1,.809.657,1.615,1.615,0,0,1,.263.936,1.758,1.758,0,0,1-.736,1.476,3.089,3.089,0,0,1-1.911.555,3.459,3.459,0,0,1-1.46-.292,2.375,2.375,0,0,1-.993-.816,1.966,1.966,0,0,1-.359-1.133h1.174a1.216,1.216,0,0,0,.473.936,1.835,1.835,0,0,0,1.165.346,1.894,1.894,0,0,0,1.07-.27A.829.829,0,0,0,93.032,12.178Z" transform="translate(990.333 1476.064)" fill="#12263f"/>
    <path id="Trazado_268106" data-name="Trazado 268106" d="M3.895,13h4.38v1H2.67V4.758H3.895Zm8.436,1.124a3,3,0,0,1-2.272-.917,3.4,3.4,0,0,1-.876-2.453v-.216a4.121,4.121,0,0,1,.39-1.825,3.045,3.045,0,0,1,1.092-1.257A2.745,2.745,0,0,1,12.185,7a2.572,2.572,0,0,1,2.082.882,3.82,3.82,0,0,1,.743,2.526V10.9H10.357a2.441,2.441,0,0,0,.594,1.641,1.866,1.866,0,0,0,1.444.625,2.045,2.045,0,0,0,1.054-.254,2.648,2.648,0,0,0,.755-.673l.717.559A2.884,2.884,0,0,1,12.331,14.127ZM12.185,7.97a1.566,1.566,0,0,0-1.193.517,2.515,2.515,0,0,0-.6,1.45h3.44V9.849a2.237,2.237,0,0,0-.482-1.387A1.475,1.475,0,0,0,12.185,7.97Zm3.9,2.539a4.037,4.037,0,0,1,.743-2.555,2.56,2.56,0,0,1,3.929-.06l.057-.762H21.89v6.7a2.794,2.794,0,0,1-.79,2.1,2.916,2.916,0,0,1-2.123.768,3.532,3.532,0,0,1-1.454-.317,2.5,2.5,0,0,1-1.085-.87l.609-.7a2.3,2.3,0,0,0,1.847.933,1.8,1.8,0,0,0,1.336-.482A1.844,1.844,0,0,0,20.71,13.9v-.59a2.414,2.414,0,0,1-1.923.813,2.346,2.346,0,0,1-1.952-.971A4.244,4.244,0,0,1,16.089,10.509Zm1.181.133a3.08,3.08,0,0,0,.476,1.825,1.547,1.547,0,0,0,1.333.663,1.72,1.72,0,0,0,1.631-1.009V8.985A1.74,1.74,0,0,0,19.091,8a1.561,1.561,0,0,0-1.339.667A3.354,3.354,0,0,0,17.269,10.642ZM24.937,14H23.763V7.132h1.174Zm-1.27-8.69a.7.7,0,0,1,.175-.482.655.655,0,0,1,.517-.2.666.666,0,0,1,.521.2.694.694,0,0,1,.178.482.671.671,0,0,1-.178.476.678.678,0,0,1-.521.19.667.667,0,0,1-.517-.19A.678.678,0,0,1,23.668,5.31Zm7.147,6.868a.864.864,0,0,0-.359-.74,3.452,3.452,0,0,0-1.25-.454,5.912,5.912,0,0,1-1.416-.457,2.014,2.014,0,0,1-.774-.635,1.518,1.518,0,0,1-.251-.876,1.782,1.782,0,0,1,.714-1.428A2.789,2.789,0,0,1,29.3,7a2.87,2.87,0,0,1,1.895.6,1.915,1.915,0,0,1,.727,1.542H30.745a1.06,1.06,0,0,0-.409-.832A1.534,1.534,0,0,0,29.3,7.97a1.605,1.605,0,0,0-1,.279.879.879,0,0,0-.362.73.712.712,0,0,0,.336.641,4.139,4.139,0,0,0,1.216.413,6.334,6.334,0,0,1,1.425.47,2.079,2.079,0,0,1,.809.657,1.615,1.615,0,0,1,.263.936,1.758,1.758,0,0,1-.736,1.476,3.089,3.089,0,0,1-1.911.555,3.459,3.459,0,0,1-1.46-.292,2.375,2.375,0,0,1-.993-.816,1.966,1.966,0,0,1-.359-1.133H27.7a1.216,1.216,0,0,0,.473.936,1.835,1.835,0,0,0,1.165.346,1.894,1.894,0,0,0,1.07-.27A.829.829,0,0,0,30.815,12.178ZM34.8,14H33.621V4.25H34.8Zm6.119,0a2.467,2.467,0,0,1-.165-.724,2.62,2.62,0,0,1-1.955.851,2.424,2.424,0,0,1-1.666-.574,1.859,1.859,0,0,1-.651-1.457,1.942,1.942,0,0,1,.816-1.666,3.846,3.846,0,0,1,2.295-.594H40.73V9.3a1.319,1.319,0,0,0-.368-.981,1.48,1.48,0,0,0-1.085-.365,1.712,1.712,0,0,0-1.054.317.935.935,0,0,0-.425.768H36.617a1.621,1.621,0,0,1,.365-.993,2.491,2.491,0,0,1,.99-.759A3.331,3.331,0,0,1,39.346,7a2.715,2.715,0,0,1,1.86.594,2.141,2.141,0,0,1,.7,1.635v3.161a3.865,3.865,0,0,0,.241,1.5V14Zm-1.949-.9a2.064,2.064,0,0,0,1.047-.286,1.728,1.728,0,0,0,.717-.743V10.667h-.92q-2.158,0-2.158,1.263a1.069,1.069,0,0,0,.368.863A1.415,1.415,0,0,0,38.966,13.1Zm7.535.063a1.692,1.692,0,0,0,1.1-.381,1.34,1.34,0,0,0,.521-.952H49.23a2.13,2.13,0,0,1-.406,1.124,2.676,2.676,0,0,1-1,.851,2.885,2.885,0,0,1-1.323.317,2.829,2.829,0,0,1-2.231-.936,3.729,3.729,0,0,1-.828-2.561v-.2a4.135,4.135,0,0,1,.368-1.784,2.8,2.8,0,0,1,1.057-1.212A3,3,0,0,1,46.494,7a2.755,2.755,0,0,1,1.92.692,2.473,2.473,0,0,1,.816,1.8H48.119a1.618,1.618,0,0,0-.5-1.095,1.57,1.57,0,0,0-1.12-.428,1.644,1.644,0,0,0-1.387.644,3.026,3.026,0,0,0-.492,1.863V10.7a2.965,2.965,0,0,0,.489,1.828A1.651,1.651,0,0,0,46.5,13.168ZM51.826,14H50.652V7.132h1.174Zm-1.27-8.69a.7.7,0,0,1,.175-.482.655.655,0,0,1,.517-.2.666.666,0,0,1,.521.2.694.694,0,0,1,.178.482.671.671,0,0,1-.178.476.678.678,0,0,1-.521.19.667.667,0,0,1-.517-.19A.678.678,0,0,1,50.556,5.31ZM53.394,10.5a4.057,4.057,0,0,1,.4-1.815,2.96,2.96,0,0,1,1.1-1.244A3.007,3.007,0,0,1,56.51,7a2.9,2.9,0,0,1,2.269.971,3.736,3.736,0,0,1,.866,2.583v.083a4.092,4.092,0,0,1-.384,1.8,2.916,2.916,0,0,1-1.1,1.241,3.041,3.041,0,0,1-1.641.444,2.889,2.889,0,0,1-2.263-.971,3.718,3.718,0,0,1-.866-2.571Zm1.181.14a2.938,2.938,0,0,0,.53,1.834,1.8,1.8,0,0,0,2.841-.01,3.213,3.213,0,0,0,.527-1.965,2.933,2.933,0,0,0-.536-1.831,1.705,1.705,0,0,0-1.425-.7,1.686,1.686,0,0,0-1.4.692A3.189,3.189,0,0,0,54.574,10.642ZM57.044,4.25h1.422l-1.7,1.866-.946,0ZM62.23,7.132,62.268,8A2.5,2.5,0,0,1,64.324,7q2.177,0,2.2,2.457V14H65.346V9.455a1.581,1.581,0,0,0-.34-1.1A1.361,1.361,0,0,0,63.969,8a1.7,1.7,0,0,0-1,.3,2.069,2.069,0,0,0-.673.8V14H61.119V7.132Z" transform="translate(1032.333 1516.064)" fill="#12263f"/>
    <path id="Trazado_268107" data-name="Trazado 268107" d="M3.59,4.758,6.612,12.3,9.633,4.758h1.581V14H9.995V10.4l.114-3.885L7.075,14H6.142L3.114,6.535,3.235,10.4V14H2.016V4.758Zm12.441,9.369a3,3,0,0,1-2.272-.917,3.4,3.4,0,0,1-.876-2.453v-.216a4.121,4.121,0,0,1,.39-1.825,3.045,3.045,0,0,1,1.092-1.257A2.745,2.745,0,0,1,15.885,7a2.572,2.572,0,0,1,2.082.882,3.82,3.82,0,0,1,.743,2.526V10.9H14.057a2.441,2.441,0,0,0,.594,1.641,1.866,1.866,0,0,0,1.444.625,2.045,2.045,0,0,0,1.054-.254,2.648,2.648,0,0,0,.755-.673l.717.559A2.884,2.884,0,0,1,16.031,14.127ZM15.885,7.97a1.566,1.566,0,0,0-1.193.517,2.515,2.515,0,0,0-.6,1.45h3.44V9.849a2.237,2.237,0,0,0-.482-1.387A1.475,1.475,0,0,0,15.885,7.97Zm5.4-.838v7.662q0,1.98-1.8,1.98a2.191,2.191,0,0,1-.717-.114v-.934a2.27,2.27,0,0,0,.533.051.8.8,0,0,0,.6-.213,1.052,1.052,0,0,0,.206-.74V7.132ZM19.986,5.31a.7.7,0,0,1,.175-.479.642.642,0,0,1,.511-.2.666.666,0,0,1,.521.2.694.694,0,0,1,.178.482.671.671,0,0,1-.178.476.678.678,0,0,1-.521.19.657.657,0,0,1-.514-.19A.685.685,0,0,1,19.986,5.31ZM22.862,10.5a4.057,4.057,0,0,1,.4-1.815,2.96,2.96,0,0,1,1.1-1.244A3.007,3.007,0,0,1,25.978,7a2.9,2.9,0,0,1,2.269.971,3.736,3.736,0,0,1,.866,2.583v.083a4.092,4.092,0,0,1-.384,1.8,2.916,2.916,0,0,1-1.1,1.241,3.041,3.041,0,0,1-1.641.444,2.889,2.889,0,0,1-2.263-.971,3.718,3.718,0,0,1-.866-2.571Zm1.181.14a2.938,2.938,0,0,0,.53,1.834,1.8,1.8,0,0,0,2.841-.01A3.213,3.213,0,0,0,27.94,10.5,2.933,2.933,0,0,0,27.4,8.671a1.705,1.705,0,0,0-1.425-.7,1.686,1.686,0,0,0-1.4.692A3.189,3.189,0,0,0,24.042,10.642Zm9.864-2.457a3.519,3.519,0,0,0-.578-.044,1.547,1.547,0,0,0-1.568.984V14H30.587V7.132h1.143l.019.793A1.829,1.829,0,0,1,33.386,7a1.2,1.2,0,0,1,.521.089ZM38.972,14a2.467,2.467,0,0,1-.165-.724,2.62,2.62,0,0,1-1.955.851,2.424,2.424,0,0,1-1.666-.574,1.859,1.859,0,0,1-.651-1.457,1.942,1.942,0,0,1,.816-1.666,3.846,3.846,0,0,1,2.295-.594h1.143V9.3a1.319,1.319,0,0,0-.368-.981,1.48,1.48,0,0,0-1.085-.365,1.712,1.712,0,0,0-1.054.317.935.935,0,0,0-.425.768H34.675a1.621,1.621,0,0,1,.365-.993,2.491,2.491,0,0,1,.99-.759A3.331,3.331,0,0,1,37.4,7a2.715,2.715,0,0,1,1.86.594,2.141,2.141,0,0,1,.7,1.635v3.161a3.865,3.865,0,0,0,.241,1.5V14Zm-1.949-.9a2.064,2.064,0,0,0,1.047-.286,1.728,1.728,0,0,0,.717-.743V10.667h-.92q-2.158,0-2.158,1.263a1.069,1.069,0,0,0,.368.863A1.415,1.415,0,0,0,37.023,13.1Zm5.884-5.973.032.762A2.536,2.536,0,0,1,44.977,7a1.964,1.964,0,0,1,1.961,1.1,2.6,2.6,0,0,1,.892-.8,2.634,2.634,0,0,1,1.3-.3q2.26,0,2.3,2.393V14H50.252V9.468a1.577,1.577,0,0,0-.336-1.1A1.482,1.482,0,0,0,48.785,8a1.557,1.557,0,0,0-1.085.39,1.584,1.584,0,0,0-.5,1.051V14H46.018V9.5A1.31,1.31,0,0,0,44.552,8a1.571,1.571,0,0,0-1.581.984V14H41.8V7.132ZM54.473,14H53.3V7.132h1.174ZM53.2,5.31a.7.7,0,0,1,.175-.482.655.655,0,0,1,.517-.2.666.666,0,0,1,.521.2.694.694,0,0,1,.178.482.671.671,0,0,1-.178.476.678.678,0,0,1-.521.19.667.667,0,0,1-.517-.19A.678.678,0,0,1,53.2,5.31Zm6,8.817a3,3,0,0,1-2.272-.917,3.4,3.4,0,0,1-.876-2.453v-.216a4.121,4.121,0,0,1,.39-1.825,3.045,3.045,0,0,1,1.092-1.257A2.745,2.745,0,0,1,59.056,7a2.572,2.572,0,0,1,2.082.882,3.82,3.82,0,0,1,.743,2.526V10.9H57.228a2.441,2.441,0,0,0,.594,1.641,1.866,1.866,0,0,0,1.444.625,2.045,2.045,0,0,0,1.054-.254,2.648,2.648,0,0,0,.755-.673l.717.559A2.884,2.884,0,0,1,59.2,14.127ZM59.056,7.97a1.566,1.566,0,0,0-1.193.517,2.515,2.515,0,0,0-.6,1.45h3.44V9.849a2.237,2.237,0,0,0-.482-1.387A1.475,1.475,0,0,0,59.056,7.97Zm5.294-.838L64.388,8A2.5,2.5,0,0,1,66.445,7q2.177,0,2.2,2.457V14H67.467V9.455a1.581,1.581,0,0,0-.34-1.1A1.361,1.361,0,0,0,66.089,8a1.7,1.7,0,0,0-1,.3,2.069,2.069,0,0,0-.673.8V14H63.239V7.132Zm7.655-1.663V7.132h1.282V8.04H72.005V12.3a.953.953,0,0,0,.171.62.721.721,0,0,0,.584.207,2.843,2.843,0,0,0,.559-.076V14a3.424,3.424,0,0,1-.9.126,1.462,1.462,0,0,1-1.187-.476,2.045,2.045,0,0,1-.4-1.352V8.04H69.58V7.132h1.25V5.469ZM74.22,10.5a4.057,4.057,0,0,1,.4-1.815,2.96,2.96,0,0,1,1.1-1.244A3.007,3.007,0,0,1,77.337,7a2.9,2.9,0,0,1,2.269.971,3.736,3.736,0,0,1,.866,2.583v.083a4.092,4.092,0,0,1-.384,1.8,2.916,2.916,0,0,1-1.1,1.241,3.041,3.041,0,0,1-1.641.444,2.889,2.889,0,0,1-2.263-.971,3.718,3.718,0,0,1-.866-2.571Zm1.181.14a2.938,2.938,0,0,0,.53,1.834,1.8,1.8,0,0,0,2.841-.01A3.213,3.213,0,0,0,79.3,10.5a2.933,2.933,0,0,0-.536-1.831,1.705,1.705,0,0,0-1.425-.7,1.686,1.686,0,0,0-1.4.692A3.189,3.189,0,0,0,75.4,10.642Z" transform="translate(1038.333 1603.064)" fill="#12263f"/>
    <path id="Trazado_268103" data-name="Trazado 268103" d="M7.5,9.728H3.492V13H8.145v1H2.273V4.758H8.081v1H3.492V8.731H7.5Zm5.979,2.45a.865.865,0,0,0-.359-.74,3.452,3.452,0,0,0-1.25-.454,5.912,5.912,0,0,1-1.416-.457,2.014,2.014,0,0,1-.774-.635,1.518,1.518,0,0,1-.251-.876,1.782,1.782,0,0,1,.714-1.428A2.789,2.789,0,0,1,11.966,7a2.87,2.87,0,0,1,1.895.6,1.915,1.915,0,0,1,.727,1.542H13.407A1.06,1.06,0,0,0,13,8.319a1.534,1.534,0,0,0-1.031-.349,1.605,1.605,0,0,0-1,.279.879.879,0,0,0-.362.73.712.712,0,0,0,.336.641,4.139,4.139,0,0,0,1.216.413,6.334,6.334,0,0,1,1.425.47,2.079,2.079,0,0,1,.809.657,1.615,1.615,0,0,1,.263.936,1.758,1.758,0,0,1-.736,1.476A3.089,3.089,0,0,1,12,14.127a3.459,3.459,0,0,1-1.46-.292,2.375,2.375,0,0,1-.993-.816,1.966,1.966,0,0,1-.359-1.133h1.174a1.216,1.216,0,0,0,.473.936A1.835,1.835,0,0,0,12,13.168a1.894,1.894,0,0,0,1.07-.27A.829.829,0,0,0,13.477,12.178Zm4.3-6.709V7.132h1.282V8.04H17.774V12.3a.953.953,0,0,0,.171.62.721.721,0,0,0,.584.207,2.843,2.843,0,0,0,.559-.076V14a3.424,3.424,0,0,1-.9.126A1.462,1.462,0,0,1,17,13.651a2.045,2.045,0,0,1-.4-1.352V8.04h-1.25V7.132H16.6V5.469ZM24.667,14a2.467,2.467,0,0,1-.165-.724,2.62,2.62,0,0,1-1.955.851,2.424,2.424,0,0,1-1.666-.574A1.859,1.859,0,0,1,20.23,12.1a1.942,1.942,0,0,1,.816-1.666,3.846,3.846,0,0,1,2.295-.594h1.143V9.3a1.319,1.319,0,0,0-.368-.981,1.48,1.48,0,0,0-1.085-.365,1.712,1.712,0,0,0-1.054.317.935.935,0,0,0-.425.768H20.37a1.621,1.621,0,0,1,.365-.993,2.491,2.491,0,0,1,.99-.759A3.331,3.331,0,0,1,23.1,7a2.715,2.715,0,0,1,1.86.594,2.141,2.141,0,0,1,.7,1.635v3.161a3.865,3.865,0,0,0,.241,1.5V14Zm-1.949-.9a2.064,2.064,0,0,0,1.047-.286,1.728,1.728,0,0,0,.717-.743V10.667h-.92q-2.158,0-2.158,1.263a1.069,1.069,0,0,0,.368.863A1.415,1.415,0,0,0,22.719,13.1Zm5.891-5.973L28.647,8A2.5,2.5,0,0,1,30.7,7q2.177,0,2.2,2.457V14H31.726V9.455a1.581,1.581,0,0,0-.34-1.1A1.361,1.361,0,0,0,30.349,8a1.7,1.7,0,0,0-1,.3,2.069,2.069,0,0,0-.673.8V14H27.5V7.132Zm5.776,3.377a4.023,4.023,0,0,1,.749-2.542,2.548,2.548,0,0,1,3.872-.136V4.25h1.174V14H39.1l-.057-.736a2.391,2.391,0,0,1-1.961.863,2.346,2.346,0,0,1-1.946-.978,4.069,4.069,0,0,1-.752-2.552Zm1.174.133a3.046,3.046,0,0,0,.482,1.828,1.56,1.56,0,0,0,1.333.66,1.713,1.713,0,0,0,1.631-1V8.973A1.726,1.726,0,0,0,37.388,8a1.567,1.567,0,0,0-1.346.667A3.354,3.354,0,0,0,35.56,10.642ZM46.243,14a2.467,2.467,0,0,1-.165-.724,2.62,2.62,0,0,1-1.955.851,2.424,2.424,0,0,1-1.666-.574,1.859,1.859,0,0,1-.651-1.457,1.942,1.942,0,0,1,.816-1.666,3.846,3.846,0,0,1,2.295-.594h1.143V9.3a1.319,1.319,0,0,0-.368-.981,1.48,1.48,0,0,0-1.085-.365,1.712,1.712,0,0,0-1.054.317.935.935,0,0,0-.425.768H41.946a1.621,1.621,0,0,1,.365-.993,2.491,2.491,0,0,1,.99-.759A3.331,3.331,0,0,1,44.675,7a2.715,2.715,0,0,1,1.86.594,2.141,2.141,0,0,1,.7,1.635v3.161a3.865,3.865,0,0,0,.241,1.5V14Zm-1.949-.9a2.064,2.064,0,0,0,1.047-.286,1.728,1.728,0,0,0,.717-.743V10.667h-.92q-2.158,0-2.158,1.263a1.069,1.069,0,0,0,.368.863A1.415,1.415,0,0,0,44.294,13.1Zm8.1-4.919a3.519,3.519,0,0,0-.578-.044,1.547,1.547,0,0,0-1.568.984V14H49.074V7.132h1.143l.019.793A1.829,1.829,0,0,1,51.874,7a1.2,1.2,0,0,1,.521.089ZM54.749,14H53.575V7.132h1.174Zm-1.27-8.69a.7.7,0,0,1,.175-.482.655.655,0,0,1,.517-.2.666.666,0,0,1,.521.2.694.694,0,0,1,.178.482.671.671,0,0,1-.178.476.678.678,0,0,1-.521.19.667.667,0,0,1-.517-.19A.678.678,0,0,1,53.479,5.31Zm4.253,7.731H61.75V14H56.3v-.863L60.087,8.1H56.355V7.132H61.56v.832ZM67.311,14a2.467,2.467,0,0,1-.165-.724,2.62,2.62,0,0,1-1.955.851,2.424,2.424,0,0,1-1.666-.574,1.859,1.859,0,0,1-.651-1.457,1.942,1.942,0,0,1,.816-1.666,3.846,3.846,0,0,1,2.295-.594h1.143V9.3a1.319,1.319,0,0,0-.368-.981,1.48,1.48,0,0,0-1.085-.365,1.712,1.712,0,0,0-1.054.317.935.935,0,0,0-.425.768H63.014a1.621,1.621,0,0,1,.365-.993,2.491,2.491,0,0,1,.99-.759A3.331,3.331,0,0,1,65.743,7,2.715,2.715,0,0,1,67.6,7.6a2.141,2.141,0,0,1,.7,1.635v3.161a3.865,3.865,0,0,0,.241,1.5V14Zm-1.949-.9a2.064,2.064,0,0,0,1.047-.286,1.728,1.728,0,0,0,.717-.743V10.667h-.92q-2.158,0-2.158,1.263a1.069,1.069,0,0,0,.368.863A1.415,1.415,0,0,0,65.362,13.1Zm7.535.063a1.691,1.691,0,0,0,1.1-.381,1.34,1.34,0,0,0,.521-.952h1.111a2.13,2.13,0,0,1-.406,1.124,2.676,2.676,0,0,1-1,.851,2.885,2.885,0,0,1-1.323.317,2.829,2.829,0,0,1-2.231-.936,3.729,3.729,0,0,1-.828-2.561v-.2a4.135,4.135,0,0,1,.368-1.784,2.8,2.8,0,0,1,1.057-1.212A3,3,0,0,1,72.891,7a2.755,2.755,0,0,1,1.92.692,2.473,2.473,0,0,1,.816,1.8H74.516a1.618,1.618,0,0,0-.5-1.095,1.57,1.57,0,0,0-1.12-.428,1.644,1.644,0,0,0-1.387.644,3.026,3.026,0,0,0-.492,1.863V10.7a2.966,2.966,0,0,0,.489,1.828A1.651,1.651,0,0,0,72.9,13.168ZM78.223,14H77.048V7.132h1.174Zm-1.27-8.69a.7.7,0,0,1,.175-.482.655.655,0,0,1,.517-.2.666.666,0,0,1,.521.2.694.694,0,0,1,.178.482.671.671,0,0,1-.178.476.678.678,0,0,1-.521.19.667.667,0,0,1-.517-.19A.678.678,0,0,1,76.953,5.31ZM79.791,10.5a4.057,4.057,0,0,1,.4-1.815,2.96,2.96,0,0,1,1.1-1.244A3.007,3.007,0,0,1,82.907,7a2.9,2.9,0,0,1,2.269.971,3.736,3.736,0,0,1,.866,2.583v.083a4.092,4.092,0,0,1-.384,1.8,2.916,2.916,0,0,1-1.1,1.241,3.041,3.041,0,0,1-1.641.444,2.889,2.889,0,0,1-2.263-.971,3.718,3.718,0,0,1-.866-2.571Zm1.181.14a2.938,2.938,0,0,0,.53,1.834,1.8,1.8,0,0,0,2.841-.01,3.213,3.213,0,0,0,.527-1.965,2.933,2.933,0,0,0-.536-1.831,1.705,1.705,0,0,0-1.425-.7,1.686,1.686,0,0,0-1.4.692A3.189,3.189,0,0,0,80.971,10.642ZM83.44,4.25h1.422l-1.7,1.866-.946,0Zm5.186,2.882L88.665,8A2.5,2.5,0,0,1,90.721,7q2.177,0,2.2,2.457V14H91.743V9.455a1.581,1.581,0,0,0-.34-1.1A1.361,1.361,0,0,0,90.366,8a1.7,1.7,0,0,0-1,.3,2.069,2.069,0,0,0-.673.8V14H87.516V7.132Z" transform="translate(990.333 1652.064)" fill="#12263f"/>
    <path id="Trazado_268100" data-name="Trazado 268100" d="M10.549,9.918H6.67V14H5.452V4.758h5.726v1H6.67V8.922h3.878ZM16.478,14a2.467,2.467,0,0,1-.165-.724,2.62,2.62,0,0,1-1.955.851,2.424,2.424,0,0,1-1.666-.574,1.859,1.859,0,0,1-.651-1.457,1.942,1.942,0,0,1,.816-1.666,3.846,3.846,0,0,1,2.295-.594h1.143V9.3a1.319,1.319,0,0,0-.368-.981,1.48,1.48,0,0,0-1.085-.365,1.712,1.712,0,0,0-1.054.317.935.935,0,0,0-.425.768H12.18a1.621,1.621,0,0,1,.365-.993,2.491,2.491,0,0,1,.99-.759A3.331,3.331,0,0,1,14.91,7a2.715,2.715,0,0,1,1.86.594,2.141,2.141,0,0,1,.7,1.635v3.161a3.865,3.865,0,0,0,.241,1.5V14Zm-1.949-.9a2.064,2.064,0,0,0,1.047-.286,1.728,1.728,0,0,0,.717-.743V10.667h-.92q-2.158,0-2.158,1.263a1.069,1.069,0,0,0,.368.863A1.415,1.415,0,0,0,14.529,13.1Zm6.056.9H19.41V4.25h1.174Zm3.472-8.531V7.132h1.282V8.04H24.057V12.3a.953.953,0,0,0,.171.62.721.721,0,0,0,.584.207,2.843,2.843,0,0,0,.559-.076V14a3.424,3.424,0,0,1-.9.126,1.462,1.462,0,0,1-1.187-.476,2.045,2.045,0,0,1-.4-1.352V8.04h-1.25V7.132h1.25V5.469ZM30.95,14a2.467,2.467,0,0,1-.165-.724,2.62,2.62,0,0,1-1.955.851,2.424,2.424,0,0,1-1.666-.574,1.859,1.859,0,0,1-.651-1.457,1.942,1.942,0,0,1,.816-1.666,3.846,3.846,0,0,1,2.295-.594h1.143V9.3a1.319,1.319,0,0,0-.368-.981,1.48,1.48,0,0,0-1.085-.365,1.712,1.712,0,0,0-1.054.317.935.935,0,0,0-.425.768H26.653a1.621,1.621,0,0,1,.365-.993,2.491,2.491,0,0,1,.99-.759A3.331,3.331,0,0,1,29.382,7a2.715,2.715,0,0,1,1.86.594,2.141,2.141,0,0,1,.7,1.635v3.161a3.865,3.865,0,0,0,.241,1.5V14ZM29,13.1a2.064,2.064,0,0,0,1.047-.286,1.728,1.728,0,0,0,.717-.743V10.667h-.92q-2.158,0-2.158,1.263a1.069,1.069,0,0,0,.368.863A1.415,1.415,0,0,0,29,13.1Zm7.712-2.6a4.023,4.023,0,0,1,.749-2.542,2.548,2.548,0,0,1,3.872-.136V4.25h1.174V14H41.43l-.057-.736a2.391,2.391,0,0,1-1.961.863,2.346,2.346,0,0,1-1.946-.978,4.069,4.069,0,0,1-.752-2.552Zm1.174.133a3.046,3.046,0,0,0,.482,1.828,1.56,1.56,0,0,0,1.333.66,1.713,1.713,0,0,0,1.631-1V8.973A1.726,1.726,0,0,0,39.716,8a1.567,1.567,0,0,0-1.346.667A3.354,3.354,0,0,0,37.888,10.642Zm9.293,3.485a3,3,0,0,1-2.272-.917,3.4,3.4,0,0,1-.876-2.453v-.216a4.121,4.121,0,0,1,.39-1.825,3.045,3.045,0,0,1,1.092-1.257A2.745,2.745,0,0,1,47.035,7a2.572,2.572,0,0,1,2.082.882,3.82,3.82,0,0,1,.743,2.526V10.9H45.207a2.441,2.441,0,0,0,.594,1.641,1.866,1.866,0,0,0,1.444.625,2.045,2.045,0,0,0,1.054-.254,2.648,2.648,0,0,0,.755-.673l.717.559A2.884,2.884,0,0,1,47.181,14.127ZM47.035,7.97a1.566,1.566,0,0,0-1.193.517,2.515,2.515,0,0,0-.6,1.45h3.44V9.849A2.237,2.237,0,0,0,48.2,8.462,1.475,1.475,0,0,0,47.035,7.97Zm10.721.216a3.519,3.519,0,0,0-.578-.044,1.547,1.547,0,0,0-1.568.984V14H54.437V7.132h1.143l.019.793A1.829,1.829,0,0,1,57.236,7a1.2,1.2,0,0,1,.521.089Zm3.929,5.941a3,3,0,0,1-2.272-.917,3.4,3.4,0,0,1-.876-2.453v-.216a4.121,4.121,0,0,1,.39-1.825,3.045,3.045,0,0,1,1.092-1.257A2.745,2.745,0,0,1,61.54,7a2.572,2.572,0,0,1,2.082.882,3.82,3.82,0,0,1,.743,2.526V10.9H59.711a2.441,2.441,0,0,0,.594,1.641,1.866,1.866,0,0,0,1.444.625,2.045,2.045,0,0,0,1.054-.254,2.648,2.648,0,0,0,.755-.673l.717.559A2.884,2.884,0,0,1,61.686,14.127ZM61.54,7.97a1.566,1.566,0,0,0-1.193.517,2.515,2.515,0,0,0-.6,1.45h3.44V9.849a2.237,2.237,0,0,0-.482-1.387A1.475,1.475,0,0,0,61.54,7.97Zm3.9,2.539a4.037,4.037,0,0,1,.743-2.555,2.56,2.56,0,0,1,3.929-.06l.057-.762h1.073v6.7a2.794,2.794,0,0,1-.79,2.1,2.916,2.916,0,0,1-2.123.768,3.532,3.532,0,0,1-1.454-.317,2.5,2.5,0,0,1-1.085-.87l.609-.7a2.3,2.3,0,0,0,1.847.933,1.8,1.8,0,0,0,1.336-.482,1.844,1.844,0,0,0,.479-1.358v-.59a2.414,2.414,0,0,1-1.923.813,2.346,2.346,0,0,1-1.952-.971A4.244,4.244,0,0,1,65.443,10.509Zm1.181.133a3.08,3.08,0,0,0,.476,1.825,1.547,1.547,0,0,0,1.333.663,1.72,1.72,0,0,0,1.631-1.009V8.985A1.74,1.74,0,0,0,68.446,8a1.561,1.561,0,0,0-1.339.667A3.354,3.354,0,0,0,66.624,10.642ZM74.292,14H73.118V7.132h1.174Zm-1.27-8.69a.7.7,0,0,1,.175-.482.655.655,0,0,1,.517-.2.666.666,0,0,1,.521.2.694.694,0,0,1,.178.482.671.671,0,0,1-.178.476.678.678,0,0,1-.521.19.667.667,0,0,1-.517-.19A.678.678,0,0,1,73.022,5.31Zm7.147,6.868a.864.864,0,0,0-.359-.74,3.452,3.452,0,0,0-1.25-.454,5.912,5.912,0,0,1-1.416-.457,2.014,2.014,0,0,1-.774-.635,1.518,1.518,0,0,1-.251-.876,1.782,1.782,0,0,1,.714-1.428A2.789,2.789,0,0,1,78.659,7a2.87,2.87,0,0,1,1.895.6,1.915,1.915,0,0,1,.727,1.542H80.1a1.06,1.06,0,0,0-.409-.832,1.534,1.534,0,0,0-1.031-.349,1.606,1.606,0,0,0-1,.279.879.879,0,0,0-.362.73.712.712,0,0,0,.336.641,4.139,4.139,0,0,0,1.216.413,6.334,6.334,0,0,1,1.425.47,2.079,2.079,0,0,1,.809.657,1.615,1.615,0,0,1,.263.936,1.758,1.758,0,0,1-.736,1.476,3.089,3.089,0,0,1-1.911.555,3.459,3.459,0,0,1-1.46-.292,2.375,2.375,0,0,1-.993-.816,1.966,1.966,0,0,1-.359-1.133H77.06a1.216,1.216,0,0,0,.473.936,1.835,1.835,0,0,0,1.165.346,1.894,1.894,0,0,0,1.07-.27A.829.829,0,0,0,80.17,12.178Zm4.3-6.709V7.132H85.75V8.04H84.467V12.3a.953.953,0,0,0,.171.62.721.721,0,0,0,.584.207,2.843,2.843,0,0,0,.559-.076V14a3.424,3.424,0,0,1-.9.126,1.462,1.462,0,0,1-1.187-.476,2.045,2.045,0,0,1-.4-1.352V8.04h-1.25V7.132h1.25V5.469ZM90.44,8.186a3.519,3.519,0,0,0-.578-.044,1.547,1.547,0,0,0-1.568.984V14H87.121V7.132h1.143l.019.793A1.829,1.829,0,0,1,89.92,7a1.2,1.2,0,0,1,.521.089Zm.641,2.317a4.057,4.057,0,0,1,.4-1.815,2.96,2.96,0,0,1,1.1-1.244A3.007,3.007,0,0,1,94.2,7a2.9,2.9,0,0,1,2.269.971,3.736,3.736,0,0,1,.866,2.583v.083a4.092,4.092,0,0,1-.384,1.8,2.916,2.916,0,0,1-1.1,1.241,3.041,3.041,0,0,1-1.641.444,2.889,2.889,0,0,1-2.263-.971,3.718,3.718,0,0,1-.866-2.571Zm1.181.14a2.938,2.938,0,0,0,.53,1.834,1.8,1.8,0,0,0,2.841-.01A3.213,3.213,0,0,0,96.16,10.5a2.933,2.933,0,0,0-.536-1.831,1.705,1.705,0,0,0-1.425-.7,1.686,1.686,0,0,0-1.4.692A3.189,3.189,0,0,0,92.262,10.642Zm10.543,1.536a.864.864,0,0,0-.359-.74,3.452,3.452,0,0,0-1.25-.454,5.912,5.912,0,0,1-1.416-.457,2.014,2.014,0,0,1-.774-.635,1.518,1.518,0,0,1-.251-.876,1.782,1.782,0,0,1,.714-1.428A2.789,2.789,0,0,1,101.295,7a2.87,2.87,0,0,1,1.895.6,1.915,1.915,0,0,1,.727,1.542h-1.181a1.06,1.06,0,0,0-.409-.832,1.534,1.534,0,0,0-1.031-.349,1.606,1.606,0,0,0-1,.279.879.879,0,0,0-.362.73.712.712,0,0,0,.336.641,4.139,4.139,0,0,0,1.216.413,6.334,6.334,0,0,1,1.425.47,2.079,2.079,0,0,1,.809.657,1.615,1.615,0,0,1,.263.936,1.758,1.758,0,0,1-.736,1.476,3.089,3.089,0,0,1-1.911.555,3.459,3.459,0,0,1-1.46-.292,2.375,2.375,0,0,1-.993-.816,1.966,1.966,0,0,1-.359-1.133H99.7a1.216,1.216,0,0,0,.473.936,1.835,1.835,0,0,0,1.165.346,1.894,1.894,0,0,0,1.07-.27A.829.829,0,0,0,102.806,12.178ZM12.932,28.509a4.023,4.023,0,0,1,.749-2.542A2.369,2.369,0,0,1,15.643,25a2.382,2.382,0,0,1,1.911.825V22.25h1.174V32H17.649l-.057-.736a2.391,2.391,0,0,1-1.961.863,2.346,2.346,0,0,1-1.946-.978,4.069,4.069,0,0,1-.752-2.552Zm1.174.133a3.046,3.046,0,0,0,.482,1.828,1.56,1.56,0,0,0,1.333.66,1.713,1.713,0,0,0,1.631-1V26.973A1.726,1.726,0,0,0,15.935,26a1.567,1.567,0,0,0-1.346.667A3.354,3.354,0,0,0,14.107,28.642ZM23.4,32.127a3,3,0,0,1-2.272-.917,3.4,3.4,0,0,1-.876-2.453v-.216a4.121,4.121,0,0,1,.39-1.825,3.045,3.045,0,0,1,1.092-1.257A2.745,2.745,0,0,1,23.254,25a2.572,2.572,0,0,1,2.082.882,3.82,3.82,0,0,1,.743,2.526V28.9H21.426a2.441,2.441,0,0,0,.594,1.641,1.866,1.866,0,0,0,1.444.625,2.045,2.045,0,0,0,1.054-.254,2.648,2.648,0,0,0,.755-.673l.717.559A2.884,2.884,0,0,1,23.4,32.127Zm-.146-6.157a1.566,1.566,0,0,0-1.193.517,2.515,2.515,0,0,0-.6,1.45H24.9v-.089a2.237,2.237,0,0,0-.482-1.387A1.475,1.475,0,0,0,23.254,25.97Zm8.506-.838.032.762A2.536,2.536,0,0,1,33.829,25a1.964,1.964,0,0,1,1.961,1.1,2.6,2.6,0,0,1,.892-.8,2.634,2.634,0,0,1,1.3-.3q2.26,0,2.3,2.393V32H39.1V27.468a1.577,1.577,0,0,0-.336-1.1A1.482,1.482,0,0,0,37.637,26a1.557,1.557,0,0,0-1.085.39,1.584,1.584,0,0,0-.5,1.051V32H34.87V27.5A1.31,1.31,0,0,0,33.4,26a1.571,1.571,0,0,0-1.581.984V32H30.649V25.132Zm13.14,7a3,3,0,0,1-2.272-.917,3.4,3.4,0,0,1-.876-2.453v-.216a4.121,4.121,0,0,1,.39-1.825,3.045,3.045,0,0,1,1.092-1.257A2.745,2.745,0,0,1,44.753,25a2.572,2.572,0,0,1,2.082.882,3.82,3.82,0,0,1,.743,2.526V28.9H42.925a2.441,2.441,0,0,0,.594,1.641,1.866,1.866,0,0,0,1.444.625,2.045,2.045,0,0,0,1.054-.254,2.648,2.648,0,0,0,.755-.673l.717.559A2.884,2.884,0,0,1,44.9,32.127Zm-.146-6.157a1.566,1.566,0,0,0-1.193.517,2.515,2.515,0,0,0-.6,1.45H46.4v-.089a2.237,2.237,0,0,0-.482-1.387A1.475,1.475,0,0,0,44.753,25.97Zm3.9,2.539a4.023,4.023,0,0,1,.749-2.542,2.548,2.548,0,0,1,3.872-.136V22.25h1.174V32H53.367l-.057-.736a2.391,2.391,0,0,1-1.961.863,2.346,2.346,0,0,1-1.946-.978,4.069,4.069,0,0,1-.752-2.552Zm1.174.133a3.046,3.046,0,0,0,.482,1.828,1.56,1.56,0,0,0,1.333.66,1.713,1.713,0,0,0,1.631-1V26.973A1.726,1.726,0,0,0,51.653,26a1.567,1.567,0,0,0-1.346.667A3.354,3.354,0,0,0,49.825,28.642ZM57.544,32H56.369V25.132h1.174Zm-1.27-8.69a.7.7,0,0,1,.175-.482.655.655,0,0,1,.517-.2.666.666,0,0,1,.521.2.694.694,0,0,1,.178.482.671.671,0,0,1-.178.476.678.678,0,0,1-.521.19.667.667,0,0,1-.517-.19A.678.678,0,0,1,56.274,23.31Zm5.9,7.858a1.692,1.692,0,0,0,1.1-.381,1.34,1.34,0,0,0,.521-.952h1.111a2.13,2.13,0,0,1-.406,1.124,2.676,2.676,0,0,1-1,.851,2.885,2.885,0,0,1-1.323.317,2.829,2.829,0,0,1-2.231-.936,3.729,3.729,0,0,1-.828-2.561v-.2a4.135,4.135,0,0,1,.368-1.784,2.8,2.8,0,0,1,1.057-1.212A3,3,0,0,1,62.171,25a2.755,2.755,0,0,1,1.92.692,2.473,2.473,0,0,1,.816,1.8H63.8a1.618,1.618,0,0,0-.5-1.095,1.57,1.57,0,0,0-1.12-.428,1.644,1.644,0,0,0-1.387.644,3.026,3.026,0,0,0-.492,1.863V28.7a2.965,2.965,0,0,0,.489,1.828A1.651,1.651,0,0,0,62.177,31.168ZM67.5,32H66.329V25.132H67.5Zm-1.27-8.69a.7.7,0,0,1,.175-.482.655.655,0,0,1,.517-.2.666.666,0,0,1,.521.2.694.694,0,0,1,.178.482.671.671,0,0,1-.178.476.678.678,0,0,1-.521.19.667.667,0,0,1-.517-.19A.678.678,0,0,1,66.234,23.31ZM69.071,28.5a4.057,4.057,0,0,1,.4-1.815,2.96,2.96,0,0,1,1.1-1.244A3.007,3.007,0,0,1,72.188,25a2.9,2.9,0,0,1,2.269.971,3.736,3.736,0,0,1,.866,2.583v.083a4.092,4.092,0,0,1-.384,1.8,2.916,2.916,0,0,1-1.1,1.241,3.041,3.041,0,0,1-1.641.444,2.889,2.889,0,0,1-2.263-.971,3.718,3.718,0,0,1-.866-2.571Zm1.181.14a2.938,2.938,0,0,0,.53,1.834,1.8,1.8,0,0,0,2.841-.01,3.213,3.213,0,0,0,.527-1.965,2.933,2.933,0,0,0-.536-1.831,1.705,1.705,0,0,0-1.425-.7,1.686,1.686,0,0,0-1.4.692A3.189,3.189,0,0,0,70.252,28.642Zm7.655-3.51.038.863A2.5,2.5,0,0,1,80,25q2.177,0,2.2,2.457V32H81.024V27.455a1.581,1.581,0,0,0-.34-1.1A1.361,1.361,0,0,0,79.646,26a1.7,1.7,0,0,0-1,.3,2.069,2.069,0,0,0-.673.8V32H76.8V25.132Zm8.912,7a3,3,0,0,1-2.272-.917,3.4,3.4,0,0,1-.876-2.453v-.216a4.121,4.121,0,0,1,.39-1.825,3.045,3.045,0,0,1,1.092-1.257A2.745,2.745,0,0,1,86.673,25a2.572,2.572,0,0,1,2.082.882,3.82,3.82,0,0,1,.743,2.526V28.9H84.845a2.441,2.441,0,0,0,.594,1.641,1.866,1.866,0,0,0,1.444.625,2.045,2.045,0,0,0,1.054-.254,2.648,2.648,0,0,0,.755-.673l.717.559A2.884,2.884,0,0,1,86.819,32.127Zm-.146-6.157a1.566,1.566,0,0,0-1.193.517,2.515,2.515,0,0,0-.6,1.45h3.44v-.089a2.237,2.237,0,0,0-.482-1.387A1.475,1.475,0,0,0,86.673,25.97Zm8.182,4.208a.864.864,0,0,0-.359-.74,3.452,3.452,0,0,0-1.25-.454,5.912,5.912,0,0,1-1.416-.457,2.014,2.014,0,0,1-.774-.635,1.518,1.518,0,0,1-.251-.876,1.782,1.782,0,0,1,.714-1.428A2.789,2.789,0,0,1,93.344,25a2.87,2.87,0,0,1,1.895.6,1.915,1.915,0,0,1,.727,1.542H94.785a1.06,1.06,0,0,0-.409-.832,1.534,1.534,0,0,0-1.031-.349,1.606,1.606,0,0,0-1,.279.879.879,0,0,0-.362.73.712.712,0,0,0,.336.641,4.139,4.139,0,0,0,1.216.413,6.334,6.334,0,0,1,1.425.47,2.079,2.079,0,0,1,.809.657,1.615,1.615,0,0,1,.263.936,1.758,1.758,0,0,1-.736,1.476,3.089,3.089,0,0,1-1.911.555,3.459,3.459,0,0,1-1.46-.292,2.375,2.375,0,0,1-.993-.816,1.966,1.966,0,0,1-.359-1.133h1.174a1.216,1.216,0,0,0,.473.936,1.835,1.835,0,0,0,1.165.346,1.894,1.894,0,0,0,1.07-.27A.829.829,0,0,0,94.855,30.178Z" transform="translate(827.333 1618.564)" fill="#12263f"/>
    <path id="Trazado_268101" data-name="Trazado 268101" d="M4.492,10.382V14H3.274V4.758H6.682a3.425,3.425,0,0,1,2.377.774,2.625,2.625,0,0,1,.86,2.05,2.591,2.591,0,0,1-.841,2.073,3.578,3.578,0,0,1-2.409.727Zm0-1h2.19a2.19,2.19,0,0,0,1.5-.461A1.686,1.686,0,0,0,8.7,7.592,1.742,1.742,0,0,0,8.18,6.269a2.051,2.051,0,0,0-1.428-.515H4.492Zm10.118-1.2a3.519,3.519,0,0,0-.578-.044,1.547,1.547,0,0,0-1.568.984V14H11.291V7.132h1.143l.019.793A1.829,1.829,0,0,1,14.09,7a1.2,1.2,0,0,1,.521.089Zm.641,2.317a4.057,4.057,0,0,1,.4-1.815,2.96,2.96,0,0,1,1.1-1.244A3.007,3.007,0,0,1,18.368,7a2.9,2.9,0,0,1,2.269.971A3.736,3.736,0,0,1,21.5,10.56v.083a4.092,4.092,0,0,1-.384,1.8,2.916,2.916,0,0,1-1.1,1.241,3.041,3.041,0,0,1-1.641.444,2.889,2.889,0,0,1-2.263-.971,3.718,3.718,0,0,1-.866-2.571Zm1.181.14a2.938,2.938,0,0,0,.53,1.834,1.8,1.8,0,0,0,2.841-.01A3.213,3.213,0,0,0,20.33,10.5a2.933,2.933,0,0,0-.536-1.831,1.705,1.705,0,0,0-1.425-.7,1.686,1.686,0,0,0-1.4.692A3.189,3.189,0,0,0,16.432,10.642Zm8.715,1.765,1.7-5.275h1.2L25.586,14h-.9L22.2,7.132h1.2Zm6.881,1.72a3,3,0,0,1-2.272-.917,3.4,3.4,0,0,1-.876-2.453v-.216a4.121,4.121,0,0,1,.39-1.825,3.045,3.045,0,0,1,1.092-1.257A2.745,2.745,0,0,1,31.883,7a2.572,2.572,0,0,1,2.082.882,3.82,3.82,0,0,1,.743,2.526V10.9H30.054a2.441,2.441,0,0,0,.594,1.641,1.866,1.866,0,0,0,1.444.625,2.045,2.045,0,0,0,1.054-.254,2.648,2.648,0,0,0,.755-.673l.717.559A2.884,2.884,0,0,1,32.029,14.127ZM31.883,7.97a1.566,1.566,0,0,0-1.193.517,2.515,2.515,0,0,0-.6,1.45h3.44V9.849a2.237,2.237,0,0,0-.482-1.387A1.475,1.475,0,0,0,31.883,7.97Zm7.033,6.157a3,3,0,0,1-2.272-.917,3.4,3.4,0,0,1-.876-2.453v-.216a4.121,4.121,0,0,1,.39-1.825A3.045,3.045,0,0,1,37.25,7.459,2.745,2.745,0,0,1,38.77,7a2.572,2.572,0,0,1,2.082.882,3.82,3.82,0,0,1,.743,2.526V10.9H36.942a2.441,2.441,0,0,0,.594,1.641,1.866,1.866,0,0,0,1.444.625,2.045,2.045,0,0,0,1.054-.254,2.648,2.648,0,0,0,.755-.673l.717.559A2.884,2.884,0,0,1,38.916,14.127ZM38.77,7.97a1.566,1.566,0,0,0-1.193.517,2.515,2.515,0,0,0-.6,1.45h3.44V9.849a2.237,2.237,0,0,0-.482-1.387A1.475,1.475,0,0,0,38.77,7.97Zm3.9,2.539a4.023,4.023,0,0,1,.749-2.542,2.548,2.548,0,0,1,3.872-.136V4.25h1.174V14H47.384l-.057-.736a2.391,2.391,0,0,1-1.961.863,2.346,2.346,0,0,1-1.946-.978,4.069,4.069,0,0,1-.752-2.552Zm1.174.133a3.046,3.046,0,0,0,.482,1.828,1.56,1.56,0,0,0,1.333.66,1.713,1.713,0,0,0,1.631-1V8.973A1.726,1.726,0,0,0,45.67,8a1.567,1.567,0,0,0-1.346.667A3.354,3.354,0,0,0,43.842,10.642Zm6.132-.14a4.057,4.057,0,0,1,.4-1.815,2.96,2.96,0,0,1,1.1-1.244A3.007,3.007,0,0,1,53.09,7a2.9,2.9,0,0,1,2.269.971,3.736,3.736,0,0,1,.866,2.583v.083a4.092,4.092,0,0,1-.384,1.8,2.916,2.916,0,0,1-1.1,1.241,3.041,3.041,0,0,1-1.641.444,2.889,2.889,0,0,1-2.263-.971,3.718,3.718,0,0,1-.866-2.571Zm1.181.14a2.938,2.938,0,0,0,.53,1.834,1.8,1.8,0,0,0,2.841-.01,3.213,3.213,0,0,0,.527-1.965,2.933,2.933,0,0,0-.536-1.831,1.705,1.705,0,0,0-1.425-.7,1.686,1.686,0,0,0-1.4.692A3.189,3.189,0,0,0,51.154,10.642Zm9.864-2.457a3.519,3.519,0,0,0-.578-.044,1.547,1.547,0,0,0-1.568.984V14H57.7V7.132h1.143l.019.793A1.829,1.829,0,0,1,60.5,7a1.2,1.2,0,0,1,.521.089Zm3.929,5.941a3,3,0,0,1-2.272-.917,3.4,3.4,0,0,1-.876-2.453v-.216a4.121,4.121,0,0,1,.39-1.825,3.045,3.045,0,0,1,1.092-1.257A2.745,2.745,0,0,1,64.8,7a2.572,2.572,0,0,1,2.082.882,3.82,3.82,0,0,1,.743,2.526V10.9H62.973a2.441,2.441,0,0,0,.594,1.641,1.866,1.866,0,0,0,1.444.625,2.045,2.045,0,0,0,1.054-.254,2.648,2.648,0,0,0,.755-.673l.717.559A2.884,2.884,0,0,1,64.948,14.127ZM64.8,7.97a1.566,1.566,0,0,0-1.193.517,2.515,2.515,0,0,0-.6,1.45h3.44V9.849a2.237,2.237,0,0,0-.482-1.387A1.475,1.475,0,0,0,64.8,7.97Zm8.182,4.208a.864.864,0,0,0-.359-.74,3.452,3.452,0,0,0-1.25-.454,5.912,5.912,0,0,1-1.416-.457,2.014,2.014,0,0,1-.774-.635,1.518,1.518,0,0,1-.251-.876,1.782,1.782,0,0,1,.714-1.428A2.789,2.789,0,0,1,71.473,7a2.87,2.87,0,0,1,1.895.6,1.915,1.915,0,0,1,.727,1.542H72.914a1.06,1.06,0,0,0-.409-.832,1.534,1.534,0,0,0-1.031-.349,1.606,1.606,0,0,0-1,.279.879.879,0,0,0-.362.73.712.712,0,0,0,.336.641,4.139,4.139,0,0,0,1.216.413,6.334,6.334,0,0,1,1.425.47,2.079,2.079,0,0,1,.809.657,1.615,1.615,0,0,1,.263.936,1.758,1.758,0,0,1-.736,1.476,3.089,3.089,0,0,1-1.911.555,3.459,3.459,0,0,1-1.46-.292,2.375,2.375,0,0,1-.993-.816,1.966,1.966,0,0,1-.359-1.133h1.174a1.216,1.216,0,0,0,.473.936,1.835,1.835,0,0,0,1.165.346,1.894,1.894,0,0,0,1.07-.27A.829.829,0,0,0,72.984,12.178Z" transform="translate(704.333 1621.064)" fill="#12263f"/>
    <path id="Trazado_268115" data-name="Trazado 268115" d="M8.98,12.07H4.48v3.047H9.762V17H2.137V5.625H9.746v1.9H4.48v2.711h4.5ZM11.465,17V10.2H10.207V8.547h1.258V7.828a2.918,2.918,0,0,1,.816-2.207,3.162,3.162,0,0,1,2.285-.785,5.278,5.278,0,0,1,1.148.156l-.023,1.75A2.878,2.878,0,0,0,15,6.672q-1.273,0-1.273,1.2v.68h1.68V10.2H13.73V17Zm9.008.156a4.15,4.15,0,0,1-3.027-1.141,4.054,4.054,0,0,1-1.168-3.039v-.219a5.106,5.106,0,0,1,.492-2.277,3.612,3.612,0,0,1,1.395-1.547,3.914,3.914,0,0,1,2.059-.543,3.508,3.508,0,0,1,2.73,1.094,4.444,4.444,0,0,1,1,3.1v.922H18.566a2.1,2.1,0,0,0,.66,1.328,2,2,0,0,0,1.395.5,2.437,2.437,0,0,0,2.039-.945l1.109,1.242a3.389,3.389,0,0,1-1.375,1.121A4.511,4.511,0,0,1,20.473,17.156Zm-.258-6.945a1.411,1.411,0,0,0-1.09.455,2.357,2.357,0,0,0-.535,1.3H21.73v-.181a1.681,1.681,0,0,0-.406-1.165A1.456,1.456,0,0,0,20.215,10.211Zm8.531,5.125a1.481,1.481,0,0,0,1.016-.344,1.2,1.2,0,0,0,.406-.914h2.117a2.9,2.9,0,0,1-.469,1.574,3.093,3.093,0,0,1-1.262,1.109,3.949,3.949,0,0,1-1.77.395A3.67,3.67,0,0,1,25.926,16a4.56,4.56,0,0,1-1.047-3.184v-.148a4.508,4.508,0,0,1,1.039-3.117A3.627,3.627,0,0,1,28.77,8.391a3.555,3.555,0,0,1,2.543.9,3.2,3.2,0,0,1,.973,2.4H30.168a1.551,1.551,0,0,0-.406-1.072,1.51,1.51,0,0,0-2.223.163,3.333,3.333,0,0,0-.4,1.866v.235a3.375,3.375,0,0,0,.4,1.878A1.377,1.377,0,0,0,28.746,15.336Zm7.531-8.867V8.547h1.445V10.2H36.277v4.219a1.007,1.007,0,0,0,.18.672.9.9,0,0,0,.688.2,3.6,3.6,0,0,0,.664-.055v1.711a4.648,4.648,0,0,1-1.367.2,2.156,2.156,0,0,1-2.422-2.4V10.2H32.785V8.547H34.02V6.469ZM38.395,12.7a5.013,5.013,0,0,1,.484-2.242A3.546,3.546,0,0,1,40.273,8.93a4.069,4.069,0,0,1,2.113-.539A3.849,3.849,0,0,1,45.18,9.438a4.2,4.2,0,0,1,1.207,2.844l.016.578a4.418,4.418,0,0,1-1.086,3.121,4.209,4.209,0,0,1-5.832,0,4.5,4.5,0,0,1-1.09-3.187Zm2.258.16a3.16,3.16,0,0,0,.453,1.843,1.628,1.628,0,0,0,2.578.008,3.457,3.457,0,0,0,.461-2.015,3.128,3.128,0,0,0-.461-1.831,1.5,1.5,0,0,0-1.3-.649,1.474,1.474,0,0,0-1.281.646A3.516,3.516,0,0,0,40.652,12.856Zm10.773-.16a5.013,5.013,0,0,1,.484-2.242A3.546,3.546,0,0,1,53.3,8.93a4.069,4.069,0,0,1,2.113-.539,3.849,3.849,0,0,1,2.793,1.047,4.2,4.2,0,0,1,1.207,2.844l.016.578a4.418,4.418,0,0,1-1.086,3.121,4.209,4.209,0,0,1-5.832,0,4.5,4.5,0,0,1-1.09-3.187Zm2.258.16a3.16,3.16,0,0,0,.453,1.843,1.628,1.628,0,0,0,2.578.008,3.457,3.457,0,0,0,.461-2.015,3.128,3.128,0,0,0-.461-1.831,1.5,1.5,0,0,0-1.3-.649,1.474,1.474,0,0,0-1.281.646A3.516,3.516,0,0,0,53.684,12.856Zm18.734,0a5.07,5.07,0,0,1-.887,3.129,2.843,2.843,0,0,1-2.395,1.176,2.633,2.633,0,0,1-2.07-.891V20.25H64.809V8.547H66.9l.078.828a2.654,2.654,0,0,1,2.141-.984,2.862,2.862,0,0,1,2.43,1.156,5.207,5.207,0,0,1,.867,3.188Zm-2.258-.164a3.327,3.327,0,0,0-.418-1.82,1.361,1.361,0,0,0-1.215-.641,1.478,1.478,0,0,0-1.461.813V14.5a1.5,1.5,0,0,0,1.477.836Q70.16,15.336,70.16,12.688Zm8.406-2.023a6.134,6.134,0,0,0-.812-.062,1.654,1.654,0,0,0-1.68.867V17H73.816V8.547h2.133l.063,1.008a2.092,2.092,0,0,1,1.883-1.164,2.366,2.366,0,0,1,.7.1ZM79.02,12.7a5.013,5.013,0,0,1,.484-2.242A3.546,3.546,0,0,1,80.9,8.93a4.069,4.069,0,0,1,2.113-.539A3.849,3.849,0,0,1,85.8,9.438a4.2,4.2,0,0,1,1.207,2.844l.016.578a4.418,4.418,0,0,1-1.086,3.121,4.209,4.209,0,0,1-5.832,0A4.5,4.5,0,0,1,79.02,12.8Zm2.258.16A3.16,3.16,0,0,0,81.73,14.7a1.628,1.628,0,0,0,2.578.008,3.457,3.457,0,0,0,.461-2.015,3.128,3.128,0,0,0-.461-1.831,1.5,1.5,0,0,0-1.3-.649,1.474,1.474,0,0,0-1.281.646A3.516,3.516,0,0,0,81.277,12.856Zm14.758,0a5.119,5.119,0,0,1-.867,3.168,2.872,2.872,0,0,1-2.422,1.137,2.639,2.639,0,0,1-2.2-1.055l-.1.9H88.418V5h2.258V9.3a2.571,2.571,0,0,1,2.055-.914,2.9,2.9,0,0,1,2.426,1.137,5.126,5.126,0,0,1,.879,3.2Zm-2.258-.164a3.363,3.363,0,0,0-.406-1.871,1.374,1.374,0,0,0-1.211-.59,1.489,1.489,0,0,0-1.484.883v3.336a1.509,1.509,0,0,0,1.5.891,1.394,1.394,0,0,0,1.438-1.078A5.562,5.562,0,0,0,93.777,12.688ZM99.809,17H97.543V5h2.266Zm5.75.156a4.15,4.15,0,0,1-3.027-1.141,4.054,4.054,0,0,1-1.168-3.039v-.219a5.106,5.106,0,0,1,.492-2.277,3.612,3.612,0,0,1,1.395-1.547,3.914,3.914,0,0,1,2.059-.543,3.508,3.508,0,0,1,2.73,1.094,4.444,4.444,0,0,1,1,3.1v.922h-5.383a2.1,2.1,0,0,0,.66,1.328,2,2,0,0,0,1.395.5,2.437,2.437,0,0,0,2.039-.945l1.109,1.242a3.389,3.389,0,0,1-1.375,1.121A4.511,4.511,0,0,1,105.559,17.156Zm-.258-6.945a1.411,1.411,0,0,0-1.09.455,2.357,2.357,0,0,0-.535,1.3h3.141v-.181a1.681,1.681,0,0,0-.406-1.165A1.456,1.456,0,0,0,105.3,10.211Zm7.133-1.664.07.945a2.971,2.971,0,0,1,2.43-1.1,2.255,2.255,0,0,1,2.242,1.289,2.9,2.9,0,0,1,2.539-1.289,2.521,2.521,0,0,1,2.047.8,3.681,3.681,0,0,1,.672,2.41V17h-2.266V11.609a1.61,1.61,0,0,0-.281-1.051,1.246,1.246,0,0,0-.992-.332,1.409,1.409,0,0,0-1.406.969L117.5,17h-2.258V11.617a1.59,1.59,0,0,0-.289-1.062,1.259,1.259,0,0,0-.984-.328,1.463,1.463,0,0,0-1.391.8V17h-2.258V8.547ZM129.066,17a2.507,2.507,0,0,1-.227-.758,2.732,2.732,0,0,1-2.133.914,3,3,0,0,1-2.059-.719,2.312,2.312,0,0,1-.816-1.812,2.389,2.389,0,0,1,1-2.062,4.915,4.915,0,0,1,2.879-.727h1.039v-.484a1.393,1.393,0,0,0-.3-.937,1.183,1.183,0,0,0-.949-.352,1.345,1.345,0,0,0-.895.273.929.929,0,0,0-.324.75H124.02a2.268,2.268,0,0,1,.453-1.359,3,3,0,0,1,1.281-.98,4.669,4.669,0,0,1,1.859-.355,3.689,3.689,0,0,1,2.48.785,2.747,2.747,0,0,1,.918,2.207v3.664a4.041,4.041,0,0,0,.336,1.82V17ZM127.2,15.43a1.945,1.945,0,0,0,.922-.223,1.462,1.462,0,0,0,.625-.6V13.156H127.9q-1.7,0-1.8,1.172l-.008.133a.9.9,0,0,0,.3.7A1.153,1.153,0,0,0,127.2,15.43Z" transform="translate(1223.333 1563.064)" fill="#12263f"/>
    <g id="Grupo_167687" data-name="Grupo 167687" transform="translate(122.5)">
      <line id="Línea_1135" data-name="Línea 1135" x2="86.5" transform="translate(555.833 1494.564)" fill="none" stroke="#707070" stroke-width="2"/>
      <g id="Polígono_79" data-name="Polígono 79" transform="translate(646.333 1491.564) rotate(90)" fill="#636363">
        <path d="M 5.116899967193604 4.5 L 0.8830999732017517 4.5 L 3 0.971833348274231 L 5.116899967193604 4.5 Z" stroke="none"/>
        <path d="M 3 1.943650007247925 L 1.766190052032471 4 L 4.233809947967529 4 L 3 1.943650007247925 M 3 0 L 6 5 L 0 5 L 3 0 Z" stroke="none" fill="#707070"/>
      </g>
    </g>
    <g id="Grupo_167688" data-name="Grupo 167688" transform="translate(150.776 60)">
      <line id="Línea_1135-2" data-name="Línea 1135" x2="96.224" transform="translate(555.833 1494.564)" fill="none" stroke="#707070" stroke-width="2"/>
      <g id="Polígono_79-2" data-name="Polígono 79" transform="translate(656.057 1491.564) rotate(90)" fill="#636363">
        <path d="M 5.116899967193604 4.5 L 0.8830999732017517 4.5 L 3 0.971833348274231 L 5.116899967193604 4.5 Z" stroke="none"/>
        <path d="M 3 1.943650007247925 L 1.766190052032471 4 L 4.233809947967529 4 L 3 1.943650007247925 M 3 0 L 6 5 L 0 5 L 3 0 Z" stroke="none" fill="#707070"/>
      </g>
    </g>
    <g id="Grupo_167689" data-name="Grupo 167689" transform="translate(276.522 20)">
      <line id="Línea_1135-3" data-name="Línea 1135" x2="114.478" transform="translate(555.833 1494.564)" fill="none" stroke="#707070" stroke-width="2"/>
      <g id="Polígono_79-3" data-name="Polígono 79" transform="translate(674.311 1491.564) rotate(90)" fill="#636363">
        <path d="M 5.116899967193604 4.5 L 0.8830999732017517 4.5 L 3 0.971833348274231 L 5.116899967193604 4.5 Z" stroke="none"/>
        <path d="M 3 1.943650007247925 L 1.766190052032471 4 L 4.233809947967529 4 L 3 1.943650007247925 M 3 0 L 6 5 L 0 5 L 3 0 Z" stroke="none" fill="#707070"/>
      </g>
    </g>
    <g id="Grupo_167690" data-name="Grupo 167690" transform="translate(435.586 -1)">
      <line id="Línea_1135-4" data-name="Línea 1135" x2="98.414" transform="translate(555.833 1494.564)" fill="none" stroke="#707070" stroke-width="2"/>
      <g id="Polígono_79-4" data-name="Polígono 79" transform="translate(658.247 1491.564) rotate(90)" fill="#636363">
        <path d="M 5.116899967193604 4.5 L 0.8830999732017517 4.5 L 3 0.971833348274231 L 5.116899967193604 4.5 Z" stroke="none"/>
        <path d="M 3 1.943650007247925 L 1.766190052032471 4 L 4.233809947967529 4 L 3 1.943650007247925 M 3 0 L 6 5 L 0 5 L 3 0 Z" stroke="none" fill="#707070"/>
      </g>
    </g>
    <g id="Grupo_167691" data-name="Grupo 167691" transform="translate(479 42)">
      <line id="Línea_1135-5" data-name="Línea 1135" x2="81" transform="translate(555.833 1494.564)" fill="none" stroke="#707070" stroke-width="2"/>
      <g id="Polígono_79-5" data-name="Polígono 79" transform="translate(640.833 1491.564) rotate(90)" fill="#636363">
        <path d="M 5.116899967193604 4.5 L 0.8830999732017517 4.5 L 3 0.971833348274231 L 5.116899967193604 4.5 Z" stroke="none"/>
        <path d="M 3 1.943650007247925 L 1.766190052032471 4 L 4.233809947967529 4 L 3 1.943650007247925 M 3 0 L 6 5 L 0 5 L 3 0 Z" stroke="none" fill="#707070"/>
      </g>
    </g>
    <g id="Grupo_167692" data-name="Grupo 167692" transform="translate(482.5 127)">
      <line id="Línea_1135-6" data-name="Línea 1135" x2="87.5" transform="translate(555.833 1494.564)" fill="none" stroke="#707070" stroke-width="2"/>
      <g id="Polígono_79-6" data-name="Polígono 79" transform="translate(647.333 1491.564) rotate(90)" fill="#636363">
        <path d="M 5.116899967193604 4.5 L 0.8830999732017517 4.5 L 3 0.971833348274231 L 5.116899967193604 4.5 Z" stroke="none"/>
        <path d="M 3 1.943650007247925 L 1.766190052032471 4 L 4.233809947967529 4 L 3 1.943650007247925 M 3 0 L 6 5 L 0 5 L 3 0 Z" stroke="none" fill="#707070"/>
      </g>
    </g>
    <g id="Grupo_167693" data-name="Grupo 167693" transform="translate(436.083 177)">
      <line id="Línea_1135-7" data-name="Línea 1135" x2="94.917" transform="translate(555.833 1494.564)" fill="none" stroke="#707070" stroke-width="2"/>
      <g id="Polígono_79-7" data-name="Polígono 79" transform="translate(654.75 1491.564) rotate(90)" fill="#636363">
        <path d="M 5.116899967193604 4.5 L 0.8830999732017517 4.5 L 3 0.971833348274231 L 5.116899967193604 4.5 Z" stroke="none"/>
        <path d="M 3 1.943650007247925 L 1.766190052032471 4 L 4.233809947967529 4 L 3 1.943650007247925 M 3 0 L 6 5 L 0 5 L 3 0 Z" stroke="none" fill="#707070"/>
      </g>
    </g>
    <g id="Grupo_167694" data-name="Grupo 167694" transform="translate(270.033 163.5)">
      <line id="Línea_1135-8" data-name="Línea 1135" x2="101.967" transform="translate(555.833 1494.564)" fill="none" stroke="#707070" stroke-width="2"/>
      <g id="Polígono_79-8" data-name="Polígono 79" transform="translate(661.8 1491.564) rotate(90)" fill="#636363">
        <path d="M 5.116899967193604 4.5 L 0.8830999732017517 4.5 L 3 0.971833348274231 L 5.116899967193604 4.5 Z" stroke="none"/>
        <path d="M 3 1.943650007247925 L 1.766190052032471 4 L 4.233809947967529 4 L 3 1.943650007247925 M 3 0 L 6 5 L 0 5 L 3 0 Z" stroke="none" fill="#707070"/>
      </g>
    </g>
    <g id="Grupo_167695" data-name="Grupo 167695" transform="translate(149 148)">
      <line id="Línea_1135-9" data-name="Línea 1135" x2="81" transform="translate(555.833 1494.564)" fill="none" stroke="#707070" stroke-width="2"/>
      <g id="Polígono_79-9" data-name="Polígono 79" transform="translate(640.833 1491.564) rotate(90)" fill="#636363">
        <path d="M 5.116899967193604 4.5 L 0.8830999732017517 4.5 L 3 0.971833348274231 L 5.116899967193604 4.5 Z" stroke="none"/>
        <path d="M 3 1.943650007247925 L 1.766190052032471 4 L 4.233809947967529 4 L 3 1.943650007247925 M 3 0 L 6 5 L 0 5 L 3 0 Z" stroke="none" fill="#707070"/>
      </g>
    </g>
  </g>
</svg>
