<svg xmlns="http://www.w3.org/2000/svg" width="904.765" height="496.391" viewBox="0 0 904.765 496.391">
  <g id="Grupo_167752" data-name="Grupo 167752" transform="translate(-305.568 -3925.314)">
    <g id="Grupo_167747" data-name="Grupo 167747" transform="translate(680.146 3881.064)">
      <g id="Rectángulo_53281" data-name="Rectángulo 53281" transform="translate(-289.813 67)" fill="#fff" stroke="#707070" stroke-width="2">
        <rect width="820" height="425" stroke="none"/>
        <rect x="1" y="1" width="818" height="423" fill="none"/>
      </g>
      <g id="Rectángulo_53282" data-name="Rectángulo 53282" transform="translate(-289.813 326)" fill="#e8e8e8" stroke="#707070" stroke-width="1">
        <rect width="820" height="166" stroke="none"/>
        <rect x="0.5" y="0.5" width="819" height="165" fill="none"/>
      </g>
      <g id="Grupo_167748" data-name="Grupo 167748" transform="translate(-680.146 -3881.064)">
        <line id="Línea_1164" data-name="Línea 1164" y2="425" transform="translate(588.333 3948.064)" fill="none" stroke="#707070" stroke-width="2"/>
        <line id="Línea_1165" data-name="Línea 1165" y2="425" transform="translate(799.333 3948.064)" fill="none" stroke="#707070" stroke-width="2"/>
        <line id="Línea_1166" data-name="Línea 1166" y2="425" transform="translate(1008.333 3948.064)" fill="none" stroke="#707070" stroke-width="2"/>
        <line id="Línea_1167" data-name="Línea 1167" x2="820" transform="translate(390.333 3981.064)" fill="none" stroke="#707070" stroke-width="2"/>
      </g>
    </g>
    <path id="Trazado_268184" data-name="Trazado 268184" d="M23.012,17H20.668V5.625h2.344Zm11.422,0H32.09L27.527,9.516V17H25.184V5.625h2.344l4.57,7.5v-7.5h2.336ZM45.043,7.523H41.559V17H39.215V7.523H35.777v-1.9h9.266Zm5.547,5.313H48.723V17H46.379V5.625h4.227a4.778,4.778,0,0,1,3.109.9,3.1,3.1,0,0,1,1.094,2.539A3.5,3.5,0,0,1,54.3,11a3.437,3.437,0,0,1-1.527,1.238l2.461,4.648V17H52.723Zm-1.867-1.9h1.891a1.936,1.936,0,0,0,1.367-.449,1.606,1.606,0,0,0,.484-1.238,1.719,1.719,0,0,0-.457-1.266,1.9,1.9,0,0,0-1.4-.461H48.723Zm17.211.633a6.867,6.867,0,0,1-.594,2.945,4.472,4.472,0,0,1-1.7,1.953,5.021,5.021,0,0,1-5.059.008,4.515,4.515,0,0,1-1.719-1.941,6.67,6.67,0,0,1-.617-2.9V11.07a6.831,6.831,0,0,1,.605-2.957,4.508,4.508,0,0,1,1.711-1.961,5.014,5.014,0,0,1,5.055,0,4.508,4.508,0,0,1,1.711,1.961,6.811,6.811,0,0,1,.605,2.949Zm-2.375-.516a4.787,4.787,0,0,0-.641-2.719,2.263,2.263,0,0,0-3.648-.012,4.732,4.732,0,0,0-.648,2.691v.555a4.847,4.847,0,0,0,.641,2.7,2.243,2.243,0,0,0,3.656.035,4.819,4.819,0,0,0,.641-2.7ZM67.637,17V5.625h3.5A5.315,5.315,0,0,1,73.82,6.3a4.712,4.712,0,0,1,1.848,1.922,5.928,5.928,0,0,1,.664,2.832v.523a5.945,5.945,0,0,1-.652,2.82,4.672,4.672,0,0,1-1.84,1.914A5.355,5.355,0,0,1,71.16,17ZM69.98,7.523v7.594h1.133a2.545,2.545,0,0,0,2.1-.9,4.06,4.06,0,0,0,.742-2.57v-.6a4.124,4.124,0,0,0-.719-2.629,2.537,2.537,0,0,0-2.1-.895Zm16.664-1.9v7.492a3.836,3.836,0,0,1-1.168,2.953,4.5,4.5,0,0,1-3.191,1.086A4.553,4.553,0,0,1,79.121,16.1a3.77,3.77,0,0,1-1.2-2.9V5.625H80.27v7.508a2.167,2.167,0,0,0,.535,1.629,2.054,2.054,0,0,0,1.48.512q1.977,0,2.008-2.078V5.625ZM97.5,13.211A4.025,4.025,0,0,1,96.141,16.1a4.76,4.76,0,0,1-3.223,1.055,4.28,4.28,0,0,1-3.441-1.473,6.038,6.038,0,0,1-1.254-4.043v-.7A6.819,6.819,0,0,1,88.8,8.055a4.332,4.332,0,0,1,1.652-1.918,5.164,5.164,0,0,1,5.668.387,4.326,4.326,0,0,1,1.391,2.961H95.168a2.376,2.376,0,0,0-.613-1.6,2.271,2.271,0,0,0-1.605-.5,1.991,1.991,0,0,0-1.754.84,4.707,4.707,0,0,0-.6,2.605V11.7a5.038,5.038,0,0,0,.559,2.7,1.954,1.954,0,0,0,1.762.852,2.314,2.314,0,0,0,1.621-.5,2.241,2.241,0,0,0,.613-1.535Zm10.469,0a4.025,4.025,0,0,1-1.355,2.891,4.76,4.76,0,0,1-3.223,1.055,4.28,4.28,0,0,1-3.441-1.473,6.038,6.038,0,0,1-1.254-4.043v-.7a6.819,6.819,0,0,1,.578-2.891,4.332,4.332,0,0,1,1.652-1.918,5.164,5.164,0,0,1,5.668.387,4.326,4.326,0,0,1,1.391,2.961h-2.344a2.376,2.376,0,0,0-.613-1.6,2.271,2.271,0,0,0-1.605-.5,1.991,1.991,0,0,0-1.754.84,4.707,4.707,0,0,0-.6,2.605V11.7a5.038,5.038,0,0,0,.559,2.7,1.954,1.954,0,0,0,1.762.852,2.314,2.314,0,0,0,1.621-.5,2.241,2.241,0,0,0,.613-1.535ZM112,17h-2.344V5.625H112Zm11.516-5.43a6.867,6.867,0,0,1-.594,2.945,4.472,4.472,0,0,1-1.7,1.953,5.021,5.021,0,0,1-5.059.008,4.515,4.515,0,0,1-1.719-1.941,6.67,6.67,0,0,1-.617-2.9V11.07a6.831,6.831,0,0,1,.605-2.957,4.508,4.508,0,0,1,1.711-1.961,5.014,5.014,0,0,1,5.055,0,4.508,4.508,0,0,1,1.711,1.961,6.811,6.811,0,0,1,.605,2.949Zm-2.375-.516a4.787,4.787,0,0,0-.641-2.719,2.263,2.263,0,0,0-3.648-.012,4.732,4.732,0,0,0-.648,2.691v.555a4.847,4.847,0,0,0,.641,2.7,2.243,2.243,0,0,0,3.656.035,4.819,4.819,0,0,0,.641-2.7Zm-2.016-8.477h2.461L119.418,5h-1.836ZM134.465,17h-2.344l-4.562-7.484V17h-2.344V5.625h2.344l4.57,7.5v-7.5h2.336Z" transform="translate(406.333 3957.064)" fill="#12263f"/>
    <path id="Trazado_268187" data-name="Trazado 268187" d="M35.188,13.211A4.025,4.025,0,0,1,33.832,16.1a4.76,4.76,0,0,1-3.223,1.055,4.28,4.28,0,0,1-3.441-1.473,6.038,6.038,0,0,1-1.254-4.043v-.7a6.819,6.819,0,0,1,.578-2.891,4.332,4.332,0,0,1,1.652-1.918,4.629,4.629,0,0,1,2.5-.668,4.637,4.637,0,0,1,3.172,1.055A4.326,4.326,0,0,1,35.2,9.484H32.859a2.376,2.376,0,0,0-.613-1.6,2.271,2.271,0,0,0-1.605-.5,1.991,1.991,0,0,0-1.754.84,4.707,4.707,0,0,0-.6,2.605V11.7a5.038,5.038,0,0,0,.559,2.7,1.954,1.954,0,0,0,1.762.852,2.314,2.314,0,0,0,1.621-.5,2.241,2.241,0,0,0,.613-1.535Zm5.75-.375H39.07V17H36.727V5.625h4.227a4.778,4.778,0,0,1,3.109.9,3.1,3.1,0,0,1,1.094,2.539,3.5,3.5,0,0,1-.5,1.941,3.437,3.437,0,0,1-1.527,1.238l2.461,4.648V17H43.07Zm-1.867-1.9h1.891a1.936,1.936,0,0,0,1.367-.449,1.606,1.606,0,0,0,.484-1.238,1.719,1.719,0,0,0-.457-1.266,1.9,1.9,0,0,0-1.4-.461H39.07ZM53.781,12.07h-4.5v3.047h5.281V17H46.938V5.625h7.609v1.9H49.281v2.711h4.5Zm11.086,1.141A4.025,4.025,0,0,1,63.512,16.1a4.76,4.76,0,0,1-3.223,1.055,4.28,4.28,0,0,1-3.441-1.473,6.038,6.038,0,0,1-1.254-4.043v-.7a6.819,6.819,0,0,1,.578-2.891,4.332,4.332,0,0,1,1.652-1.918,5.164,5.164,0,0,1,5.668.387,4.326,4.326,0,0,1,1.391,2.961H62.539a2.376,2.376,0,0,0-.613-1.6,2.271,2.271,0,0,0-1.605-.5,1.991,1.991,0,0,0-1.754.84,4.707,4.707,0,0,0-.6,2.605V11.7a5.038,5.038,0,0,0,.559,2.7,1.954,1.954,0,0,0,1.762.852,2.314,2.314,0,0,0,1.621-.5,2.241,2.241,0,0,0,.613-1.535ZM68.9,17H66.555V5.625H68.9ZM74.133,5.625l2.922,8.25,2.906-8.25h3.078V17H80.688V13.891l.234-5.367L77.852,17H76.242L73.18,8.531l.234,5.359V17H71.07V5.625ZM87.578,17H85.234V5.625h2.344Zm9.016-4.93h-4.5v3.047h5.281V17H89.75V5.625h7.609v1.9H92.094v2.711h4.5ZM108,17h-2.344l-4.562-7.484V17H98.75V5.625h2.344l4.57,7.5v-7.5H108Zm10.609-9.477h-3.484V17h-2.344V7.523h-3.437v-1.9h9.266ZM129.07,11.57a6.867,6.867,0,0,1-.594,2.945,4.472,4.472,0,0,1-1.7,1.953,5.021,5.021,0,0,1-5.059.008A4.515,4.515,0,0,1,120,14.535a6.67,6.67,0,0,1-.617-2.9V11.07a6.831,6.831,0,0,1,.605-2.957A4.508,4.508,0,0,1,121.7,6.152a5.014,5.014,0,0,1,5.055,0,4.508,4.508,0,0,1,1.711,1.961,6.811,6.811,0,0,1,.605,2.949Zm-2.375-.516a4.787,4.787,0,0,0-.641-2.719,2.263,2.263,0,0,0-3.648-.012,4.732,4.732,0,0,0-.648,2.691v.555a4.847,4.847,0,0,0,.641,2.7,2.243,2.243,0,0,0,3.656.035,4.819,4.819,0,0,0,.641-2.7Z" transform="translate(617.333 3957.064)" fill="#12263f"/>
    <path id="Trazado_268188" data-name="Trazado 268188" d="M44.27,5.625l2.922,8.25L50.1,5.625h3.078V17H50.824V13.891l.234-5.367L47.988,17H46.379L43.316,8.531l.234,5.359V17H41.207V5.625Zm17.375,9.031H57.535L56.754,17H54.262L58.5,5.625h2.172L64.926,17H62.434Zm-3.477-1.9h2.844L59.582,8.5ZM65.988,17V5.625h3.5a5.315,5.315,0,0,1,2.684.676A4.712,4.712,0,0,1,74.02,8.223a5.928,5.928,0,0,1,.664,2.832v.523a5.945,5.945,0,0,1-.652,2.82,4.672,4.672,0,0,1-1.84,1.914,5.355,5.355,0,0,1-2.68.688Zm2.344-9.477v7.594h1.133a2.545,2.545,0,0,0,2.1-.9,4.06,4.06,0,0,0,.742-2.57v-.6a4.124,4.124,0,0,0-.719-2.629,2.537,2.537,0,0,0-2.1-.895ZM85,5.625v7.492a3.836,3.836,0,0,1-1.168,2.953,4.5,4.5,0,0,1-3.191,1.086A4.553,4.553,0,0,1,77.473,16.1a3.77,3.77,0,0,1-1.2-2.9V5.625h2.344v7.508a2.167,2.167,0,0,0,.535,1.629,2.054,2.054,0,0,0,1.48.512q1.977,0,2.008-2.078V5.625Zm6.133,7.211H89.262V17H86.918V5.625h4.227a4.778,4.778,0,0,1,3.109.9,3.1,3.1,0,0,1,1.094,2.539,3.5,3.5,0,0,1-.5,1.941,3.437,3.437,0,0,1-1.527,1.238l2.461,4.648V17H93.262Zm-1.867-1.9h1.891a1.936,1.936,0,0,0,1.367-.449A1.606,1.606,0,0,0,93,9.25a1.719,1.719,0,0,0-.457-1.266,1.9,1.9,0,0,0-1.4-.461H89.262Zm14.711,1.133h-4.5v3.047h5.281V17H97.129V5.625h7.609v1.9H99.473v2.711h4.5Zm4.641,3.047h5.734V17h-8.664V15.625l5.625-8.1h-5.617v-1.9h8.531V6.969Z" transform="translate(826.333 3957.064)" fill="#12263f"/>
    <path id="Trazado_268189" data-name="Trazado 268189" d="M47.188,17V5.625h3.5a5.315,5.315,0,0,1,2.684.676,4.712,4.712,0,0,1,1.848,1.922,5.928,5.928,0,0,1,.664,2.832v.523a5.945,5.945,0,0,1-.652,2.82,4.672,4.672,0,0,1-1.84,1.914,5.355,5.355,0,0,1-2.68.688Zm2.344-9.477v7.594h1.133a2.545,2.545,0,0,0,2.1-.9,4.06,4.06,0,0,0,.742-2.57v-.6a4.124,4.124,0,0,0-.719-2.629,2.537,2.537,0,0,0-2.1-.895Zm14.9,4.547h-4.5v3.047h5.281V17H57.586V5.625H65.2v1.9H59.93v2.711h4.5Zm11.086,1.141A4.025,4.025,0,0,1,74.16,16.1a4.76,4.76,0,0,1-3.223,1.055A4.28,4.28,0,0,1,67.5,15.684a6.038,6.038,0,0,1-1.254-4.043v-.7a6.819,6.819,0,0,1,.578-2.891,4.332,4.332,0,0,1,1.652-1.918,5.164,5.164,0,0,1,5.668.387,4.326,4.326,0,0,1,1.391,2.961H73.188a2.376,2.376,0,0,0-.613-1.6,2.271,2.271,0,0,0-1.605-.5,1.991,1.991,0,0,0-1.754.84,4.707,4.707,0,0,0-.6,2.605V11.7a5.038,5.038,0,0,0,.559,2.7,1.954,1.954,0,0,0,1.762.852,2.314,2.314,0,0,0,1.621-.5,2.241,2.241,0,0,0,.613-1.535ZM79.4,15.117h4.977V17h-7.32V5.625H79.4ZM88.211,17H85.867V5.625h2.344Zm6.375-2.82,2.578-8.555h2.609L95.813,17H93.367L89.422,5.625h2.6Zm13.1-2.109h-4.5v3.047h5.281V17h-7.625V5.625h7.609v1.9h-5.266v2.711h4.5Z" transform="translate(1036.333 3957.064)" fill="#12263f"/>
    <path id="Trazado_268196" data-name="Trazado 268196" d="M40.528,14V4.758h3.237a4.251,4.251,0,0,1,2.552.644,2.2,2.2,0,0,1,.87,1.888,2.088,2.088,0,0,1-.349,1.2,2.017,2.017,0,0,1-.971.759,1.951,1.951,0,0,1,1.12.717,2.121,2.121,0,0,1,.409,1.32,2.439,2.439,0,0,1-.851,2.019,3.829,3.829,0,0,1-2.425.7Zm1.9-4.024V12.47h1.631a1.574,1.574,0,0,0,1.051-.321,1.1,1.1,0,0,0,.378-.885,1.161,1.161,0,0,0-1.314-1.289Zm0-1.346h1.409q1.441-.025,1.441-1.149a1.062,1.062,0,0,0-.365-.9A1.92,1.92,0,0,0,43.766,6.3H42.433ZM52.684,14a2.037,2.037,0,0,1-.184-.616,2.22,2.22,0,0,1-1.733.743,2.439,2.439,0,0,1-1.673-.584,1.878,1.878,0,0,1-.663-1.473,1.941,1.941,0,0,1,.809-1.676A3.994,3.994,0,0,1,51.58,9.8h.844V9.411a1.132,1.132,0,0,0-.244-.762.961.961,0,0,0-.771-.286,1.093,1.093,0,0,0-.727.222.755.755,0,0,0-.263.609H48.583a1.843,1.843,0,0,1,.368-1.1,2.434,2.434,0,0,1,1.041-.8A3.794,3.794,0,0,1,51.5,7a3,3,0,0,1,2.015.638,2.232,2.232,0,0,1,.746,1.793v2.977a3.284,3.284,0,0,0,.273,1.479V14Zm-1.517-1.276a1.58,1.58,0,0,0,.749-.181,1.188,1.188,0,0,0,.508-.486V10.877h-.686q-1.377,0-1.466.952l-.006.108a.734.734,0,0,0,.241.565A.937.937,0,0,0,51.167,12.724Zm6.449-5.592v7.243a2.457,2.457,0,0,1-.6,1.768,2.292,2.292,0,0,1-1.739.632,3.73,3.73,0,0,1-.908-.108V15.212a3.443,3.443,0,0,0,.578.057q.832,0,.832-.882V7.132ZM55.629,5.354a.9.9,0,0,1,.276-.679,1.194,1.194,0,0,1,1.5,0,.9.9,0,0,1,.276.679.9.9,0,0,1-.282.686,1.177,1.177,0,0,1-1.492,0A.9.9,0,0,1,55.629,5.354ZM63.031,14a2.037,2.037,0,0,1-.184-.616,2.22,2.22,0,0,1-1.733.743,2.439,2.439,0,0,1-1.673-.584,1.878,1.878,0,0,1-.663-1.473,1.941,1.941,0,0,1,.809-1.676,3.994,3.994,0,0,1,2.339-.59h.844V9.411a1.132,1.132,0,0,0-.244-.762.961.961,0,0,0-.771-.286,1.093,1.093,0,0,0-.727.222.755.755,0,0,0-.263.609H58.93a1.843,1.843,0,0,1,.368-1.1,2.434,2.434,0,0,1,1.041-.8A3.794,3.794,0,0,1,61.85,7a3,3,0,0,1,2.015.638,2.232,2.232,0,0,1,.746,1.793v2.977a3.284,3.284,0,0,0,.273,1.479V14Zm-1.517-1.276a1.58,1.58,0,0,0,.749-.181,1.188,1.188,0,0,0,.508-.486V10.877h-.686q-1.377,0-1.466.952l-.006.108a.734.734,0,0,0,.241.565A.937.937,0,0,0,61.514,12.724ZM69.74,12.1a.591.591,0,0,0-.333-.53,3.785,3.785,0,0,0-1.07-.346q-2.45-.514-2.45-2.082a1.887,1.887,0,0,1,.759-1.527A3.06,3.06,0,0,1,68.629,7a3.293,3.293,0,0,1,2.092.616,1.94,1.94,0,0,1,.784,1.6H69.67a.888.888,0,0,0-.254-.651,1.075,1.075,0,0,0-.793-.257,1.1,1.1,0,0,0-.717.209.661.661,0,0,0-.254.533.565.565,0,0,0,.289.492,2.971,2.971,0,0,0,.974.324,7.958,7.958,0,0,1,1.155.308,1.9,1.9,0,0,1,1.454,1.847,1.792,1.792,0,0,1-.806,1.52,3.478,3.478,0,0,1-2.082.581,3.632,3.632,0,0,1-1.533-.308,2.572,2.572,0,0,1-1.051-.844,1.962,1.962,0,0,1-.381-1.158h1.739a.958.958,0,0,0,.362.749,1.435,1.435,0,0,0,.9.26,1.328,1.328,0,0,0,.8-.2A.622.622,0,0,0,69.74,12.1Z" transform="translate(298.333 4357.064)" fill="#12263f"/>
    <path id="Trazado_268192" data-name="Trazado 268192" d="M9.723,4.758l2.374,6.7,2.361-6.7h2.5V14H15.049V11.474l.19-4.361L12.745,14H11.437L8.949,7.119l.19,4.354V14h-1.9V4.758ZM18.216,10.5a4.073,4.073,0,0,1,.394-1.822,2.881,2.881,0,0,1,1.133-1.238A3.306,3.306,0,0,1,21.46,7a3.127,3.127,0,0,1,2.269.851,3.414,3.414,0,0,1,.981,2.311l.013.47a3.59,3.59,0,0,1-.882,2.536,3.067,3.067,0,0,1-2.368.955,3.082,3.082,0,0,1-2.371-.952,3.653,3.653,0,0,1-.885-2.59Zm1.834.13a2.567,2.567,0,0,0,.368,1.5,1.323,1.323,0,0,0,2.095.006,2.809,2.809,0,0,0,.375-1.637,2.542,2.542,0,0,0-.375-1.488,1.217,1.217,0,0,0-1.054-.528,1.2,1.2,0,0,0-1.041.524A2.857,2.857,0,0,0,20.051,10.633Zm5.516-.118a4.139,4.139,0,0,1,.72-2.558A2.338,2.338,0,0,1,28.258,7a2.1,2.1,0,0,1,1.657.749V4.25h1.841V14H30.1l-.089-.73a2.159,2.159,0,0,1-1.765.857,2.331,2.331,0,0,1-1.946-.955A4.272,4.272,0,0,1,25.567,10.515Zm1.834.137a2.711,2.711,0,0,0,.336,1.481,1.1,1.1,0,0,0,.978.515,1.227,1.227,0,0,0,1.2-.718V9.215A1.21,1.21,0,0,0,28.728,8.5Q27.4,8.5,27.4,10.652Zm8.938,3.475a3.372,3.372,0,0,1-2.46-.927,3.294,3.294,0,0,1-.949-2.469v-.178a4.149,4.149,0,0,1,.4-1.85,2.935,2.935,0,0,1,1.133-1.257A3.18,3.18,0,0,1,36.136,7a2.85,2.85,0,0,1,2.219.889,3.611,3.611,0,0,1,.809,2.52v.749H34.79a1.7,1.7,0,0,0,.536,1.079,1.621,1.621,0,0,0,1.133.406,1.98,1.98,0,0,0,1.657-.768l.9,1.009A2.754,2.754,0,0,1,37.9,13.8,3.665,3.665,0,0,1,36.339,14.127Zm-.209-5.643a1.146,1.146,0,0,0-.885.37,1.915,1.915,0,0,0-.435,1.058h2.552V9.765a1.366,1.366,0,0,0-.33-.947A1.183,1.183,0,0,0,36.129,8.484Zm7.935.368A4.984,4.984,0,0,0,43.4,8.8a1.344,1.344,0,0,0-1.365.7V14H40.2V7.132h1.733l.051.819A1.7,1.7,0,0,1,43.518,7a1.922,1.922,0,0,1,.571.083ZM48.736,14a2.037,2.037,0,0,1-.184-.616,2.22,2.22,0,0,1-1.733.743,2.439,2.439,0,0,1-1.673-.584,1.878,1.878,0,0,1-.663-1.473,1.941,1.941,0,0,1,.809-1.676,3.994,3.994,0,0,1,2.339-.59h.844V9.411a1.132,1.132,0,0,0-.244-.762.961.961,0,0,0-.771-.286,1.093,1.093,0,0,0-.727.222.755.755,0,0,0-.263.609H44.635A1.843,1.843,0,0,1,45,8.09a2.434,2.434,0,0,1,1.041-.8A3.794,3.794,0,0,1,47.555,7a3,3,0,0,1,2.015.638,2.232,2.232,0,0,1,.746,1.793v2.977a3.284,3.284,0,0,0,.273,1.479V14Zm-1.517-1.276a1.58,1.58,0,0,0,.749-.181,1.188,1.188,0,0,0,.508-.486V10.877H47.79q-1.377,0-1.466.952l-.006.108a.734.734,0,0,0,.241.565A.937.937,0,0,0,47.219,12.724Zm4.221-2.209a4.139,4.139,0,0,1,.72-2.558A2.338,2.338,0,0,1,54.131,7a2.1,2.1,0,0,1,1.657.749V4.25h1.841V14H55.972l-.089-.73a2.159,2.159,0,0,1-1.765.857,2.331,2.331,0,0,1-1.946-.955A4.272,4.272,0,0,1,51.44,10.515Zm1.834.137a2.711,2.711,0,0,0,.336,1.481,1.1,1.1,0,0,0,.978.515,1.227,1.227,0,0,0,1.2-.718V9.215A1.21,1.21,0,0,0,54.6,8.5Q53.274,8.5,53.274,10.652ZM63.031,14a2.037,2.037,0,0,1-.184-.616,2.22,2.22,0,0,1-1.733.743,2.439,2.439,0,0,1-1.673-.584,1.878,1.878,0,0,1-.663-1.473,1.941,1.941,0,0,1,.809-1.676,3.994,3.994,0,0,1,2.339-.59h.844V9.411a1.132,1.132,0,0,0-.244-.762.961.961,0,0,0-.771-.286,1.093,1.093,0,0,0-.727.222.755.755,0,0,0-.263.609H58.93a1.843,1.843,0,0,1,.368-1.1,2.434,2.434,0,0,1,1.041-.8A3.794,3.794,0,0,1,61.85,7a3,3,0,0,1,2.015.638,2.232,2.232,0,0,1,.746,1.793v2.977a3.284,3.284,0,0,0,.273,1.479V14Zm-1.517-1.276a1.58,1.58,0,0,0,.749-.181,1.188,1.188,0,0,0,.508-.486V10.877h-.686q-1.377,0-1.466.952l-.006.108a.734.734,0,0,0,.241.565A.937.937,0,0,0,61.514,12.724ZM69.74,12.1a.591.591,0,0,0-.333-.53,3.785,3.785,0,0,0-1.07-.346q-2.45-.514-2.45-2.082a1.887,1.887,0,0,1,.759-1.527A3.06,3.06,0,0,1,68.629,7a3.293,3.293,0,0,1,2.092.616,1.94,1.94,0,0,1,.784,1.6H69.67a.888.888,0,0,0-.254-.651,1.075,1.075,0,0,0-.793-.257,1.1,1.1,0,0,0-.717.209.661.661,0,0,0-.254.533.565.565,0,0,0,.289.492,2.971,2.971,0,0,0,.974.324,7.958,7.958,0,0,1,1.155.308,1.9,1.9,0,0,1,1.454,1.847,1.792,1.792,0,0,1-.806,1.52,3.478,3.478,0,0,1-2.082.581,3.632,3.632,0,0,1-1.533-.308,2.572,2.572,0,0,1-1.051-.844,1.962,1.962,0,0,1-.381-1.158h1.739a.958.958,0,0,0,.362.749,1.435,1.435,0,0,0,.9.26,1.328,1.328,0,0,0,.8-.2A.622.622,0,0,0,69.74,12.1Z" transform="translate(298.333 4196.064)" fill="#12263f"/>
    <path id="Trazado_268186" data-name="Trazado 268186" d="M47.8,12.1H44.464L43.829,14H41.8l3.44-9.242h1.765L50.469,14H48.444Zm-2.825-1.542h2.311L46.127,7.094ZM53.147,14H51.307V4.25h1.841Zm3.707-8.557V7.132h1.174V8.478H56.854v3.428a.818.818,0,0,0,.146.546.733.733,0,0,0,.559.165,2.925,2.925,0,0,0,.54-.044v1.39a3.776,3.776,0,0,1-1.111.165,1.752,1.752,0,0,1-1.968-1.949v-3.7h-1V7.132h1V5.443ZM63.031,14a2.037,2.037,0,0,1-.184-.616,2.22,2.22,0,0,1-1.733.743,2.439,2.439,0,0,1-1.673-.584,1.878,1.878,0,0,1-.663-1.473,1.941,1.941,0,0,1,.809-1.676,3.994,3.994,0,0,1,2.339-.59h.844V9.411a1.132,1.132,0,0,0-.244-.762.961.961,0,0,0-.771-.286,1.093,1.093,0,0,0-.727.222.755.755,0,0,0-.263.609H58.93a1.843,1.843,0,0,1,.368-1.1,2.434,2.434,0,0,1,1.041-.8A3.794,3.794,0,0,1,61.85,7a3,3,0,0,1,2.015.638,2.232,2.232,0,0,1,.746,1.793v2.977a3.284,3.284,0,0,0,.273,1.479V14Zm-1.517-1.276a1.58,1.58,0,0,0,.749-.181,1.188,1.188,0,0,0,.508-.486V10.877h-.686q-1.377,0-1.466.952l-.006.108a.734.734,0,0,0,.241.565A.937.937,0,0,0,61.514,12.724ZM69.74,12.1a.591.591,0,0,0-.333-.53,3.785,3.785,0,0,0-1.07-.346q-2.45-.514-2.45-2.082a1.887,1.887,0,0,1,.759-1.527A3.06,3.06,0,0,1,68.629,7a3.293,3.293,0,0,1,2.092.616,1.94,1.94,0,0,1,.784,1.6H69.67a.888.888,0,0,0-.254-.651,1.075,1.075,0,0,0-.793-.257,1.1,1.1,0,0,0-.717.209.661.661,0,0,0-.254.533.565.565,0,0,0,.289.492,2.971,2.971,0,0,0,.974.324,7.958,7.958,0,0,1,1.155.308,1.9,1.9,0,0,1,1.454,1.847,1.792,1.792,0,0,1-.806,1.52,3.478,3.478,0,0,1-2.082.581,3.632,3.632,0,0,1-1.533-.308,2.572,2.572,0,0,1-1.051-.844,1.962,1.962,0,0,1-.381-1.158h1.739a.958.958,0,0,0,.362.749,1.435,1.435,0,0,0,.9.26,1.328,1.328,0,0,0,.8-.2A.622.622,0,0,0,69.74,12.1Z" transform="translate(298.333 3971.064)" fill="#12263f"/>
    <path id="Trazado_268194" data-name="Trazado 268194" d="M23.838,10.744V14h-1.9V4.758h3.605a4.171,4.171,0,0,1,1.831.381,2.807,2.807,0,0,1,1.216,1.082,3.018,3.018,0,0,1,.425,1.6,2.654,2.654,0,0,1-.93,2.142,3.873,3.873,0,0,1-2.574.784Zm0-1.542h1.7a1.673,1.673,0,0,0,1.152-.355,1.293,1.293,0,0,0,.4-1.016,1.524,1.524,0,0,0-.4-1.1,1.494,1.494,0,0,0-1.1-.432H23.838Zm5.992,1.3a4.073,4.073,0,0,1,.394-1.822,2.881,2.881,0,0,1,1.133-1.238A3.306,3.306,0,0,1,33.074,7a3.128,3.128,0,0,1,2.269.851,3.414,3.414,0,0,1,.981,2.311l.013.47a3.59,3.59,0,0,1-.882,2.536,3.42,3.42,0,0,1-4.739,0,3.653,3.653,0,0,1-.885-2.59Zm1.834.13a2.567,2.567,0,0,0,.368,1.5,1.323,1.323,0,0,0,2.095.006A2.809,2.809,0,0,0,34.5,10.5a2.542,2.542,0,0,0-.375-1.488,1.217,1.217,0,0,0-1.054-.528,1.2,1.2,0,0,0-1.041.524A2.857,2.857,0,0,0,31.665,10.633Zm8.658,2.015a1.2,1.2,0,0,0,.825-.279.979.979,0,0,0,.33-.743H43.2a2.353,2.353,0,0,1-.381,1.279,2.513,2.513,0,0,1-1.025.9,3.208,3.208,0,0,1-1.438.321,2.982,2.982,0,0,1-2.323-.936,3.705,3.705,0,0,1-.851-2.587v-.121a3.663,3.663,0,0,1,.844-2.533A2.947,2.947,0,0,1,40.342,7a2.889,2.889,0,0,1,2.066.733A2.6,2.6,0,0,1,43.2,9.69h-1.72a1.261,1.261,0,0,0-.33-.871,1.227,1.227,0,0,0-1.806.132,2.708,2.708,0,0,0-.327,1.516v.191a2.742,2.742,0,0,0,.324,1.526A1.119,1.119,0,0,0,40.323,12.648ZM43.96,10.5a4.073,4.073,0,0,1,.394-1.822,2.881,2.881,0,0,1,1.133-1.238A3.306,3.306,0,0,1,47.2,7a3.128,3.128,0,0,1,2.269.851,3.414,3.414,0,0,1,.981,2.311l.013.47a3.59,3.59,0,0,1-.882,2.536,3.42,3.42,0,0,1-4.739,0,3.653,3.653,0,0,1-.885-2.59Zm1.834.13a2.567,2.567,0,0,0,.368,1.5,1.323,1.323,0,0,0,2.095.006,2.809,2.809,0,0,0,.375-1.637,2.542,2.542,0,0,0-.375-1.488A1.217,1.217,0,0,0,47.2,8.484a1.2,1.2,0,0,0-1.041.524A2.857,2.857,0,0,0,45.794,10.633Z" transform="translate(551.333 4387.064)" fill="#12263f"/>
    <path id="Trazado_268197" data-name="Trazado 268197" d="M9.67,4.758l2.374,6.7,2.361-6.7h2.5V14H15V11.474l.19-4.361L12.691,14H11.384L8.9,7.119l.19,4.354V14h-1.9V4.758ZM18.163,10.5a4.073,4.073,0,0,1,.394-1.822A2.881,2.881,0,0,1,19.69,7.443,3.306,3.306,0,0,1,21.407,7a3.127,3.127,0,0,1,2.269.851,3.414,3.414,0,0,1,.981,2.311l.013.47a3.59,3.59,0,0,1-.882,2.536,3.067,3.067,0,0,1-2.368.955,3.082,3.082,0,0,1-2.371-.952,3.653,3.653,0,0,1-.885-2.59Zm1.834.13a2.567,2.567,0,0,0,.368,1.5,1.323,1.323,0,0,0,2.095.006,2.809,2.809,0,0,0,.375-1.637,2.542,2.542,0,0,0-.375-1.488,1.217,1.217,0,0,0-1.054-.528,1.2,1.2,0,0,0-1.041.524A2.857,2.857,0,0,0,20,10.633Zm5.516-.118a4.139,4.139,0,0,1,.72-2.558A2.338,2.338,0,0,1,28.205,7a2.1,2.1,0,0,1,1.657.749V4.25H31.7V14H30.046l-.089-.73a2.159,2.159,0,0,1-1.765.857,2.331,2.331,0,0,1-1.946-.955A4.272,4.272,0,0,1,25.514,10.515Zm1.834.137a2.711,2.711,0,0,0,.336,1.481,1.1,1.1,0,0,0,.978.515,1.227,1.227,0,0,0,1.2-.718V9.215A1.21,1.21,0,0,0,28.675,8.5Q27.348,8.5,27.348,10.652Zm8.938,3.475a3.372,3.372,0,0,1-2.46-.927,3.294,3.294,0,0,1-.949-2.469v-.178a4.149,4.149,0,0,1,.4-1.85A2.935,2.935,0,0,1,34.41,7.446,3.18,3.18,0,0,1,36.083,7a2.85,2.85,0,0,1,2.219.889,3.611,3.611,0,0,1,.809,2.52v.749H34.737a1.7,1.7,0,0,0,.536,1.079,1.621,1.621,0,0,0,1.133.406,1.98,1.98,0,0,0,1.657-.768l.9,1.009a2.754,2.754,0,0,1-1.117.911A3.665,3.665,0,0,1,36.286,14.127Zm-.209-5.643a1.146,1.146,0,0,0-.885.37,1.915,1.915,0,0,0-.435,1.058h2.552V9.765a1.366,1.366,0,0,0-.33-.947A1.183,1.183,0,0,0,36.076,8.484Zm7.935.368a4.984,4.984,0,0,0-.66-.051,1.344,1.344,0,0,0-1.365.7V14H40.151V7.132h1.733l.051.819A1.7,1.7,0,0,1,43.465,7a1.922,1.922,0,0,1,.571.083ZM48.683,14a2.037,2.037,0,0,1-.184-.616,2.22,2.22,0,0,1-1.733.743,2.439,2.439,0,0,1-1.673-.584,1.878,1.878,0,0,1-.663-1.473,1.941,1.941,0,0,1,.809-1.676,3.994,3.994,0,0,1,2.339-.59h.844V9.411a1.132,1.132,0,0,0-.244-.762.961.961,0,0,0-.771-.286,1.093,1.093,0,0,0-.727.222.755.755,0,0,0-.263.609H44.582a1.843,1.843,0,0,1,.368-1.1,2.434,2.434,0,0,1,1.041-.8A3.794,3.794,0,0,1,47.5,7a3,3,0,0,1,2.015.638,2.232,2.232,0,0,1,.746,1.793v2.977a3.284,3.284,0,0,0,.273,1.479V14Zm-1.517-1.276a1.58,1.58,0,0,0,.749-.181,1.188,1.188,0,0,0,.508-.486V10.877h-.686q-1.377,0-1.466.952l-.006.108a.734.734,0,0,0,.241.565A.937.937,0,0,0,47.166,12.724Zm4.221-2.209a4.139,4.139,0,0,1,.72-2.558A2.338,2.338,0,0,1,54.078,7a2.1,2.1,0,0,1,1.657.749V4.25h1.841V14H55.919l-.089-.73a2.159,2.159,0,0,1-1.765.857,2.331,2.331,0,0,1-1.946-.955A4.272,4.272,0,0,1,51.387,10.515Zm1.834.137a2.711,2.711,0,0,0,.336,1.481,1.1,1.1,0,0,0,.978.515,1.227,1.227,0,0,0,1.2-.718V9.215A1.21,1.21,0,0,0,54.548,8.5Q53.221,8.5,53.221,10.652Zm5.491-.149a4.073,4.073,0,0,1,.394-1.822,2.881,2.881,0,0,1,1.133-1.238A3.306,3.306,0,0,1,61.956,7a3.128,3.128,0,0,1,2.269.851,3.414,3.414,0,0,1,.981,2.311l.013.47a3.59,3.59,0,0,1-.882,2.536,3.42,3.42,0,0,1-4.739,0,3.653,3.653,0,0,1-.885-2.59Zm1.834.13a2.567,2.567,0,0,0,.368,1.5,1.323,1.323,0,0,0,2.095.006,2.809,2.809,0,0,0,.375-1.637,2.542,2.542,0,0,0-.375-1.488,1.217,1.217,0,0,0-1.054-.528,1.2,1.2,0,0,0-1.041.524A2.857,2.857,0,0,0,60.546,10.633ZM18.506,23.443v1.688H19.68v1.346H18.506v3.428a.818.818,0,0,0,.146.546.733.733,0,0,0,.559.165,2.925,2.925,0,0,0,.54-.044v1.39a3.776,3.776,0,0,1-1.111.165,1.752,1.752,0,0,1-1.968-1.949v-3.7h-1V25.132h1V23.443ZM22.638,32H20.8V25.132h1.841Zm-1.949-8.646a.9.9,0,0,1,.276-.679,1.19,1.19,0,0,1,1.5,0,.969.969,0,0,1,0,1.365,1.177,1.177,0,0,1-1.492,0A.9.9,0,0,1,20.689,23.354Zm6.621,8.772a3.372,3.372,0,0,1-2.46-.927,3.294,3.294,0,0,1-.949-2.469v-.178a4.149,4.149,0,0,1,.4-1.85,2.935,2.935,0,0,1,1.133-1.257A3.18,3.18,0,0,1,27.107,25a2.85,2.85,0,0,1,2.219.889,3.611,3.611,0,0,1,.809,2.52v.749H25.761a1.7,1.7,0,0,0,.536,1.079,1.621,1.621,0,0,0,1.133.406,1.98,1.98,0,0,0,1.657-.768l.9,1.009a2.754,2.754,0,0,1-1.117.911A3.665,3.665,0,0,1,27.31,32.127ZM27.1,26.484a1.146,1.146,0,0,0-.885.37,1.915,1.915,0,0,0-.435,1.058h2.552v-.147a1.366,1.366,0,0,0-.33-.947A1.183,1.183,0,0,0,27.1,26.484Zm5.8-1.352.057.768a2.414,2.414,0,0,1,1.974-.9,1.832,1.832,0,0,1,1.822,1.047A2.358,2.358,0,0,1,38.812,25a2.049,2.049,0,0,1,1.663.651,2.991,2.991,0,0,1,.546,1.958V32H39.18V27.62a1.308,1.308,0,0,0-.229-.854,1.013,1.013,0,0,0-.806-.27A1.145,1.145,0,0,0,37,27.284L37.009,32H35.175V27.626a1.292,1.292,0,0,0-.235-.863,1.023,1.023,0,0,0-.8-.267,1.189,1.189,0,0,0-1.13.647V32H31.176V25.132Zm15.717,3.5a4.119,4.119,0,0,1-.72,2.542,2.31,2.31,0,0,1-1.946.955,2.14,2.14,0,0,1-1.682-.724v3.237H42.43V25.132h1.7l.063.673a2.156,2.156,0,0,1,1.739-.8,2.326,2.326,0,0,1,1.974.939,4.231,4.231,0,0,1,.7,2.59ZM46.778,28.5a2.7,2.7,0,0,0-.34-1.479,1.106,1.106,0,0,0-.987-.521,1.2,1.2,0,0,0-1.187.66v2.812a1.222,1.222,0,0,0,1.2.679Q46.778,30.648,46.778,28.5Zm2.685.006a4.073,4.073,0,0,1,.394-1.822,2.881,2.881,0,0,1,1.133-1.238A3.306,3.306,0,0,1,52.707,25a3.128,3.128,0,0,1,2.269.851,3.414,3.414,0,0,1,.981,2.311l.013.47a3.59,3.59,0,0,1-.882,2.536,3.42,3.42,0,0,1-4.739,0,3.653,3.653,0,0,1-.885-2.59Zm1.834.13a2.567,2.567,0,0,0,.368,1.5,1.323,1.323,0,0,0,2.095.006,2.809,2.809,0,0,0,.375-1.637,2.542,2.542,0,0,0-.375-1.488,1.217,1.217,0,0,0-1.054-.528,1.2,1.2,0,0,0-1.041.524A2.857,2.857,0,0,0,51.3,28.633Z" transform="translate(762.333 4387.064)" fill="#12263f"/>
    <path id="Trazado_268198" data-name="Trazado 268198" d="M26.923,12.1H23.584L22.949,14H20.924l3.44-9.242h1.765L29.589,14H27.564ZM24.1,10.553h2.311L25.247,7.094ZM32.268,14H30.427V4.25h1.841Zm3.707-8.557V7.132h1.174V8.478H35.975v3.428a.818.818,0,0,0,.146.546.733.733,0,0,0,.559.165,2.925,2.925,0,0,0,.54-.044v1.39a3.776,3.776,0,0,1-1.111.165,1.752,1.752,0,0,1-1.968-1.949v-3.7h-1V7.132h1V5.443ZM42.151,14a2.037,2.037,0,0,1-.184-.616,2.22,2.22,0,0,1-1.733.743,2.439,2.439,0,0,1-1.673-.584A1.878,1.878,0,0,1,37.9,12.07a1.941,1.941,0,0,1,.809-1.676,3.994,3.994,0,0,1,2.339-.59h.844V9.411a1.132,1.132,0,0,0-.244-.762.961.961,0,0,0-.771-.286,1.093,1.093,0,0,0-.727.222.755.755,0,0,0-.263.609H38.05a1.843,1.843,0,0,1,.368-1.1,2.434,2.434,0,0,1,1.041-.8A3.794,3.794,0,0,1,40.97,7a3,3,0,0,1,2.015.638,2.232,2.232,0,0,1,.746,1.793v2.977A3.284,3.284,0,0,0,44,13.892V14Zm-1.517-1.276a1.58,1.58,0,0,0,.749-.181,1.188,1.188,0,0,0,.508-.486V10.877h-.686q-1.377,0-1.466.952l-.006.108a.734.734,0,0,0,.241.565A.937.937,0,0,0,40.634,12.724ZM48.86,12.1a.591.591,0,0,0-.333-.53,3.785,3.785,0,0,0-1.07-.346q-2.45-.514-2.45-2.082a1.887,1.887,0,0,1,.759-1.527A3.06,3.06,0,0,1,47.75,7a3.293,3.293,0,0,1,2.092.616,1.94,1.94,0,0,1,.784,1.6H48.791a.888.888,0,0,0-.254-.651,1.075,1.075,0,0,0-.793-.257,1.1,1.1,0,0,0-.717.209.661.661,0,0,0-.254.533.565.565,0,0,0,.289.492,2.971,2.971,0,0,0,.974.324,7.959,7.959,0,0,1,1.155.308,1.9,1.9,0,0,1,1.454,1.847,1.792,1.792,0,0,1-.806,1.52,3.478,3.478,0,0,1-2.082.581,3.632,3.632,0,0,1-1.533-.308,2.572,2.572,0,0,1-1.051-.844,1.962,1.962,0,0,1-.381-1.158h1.739a.958.958,0,0,0,.362.749,1.435,1.435,0,0,0,.9.26,1.328,1.328,0,0,0,.8-.2A.622.622,0,0,0,48.86,12.1Z" transform="translate(972.333 4387.064)" fill="#12263f"/>
    <path id="Trazado_268195" data-name="Trazado 268195" d="M11.765,14H9.86V4.758h1.9ZM15.1,7.132l.057.793A2.4,2.4,0,0,1,17.128,7a1.993,1.993,0,0,1,1.625.641A2.991,2.991,0,0,1,19.3,9.563V14H17.465V9.607a1.19,1.19,0,0,0-.254-.847,1.137,1.137,0,0,0-.844-.263,1.262,1.262,0,0,0-1.162.66V14H13.371V7.132Zm8.163,4.627,1.276-4.627h1.917L24.136,14H22.384L20.067,7.132h1.917Zm7.16,2.368a3.372,3.372,0,0,1-2.46-.927,3.294,3.294,0,0,1-.949-2.469v-.178a4.149,4.149,0,0,1,.4-1.85,2.935,2.935,0,0,1,1.133-1.257A3.18,3.18,0,0,1,30.217,7a2.85,2.85,0,0,1,2.219.889,3.611,3.611,0,0,1,.809,2.52v.749H28.872a1.7,1.7,0,0,0,.536,1.079,1.621,1.621,0,0,0,1.133.406A1.98,1.98,0,0,0,32.2,11.88l.9,1.009a2.754,2.754,0,0,1-1.117.911A3.665,3.665,0,0,1,30.42,14.127Zm-.209-5.643a1.146,1.146,0,0,0-.885.37,1.915,1.915,0,0,0-.435,1.058h2.552V9.765a1.366,1.366,0,0,0-.33-.947A1.183,1.183,0,0,0,30.211,8.484Zm7.935.368a4.984,4.984,0,0,0-.66-.051,1.344,1.344,0,0,0-1.365.7V14H34.286V7.132h1.733l.051.819A1.7,1.7,0,0,1,37.6,7a1.922,1.922,0,0,1,.571.083Zm4.6,3.25a.591.591,0,0,0-.333-.53,3.785,3.785,0,0,0-1.07-.346q-2.45-.514-2.45-2.082a1.887,1.887,0,0,1,.759-1.527A3.06,3.06,0,0,1,41.637,7a3.293,3.293,0,0,1,2.092.616,1.94,1.94,0,0,1,.784,1.6H42.678a.888.888,0,0,0-.254-.651,1.075,1.075,0,0,0-.793-.257,1.1,1.1,0,0,0-.717.209.661.661,0,0,0-.254.533.565.565,0,0,0,.289.492,2.971,2.971,0,0,0,.974.324,7.959,7.959,0,0,1,1.155.308,1.9,1.9,0,0,1,1.454,1.847,1.792,1.792,0,0,1-.806,1.52,3.478,3.478,0,0,1-2.082.581,3.632,3.632,0,0,1-1.533-.308,2.572,2.572,0,0,1-1.051-.844,1.962,1.962,0,0,1-.381-1.158h1.739a.958.958,0,0,0,.362.749,1.435,1.435,0,0,0,.9.26,1.328,1.328,0,0,0,.8-.2A.622.622,0,0,0,42.748,12.1Zm4.9,1.9H45.807V7.132h1.841ZM45.7,5.354a.9.9,0,0,1,.276-.679,1.19,1.19,0,0,1,1.5,0,.9.9,0,0,1,.279.679.9.9,0,0,1-.282.686,1.177,1.177,0,0,1-1.492,0A.9.9,0,0,1,45.7,5.354ZM48.873,10.5a4.073,4.073,0,0,1,.394-1.822A2.881,2.881,0,0,1,50.4,7.443,3.306,3.306,0,0,1,52.117,7a3.128,3.128,0,0,1,2.269.851,3.414,3.414,0,0,1,.981,2.311l.013.47a3.59,3.59,0,0,1-.882,2.536,3.42,3.42,0,0,1-4.739,0,3.653,3.653,0,0,1-.885-2.59Zm1.834.13a2.567,2.567,0,0,0,.368,1.5,1.323,1.323,0,0,0,2.095.006,2.809,2.809,0,0,0,.375-1.637,2.542,2.542,0,0,0-.375-1.488,1.217,1.217,0,0,0-1.054-.528,1.2,1.2,0,0,0-1.041.524A2.857,2.857,0,0,0,50.708,10.633ZM52.479,4.25h2L52.72,6.218H51.228ZM58.2,7.132l.057.793A2.4,2.4,0,0,1,60.229,7a1.993,1.993,0,0,1,1.625.641A2.991,2.991,0,0,1,62.4,9.563V14H60.565V9.607a1.19,1.19,0,0,0-.254-.847,1.137,1.137,0,0,0-.844-.263,1.262,1.262,0,0,0-1.162.66V14H56.471V7.132Z" transform="translate(356.333 4387.064)" fill="#12263f"/>
    <path id="Trazado_268193" data-name="Trazado 268193" d="M27.232,12.47h4.659V14h-7.04V12.883L29.422,6.3H24.858V4.758H31.79V5.85ZM32.552,10.5a4.073,4.073,0,0,1,.394-1.822,2.881,2.881,0,0,1,1.133-1.238A3.306,3.306,0,0,1,35.8,7a3.128,3.128,0,0,1,2.269.851,3.414,3.414,0,0,1,.981,2.311l.013.47a3.59,3.59,0,0,1-.882,2.536,3.42,3.42,0,0,1-4.739,0,3.653,3.653,0,0,1-.885-2.59Zm1.834.13a2.567,2.567,0,0,0,.368,1.5,1.323,1.323,0,0,0,2.095.006,2.809,2.809,0,0,0,.375-1.637,2.542,2.542,0,0,0-.375-1.488A1.217,1.217,0,0,0,35.8,8.484a1.2,1.2,0,0,0-1.041.524A2.857,2.857,0,0,0,34.386,10.633Zm7.49-3.5.057.793A2.4,2.4,0,0,1,43.908,7a1.993,1.993,0,0,1,1.625.641,2.991,2.991,0,0,1,.546,1.917V14H44.244V9.607a1.19,1.19,0,0,0-.254-.847,1.137,1.137,0,0,0-.844-.263,1.262,1.262,0,0,0-1.162.66V14H40.15V7.132ZM51.449,14a2.037,2.037,0,0,1-.184-.616,2.22,2.22,0,0,1-1.733.743,2.439,2.439,0,0,1-1.673-.584A1.878,1.878,0,0,1,47.2,12.07a1.941,1.941,0,0,1,.809-1.676,3.994,3.994,0,0,1,2.339-.59h.844V9.411a1.132,1.132,0,0,0-.244-.762.961.961,0,0,0-.771-.286,1.093,1.093,0,0,0-.727.222.755.755,0,0,0-.263.609H47.348a1.843,1.843,0,0,1,.368-1.1,2.434,2.434,0,0,1,1.041-.8A3.794,3.794,0,0,1,50.268,7a3,3,0,0,1,2.015.638,2.232,2.232,0,0,1,.746,1.793v2.977a3.284,3.284,0,0,0,.273,1.479V14Zm-1.517-1.276a1.58,1.58,0,0,0,.749-.181,1.188,1.188,0,0,0,.508-.486V10.877H50.5q-1.377,0-1.466.952l-.006.108a.734.734,0,0,0,.241.565A.937.937,0,0,0,49.932,12.724Zm7.458-2.209a4.139,4.139,0,0,1,.72-2.558A2.338,2.338,0,0,1,60.082,7a2.1,2.1,0,0,1,1.657.749V4.25h1.841V14H61.922l-.089-.73a2.159,2.159,0,0,1-1.765.857,2.331,2.331,0,0,1-1.946-.955A4.272,4.272,0,0,1,57.39,10.515Zm1.834.137a2.711,2.711,0,0,0,.336,1.481,1.1,1.1,0,0,0,.978.515,1.227,1.227,0,0,0,1.2-.718V9.215A1.21,1.21,0,0,0,60.551,8.5Q59.225,8.5,59.225,10.652Zm8.938,3.475A3.372,3.372,0,0,1,65.7,13.2a3.294,3.294,0,0,1-.949-2.469v-.178a4.149,4.149,0,0,1,.4-1.85,2.935,2.935,0,0,1,1.133-1.257A3.18,3.18,0,0,1,67.959,7a2.85,2.85,0,0,1,2.219.889,3.611,3.611,0,0,1,.809,2.52v.749H66.613a1.7,1.7,0,0,0,.536,1.079,1.621,1.621,0,0,0,1.133.406,1.98,1.98,0,0,0,1.657-.768l.9,1.009a2.754,2.754,0,0,1-1.117.911A3.665,3.665,0,0,1,68.162,14.127Zm-.209-5.643a1.146,1.146,0,0,0-.885.37,1.915,1.915,0,0,0-.435,1.058h2.552V9.765a1.366,1.366,0,0,0-.33-.947A1.183,1.183,0,0,0,67.953,8.484Zm10.169,4.164a1.2,1.2,0,0,0,.825-.279.979.979,0,0,0,.33-.743H81a2.353,2.353,0,0,1-.381,1.279,2.513,2.513,0,0,1-1.025.9,3.208,3.208,0,0,1-1.438.321,2.982,2.982,0,0,1-2.323-.936,3.705,3.705,0,0,1-.851-2.587v-.121a3.663,3.663,0,0,1,.844-2.533A2.947,2.947,0,0,1,78.141,7a2.889,2.889,0,0,1,2.066.733A2.6,2.6,0,0,1,81,9.69h-1.72a1.261,1.261,0,0,0-.33-.871,1.227,1.227,0,0,0-1.806.132,2.708,2.708,0,0,0-.327,1.516v.191a2.742,2.742,0,0,0,.324,1.526A1.119,1.119,0,0,0,78.122,12.648ZM81.759,10.5a4.073,4.073,0,0,1,.394-1.822,2.881,2.881,0,0,1,1.133-1.238A3.306,3.306,0,0,1,85,7a3.127,3.127,0,0,1,2.269.851,3.414,3.414,0,0,1,.981,2.311l.013.47a3.59,3.59,0,0,1-.882,2.536,3.42,3.42,0,0,1-4.739,0,3.653,3.653,0,0,1-.885-2.59Zm1.834.13a2.567,2.567,0,0,0,.368,1.5,1.323,1.323,0,0,0,2.095.006,2.809,2.809,0,0,0,.375-1.637,2.542,2.542,0,0,0-.375-1.488A1.217,1.217,0,0,0,85,8.484a1.2,1.2,0,0,0-1.041.524A2.857,2.857,0,0,0,83.593,10.633ZM93.115,12.1a.591.591,0,0,0-.333-.53,3.785,3.785,0,0,0-1.07-.346q-2.45-.514-2.45-2.082a1.887,1.887,0,0,1,.759-1.527A3.06,3.06,0,0,1,92,7a3.293,3.293,0,0,1,2.092.616,1.94,1.94,0,0,1,.784,1.6H93.045a.888.888,0,0,0-.254-.651A1.075,1.075,0,0,0,92,8.313a1.1,1.1,0,0,0-.717.209.661.661,0,0,0-.254.533.565.565,0,0,0,.289.492,2.971,2.971,0,0,0,.974.324,7.958,7.958,0,0,1,1.155.308A1.9,1.9,0,0,1,94.9,12.026a1.792,1.792,0,0,1-.806,1.52,3.478,3.478,0,0,1-2.082.581,3.632,3.632,0,0,1-1.533-.308,2.572,2.572,0,0,1-1.051-.844,1.962,1.962,0,0,1-.381-1.158h1.739a.958.958,0,0,0,.362.749,1.435,1.435,0,0,0,.9.26,1.328,1.328,0,0,0,.8-.2A.622.622,0,0,0,93.115,12.1Zm5.161-6.659V7.132H99.45V8.478H98.275v3.428a.818.818,0,0,0,.146.546.733.733,0,0,0,.559.165,2.926,2.926,0,0,0,.54-.044v1.39a3.777,3.777,0,0,1-1.111.165,1.752,1.752,0,0,1-1.968-1.949v-3.7h-1V7.132h1V5.443ZM100,10.5a4.073,4.073,0,0,1,.394-1.822,2.881,2.881,0,0,1,1.133-1.238A3.306,3.306,0,0,1,103.239,7a3.127,3.127,0,0,1,2.269.851,3.414,3.414,0,0,1,.981,2.311l.013.47a3.59,3.59,0,0,1-.882,2.536,3.42,3.42,0,0,1-4.739,0,3.653,3.653,0,0,1-.885-2.59Zm1.834.13a2.567,2.567,0,0,0,.368,1.5,1.323,1.323,0,0,0,2.095.006,2.809,2.809,0,0,0,.375-1.637,2.542,2.542,0,0,0-.375-1.488,1.217,1.217,0,0,0-1.054-.528,1.2,1.2,0,0,0-1.041.524A2.857,2.857,0,0,0,101.83,10.633Zm9.521,1.469a.591.591,0,0,0-.333-.53,3.785,3.785,0,0,0-1.07-.346q-2.45-.514-2.45-2.082a1.887,1.887,0,0,1,.759-1.527A3.06,3.06,0,0,1,110.241,7a3.293,3.293,0,0,1,2.092.616,1.94,1.94,0,0,1,.784,1.6h-1.834a.888.888,0,0,0-.254-.651,1.075,1.075,0,0,0-.793-.257,1.1,1.1,0,0,0-.717.209.661.661,0,0,0-.254.533.565.565,0,0,0,.289.492,2.971,2.971,0,0,0,.974.324,7.958,7.958,0,0,1,1.155.308,1.9,1.9,0,0,1,1.454,1.847,1.792,1.792,0,0,1-.806,1.52,3.478,3.478,0,0,1-2.082.581,3.632,3.632,0,0,1-1.533-.308,2.572,2.572,0,0,1-1.051-.844,1.962,1.962,0,0,1-.381-1.158h1.739a.958.958,0,0,0,.362.749,1.435,1.435,0,0,0,.9.26,1.328,1.328,0,0,0,.8-.2A.622.622,0,0,0,111.352,12.1Z" transform="translate(625.333 4283.064)" fill="#12263f"/>
    <path id="Trazado_268191" data-name="Trazado 268191" d="M30.279,14h-1.9L24.668,7.919V14h-1.9V4.758h1.9l3.713,6.094V4.758h1.9Zm3.479,0H31.917V7.132h1.841ZM31.809,5.354a.9.9,0,0,1,.276-.679,1.19,1.19,0,0,1,1.5,0,.9.9,0,0,1,.279.679.9.9,0,0,1-.282.686,1.177,1.177,0,0,1-1.492,0A.9.9,0,0,1,31.809,5.354Zm6.03,6.4,1.276-4.627h1.917L38.715,14H36.963L34.646,7.132h1.917ZM45,14.127a3.372,3.372,0,0,1-2.46-.927,3.294,3.294,0,0,1-.949-2.469v-.178a4.149,4.149,0,0,1,.4-1.85,2.935,2.935,0,0,1,1.133-1.257A3.18,3.18,0,0,1,44.8,7a2.85,2.85,0,0,1,2.219.889,3.611,3.611,0,0,1,.809,2.52v.749H43.451a1.7,1.7,0,0,0,.536,1.079,1.621,1.621,0,0,0,1.133.406,1.98,1.98,0,0,0,1.657-.768l.9,1.009a2.754,2.754,0,0,1-1.117.911A3.665,3.665,0,0,1,45,14.127ZM44.79,8.484a1.146,1.146,0,0,0-.885.37,1.915,1.915,0,0,0-.435,1.058h2.552V9.765a1.366,1.366,0,0,0-.33-.947A1.183,1.183,0,0,0,44.79,8.484ZM50.8,14H48.96V4.25H50.8Zm4.462-3.485a4.139,4.139,0,0,1,.72-2.558A2.338,2.338,0,0,1,57.955,7a2.1,2.1,0,0,1,1.657.749V4.25h1.841V14H59.8l-.089-.73a2.159,2.159,0,0,1-1.765.857A2.331,2.331,0,0,1,56,13.172,4.272,4.272,0,0,1,55.264,10.515Zm1.834.137a2.711,2.711,0,0,0,.336,1.481,1.1,1.1,0,0,0,.978.515,1.227,1.227,0,0,0,1.2-.718V9.215A1.21,1.21,0,0,0,58.425,8.5Q57.1,8.5,57.1,10.652Zm8.938,3.475a3.372,3.372,0,0,1-2.46-.927,3.294,3.294,0,0,1-.949-2.469v-.178a4.149,4.149,0,0,1,.4-1.85A2.935,2.935,0,0,1,64.16,7.446,3.18,3.18,0,0,1,65.833,7a2.85,2.85,0,0,1,2.219.889,3.611,3.611,0,0,1,.809,2.52v.749H64.487a1.7,1.7,0,0,0,.536,1.079,1.621,1.621,0,0,0,1.133.406,1.98,1.98,0,0,0,1.657-.768l.9,1.009A2.754,2.754,0,0,1,67.6,13.8,3.665,3.665,0,0,1,66.036,14.127Zm-.209-5.643a1.146,1.146,0,0,0-.885.37,1.915,1.915,0,0,0-.435,1.058h2.552V9.765a1.366,1.366,0,0,0-.33-.947A1.183,1.183,0,0,0,65.826,8.484ZM77.252,13.3a2.3,2.3,0,0,1-1.879.825,2.17,2.17,0,0,1-1.685-.635,2.71,2.71,0,0,1-.594-1.86v-4.5h1.834v4.442q0,1.074.978,1.074A1.325,1.325,0,0,0,77.188,12V7.132h1.841V14H77.3Zm5.357-7.858V7.132h1.174V8.478H82.609v3.428a.818.818,0,0,0,.146.546.733.733,0,0,0,.559.165,2.926,2.926,0,0,0,.54-.044v1.39a3.777,3.777,0,0,1-1.111.165,1.752,1.752,0,0,1-1.968-1.949v-3.7h-1V7.132h1V5.443ZM86.742,14H84.9V7.132h1.841ZM84.793,5.354a.9.9,0,0,1,.276-.679,1.19,1.19,0,0,1,1.5,0,.9.9,0,0,1,.279.679.9.9,0,0,1-.282.686,1.177,1.177,0,0,1-1.492,0A.9.9,0,0,1,84.793,5.354ZM90.188,14H88.348V4.25h1.841Zm3.447,0H91.794V7.132h1.841ZM91.687,5.354a.9.9,0,0,1,.276-.679,1.19,1.19,0,0,1,1.5,0,.9.9,0,0,1,.279.679.9.9,0,0,1-.282.686,1.177,1.177,0,0,1-1.492,0A.9.9,0,0,1,91.687,5.354Zm3.174,5.161a4.139,4.139,0,0,1,.72-2.558A2.338,2.338,0,0,1,97.552,7a2.1,2.1,0,0,1,1.657.749V4.25h1.841V14H99.393l-.089-.73a2.159,2.159,0,0,1-1.765.857,2.331,2.331,0,0,1-1.946-.955A4.272,4.272,0,0,1,94.86,10.515Zm1.834.137a2.711,2.711,0,0,0,.336,1.481,1.1,1.1,0,0,0,.978.515,1.228,1.228,0,0,0,1.2-.718V9.215A1.21,1.21,0,0,0,98.021,8.5Q96.695,8.5,96.695,10.652ZM106.451,14a2.037,2.037,0,0,1-.184-.616,2.22,2.22,0,0,1-1.733.743,2.439,2.439,0,0,1-1.673-.584,1.878,1.878,0,0,1-.663-1.473,1.941,1.941,0,0,1,.809-1.676,3.994,3.994,0,0,1,2.339-.59h.844V9.411a1.132,1.132,0,0,0-.244-.762.961.961,0,0,0-.771-.286,1.093,1.093,0,0,0-.727.222.755.755,0,0,0-.263.609h-1.834a1.843,1.843,0,0,1,.368-1.1,2.434,2.434,0,0,1,1.041-.8A3.794,3.794,0,0,1,105.271,7a3,3,0,0,1,2.015.638,2.232,2.232,0,0,1,.746,1.793v2.977a3.284,3.284,0,0,0,.273,1.479V14Zm-1.517-1.276a1.58,1.58,0,0,0,.749-.181,1.188,1.188,0,0,0,.508-.486V10.877h-.686q-1.377,0-1.466.952l-.006.108a.734.734,0,0,0,.241.565A.937.937,0,0,0,104.934,12.724Zm4.221-2.209a4.139,4.139,0,0,1,.72-2.558A2.338,2.338,0,0,1,111.847,7a2.1,2.1,0,0,1,1.657.749V4.25h1.841V14h-1.657l-.089-.73a2.159,2.159,0,0,1-1.765.857,2.331,2.331,0,0,1-1.946-.955A4.272,4.272,0,0,1,109.155,10.515Zm1.834.137a2.711,2.711,0,0,0,.336,1.481,1.1,1.1,0,0,0,.978.515,1.228,1.228,0,0,0,1.2-.718V9.215a1.21,1.21,0,0,0-1.187-.718Q110.99,8.5,110.99,10.652Z" transform="translate(415.333 4188.064)" fill="#12263f"/>
    <path id="Trazado_268190" data-name="Trazado 268190" d="M19.831,10.921a3.27,3.27,0,0,1-1.1,2.349,3.868,3.868,0,0,1-2.618.857,3.478,3.478,0,0,1-2.8-1.2A4.906,4.906,0,0,1,12.3,9.646V9.081a5.54,5.54,0,0,1,.47-2.349,3.52,3.52,0,0,1,1.343-1.558,3.761,3.761,0,0,1,2.028-.543,3.768,3.768,0,0,1,2.577.857,3.515,3.515,0,0,1,1.13,2.406h-1.9a1.93,1.93,0,0,0-.5-1.3,1.845,1.845,0,0,0-1.3-.4,1.618,1.618,0,0,0-1.425.682,3.824,3.824,0,0,0-.486,2.117v.7a4.093,4.093,0,0,0,.454,2.19,1.588,1.588,0,0,0,1.431.692,1.88,1.88,0,0,0,1.317-.4,1.821,1.821,0,0,0,.5-1.247Zm5.243,2.38a2.3,2.3,0,0,1-1.879.825,2.17,2.17,0,0,1-1.685-.635,2.71,2.71,0,0,1-.594-1.86v-4.5h1.834v4.442q0,1.074.978,1.074A1.325,1.325,0,0,0,25.011,12V7.132h1.841V14H25.125Zm7.021-4.45a4.984,4.984,0,0,0-.66-.051,1.344,1.344,0,0,0-1.365.7V14H28.235V7.132h1.733l.051.819A1.7,1.7,0,0,1,31.549,7a1.922,1.922,0,0,1,.571.083Zm3.567,2.907,1.276-4.627h1.917L36.538,14H34.786L32.469,7.132h1.917ZM43.546,14a2.037,2.037,0,0,1-.184-.616,2.22,2.22,0,0,1-1.733.743,2.439,2.439,0,0,1-1.673-.584,1.878,1.878,0,0,1-.663-1.473,1.941,1.941,0,0,1,.809-1.676,3.994,3.994,0,0,1,2.339-.59h.844V9.411a1.132,1.132,0,0,0-.244-.762.961.961,0,0,0-.771-.286,1.093,1.093,0,0,0-.727.222.755.755,0,0,0-.263.609H39.445a1.843,1.843,0,0,1,.368-1.1,2.434,2.434,0,0,1,1.041-.8A3.794,3.794,0,0,1,42.365,7a3,3,0,0,1,2.015.638,2.232,2.232,0,0,1,.746,1.793v2.977a3.284,3.284,0,0,0,.273,1.479V14Zm-1.517-1.276a1.58,1.58,0,0,0,.749-.181,1.188,1.188,0,0,0,.508-.486V10.877H42.6q-1.377,0-1.466.952l-.006.108a.734.734,0,0,0,.241.565A.937.937,0,0,0,42.029,12.724Zm7.458-2.209a4.139,4.139,0,0,1,.72-2.558A2.338,2.338,0,0,1,52.179,7a2.1,2.1,0,0,1,1.657.749V4.25h1.841V14H54.02l-.089-.73a2.159,2.159,0,0,1-1.765.857,2.331,2.331,0,0,1-1.946-.955A4.272,4.272,0,0,1,49.487,10.515Zm1.834.137a2.711,2.711,0,0,0,.336,1.481,1.1,1.1,0,0,0,.978.515,1.227,1.227,0,0,0,1.2-.718V9.215A1.21,1.21,0,0,0,52.648,8.5Q51.322,8.5,51.322,10.652Zm8.938,3.475A3.372,3.372,0,0,1,57.8,13.2a3.294,3.294,0,0,1-.949-2.469v-.178a4.149,4.149,0,0,1,.4-1.85,2.935,2.935,0,0,1,1.133-1.257A3.18,3.18,0,0,1,60.056,7a2.85,2.85,0,0,1,2.219.889,3.611,3.611,0,0,1,.809,2.52v.749H58.71a1.7,1.7,0,0,0,.536,1.079,1.621,1.621,0,0,0,1.133.406,1.98,1.98,0,0,0,1.657-.768l.9,1.009a2.754,2.754,0,0,1-1.117.911A3.665,3.665,0,0,1,60.259,14.127ZM60.05,8.484a1.146,1.146,0,0,0-.885.37,1.915,1.915,0,0,0-.435,1.058h2.552V9.765a1.366,1.366,0,0,0-.33-.947A1.183,1.183,0,0,0,60.05,8.484Zm13.5,2.146a4.159,4.159,0,0,1-.7,2.574,2.334,2.334,0,0,1-1.968.924A2.144,2.144,0,0,1,69.1,13.27l-.083.73h-1.65V4.25H69.2v3.5A2.089,2.089,0,0,1,70.866,7a2.353,2.353,0,0,1,1.971.924,4.165,4.165,0,0,1,.714,2.6ZM71.717,10.5a2.732,2.732,0,0,0-.33-1.52A1.116,1.116,0,0,0,70.4,8.5a1.21,1.21,0,0,0-1.206.717v2.71a1.226,1.226,0,0,0,1.219.724,1.133,1.133,0,0,0,1.168-.876A4.519,4.519,0,0,0,71.717,10.5Zm6.125,3.631a3.372,3.372,0,0,1-2.46-.927,3.294,3.294,0,0,1-.949-2.469v-.178a4.149,4.149,0,0,1,.4-1.85,2.935,2.935,0,0,1,1.133-1.257A3.18,3.18,0,0,1,77.639,7a2.85,2.85,0,0,1,2.219.889,3.611,3.611,0,0,1,.809,2.52v.749H76.293a1.7,1.7,0,0,0,.536,1.079,1.621,1.621,0,0,0,1.133.406,1.98,1.98,0,0,0,1.657-.768l.9,1.009A2.754,2.754,0,0,1,79.4,13.8,3.665,3.665,0,0,1,77.842,14.127Zm-.209-5.643a1.146,1.146,0,0,0-.885.37,1.915,1.915,0,0,0-.435,1.058h2.552V9.765a1.366,1.366,0,0,0-.33-.947A1.183,1.183,0,0,0,77.633,8.484ZM83.4,7.132l.057.793A2.4,2.4,0,0,1,85.428,7a1.993,1.993,0,0,1,1.625.641A2.991,2.991,0,0,1,87.6,9.563V14H85.764V9.607a1.19,1.19,0,0,0-.254-.847,1.137,1.137,0,0,0-.844-.263,1.262,1.262,0,0,0-1.162.66V14H81.67V7.132Zm8.753,7a3.372,3.372,0,0,1-2.46-.927,3.294,3.294,0,0,1-.949-2.469v-.178a4.149,4.149,0,0,1,.4-1.85,2.935,2.935,0,0,1,1.133-1.257A3.18,3.18,0,0,1,91.947,7a2.85,2.85,0,0,1,2.219.889,3.611,3.611,0,0,1,.809,2.52v.749H90.6a1.7,1.7,0,0,0,.536,1.079,1.621,1.621,0,0,0,1.133.406,1.98,1.98,0,0,0,1.657-.768l.9,1.009a2.754,2.754,0,0,1-1.117.911A3.665,3.665,0,0,1,92.15,14.127ZM91.94,8.484a1.146,1.146,0,0,0-.885.37,1.915,1.915,0,0,0-.435,1.058h2.552V9.765a1.366,1.366,0,0,0-.33-.947A1.183,1.183,0,0,0,91.94,8.484ZM96.46,14V8.478H95.438V7.132H96.46V6.814a2.576,2.576,0,0,1,.8-2,3.205,3.205,0,0,1,2.212-.7,7.338,7.338,0,0,1,2.082.375l-.267,1.517a8.123,8.123,0,0,0-.965-.238,4.741,4.741,0,0,0-.736-.054q-1.282,0-1.282,1.136v.279h1.352V8.478H98.3V14Zm5.948,0h-1.841V7.132h1.841Zm4.374-1.352a1.2,1.2,0,0,0,.825-.279.979.979,0,0,0,.33-.743h1.72a2.353,2.353,0,0,1-.381,1.279,2.513,2.513,0,0,1-1.025.9,3.208,3.208,0,0,1-1.438.321,2.982,2.982,0,0,1-2.323-.936,3.705,3.705,0,0,1-.851-2.587v-.121a3.663,3.663,0,0,1,.844-2.533A2.947,2.947,0,0,1,106.8,7a2.889,2.889,0,0,1,2.066.733,2.6,2.6,0,0,1,.79,1.952h-1.72a1.261,1.261,0,0,0-.33-.871,1.227,1.227,0,0,0-1.806.132,2.708,2.708,0,0,0-.327,1.516v.191a2.742,2.742,0,0,0,.324,1.526A1.119,1.119,0,0,0,106.781,12.648ZM112.64,14H110.8V7.132h1.841Zm-1.949-8.646a.9.9,0,0,1,.276-.679,1.19,1.19,0,0,1,1.5,0,.9.9,0,0,1,.279.679.9.9,0,0,1-.282.686,1.177,1.177,0,0,1-1.492,0A.9.9,0,0,1,110.691,5.354Zm3.174,5.148a4.073,4.073,0,0,1,.394-1.822,2.881,2.881,0,0,1,1.133-1.238A3.306,3.306,0,0,1,117.109,7a3.127,3.127,0,0,1,2.269.851,3.414,3.414,0,0,1,.981,2.311l.013.47a3.59,3.59,0,0,1-.882,2.536,3.42,3.42,0,0,1-4.739,0,3.653,3.653,0,0,1-.885-2.59Zm1.834.13a2.567,2.567,0,0,0,.368,1.5,1.323,1.323,0,0,0,2.095.006,2.809,2.809,0,0,0,.375-1.637,2.542,2.542,0,0,0-.375-1.488,1.217,1.217,0,0,0-1.054-.528,1.2,1.2,0,0,0-1.041.524A2.857,2.857,0,0,0,115.7,10.633Zm8.753-.13a4.073,4.073,0,0,1,.394-1.822,2.881,2.881,0,0,1,1.133-1.238A3.306,3.306,0,0,1,127.7,7a3.128,3.128,0,0,1,2.269.851,3.414,3.414,0,0,1,.981,2.311l.013.47a3.59,3.59,0,0,1-.882,2.536,3.42,3.42,0,0,1-4.739,0,3.653,3.653,0,0,1-.885-2.59Zm1.834.13a2.567,2.567,0,0,0,.368,1.5,1.323,1.323,0,0,0,2.095.006,2.809,2.809,0,0,0,.375-1.637,2.542,2.542,0,0,0-.375-1.488,1.217,1.217,0,0,0-1.054-.528,1.2,1.2,0,0,0-1.041.524A2.857,2.857,0,0,0,126.288,10.633ZM139.44,13.3a2.3,2.3,0,0,1-1.879.825,2.17,2.17,0,0,1-1.685-.635,2.71,2.71,0,0,1-.594-1.86v-4.5h1.834v4.442q0,1.074.978,1.074A1.325,1.325,0,0,0,139.376,12V7.132h1.841V14h-1.727ZM144.8,5.443V7.132h1.174V8.478H144.8v3.428a.818.818,0,0,0,.146.546.733.733,0,0,0,.559.165,2.925,2.925,0,0,0,.54-.044v1.39a3.776,3.776,0,0,1-1.111.165,1.752,1.752,0,0,1-1.968-1.949v-3.7h-1V7.132h1V5.443ZM148.93,14h-1.841V7.132h1.841Zm-1.949-8.646a.9.9,0,0,1,.276-.679,1.19,1.19,0,0,1,1.5,0,.9.9,0,0,1,.279.679.9.9,0,0,1-.282.686,1.177,1.177,0,0,1-1.492,0A.9.9,0,0,1,146.981,5.354Zm5.4,8.646h-1.841V4.25h1.841Zm3.447,0h-1.841V7.132h1.841Zm-1.949-8.646a.9.9,0,0,1,.276-.679,1.19,1.19,0,0,1,1.5,0,.9.9,0,0,1,.279.679.9.9,0,0,1-.282.686,1.177,1.177,0,0,1-1.492,0A.9.9,0,0,1,153.875,5.354Zm3.174,5.161a4.139,4.139,0,0,1,.72-2.558A2.338,2.338,0,0,1,159.74,7a2.1,2.1,0,0,1,1.657.749V4.25h1.841V14h-1.657l-.089-.73a2.159,2.159,0,0,1-1.765.857,2.331,2.331,0,0,1-1.946-.955A4.272,4.272,0,0,1,157.048,10.515Zm1.834.137a2.711,2.711,0,0,0,.336,1.481,1.1,1.1,0,0,0,.978.515,1.227,1.227,0,0,0,1.2-.718V9.215a1.21,1.21,0,0,0-1.187-.718Q158.883,8.5,158.883,10.652ZM168.639,14a2.037,2.037,0,0,1-.184-.616,2.22,2.22,0,0,1-1.733.743,2.439,2.439,0,0,1-1.673-.584,1.878,1.878,0,0,1-.663-1.473,1.941,1.941,0,0,1,.809-1.676,3.994,3.994,0,0,1,2.339-.59h.844V9.411a1.132,1.132,0,0,0-.244-.762.961.961,0,0,0-.771-.286,1.093,1.093,0,0,0-.727.222.755.755,0,0,0-.263.609h-1.834a1.843,1.843,0,0,1,.368-1.1,2.434,2.434,0,0,1,1.041-.8A3.794,3.794,0,0,1,167.458,7a3,3,0,0,1,2.015.638,2.232,2.232,0,0,1,.746,1.793v2.977a3.283,3.283,0,0,0,.273,1.479V14Zm-1.517-1.276a1.58,1.58,0,0,0,.749-.181,1.188,1.188,0,0,0,.508-.486V10.877h-.686q-1.377,0-1.466.952l-.006.108a.734.734,0,0,0,.241.565A.937.937,0,0,0,167.122,12.724Zm4.221-2.209a4.139,4.139,0,0,1,.72-2.558A2.338,2.338,0,0,1,174.035,7a2.1,2.1,0,0,1,1.657.749V4.25h1.841V14h-1.657l-.089-.73a2.159,2.159,0,0,1-1.765.857,2.331,2.331,0,0,1-1.946-.955A4.272,4.272,0,0,1,171.343,10.515Zm1.834.137a2.711,2.711,0,0,0,.336,1.481,1.1,1.1,0,0,0,.978.515,1.227,1.227,0,0,0,1.2-.718V9.215A1.21,1.21,0,0,0,174.5,8.5Q173.178,8.5,173.178,10.652Z" transform="translate(810.333 4188.064)" fill="#12263f"/>
    <g id="Grupo_167750" data-name="Grupo 167750" transform="translate(357.021 3922.327)">
      <g id="Grupo_167751" data-name="Grupo 167751" transform="translate(32.979 82.338)">
        <path id="Trazado_259258" data-name="Trazado 259258" d="M220.21,402.516q2.036-2.7,4.074-5.4l.54-.538,4.732-6.717.54-.538,8.027-13.973.54-.538q1.707-2.7,3.414-5.4l.54-.538q3.685-6.656,7.369-13.313l.54-.538,2.756-5.4.54-.538,12.642-27.164.54-.538,3.414-6.717.54-.538,7.369-13.973.54-.538c2.863-4.681,5.567-9.471,8.652-14,1.65-2.421,3.956-4.393,5.966-6.568l.54-.538c2.569-3.812,6.314-7.3,7.458-11.5,2.263-8.313,7.1-15.235,10.457-22.915l.54-.538,5.392-8.037.54-.538,3.414-4.079.54-.538q2.7-4.348,5.391-8.7c.181-.179.36-.358.54-.538l8.027-12.654.541-.538,8.027-10.675q.271-.268.54-.538l6.051-8.037.54-.538q2.036-3.358,4.074-6.717l.54-.538q3.05-3.232,6.1-6.462,2.935-3.1,5.88-6.192l.54-.538c5.616-5.677,10.414-12.564,19.659-12.691,5.538-.076,11.1-.126,16.6-.7,4.035-.421,7.984-1.675,11.973-2.559l.54-.538,10.005-5.4.54-.538c1.845-.7,3.682-1.416,5.541-2.073.5-.176,1.112-.045,1.6-.244,5.09-2.1,10.163-4.24,15.245-6.357,1.136-.473,2.293-.9,3.441-1.342l.54-.538c4.637-1.8,9.314-3.5,13.9-5.418,6.428-2.69,12.654-5.933,19.225-8.188a49.558,49.558,0,0,1,13.568-2.238c7.335-.355,14.7-.027,22.051-.112,10.663-.124,20.23,3.6,29.717,7.944,9.227,4.229,18.636,8.059,27.961,12.075a4.7,4.7,0,0,1,.8.554l.538.54c6.985,2.917,14.01,5.741,20.944,8.773,8.519,3.726,16.889,7.8,25.461,11.392,6.621,2.774,13.459,5.031,20.193,7.536a10.5,10.5,0,0,1,1.407.78l.538.54c9.632,4.392,19.34,8.629,28.865,13.244,4.229,2.048,8.09,4.857,12.118,7.321l.538.54,4.735,2.758.538.54,5.394,3.418.538.54,5.394,3.418.538.54,3.416,2.1.538.54,3.417,2.1.538.54,7.371,4.737.538.54,4.734,2.758.538.54,2.757,2.1.538.54,3.417,2.1.538.54,2.1,1.439.538.54,3.417,2.758.538.54,2.757,2.1.538.54c3.346,3.378,6.652,6.8,10.048,10.122,3.165,3.1,6.436,6.09,9.643,9.148,2.28,2.175,4.53,4.381,6.793,6.573l.538.54,5.394,4.737.538.54,6.053,8.694.538.54q1.048,1.38,2.1,2.758l.538.54,2.757,2.758.538.54.78.78.538.54c2.882,4.769,5.6,9.651,8.716,14.259,1.595,2.355,3.913,4.22,5.9,6.307l.538.54c2.163,2.461,4.415,4.852,6.469,7.4,3.426,4.248,7.165,8.339,9.9,13.007,1.492,2.543,3.158,5.876,1.422,9.294l-.539.538h-3.976l-.538-.54a30.163,30.163,0,0,0-2.133-5.236c-2.221-3.485-4.6-6.884-7.138-10.146-2.29-2.946-4.873-5.663-7.327-8.482l-.538-.54-1.44-1.439-.538-.54-4.734-5.4-.538-.54-4.077-6.716-.537-.54q-1.05-1.38-2.1-2.758l-.538-.54c-.983-3.868-4.194-6.013-6.712-8.694l-.538-.54-2.1-3.418-.538-.54c-2.643-5.915-7.778-9.493-12.507-13.477a36.426,36.426,0,0,1-3.432-3.792l-.538-.54q-4.721-4.633-9.438-9.271c-.662-.654-1.26-1.373-1.887-2.062l-.538-.54-8.03-8.035-.538-.54-9.348-7.375-.538-.54-3.417-2.1-.538-.54-8.03-5.4-.538-.54L710.548,209.7l-.538-.54-3.416-2.1-.538-.54-5.394-3.418-.538-.54-2.758-1.439-.538-.54-2.1-1.439-.538-.54-4.735-2.758-.538-.54c-7.153-4.128-14.139-8.59-21.513-12.274-5.65-2.824-12.151-4.038-17.581-7.172a81.823,81.823,0,0,0-10.737-4.8c-7.065-2.838-14.263-5.34-21.349-8.128-3.458-1.361-6.791-3.043-10.172-4.6-1.93-.888-3.845-1.811-5.766-2.718l-.538-.54c-2.976-1.318-5.917-2.724-8.937-3.933-4.09-1.636-8.283-3.014-12.355-4.691-7.3-3.007-14.613-6-21.784-9.3-4.229-1.945-7.992-5.024-12.325-6.6-6.867-2.492-13.756-5.318-21.311-5.178-3.29.06-6.585.109-9.871-.008-10.513-.374-20.884.2-30.771,4.272-3.041,1.253-6.056,2.571-9.1,3.814-4.306,1.758-8.653,3.421-12.939,5.226-2.919,1.229-5.741,2.69-8.651,3.944-5.064,2.18-10.182,4.237-15.241,6.428-3.454,1.5-6.846,3.133-10.265,4.708l-.54.538-6.051,2.76-.54.538c-4.157,1.136-8.254,2.8-12.486,3.291-7.385.857-14.873.81-22.274,1.569-1.725.177-3.273,2.071-4.9,3.176l-.54.538-7.369,7.377-.54.538-5.391,6.058-.54.538-4.073,4.079-.54.538-2.1,4.079-.54.538c-3.79,4.816-7.7,9.544-11.336,14.472-3.434,4.655-6.619,9.5-9.845,14.3-2.267,3.379-4.416,6.838-6.619,10.262l-.54.538-2.755,4.739-.54.538-3.415,4.079-.54.538c-5.215,7.054-10.12,14.3-13.449,22.477-1.273,3.126-2.187,6.405-3.556,9.486-1.187,2.672-2.787,5.162-4.2,7.733l-.54.538-4.074,4.739-.54.538c-3.355,3.844-7.152,7.3-8.864,12.415-.681,2.033-2.484,3.688-3.778,5.515l-.54.538q-3.684,6.986-7.369,13.973l-.54.538c-.663,1.407-1.243,2.862-2.009,4.211-1.059,1.867-2.475,3.557-3.356,5.5-2.317,5.108-4.426,10.311-6.619,15.477l-.54.538-4.074,8.7-.54.538c-2.855,5.286-5.677,10.59-8.584,15.846-1.025,1.853-2.26,3.591-3.4,5.382l-.54.538-2.1,3.42-.54.538-3.415,6.717-.54.538c-2.845,4.349-5.51,8.832-8.583,13.013-3.42,4.654-7.238,9.012-10.815,13.553a11.311,11.311,0,0,0-1.151,2.577q-.271.268-.54.538l-2.1,3.42-.54.538-.779.781-.54.538c-4.014,4.132-8.959,7.407-11.428,12.968-.544,1.226-2.1,2-3.191,2.984l-.54.538-9.346,8.7-.54.538-3.415,3.42-.54.538-7.369,6.717-.54.538L172,463.1l-.54.538-.778.781-.541.538-5.391,4.079-.54.538-2.1,1.441-.54.538-4.732,2.76-.54.538c-11.183,6.758-23.258,11.421-35.666,15.346-3.382,1.071-6.623,2.59-9.928,3.9l-.54.538c-5.436,2.087-10.854,4.223-16.314,6.247-5.912,2.192-11.722,5.013-17.839,6.2-5.895,1.145-12.125.616-18.209.7a20.1,20.1,0,0,1-6.367-.615c-1.27-.41-2.152-2.02-3.208-3.092,1.378-.911,2.674-2.4,4.152-2.611a37.428,37.428,0,0,1,8.867-.079c9.98.977,19.148-1.648,28.067-5.779,2.941-1.362,6.054-2.351,9.089-3.51l.54-.538c9.292-3.355,18.635-6.575,27.855-10.117,5.426-2.084,10.652-4.689,15.98-7.033,1.221-.537,2.491-.963,3.738-1.44l.54-.538,17.914-11.994.54-.538,2.1-2.1q.271-.268.54-.538c2.709-2.395,5.453-4.751,8.115-7.195s5.218-4.955,7.821-7.437l.54-.538c1.684-1.606,3.359-3.219,5.053-4.815,2.082-1.961,4.179-3.907,6.27-5.86l.54-.538c3.85-4.433,7.312-9.311,11.687-13.144a36.966,36.966,0,0,0,6.885-8.744l.54-.538,4.074-5.4.54-.538" transform="translate(-47.608 -125.72)" fill="#e50026"/>
        <path id="Trazado_259259" data-name="Trazado 259259" d="M76.961,543.712c-9.586,0-17.274-.034-24.963.019-2.421.017-4.46-.533-4.447-3.337s2.082-3.3,4.487-3.3c13.73.039,27.469.307,41.186-.11,6.25-.19,12.472-1.685,18.679-2.751a172.561,172.561,0,0,0,17.212-3.4,193.134,193.134,0,0,0,19.144-6.613c6.876-2.722,13.717-5.609,20.308-8.95,4.551-2.306,8.715-5.412,12.938-8.326,5.05-3.486,10.15-6.937,14.9-10.807,3.117-2.539,5.673-5.774,8.446-8.729,2.327-2.479,4.754-4.885,6.859-7.546,1.865-2.358,3.105-5.226,5.047-7.507,4.248-4.991,8.793-9.728,13.164-14.615,3.1-3.465,6.192-6.943,9.146-10.531,4.463-5.422,9-10.8,13.135-16.47,3.4-4.663,6.241-9.738,9.4-14.586q3.8-5.841,7.779-11.568c2.81-4.058,5.731-8.04,8.563-12.083q4.287-6.119,8.491-12.3c1.847-2.717,3.689-5.443,5.408-8.243,3.827-6.236,7.3-12.709,11.426-18.734,5.181-7.567,10.947-14.73,16.318-22.171,3.313-4.589,6.321-9.4,9.537-14.062,4.666-6.761,9.246-13.59,14.142-20.182,5.311-7.152,10.864-14.129,16.461-21.063,4.68-5.8,9.732-11.3,14.332-17.161,5.093-6.49,9.822-13.266,14.782-19.864,3.474-4.621,6.819-9.376,10.678-13.658,3.934-4.363,8.495-8.155,12.653-12.325,2.895-2.9,5.461-6.136,8.371-9.021,5.353-5.3,10.652-10.7,16.354-15.607a110.142,110.142,0,0,1,13.937-10.013c3.4-2.105,7.55-3.009,10.909-5.162,7.831-5.017,16.492-4.39,25.111-4.539s17.252-.484,25.881-.626a64.472,64.472,0,0,1,20.908,3.057c4.945,1.58,10.307,1.816,15.317,3.237,6.193,1.758,12.292,3.923,18.288,6.274,8.472,3.322,16.915,6.754,25.173,10.567,5.429,2.507,10.473,5.836,15.758,8.671,4.564,2.449,9.3,4.574,13.821,7.1,8.464,4.734,16.849,9.611,25.216,14.515,6.344,3.718,12.6,7.59,18.913,11.356,7.659,4.567,15.539,8.8,22.953,13.734,5.582,3.716,10.489,8.431,15.869,12.473,3.543,2.662,7.488,4.784,11.081,7.384,5.645,4.087,11.372,8.107,16.648,12.642,6.743,5.8,13.032,12.117,19.589,18.133,6.693,6.141,13.636,12.021,20.162,18.333,4.887,4.728,9.227,10.016,13.927,14.944,1.958,2.053,4.291,3.744,6.322,5.735a77.553,77.553,0,0,1,7.953,8.336c2.375,3.148,4.1,6.785,6.106,10.215,1.161,1.99.906,3.672-1.224,4.791-2.254,1.185-3.635-.111-4.642-1.9a79.756,79.756,0,0,0-12.635-17.01c-4.685-4.763-9.3-9.609-14.168-14.175-10.387-9.735-20.927-19.309-31.4-28.956-6.2-5.71-12.268-11.562-18.62-17.092-2.563-2.232-5.875-3.58-8.581-5.673a129.326,129.326,0,0,0-14.615-10.211c-5.428-3.12-9.865-7.966-14.73-12.063-.226-.191-.37-.5-.617-.643-4.982-2.927-9.951-5.879-14.971-8.742-7.658-4.366-15.385-8.61-23.023-13.012-6.922-3.99-13.7-8.228-20.655-12.162-8.644-4.891-17.424-9.539-26.1-14.377-3.941-2.2-7.622-4.907-11.682-6.832-5.442-2.581-11.106-4.709-16.737-6.872-4.929-1.893-10.135-3.163-14.876-5.428-7.635-3.647-15.777-5-23.938-6.485a57.8,57.8,0,0,1-5.889-1.331c-11.652-3.416-23.594-1.792-35.4-1.811-7.617-.013-15.582.2-22.768,2.381-9.116,2.761-17.922,6.992-25.2,13.661-4.336,3.972-9,7.584-13.308,11.587-2.238,2.081-3.933,4.734-6.01,7-5.46,5.96-10.44,12.534-16.653,17.578-6.379,5.18-10.247,12.244-15.863,17.926-3.193,3.23-5.359,7.463-8.085,11.173-2.815,3.831-5.738,7.584-8.636,11.355-1.326,1.725-2.632,3.474-4.07,5.1-3.437,3.893-7,7.674-10.409,11.593-2.394,2.753-4.7,5.593-6.885,8.512-2.733,3.644-5.313,7.4-7.942,11.123-2.328,3.3-4.745,6.533-6.92,9.926-3.511,5.48-6.568,11.273-10.345,16.555-4.391,6.139-9.5,11.756-14.011,17.816-3.129,4.2-5.766,8.777-8.632,13.179-3.727,5.723-7.528,11.4-11.167,17.177-1.587,2.518-2.713,5.325-4.295,7.847-1.545,2.465-3.353,4.773-5.136,7.077-2.052,2.65-4.392,5.1-6.268,7.86-2.523,3.719-4.626,7.722-7.085,11.489-2.926,4.482-6.035,8.846-9.073,13.255-1.384,2.009-2.792,4-4.185,6-3.574,5.142-6.926,10.456-10.782,15.377-3.363,4.292-7.323,8.112-10.961,12.193-5.343,5.994-11.105,11.692-15.8,18.159a166.4,166.4,0,0,1-13.339,15.874c-7.779,8.31-16.684,15.133-26.117,21.486-7.211,4.856-15.26,7.795-22.768,11.883-9.227,5.025-19.2,7.9-29.136,10.767-7.023,2.03-14.517,2.422-21.549,4.427-11.2,3.192-22.535,1.074-31.878,1.864" transform="translate(-47.551 -135.837)" fill="#086315"/>
        <path id="Trazado_259260" data-name="Trazado 259260" d="M631.508,141.78l-.538-.54Z" transform="translate(-96.523 -120.61)" fill="#e50026"/>
        <path id="Trazado_259261" data-name="Trazado 259261" d="M463.266,147.72l-.54.538.54-.538" transform="translate(-82.4 -121.154)" fill="#e50026"/>
        <path id="Trazado_259262" data-name="Trazado 259262" d="M451.755,154.2l-.54.538.54-.538" transform="translate(-81.434 -121.698)" fill="#e50026"/>
        <path id="Trazado_259263" data-name="Trazado 259263" d="M461.9,157.511l.54-.538-.54.538" transform="translate(-82.331 -121.931)" fill="#e50026"/>
        <path id="Trazado_259264" data-name="Trazado 259264" d="M651.942,158.41l.538.54-.538-.54" transform="translate(-98.283 -122.051)" fill="#e50026"/>
        <path id="Trazado_259265" data-name="Trazado 259265" d="M454.7,161.111l.54-.538-.54.538" transform="translate(-81.727 -122.233)" fill="#e50026"/>
        <path id="Trazado_259266" data-name="Trazado 259266" d="M410.816,170.471l.54-.538-.54.538" transform="translate(-78.043 -123.019)" fill="#e50026"/>
        <path id="Trazado_259267" data-name="Trazado 259267" d="M398.516,172.2l-.54.538.54-.538" transform="translate(-76.965 -123.209)" fill="#e50026"/>
        <path id="Trazado_259268" data-name="Trazado 259268" d="M706.331,173.46l-.538-.54.538.54" transform="translate(-102.803 -123.269)" fill="#e50026"/>
        <path id="Trazado_259269" data-name="Trazado 259269" d="M402.183,179.111l.54-.538-.54.538" transform="translate(-77.318 -123.744)" fill="#e50026"/>
        <path id="Trazado_259270" data-name="Trazado 259270" d="M395.708,186.311l.54-.538-.54.538" transform="translate(-76.775 -124.348)" fill="#e50026"/>
        <path id="Trazado_259271" data-name="Trazado 259271" d="M384.846,186.6l-.54.538.54-.538" transform="translate(-75.818 -124.418)" fill="#e50026"/>
        <path id="Trazado_259272" data-name="Trazado 259272" d="M390.672,191.351l.54-.538-.54.538" transform="translate(-76.352 -124.771)" fill="#e50026"/>
        <path id="Trazado_259273" data-name="Trazado 259273" d="M379.81,194.52l-.54.538.54-.538" transform="translate(-75.395 -125.082)" fill="#e50026"/>
        <path id="Trazado_259274" data-name="Trazado 259274" d="M387.794,196.391l.54-.538-.54.538" transform="translate(-76.111 -125.194)" fill="#e50026"/>
        <path id="Trazado_259275" data-name="Trazado 259275" d="M751.656,196.5l-.538-.54.538.54" transform="translate(-106.608 -125.203)" fill="#e50026"/>
        <path id="Trazado_259276" data-name="Trazado 259276" d="M757.412,200.1l-.538-.54.538.54" transform="translate(-107.091 -125.505)" fill="#e50026"/>
        <path id="Trazado_259277" data-name="Trazado 259277" d="M747.628,202.331l.538.54-.538-.54" transform="translate(-106.315 -125.738)" fill="#e50026"/>
        <path id="Trazado_259278" data-name="Trazado 259278" d="M372.616,203.88l-.54.538.54-.538" transform="translate(-74.791 -125.868)" fill="#e50026"/>
        <path id="Trazado_259279" data-name="Trazado 259279" d="M763.887,204.42l-.538-.54.538.54" transform="translate(-107.634 -125.868)" fill="#e50026"/>
        <path id="Trazado_259280" data-name="Trazado 259280" d="M753.384,205.931l.538.54-.538-.54" transform="translate(-106.798 -126.04)" fill="#e50026"/>
        <path id="Trazado_259281" data-name="Trazado 259281" d="M756.262,208.091l.538.54-.538-.54" transform="translate(-107.039 -126.222)" fill="#e50026"/>
        <path id="Trazado_259282" data-name="Trazado 259282" d="M770.362,208.74l-.538-.54.538.54" transform="translate(-108.178 -126.231)" fill="#e50026"/>
        <path id="Trazado_259283" data-name="Trazado 259283" d="M759.859,210.251l.538.54-.538-.54" transform="translate(-107.341 -126.403)" fill="#e50026"/>
        <path id="Trazado_259284" data-name="Trazado 259284" d="M774.679,211.62l-.538-.54.538.54" transform="translate(-108.54 -126.472)" fill="#e50026"/>
        <path id="Trazado_259285" data-name="Trazado 259285" d="M778.995,214.5l-.538-.54.538.54" transform="translate(-108.902 -126.714)" fill="#e50026"/>
        <path id="Trazado_259286" data-name="Trazado 259286" d="M766.334,214.571l.538.54-.538-.54" transform="translate(-107.885 -126.765)" fill="#e50026"/>
        <path id="Trazado_259287" data-name="Trazado 259287" d="M363.263,216.12l-.54.538.54-.538" transform="translate(-74.006 -126.896)" fill="#e50026"/>
        <path id="Trazado_259288" data-name="Trazado 259288" d="M770.651,217.451l.538.54-.538-.54" transform="translate(-108.247 -127.007)" fill="#e50026"/>
        <path id="Trazado_259289" data-name="Trazado 259289" d="M787.629,220.26l-.538-.54.538.54" transform="translate(-109.627 -127.198)" fill="#e50026"/>
        <path id="Trazado_259290" data-name="Trazado 259290" d="M793.384,223.86l-.538-.54.538.54" transform="translate(-110.11 -127.5)" fill="#e50026"/>
        <path id="Trazado_259291" data-name="Trazado 259291" d="M783.6,226.091l.538.54-.538-.54" transform="translate(-109.334 -127.732)" fill="#e50026"/>
        <path id="Trazado_259292" data-name="Trazado 259292" d="M796.982,226.74l-.538-.54.538.54" transform="translate(-110.412 -127.742)" fill="#e50026"/>
        <path id="Trazado_259293" data-name="Trazado 259293" d="M801.3,229.62l-.538-.54.538.54" transform="translate(-110.775 -127.983)" fill="#e50026"/>
        <path id="Trazado_259294" data-name="Trazado 259294" d="M353.91,230.52l-.54.538.54-.538" transform="translate(-73.221 -128.104)" fill="#e50026"/>
        <path id="Trazado_259295" data-name="Trazado 259295" d="M804.176,231.78l-.538-.54.538.54" transform="translate(-111.016 -128.165)" fill="#e50026"/>
        <path id="Trazado_259296" data-name="Trazado 259296" d="M792.954,232.571l.538.54-.538-.54" transform="translate(-110.119 -128.276)" fill="#e50026"/>
        <path id="Trazado_259297" data-name="Trazado 259297" d="M808.493,235.38l-.538-.54.538.54" transform="translate(-111.379 -128.467)" fill="#e50026"/>
        <path id="Trazado_259298" data-name="Trazado 259298" d="M797.27,235.451l.538.54-.538-.54" transform="translate(-110.482 -128.518)" fill="#e50026"/>
        <path id="Trazado_259299" data-name="Trazado 259299" d="M812.09,238.26l-.538-.54.538.54" transform="translate(-111.68 -128.709)" fill="#e50026"/>
        <path id="Trazado_259300" data-name="Trazado 259300" d="M356.857,239.591l.54-.538-.54.538" transform="translate(-73.514 -128.82)" fill="#e50026"/>
        <path id="Trazado_259301" data-name="Trazado 259301" d="M347.435,240.6l-.54.538.54-.538" transform="translate(-72.678 -128.95)" fill="#e50026"/>
        <path id="Trazado_259302" data-name="Trazado 259302" d="M808.062,244.091l.538.54-.538-.54" transform="translate(-111.387 -129.243)" fill="#e50026"/>
        <path id="Trazado_259303" data-name="Trazado 259303" d="M353.26,245.351l.54-.538-.54.538" transform="translate(-73.212 -129.304)" fill="#e50026"/>
        <path id="Trazado_259304" data-name="Trazado 259304" d="M343.118,245.64l-.54.538.54-.538" transform="translate(-72.315 -129.373)" fill="#e50026"/>
        <path id="Trazado_259305" data-name="Trazado 259305" d="M348.944,250.391c.179-.18.359-.359.54-.538-.18.179-.361.358-.54.538" transform="translate(-72.85 -129.727)" fill="#e50026"/>
        <path id="Trazado_259306" data-name="Trazado 259306" d="M817.415,253.451l.538.54-.538-.54" transform="translate(-112.173 -130.029)" fill="#e50026"/>
        <path id="Trazado_259307" data-name="Trazado 259307" d="M336.643,255l-.54.538.54-.538" transform="translate(-71.772 -130.159)" fill="#e50026"/>
        <path id="Trazado_259308" data-name="Trazado 259308" d="M830.365,266.411l.538.54-.538-.54" transform="translate(-113.26 -131.117)" fill="#e50026"/>
        <path id="Trazado_259309" data-name="Trazado 259309" d="M841.588,267.06l-.538-.54.538.54" transform="translate(-114.156 -131.126)" fill="#e50026"/>
        <path id="Trazado_259310" data-name="Trazado 259310" d="M848.063,272.82l-.538-.54.538.54" transform="translate(-114.7 -131.61)" fill="#e50026"/>
        <path id="Trazado_259311" data-name="Trazado 259311" d="M855.257,282.9l-.538-.54.538.54" transform="translate(-115.304 -132.456)" fill="#e50026"/>
        <path id="Trazado_259312" data-name="Trazado 259312" d="M848.351,285.851l.538.54-.538-.54" transform="translate(-114.769 -132.749)" fill="#e50026"/>
        <path id="Trazado_259313" data-name="Trazado 259313" d="M858.135,286.5l-.538-.54.538.54" transform="translate(-115.545 -132.758)" fill="#e50026"/>
        <path id="Trazado_259314" data-name="Trazado 259314" d="M861.732,290.1l-.538-.54.538.54" transform="translate(-115.847 -133.06)" fill="#e50026"/>
        <path id="Trazado_259315" data-name="Trazado 259315" d="M851.229,290.171l.538.54-.538-.54" transform="translate(-115.011 -133.111)" fill="#e50026"/>
        <path id="Trazado_259316" data-name="Trazado 259316" d="M863.171,291.54l-.538-.54.538.54" transform="translate(-115.968 -133.181)" fill="#e50026"/>
        <path id="Trazado_259317" data-name="Trazado 259317" d="M316.5,293.16l-.54.538.54-.538" transform="translate(-70.081 -133.362)" fill="#e50026"/>
        <path id="Trazado_259318" data-name="Trazado 259318" d="M325.2,294.311l.54-.538-.54.538" transform="translate(-70.857 -133.414)" fill="#e50026"/>
        <path id="Trazado_259319" data-name="Trazado 259319" d="M320.165,300.071l.54-.538-.54.538" transform="translate(-70.434 -133.897)" fill="#e50026"/>
        <path id="Trazado_259320" data-name="Trazado 259320" d="M859.143,300.251l.538.54-.538-.54" transform="translate(-115.675 -133.957)" fill="#e50026"/>
        <path id="Trazado_259321" data-name="Trazado 259321" d="M862.021,303.851l.538.54-.538-.54" transform="translate(-115.917 -134.26)" fill="#e50026"/>
        <path id="Trazado_259322" data-name="Trazado 259322" d="M867.057,311.771l.538.54-.538-.54" transform="translate(-116.339 -134.924)" fill="#e50026"/>
        <path id="Trazado_259323" data-name="Trazado 259323" d="M879.719,314.58c-.18-.18-.359-.36-.539-.54.18.18.358.36.539.54" transform="translate(-117.357 -135.115)" fill="#e50026"/>
        <path id="Trazado_259324" data-name="Trazado 259324" d="M299.951,316.2l-.54.538.54-.538" transform="translate(-68.692 -135.296)" fill="#e50026"/>
        <path id="Trazado_259325" data-name="Trazado 259325" d="M872.813,318.251l.538.54-.538-.54" transform="translate(-116.823 -135.468)" fill="#e50026"/>
        <path id="Trazado_259326" data-name="Trazado 259326" d="M305.776,320.231l.54-.538-.54.538" transform="translate(-69.226 -135.589)" fill="#e50026"/>
        <path id="Trazado_259327" data-name="Trazado 259327" d="M874.971,320.411l.538.54-.538-.54" transform="translate(-117.004 -135.65)" fill="#e50026"/>
        <path id="Trazado_259328" data-name="Trazado 259328" d="M291.318,332.04l-.54.538.54-.538" transform="translate(-67.967 -136.626)" fill="#e50026"/>
        <path id="Trazado_259329" data-name="Trazado 259329" d="M297.143,336.071l.54-.538-.54.538" transform="translate(-68.501 -136.919)" fill="#e50026"/>
        <path id="Trazado_259330" data-name="Trazado 259330" d="M287,339.96l-.54.538.54-.538" transform="translate(-67.605 -137.291)" fill="#e50026"/>
        <path id="Trazado_259331" data-name="Trazado 259331" d="M893.677,347.051l.538.54-.538-.54" transform="translate(-118.574 -137.886)" fill="#e50026"/>
        <path id="Trazado_259332" data-name="Trazado 259332" d="M898.6,347.591l.539-.538-.539.538" transform="translate(-118.987 -137.886)" fill="#e50026"/>
        <path id="Trazado_259333" data-name="Trazado 259333" d="M283.474,364.151l.54-.538-.54.538" transform="translate(-67.354 -139.276)" fill="#e50026"/>
        <path id="Trazado_259334" data-name="Trazado 259334" d="M272.612,370.2l-.54.538.54-.538" transform="translate(-66.397 -139.829)" fill="#e50026"/>
        <path id="Trazado_259335" data-name="Trazado 259335" d="M278.437,374.231l.54-.538-.54.538" transform="translate(-66.931 -140.122)" fill="#e50026"/>
        <path id="Trazado_259336" data-name="Trazado 259336" d="M269.015,376.68l-.54.538.54-.538" transform="translate(-66.095 -140.373)" fill="#e50026"/>
        <path id="Trazado_259337" data-name="Trazado 259337" d="M260.382,391.8l-.54.538.54-.538" transform="translate(-65.37 -141.642)" fill="#e50026"/>
        <path id="Trazado_259338" data-name="Trazado 259338" d="M264.768,397.991l.54-.538-.54.538" transform="translate(-65.784 -142.116)" fill="#e50026"/>
        <path id="Trazado_259339" data-name="Trazado 259339" d="M492.044,136.2l-.54.538.54-.538" transform="translate(-84.816 -120.187)" fill="#e50026"/>
        <path id="Trazado_259340" data-name="Trazado 259340" d="M261.89,402.311l.54-.538-.54.538" transform="translate(-65.542 -142.479)" fill="#e50026"/>
        <path id="Trazado_259341" data-name="Trazado 259341" d="M257.573,410.231l.54-.538-.54.538" transform="translate(-65.18 -143.144)" fill="#e50026"/>
        <path id="Trazado_259342" data-name="Trazado 259342" d="M246.712,414.12l-.54.538.54-.538" transform="translate(-64.223 -143.515)" fill="#e50026"/>
        <path id="Trazado_259343" data-name="Trazado 259343" d="M240.956,422.04l-.54.538.54-.538" transform="translate(-63.74 -144.18)" fill="#e50026"/>
        <path id="Trazado_259344" data-name="Trazado 259344" d="M235.92,428.52l-.54.538.54-.538" transform="translate(-63.317 -144.724)" fill="#e50026"/>
        <path id="Trazado_259345" data-name="Trazado 259345" d="M230.884,435l-.54.538.54-.538" transform="translate(-62.894 -145.268)" fill="#e50026"/>
        <path id="Trazado_259346" data-name="Trazado 259346" d="M234.551,442.631l.54-.538-.54.538" transform="translate(-63.248 -145.863)" fill="#e50026"/>
        <path id="Trazado_259347" data-name="Trazado 259347" d="M231.673,446.951l.54-.538-.54.538" transform="translate(-63.006 -146.226)" fill="#e50026"/>
        <path id="Trazado_259348" data-name="Trazado 259348" d="M230.234,448.391l.54-.538-.54.538" transform="translate(-62.885 -146.347)" fill="#e50026"/>
        <path id="Trazado_259349" data-name="Trazado 259349" d="M210.02,459.48l-.54.538.54-.538" transform="translate(-61.143 -147.323)" fill="#e50026"/>
        <path id="Trazado_259350" data-name="Trazado 259350" d="M213.687,466.391l.54-.538-.54.538" transform="translate(-61.496 -147.858)" fill="#e50026"/>
        <path id="Trazado_259351" data-name="Trazado 259351" d="M197.07,471.72l-.54.538.54-.538" transform="translate(-60.056 -148.35)" fill="#e50026"/>
        <path id="Trazado_259352" data-name="Trazado 259352" d="M256.065,398.28l-.54.538.54-.538" transform="translate(-65.008 -142.186)" fill="#e50026"/>
        <path id="Trazado_259353" data-name="Trazado 259353" d="M198.578,480.791l.54-.538-.54.538" transform="translate(-60.228 -149.067)" fill="#e50026"/>
        <path id="Trazado_259354" data-name="Trazado 259354" d="M179.084,488.28l-.54.538.54-.538" transform="translate(-58.546 -149.74)" fill="#e50026"/>
        <path id="Trazado_259355" data-name="Trazado 259355" d="M189.945,488.711l.54-.538-.54.538" transform="translate(-59.503 -149.731)" fill="#e50026"/>
        <path id="Trazado_259356" data-name="Trazado 259356" d="M176.206,491.16l-.54.538.54-.538" transform="translate(-58.305 -149.982)" fill="#e50026"/>
        <path id="Trazado_259357" data-name="Trazado 259357" d="M182.751,495.191l.539-.538-.539.538" transform="translate(-58.9 -150.275)" fill="#e50026"/>
        <path id="Trazado_259358" data-name="Trazado 259358" d="M181.312,496.631l.54-.538-.54.538" transform="translate(-58.779 -150.396)" fill="#e50026"/>
        <path id="Trazado_259359" data-name="Trazado 259359" d="M174.837,501.671l.54-.538-.54.538" transform="translate(-58.235 -150.819)" fill="#e50026"/>
        <path id="Trazado_259360" data-name="Trazado 259360" d="M171.959,503.831l.54-.538-.54.538" transform="translate(-57.994 -151.001)" fill="#e50026"/>
        <path id="Trazado_259361" data-name="Trazado 259361" d="M156.061,504.84l-.54.538.54-.538" transform="translate(-56.614 -151.13)" fill="#e50026"/>
        <path id="Trazado_259362" data-name="Trazado 259362" d="M166.2,507.431l.54-.538-.54.538" transform="translate(-57.51 -151.303)" fill="#e50026"/>
        <path id="Trazado_259363" data-name="Trazado 259363" d="M103.542,525.72l-.54.538.54-.538" transform="translate(-52.205 -152.883)" fill="#e50026"/>
        <path id="Trazado_259364" data-name="Trazado 259364" d="M115.842,529.031l.54-.538-.54.538" transform="translate(-53.283 -153.116)" fill="#e50026"/>
        <path id="Trazado_259365" data-name="Trazado 259365" d="M202.9,476.471l.54-.538-.54.538" transform="translate(-60.59 -148.704)" fill="#e50026"/>
      </g>
    </g>
    <path id="Trazado_268185" data-name="Trazado 268185" d="M10.921,14h-1.9L5.31,7.919V14h-1.9V4.758h1.9l3.713,6.094V4.758h1.9ZM14.4,14H12.559V7.132H14.4ZM12.451,5.354a.9.9,0,0,1,.276-.679,1.19,1.19,0,0,1,1.5,0,.9.9,0,0,1,.279.679.9.9,0,0,1-.282.686,1.177,1.177,0,0,1-1.492,0A.9.9,0,0,1,12.451,5.354Zm6.03,6.4,1.276-4.627h1.917L19.357,14H17.605L15.289,7.132h1.917Zm7.16,2.368a3.372,3.372,0,0,1-2.46-.927,3.294,3.294,0,0,1-.949-2.469v-.178a4.149,4.149,0,0,1,.4-1.85,2.935,2.935,0,0,1,1.133-1.257A3.18,3.18,0,0,1,25.438,7a2.85,2.85,0,0,1,2.219.889,3.611,3.611,0,0,1,.809,2.52v.749H24.093a1.7,1.7,0,0,0,.536,1.079,1.621,1.621,0,0,0,1.133.406,1.98,1.98,0,0,0,1.657-.768l.9,1.009A2.754,2.754,0,0,1,27.2,13.8,3.665,3.665,0,0,1,25.642,14.127Zm-.209-5.643a1.146,1.146,0,0,0-.885.37,1.915,1.915,0,0,0-.435,1.058h2.552V9.765a1.366,1.366,0,0,0-.33-.947A1.183,1.183,0,0,0,25.432,8.484ZM31.443,14H29.6V4.25h1.841Zm4.462-3.485a4.139,4.139,0,0,1,.72-2.558A2.338,2.338,0,0,1,38.6,7a2.1,2.1,0,0,1,1.657.749V4.25h1.841V14H40.438l-.089-.73a2.159,2.159,0,0,1-1.765.857,2.331,2.331,0,0,1-1.946-.955A4.272,4.272,0,0,1,35.906,10.515Zm1.834.137a2.711,2.711,0,0,0,.336,1.481,1.1,1.1,0,0,0,.978.515,1.227,1.227,0,0,0,1.2-.718V9.215A1.21,1.21,0,0,0,39.067,8.5Q37.74,8.5,37.74,10.652Zm8.938,3.475a3.372,3.372,0,0,1-2.46-.927,3.294,3.294,0,0,1-.949-2.469v-.178a4.149,4.149,0,0,1,.4-1.85A2.935,2.935,0,0,1,44.8,7.446,3.18,3.18,0,0,1,46.475,7a2.85,2.85,0,0,1,2.219.889,3.611,3.611,0,0,1,.809,2.52v.749H45.129a1.7,1.7,0,0,0,.536,1.079,1.621,1.621,0,0,0,1.133.406,1.98,1.98,0,0,0,1.657-.768l.9,1.009a2.754,2.754,0,0,1-1.117.911A3.665,3.665,0,0,1,46.678,14.127Zm-.209-5.643a1.146,1.146,0,0,0-.885.37,1.915,1.915,0,0,0-.435,1.058H47.7V9.765a1.366,1.366,0,0,0-.33-.947A1.183,1.183,0,0,0,46.468,8.484Zm9.883,3.275,1.276-4.627h1.917L57.228,14H55.476L53.159,7.132h1.917Zm7.16,2.368a3.372,3.372,0,0,1-2.46-.927,3.294,3.294,0,0,1-.949-2.469v-.178a4.149,4.149,0,0,1,.4-1.85,2.935,2.935,0,0,1,1.133-1.257A3.18,3.18,0,0,1,63.309,7a2.85,2.85,0,0,1,2.219.889,3.611,3.611,0,0,1,.809,2.52v.749H61.963a1.7,1.7,0,0,0,.536,1.079,1.621,1.621,0,0,0,1.133.406,1.98,1.98,0,0,0,1.657-.768l.9,1.009a2.754,2.754,0,0,1-1.117.911A3.665,3.665,0,0,1,63.512,14.127ZM63.3,8.484a1.146,1.146,0,0,0-.885.37,1.915,1.915,0,0,0-.435,1.058h2.552V9.765a1.366,1.366,0,0,0-.33-.947A1.183,1.183,0,0,0,63.3,8.484Zm5.764-1.352.057.793A2.4,2.4,0,0,1,71.1,7a1.993,1.993,0,0,1,1.625.641,2.991,2.991,0,0,1,.546,1.917V14H71.434V9.607a1.19,1.19,0,0,0-.254-.847,1.137,1.137,0,0,0-.844-.263,1.262,1.262,0,0,0-1.162.66V14H67.339V7.132Zm7.789-1.688V7.132h1.174V8.478H76.854v3.428a.818.818,0,0,0,.146.546.733.733,0,0,0,.559.165,2.926,2.926,0,0,0,.54-.044v1.39a3.777,3.777,0,0,1-1.111.165,1.752,1.752,0,0,1-1.968-1.949v-3.7h-1V7.132h1V5.443ZM83.031,14a2.037,2.037,0,0,1-.184-.616,2.22,2.22,0,0,1-1.733.743,2.439,2.439,0,0,1-1.673-.584,1.878,1.878,0,0,1-.663-1.473,1.941,1.941,0,0,1,.809-1.676,3.994,3.994,0,0,1,2.339-.59h.844V9.411a1.132,1.132,0,0,0-.244-.762.961.961,0,0,0-.771-.286,1.093,1.093,0,0,0-.727.222.755.755,0,0,0-.263.609H78.93a1.843,1.843,0,0,1,.368-1.1,2.434,2.434,0,0,1,1.041-.8A3.794,3.794,0,0,1,81.85,7a3,3,0,0,1,2.015.638,2.232,2.232,0,0,1,.746,1.793v2.977a3.284,3.284,0,0,0,.273,1.479V14Zm-1.517-1.276a1.58,1.58,0,0,0,.749-.181,1.188,1.188,0,0,0,.508-.486V10.877h-.686q-1.377,0-1.466.952l-.006.108a.734.734,0,0,0,.241.565A.937.937,0,0,0,81.514,12.724ZM89.74,12.1a.591.591,0,0,0-.333-.53,3.785,3.785,0,0,0-1.07-.346q-2.45-.514-2.45-2.082a1.887,1.887,0,0,1,.759-1.527A3.06,3.06,0,0,1,88.629,7a3.293,3.293,0,0,1,2.092.616,1.94,1.94,0,0,1,.784,1.6H89.67a.888.888,0,0,0-.254-.651,1.075,1.075,0,0,0-.793-.257,1.1,1.1,0,0,0-.717.209.661.661,0,0,0-.254.533.565.565,0,0,0,.289.492,2.971,2.971,0,0,0,.974.324,7.958,7.958,0,0,1,1.155.308,1.9,1.9,0,0,1,1.454,1.847,1.792,1.792,0,0,1-.806,1.52,3.478,3.478,0,0,1-2.082.581,3.632,3.632,0,0,1-1.533-.308,2.572,2.572,0,0,1-1.051-.844,1.962,1.962,0,0,1-.381-1.158h1.739a.958.958,0,0,0,.362.749,1.435,1.435,0,0,0,.9.26,1.328,1.328,0,0,0,.8-.2A.622.622,0,0,0,89.74,12.1Z" transform="translate(346.333 3921.064)" fill="#12263f"/>
  </g>
</svg>
