<svg xmlns="http://www.w3.org/2000/svg" width="44.92" height="44.91" viewBox="0 0 44.92 44.91">
  <g id="Grupo_238286" data-name="Grupo 238286" transform="translate(0 -0.693)">
    <g id="Grupo_238287" data-name="Grupo 238287" transform="translate(0 0.693)">
      <path id="Trazado_267659" data-name="Trazado 267659" d="M0,25.868V23.412a2.565,2.565,0,0,0,.15-.426,9.024,9.024,0,0,1,2.142-4.575c.682-.768,1.5-1.417,2.285-2.148L3.872,15.1c-.171.1-.281.173-.394.239a.767.767,0,1,1-.814-1.289,12.939,12.939,0,0,1,5.577-2.026c.238-.028.355-.09.414-.332.525-2.137,1.067-4.27,1.585-6.408a.485.485,0,0,0-.16-.408,2.268,2.268,0,0,1-.987-2.587A2.239,2.239,0,0,1,11.349.7q3.639,0,7.278,0C21.4.7,24.181.688,26.958.7a2.239,2.239,0,0,1,2.234,2.05,2.263,2.263,0,0,1-1.766,2.386c-.151.034-.307.047-.464.07v6.717h13.9a3.011,3.011,0,0,1,3.3,3.282c0,2.659,0,5.319.008,7.978a2.347,2.347,0,0,0,.167.842,7.373,7.373,0,0,1-.094,5.951,7.62,7.62,0,0,1-2.33,2.907c.768,0,1.433,0,2.1,0,.523,0,.838.233.9.646s-.183.7-.7.852l-2.283.01H35.577c.066.2.11.346.167.491.845,2.113,1.7,4.224,2.536,6.339.478,1.206.938,2.419,1.407,3.629a.9.9,0,0,1-.56.753h-.438l-.615-.774c-.028-.1-.047-.2-.085-.291-1.3-3.253-2.606-6.5-3.895-9.76a.537.537,0,0,0-.6-.41c-3.26.014-6.52.009-9.78.009h-.492v.591q0,3.99,0,7.98c0,.628.014,1.256.022,1.884a.991.991,0,0,1-.614.771h-.351a.985.985,0,0,1-.614-.771,2.121,2.121,0,0,0,.022-.217q0-4.961,0-9.922a2.473,2.473,0,0,0-.044-.316c-.43,0-.836,0-1.242,0-.6,0-.8-.165-.954-.738.139-.589.34-.755.936-.755q6,0,12.01,0h.548a7.634,7.634,0,0,1-3.014-5.96H26.94c0,.53.012,1.039,0,1.546a2.193,2.193,0,0,1-2.116,2.148c-.583.023-1.17.03-1.753,0a2.08,2.08,0,0,1-1.934-1.4,3,3,0,0,1-.164-.981c-.024-.693-.007-1.387-.007-2.063H19.34a9.918,9.918,0,0,1-4.421,6.716h2.044c.676,0,.836.119,1.034.76-.206.6-.385.734-1.02.734-1.855,0-3.711.011-5.566-.009a.542.542,0,0,0-.6.416c-.807,2.049-1.634,4.09-2.446,6.137-.516,1.3-1.016,2.606-1.523,3.909l-.615.774H5.79a.9.9,0,0,1-.561-.756c.057-.18.1-.365.172-.54q1.873-4.692,3.751-9.382c.063-.158.116-.321.181-.5a1.263,1.263,0,0,0-.205-.041q-4.183.005-8.367.014L0,33.85v-.439a.91.91,0,0,1,.96-.533c.232.022.467,0,.7,0H4.455c-.022-.063-.022-.078-.03-.084-.046-.036-.092-.071-.14-.1A9.707,9.707,0,0,1,.205,26.64c-.059-.26-.136-.515-.205-.772M23.855,29.1c.3.008.609.033.912.019a.631.631,0,0,0,.655-.585c.044-.528.011-1.062.011-1.61H22.462c0,.525-.017,1.015.005,1.5a.7.7,0,0,0,.7.695c.23.014.462-.014.693-.023m2.2-25.427c.3,0,.609.021.912.006a.772.772,0,0,0,.738-.72.773.773,0,0,0-.74-.763c-.3-.016-.608.005-.912.01q-7.39-.007-14.781-.011a.7.7,0,0,0-.759.77.684.684,0,0,0,.76.716c1.155.009,2.31,0,3.465,0l11.316-.011M23.941,5.2H18.006a1.141,1.141,0,0,0-.03.166c0,3.123-.005,6.247.007,9.37a.676.676,0,0,0,.219.434,13.012,13.012,0,0,1,3.319,4.72.5.5,0,0,0,.364.262c.685.021,1.371,0,2.057,0h1.47V5.2ZM40.7,13.43c-.058,0-.117-.013-.175-.013q-6.621,0-13.241,0a2.832,2.832,0,0,0-.348.044v.516q0,3.047,0,6.093a1.485,1.485,0,0,1-1.591,1.585c-.921,0-1.841,0-2.762,0-.151,0-.3.015-.4.019l.353,3.739c.333,0,.695,0,1.056,0l5.083-.029c.32.011.641.008.96.037s.471-.084.562-.428a6.875,6.875,0,0,1,2.767-4.066,1.461,1.461,0,0,0,.732-1.5c-.061-.734-.014-1.477-.014-2.2-1.149-.174-1.149-.174-1.477-.51-.043-.8.175-1.034.96-1.036.555,0,1.109,0,1.664,0l6.3-.021h1.572a5.774,5.774,0,0,0-.233-1.439A1.538,1.538,0,0,0,40.7,13.43M9.745,32.883A8.233,8.233,0,1,0,1.5,24.631a8.2,8.2,0,0,0,8.246,8.253m33.678-5.971a5.938,5.938,0,0,0-6.058-6A5.984,5.984,0,0,0,37.4,32.876a6.006,6.006,0,0,0,6.023-5.964M16.455,13.735v-8.5c-.047-.023-.072-.047-.1-.047-1.432,0-2.864-.015-4.3,0-.108,0-.279.177-.311.3-.332,1.254-.643,2.514-.958,3.773-.218.872-.432,1.745-.634,2.565,1.111.219,2.2.349,3.242.664s2.041.819,3.054,1.238m4.534,10.907a11.128,11.128,0,0,0-5.765-9.769,10.947,10.947,0,0,0-10.016-.5c.2.354.375.637.525.933s.306.348.625.231a9.121,9.121,0,0,1,4.384-.55,9.46,9.46,0,0,1,8.117,6.376,23.746,23.746,0,0,1,.757,3.269.822.822,0,0,0,.151.014c.377,0,.755,0,1.222,0M41.153,17.2c0,1.046,0,2.037,0,3.028a.318.318,0,0,0,.092.228c.45.332.909.651,1.372.979V17.2Zm-1.515,2.518V17.2H38.211v2.227l1.426.294M35.21,17.189v2.529l1.434-.3V17.189Z" transform="translate(0 -0.693)" fill="#010101"/>
      <path id="Trazado_267665" data-name="Trazado 267665" d="M73.237,293.068q-5.4.006-10.8.012c-1.341,0-2.682-.009-4.023-.014.507-1.3,1.008-2.609,1.523-3.909.812-2.047,1.639-4.088,2.446-6.137a.542.542,0,0,1,.6-.416c1.855.02,3.71.01,5.566.009.635,0,.814-.131,1.02-.734l1.453,0c.15.574.358.736.954.738.406,0,.812,0,1.242,0a2.472,2.472,0,0,1,.044.316q0,4.961,0,9.922a2.116,2.116,0,0,1-.022.217" transform="translate(-51.569 -248.929)" fill="#9f522d"/>
      <path id="Trazado_267666" data-name="Trazado 267666" d="M213.065,298.57c-1.166.005-2.332.015-3.5.014q-5.663,0-11.327-.012c-.008-.628-.022-1.256-.022-1.884q0-3.99,0-7.98v-.591h.492c3.26,0,6.52.006,9.78-.009a.537.537,0,0,1,.6.41c1.288,3.257,2.595,6.508,3.894,9.76a3.01,3.01,0,0,1,.085.291" transform="translate(-174.993 -254.434)" fill="#9f522d"/>
      <path id="Trazado_267667" data-name="Trazado 267667" d="M208.314,111.527l-6.3.021c-.555,0-1.109,0-1.664,0-.784,0-1,.238-.96,1.036-.005,1.255,0,2.51-.026,3.765a.752.752,0,0,1-.237.5,23.3,23.3,0,0,0-1.931,1.618,4.99,4.99,0,0,0-1.337,2.789l-5.083.029c-.362,0-.723,0-1.056,0l-.353-3.739c.094,0,.246-.019.4-.019.921,0,1.842,0,2.762,0a1.485,1.485,0,0,0,1.591-1.585q.005-3.047,0-6.093v-.516a2.832,2.832,0,0,1,.348-.044q6.621,0,13.241,0c.058,0,.116.009.175.013a3.511,3.511,0,0,1,.435,2.232m-11.447.022c-.23,0-.361,0-.491,0a.724.724,0,0,0-.756.641.706.706,0,0,0,.586.8,3.365,3.365,0,0,0,1.158-.029.683.683,0,0,0,.419-1.008c-.215-.458-.622-.4-.915-.4" transform="translate(-167.176 -96.558)" fill="#ced371"/>
      <path id="Trazado_267668" data-name="Trazado 267668" d="M21.033,151.361a8.233,8.233,0,1,1,.022-16.466,8.233,8.233,0,0,1-.022,16.466m-.008-1.493a6.74,6.74,0,1,0-6.748-6.741,6.71,6.71,0,0,0,6.748,6.741" transform="translate(-11.289 -119.171)" fill="#36464e"/>
      <path id="Trazado_267669" data-name="Trazado 267669" d="M10.945,298.674c-.935,0-1.87,0-2.806,0a1.481,1.481,0,0,1-1.663-1.64q-.006-4.405,0-8.81,4.183-.008,8.367-.014a1.258,1.258,0,0,1,.205.041c-.066.184-.118.347-.181.5q-1.875,4.691-3.751,9.382c-.07.175-.115.36-.172.54" transform="translate(-5.716 -254.52)" fill="#9f522d"/>
      <path id="Trazado_267670" data-name="Trazado 267670" d="M159.381,54.075c-.686.005-1.372.024-2.057,0a.5.5,0,0,1-.364-.262,13.01,13.01,0,0,0-3.319-4.72.676.676,0,0,1-.219-.434c-.012-3.123-.008-6.247-.007-9.37a1.138,1.138,0,0,1,.03-.165h5.935q0,1,0,2c-.413-.61-.761-.677-1.34-.245q-1.388,1.034-2.768,2.08a.75.75,0,1,0,.885,1.2q1.448-1.064,2.875-2.157a2.58,2.58,0,0,0,.343-.389q0,2,0,3.991c-.343-.5-.729-.658-1.126-.373-1.044.749-2.069,1.524-3.087,2.309a.711.711,0,0,0-.12.987.7.7,0,0,0,.971.208c1.064-.771,2.107-1.57,3.153-2.365a1.28,1.28,0,0,0,.209-.276q0,3.989.005,7.978" transform="translate(-135.438 -34.623)" fill="#afafaf"/>
      <path id="Trazado_267672" data-name="Trazado 267672" d="M280.348,179.232a6.006,6.006,0,0,1-6.023,5.964,5.984,5.984,0,1,1,6.023-5.964M269.9,179.2a4.441,4.441,0,0,0,4.484,4.5,4.525,4.525,0,0,0,4.469-4.468,4.476,4.476,0,1,0-8.953-.034" transform="translate(-236.926 -153.013)" fill="#36464d"/>
      <path id="Trazado_267673" data-name="Trazado 267673" d="M309.994,298.751l-2.238.011c-.468-1.21-.928-2.423-1.407-3.629-.84-2.115-1.691-4.226-2.536-6.339-.058-.145-.1-.295-.167-.491H310l0,10.448" transform="translate(-268.069 -254.605)" fill="#9f522d"/>
      <path id="Trazado_267674" data-name="Trazado 267674" d="M93.008,47.567C92,47.148,91,46.647,89.955,46.329s-2.131-.445-3.242-.664c.2-.821.417-1.694.634-2.565.314-1.259.625-2.519.958-3.773.033-.124.2-.3.311-.3,1.432-.017,2.863-.007,4.3,0,.025,0,.05.023.1.047Zm-3.822-3.242a1.905,1.905,0,0,0,.524-.22c.56-.533,1.117-1.071,1.643-1.638a.736.736,0,0,0-1.069-1,20.432,20.432,0,0,0-1.566,1.589.9.9,0,0,0-.086.762c.082.215.37.35.555.509" transform="translate(-76.553 -34.525)" fill="#afafaf"/>
      <path id="Trazado_267675" data-name="Trazado 267675" d="M60.236,120.374c-.467,0-.844,0-1.222,0a.822.822,0,0,1-.151-.014,23.762,23.762,0,0,0-.757-3.269,9.46,9.46,0,0,0-8.117-6.376,9.123,9.123,0,0,0-4.384.55c-.319.117-.482.05-.625-.231s-.325-.579-.525-.932a10.947,10.947,0,0,1,10.016.5,11.128,11.128,0,0,1,5.765,9.769" transform="translate(-39.246 -96.426)" fill="#525a5e"/>
      <path id="Trazado_267676" data-name="Trazado 267676" d="M357.826,298.675l0-10.448,2.283-.01Q360.1,292.61,360.1,297a1.523,1.523,0,0,1-1.109,1.629,6.594,6.594,0,0,1-1.161.042" transform="translate(-315.901 -254.529)" fill="#794024"/>
      <path id="Trazado_267677" data-name="Trazado 267677" d="M105.264,14.963l-11.316.011c-1.155,0-2.31.006-3.465,0a.685.685,0,0,1-.76-.716.7.7,0,0,1,.759-.77q7.39,0,14.781.011a1.937,1.937,0,0,1,0,1.467" transform="translate(-79.21 -11.986)" fill="#78b62e"/>
      <path id="Trazado_267678" data-name="Trazado 267678" d="M204.281,41.126q0-1,0-2h1.471V54.076h-1.47q0-3.989-.005-7.978,0-.245,0-.49,0-2,0-3.991,0-.245.006-.491" transform="translate(-180.341 -34.624)" fill="#636363"/>
      <path id="Trazado_267679" data-name="Trazado 267679" d="M244.782,146.148a4.988,4.988,0,0,1,1.337-2.789,23.324,23.324,0,0,1,1.931-1.618.752.752,0,0,0,.237-.5c.024-1.255.021-2.51.026-3.765.328.336.328.336,1.477.509,0,.728-.047,1.471.014,2.2a1.461,1.461,0,0,1-.733,1.5,6.875,6.875,0,0,0-2.767,4.066c-.091.344-.23.458-.562.428s-.639-.026-.959-.037" transform="translate(-216.102 -121.454)" fill="#78b62e"/>
      <path id="Trazado_267680" data-name="Trazado 267680" d="M351.233,141.574H352.7v4.236c-.463-.328-.922-.647-1.372-.979a.318.318,0,0,1-.092-.228c-.006-.991,0-1.982,0-3.029" transform="translate(-310.081 -125.068)" fill="#525a5e"/>
      <path id="Trazado_267681" data-name="Trazado 267681" d="M327.558,144.073l-1.426-.294v-2.227h1.426Z" transform="translate(-287.921 -125.048)" fill="#7c8a90"/>
      <path id="Trazado_267682" data-name="Trazado 267682" d="M300.513,141.489h1.434v2.233l-1.434.3Z" transform="translate(-265.303 -124.993)" fill="#7d8c92"/>
      <path id="Trazado_267683" data-name="Trazado 267683" d="M203.695,224.542h1.484c0,.548.033,1.083-.011,1.611a.631.631,0,0,1-.655.585c-.3.014-.608-.011-.912-.019l.095-2.176" transform="translate(-179.745 -198.315)" fill="#6f6f6f"/>
      <path id="Trazado_267684" data-name="Trazado 267684" d="M347.826,111.479a3.51,3.51,0,0,0-.435-2.232,1.539,1.539,0,0,1,1.774.793,5.776,5.776,0,0,1,.233,1.44Z" transform="translate(-306.689 -96.509)" fill="#78b62e"/>
      <path id="Trazado_267685" data-name="Trazado 267685" d="M193.152,224.542l-.095,2.176a6.924,6.924,0,0,1-.693.024.7.7,0,0,1-.7-.695c-.022-.489-.005-.98-.005-1.5Z" transform="translate(-169.203 -198.315)" fill="#9c9c9c"/>
      <path id="Trazado_267686" data-name="Trazado 267686" d="M222.354,14.928a1.937,1.937,0,0,0,0-1.467c.3,0,.609-.025.912-.01a.741.741,0,0,1,0,1.483c-.3.015-.608,0-.912-.006" transform="translate(-196.3 -11.952)" fill="#007600"/>
      <path id="Trazado_267687" data-name="Trazado 267687" d="M243.954,128.614c.293,0,.7-.057.915.4a.683.683,0,0,1-.419,1.008,3.365,3.365,0,0,1-1.158.029.706.706,0,0,1-.586-.8.724.724,0,0,1,.756-.641c.131-.005.262,0,.491,0" transform="translate(-214.265 -113.623)" fill="#020201"/>
      <path id="Trazado_267688" data-name="Trazado 267688" d="M32.257,161.119a6.74,6.74,0,1,1-.011-13.48,6.74,6.74,0,0,1,.011,13.48m.991-1.628v.006a5.212,5.212,0,0,0-.028-10.247l-.022,0-.149-.041a5.067,5.067,0,0,0-4.062,1.073,5.223,5.223,0,0,0,4.061,9.249l.2-.041" transform="translate(-22.52 -130.422)" fill="#020201"/>
      <path id="Trazado_267689" data-name="Trazado 267689" d="M170.582,52.259q0,.245-.006.491a2.58,2.58,0,0,1-.343.389q-1.429,1.089-2.875,2.157a.75.75,0,1,1-.885-1.2q1.38-1.046,2.768-2.08c.58-.432.927-.365,1.34.245" transform="translate(-146.642 -45.756)" fill="#f0f3f4"/>
      <path id="Trazado_267690" data-name="Trazado 267690" d="M170.566,90.566q0,.245,0,.49a1.28,1.28,0,0,1-.209.276c-1.046.795-2.089,1.594-3.153,2.365a.7.7,0,0,1-.971-.208.711.711,0,0,1,.12-.987c1.017-.785,2.043-1.56,3.087-2.309.4-.285.782-.127,1.126.373" transform="translate(-146.629 -79.582)" fill="#f0f3f4"/>
      <path id="Trazado_267691" data-name="Trazado 267691" d="M281.379,190.464a4.477,4.477,0,1,1,8.953.034,4.525,4.525,0,0,1-4.469,4.468,4.441,4.441,0,0,1-4.484-4.5m4.574-2.951a2.969,2.969,0,1,0,0,5.932c.173-.017.348-.019.517-.053a3.008,3.008,0,0,0,2.356-3.182,2.931,2.931,0,0,0-2.871-2.7" transform="translate(-248.406 -164.271)" fill="#020201"/>
      <path id="Trazado_267692" data-name="Trazado 267692" d="M103.286,61.307c-.185-.159-.474-.295-.555-.509a.9.9,0,0,1,.086-.762,20.432,20.432,0,0,1,1.566-1.589.736.736,0,0,1,1.069,1c-.525.567-1.083,1.1-1.643,1.638a1.905,1.905,0,0,1-.524.22" transform="translate(-90.653 -51.507)" fill="#f0f3f4"/>
      <path id="Trazado_267693" data-name="Trazado 267693" d="M44.532,160.552l.022,0c.239.205.486.4.717.617a5.923,5.923,0,0,1,2.013,4.783,5.7,5.7,0,0,1-1.573,3.777c-.353.378-.751.714-1.129,1.07v-.006l-.2.041a5.223,5.223,0,0,1-4.061-9.249,5.067,5.067,0,0,1,4.062-1.073l.149.041m1.3,5.1a2.248,2.248,0,1,0-2.246,2.273,2.253,2.253,0,0,0,2.246-2.273" transform="translate(-33.854 -141.722)" fill="#fdc94a"/>
      <path id="Trazado_267694" data-name="Trazado 267694" d="M91.352,171.637c.378-.355.775-.692,1.129-1.07a5.7,5.7,0,0,0,1.573-3.777,5.922,5.922,0,0,0-2.013-4.783c-.23-.215-.477-.412-.717-.617a5.212,5.212,0,0,1,.028,10.247" transform="translate(-80.624 -142.562)" fill="#ffb500"/>
      <path id="Trazado_267695" data-name="Trazado 267695" d="M89.863,248.838l.2-.041-.2.041" transform="translate(-79.334 -219.728)" fill="#fabe08"/>
      <path id="Trazado_267696" data-name="Trazado 267696" d="M90.017,161.094l-.149-.041.149.041" transform="translate(-79.339 -142.264)" fill="#fabe08"/>
      <path id="Trazado_267697" data-name="Trazado 267697" d="M297.081,204.922a2.969,2.969,0,1,1,0-5.932c.136.151.268.306.407.453a3.487,3.487,0,0,1,.983,2.578,3.451,3.451,0,0,1-1.074,2.5,3.377,3.377,0,0,0-.319.4m.626-2.966a.748.748,0,0,0-.741-.759.77.77,0,0,0-.748.762.75.75,0,0,0,.729.728.726.726,0,0,0,.76-.731" transform="translate(-259.538 -175.75)" fill="#fdc94a"/>
      <path id="Trazado_267698" data-name="Trazado 267698" d="M320.43,204.985a3.367,3.367,0,0,1,.319-.4,3.451,3.451,0,0,0,1.074-2.5,3.487,3.487,0,0,0-.983-2.578c-.14-.147-.271-.3-.407-.453a2.931,2.931,0,0,1,2.871,2.7,3.008,3.008,0,0,1-2.356,3.182c-.169.033-.345.036-.517.052" transform="translate(-282.887 -175.812)" fill="#ffb500"/>
      <path id="Trazado_267699" data-name="Trazado 267699" d="M68.341,188.187a2.248,2.248,0,1,1-2.247-2.224,2.264,2.264,0,0,1,2.247,2.224m-1.508.006a.725.725,0,0,0-.766-.721.743.743,0,0,0-.718.734.757.757,0,0,0,.753.751.743.743,0,0,0,.732-.764" transform="translate(-56.364 -164.256)" fill="#040401"/>
      <path id="Trazado_267700" data-name="Trazado 267700" d="M314.549,218.648a.726.726,0,0,1-.76.731.75.75,0,0,1-.729-.728.77.77,0,0,1,.748-.762.748.748,0,0,1,.741.759" transform="translate(-276.38 -192.441)" fill="#040401"/>
      <path id="Trazado_267701" data-name="Trazado 267701" d="M78.166,199.554a.743.743,0,0,1-.732.764.757.757,0,0,1-.753-.751.743.743,0,0,1,.718-.734.725.725,0,0,1,.766.721" transform="translate(-67.698 -175.618)" fill="#cad3d7"/>
    </g>
  </g>
</svg>
