<svg xmlns="http://www.w3.org/2000/svg" xmlns:xlink="http://www.w3.org/1999/xlink" width="441.077" height="281.518" viewBox="0 0 441.077 281.518">
  <defs>
    <clipPath id="clip-path">
      <rect id="Rectángulo_53417" data-name="Rectángulo 53417" width="441.077" height="281.518" fill="none"/>
    </clipPath>
    <clipPath id="clip-path-2">
      <rect id="Rectángulo_53422" data-name="Rectángulo 53422" width="29.371" height="22.17" fill="none"/>
    </clipPath>
    <clipPath id="clip-path-3">
      <rect id="Rectángulo_53423" data-name="Rectángulo 53423" width="11.519" height="17.262" fill="none"/>
    </clipPath>
    <clipPath id="clip-path-4">
      <rect id="Rectángulo_53425" data-name="Rectángulo 53425" width="16.742" height="12.832" fill="none"/>
    </clipPath>
    <clipPath id="clip-path-5">
      <rect id="Rectángulo_53427" data-name="Rectángulo 53427" width="2.196" height="44.978" fill="none"/>
    </clipPath>
    <clipPath id="clip-path-6">
      <rect id="Rectángulo_53429" data-name="Rectángulo 53429" width="43.472" height="32.827" fill="#636363"/>
    </clipPath>
  </defs>
  <g id="Grupo_167883" data-name="Grupo 167883" transform="translate(-769.732 -355)">
    <g id="Grupo_167875" data-name="Grupo 167875" transform="translate(769.732 355)">
      <g id="Grupo_167876" data-name="Grupo 167876">
        <rect id="Rectángulo_53376" data-name="Rectángulo 53376" width="85.564" height="76.551" transform="translate(13.912 26.479)" fill="#fafafa"/>
        <g id="Grupo_167840" data-name="Grupo 167840" transform="translate(14.589 13.598)">
          <g id="Grupo_167882" data-name="Grupo 167882">
            <path id="Trazado_259484" data-name="Trazado 259484" d="M115.069,132.786s-.015-.559-.023-1.62-.013-2.636-.023-4.675c-.012-4.1-.03-10.085-.054-17.712-.025-15.245-.062-37.029-.106-63.247l.207.221-91.218.04h-.008l.244-.26c-.011,31.743-.02,61.614-.029,87.253l-.215-.229,65.982.116,18.609.06,4.927.027,1.27.013c.287,0,.438.013.438.013s-.135.009-.414.013l-1.247.013-4.885.027-18.561.061-66.12.116h-.215v-.23c-.009-25.639-.019-55.51-.029-87.253v-.261h.252l91.218.04h.207v.221c-.044,26.276-.08,48.108-.106,63.387-.023,7.606-.041,13.577-.053,17.662-.01,2.02-.019,3.572-.024,4.632-.007,1.045-.023,1.572-.023,1.572" transform="translate(-23.598 -28.949)" fill="#e0e0e0"/>
            <path id="Trazado_259485" data-name="Trazado 259485" d="M67.328,68.99c0,.144-4.8.261-10.724.261S45.88,69.134,45.88,68.99s4.8-.26,10.725-.26,10.724.117,10.724.26" transform="translate(-32.105 -36.904)" fill="#e0e0e0"/>
            <path id="Trazado_259486" data-name="Trazado 259486" d="M106.711,78.9c0,.144-13.191.26-29.46.26s-29.463-.116-29.463-.26,13.188-.26,29.463-.26,29.46.116,29.46.26" transform="translate(-32.833 -40.265)" fill="#e0e0e0"/>
            <rect id="Rectángulo_53377" data-name="Rectángulo 53377" width="3.843" height="4.109" transform="translate(13.932 49.735)" fill="#e0e0e0"/>
            <rect id="Rectángulo_53378" data-name="Rectángulo 53378" width="3.843" height="4.109" transform="translate(23.393 49.735)" fill="#e0e0e0"/>
            <rect id="Rectángulo_53379" data-name="Rectángulo 53379" width="3.843" height="4.109" transform="translate(33.027 49.548)" fill="#e0e0e0"/>
            <rect id="Rectángulo_53380" data-name="Rectángulo 53380" width="3.843" height="4.109" transform="translate(42.314 49.735)" fill="#e0e0e0"/>
            <rect id="Rectángulo_53381" data-name="Rectángulo 53381" width="3.843" height="4.109" transform="translate(51.775 49.735)" fill="#e0e0e0"/>
            <rect id="Rectángulo_53382" data-name="Rectángulo 53382" width="3.843" height="4.109" transform="translate(61.235 49.735)" fill="#e0e0e0"/>
            <rect id="Rectángulo_53383" data-name="Rectángulo 53383" width="3.843" height="4.109" transform="translate(70.696 49.735)" fill="#ebebeb"/>
            <rect id="Rectángulo_53384" data-name="Rectángulo 53384" width="3.843" height="4.109" transform="translate(13.932 58.47)" fill="#ebebeb"/>
            <rect id="Rectángulo_53385" data-name="Rectángulo 53385" width="3.843" height="4.109" transform="translate(23.393 58.47)" fill="#e0e0e0"/>
            <rect id="Rectángulo_53386" data-name="Rectángulo 53386" width="3.843" height="4.109" transform="translate(32.853 58.47)" fill="#ebebeb"/>
            <rect id="Rectángulo_53387" data-name="Rectángulo 53387" width="3.843" height="4.109" transform="translate(42.314 58.47)" fill="#e0e0e0"/>
            <rect id="Rectángulo_53388" data-name="Rectángulo 53388" width="3.843" height="4.109" transform="translate(51.775 58.47)" fill="#e0e0e0"/>
            <rect id="Rectángulo_53389" data-name="Rectángulo 53389" width="3.843" height="4.109" transform="translate(61.41 58.284)" fill="#e0e0e0"/>
            <rect id="Rectángulo_53390" data-name="Rectángulo 53390" width="3.843" height="4.109" transform="translate(70.696 58.47)" fill="#e0e0e0"/>
            <rect id="Rectángulo_53391" data-name="Rectángulo 53391" width="3.843" height="4.109" transform="translate(13.932 67.205)" fill="#e0e0e0"/>
            <rect id="Rectángulo_53392" data-name="Rectángulo 53392" width="3.843" height="4.109" transform="translate(23.567 67.019)" fill="#e0e0e0"/>
            <rect id="Rectángulo_53393" data-name="Rectángulo 53393" width="3.843" height="4.109" transform="translate(32.853 67.205)" fill="#e0e0e0"/>
            <rect id="Rectángulo_53394" data-name="Rectángulo 53394" width="3.843" height="4.109" transform="translate(42.314 67.205)" fill="#ebebeb"/>
            <rect id="Rectángulo_53395" data-name="Rectángulo 53395" width="3.843" height="4.109" transform="translate(51.775 67.205)" fill="#e0e0e0"/>
            <rect id="Rectángulo_53396" data-name="Rectángulo 53396" width="3.843" height="4.109" transform="translate(61.235 67.205)" fill="#e0e0e0"/>
            <rect id="Rectángulo_53397" data-name="Rectángulo 53397" width="3.843" height="4.109" transform="translate(70.696 67.205)" fill="#e0e0e0"/>
            <rect id="Rectángulo_53398" data-name="Rectángulo 53398" width="3.843" height="4.109" transform="translate(13.932 75.94)" fill="#e0e0e0"/>
            <rect id="Rectángulo_53399" data-name="Rectángulo 53399" width="3.843" height="4.109" transform="translate(23.393 75.94)" fill="#e0e0e0"/>
            <rect id="Rectángulo_53400" data-name="Rectángulo 53400" width="3.843" height="4.109" transform="translate(32.853 75.94)" fill="#e0e0e0"/>
            <rect id="Rectángulo_53401" data-name="Rectángulo 53401" width="3.843" height="4.109" transform="translate(42.489 75.753)" fill="#e0e0e0"/>
            <rect id="Rectángulo_53402" data-name="Rectángulo 53402" width="3.843" height="4.109" transform="translate(51.775 75.94)" fill="#e0e0e0"/>
            <rect id="Rectángulo_53403" data-name="Rectángulo 53403" width="3.843" height="4.109" transform="translate(61.235 75.94)" fill="#ebebeb"/>
            <rect id="Rectángulo_53404" data-name="Rectángulo 53404" width="3.843" height="4.109" transform="translate(70.696 75.94)" fill="#e0e0e0"/>
            <rect id="Rectángulo_53405" data-name="Rectángulo 53405" width="3.843" height="4.109" transform="translate(13.932 84.675)" fill="#e0e0e0"/>
            <rect id="Rectángulo_53406" data-name="Rectángulo 53406" width="3.843" height="4.109" transform="translate(23.393 84.675)" fill="#ebebeb"/>
            <rect id="Rectángulo_53407" data-name="Rectángulo 53407" width="3.843" height="4.109" transform="translate(32.853 84.675)" fill="#e0e0e0"/>
            <rect id="Rectángulo_53408" data-name="Rectángulo 53408" width="3.843" height="4.109" transform="translate(42.314 84.675)" fill="#e0e0e0"/>
            <rect id="Rectángulo_53409" data-name="Rectángulo 53409" width="3.843" height="4.109" transform="translate(51.775 84.675)" fill="#e0e0e0"/>
            <rect id="Rectángulo_53410" data-name="Rectángulo 53410" width="3.843" height="4.109" transform="translate(61.41 84.489)" fill="#e0e0e0"/>
            <rect id="Rectángulo_53411" data-name="Rectángulo 53411" width="3.843" height="4.109" transform="translate(70.696 84.675)" fill="#e0e0e0"/>
            <rect id="Rectángulo_53412" data-name="Rectángulo 53412" width="4.396" height="101.044" transform="translate(415.747 24.268)" fill="#e0e0e0"/>
            <path id="Trazado_259487" data-name="Trazado 259487" d="M592.948,58.543V158.811a.066.066,0,0,0,.064.067h62.974a.066.066,0,0,0,.063-.067V58.543a.066.066,0,0,0-.063-.068H593.012a.066.066,0,0,0-.064.068" transform="translate(-240.969 -33.426)" fill="#f5f5f5"/>
            <path id="Trazado_259488" data-name="Trazado 259488" d="M656.265,159.26H591.829a.066.066,0,0,1-.064-.068V57.361a.066.066,0,0,1,.064-.068h64.436a.065.065,0,0,1,.063.068V159.192a.065.065,0,0,1-.063.068M593.291,157.7H654.8a.066.066,0,0,0,.064-.068v-98.7a.066.066,0,0,0-.064-.068H593.291a.066.066,0,0,0-.064.068v98.7a.066.066,0,0,0,.064.068" transform="translate(-240.517 -33.026)" fill="#ebebeb"/>
            <path id="Trazado_259489" data-name="Trazado 259489" d="M603.225,67.915v87.813a.066.066,0,0,0,.063.068h50.378a.066.066,0,0,0,.064-.068V67.915a.066.066,0,0,0-.064-.068H603.288a.066.066,0,0,0-.063.068" transform="translate(-244.892 -36.604)" fill="#fff"/>
            <path id="Trazado_259490" data-name="Trazado 259490" d="M649.365,141.107H621.087a.041.041,0,0,1-.04-.042V105.616a.041.041,0,0,1,.04-.042h28.278a.04.04,0,0,1,.04.042v35.448a.041.041,0,0,1-.04.042" transform="translate(-251.697 -49.397)" fill="#ebebeb"/>
            <path id="Trazado_259491" data-name="Trazado 259491" d="M647.456,138.388c.036.114-1.363.769-4.026.436a9.47,9.47,0,0,1-4.525-1.934,9.9,9.9,0,0,1-3.517-5.912,8.842,8.842,0,0,1,2.69-8.083,6.967,6.967,0,0,1,2.039-1.278,5.1,5.1,0,0,1,2.551-.315,4.36,4.36,0,0,1,2.551,1.191,3.708,3.708,0,0,1,1.006,3.176,5.293,5.293,0,0,1-1.4,2.727,9.3,9.3,0,0,1-2.136,1.683,11.142,11.142,0,0,1-5.1,1.556,9.6,9.6,0,0,1-5.431-1.321,10.274,10.274,0,0,1-4-4.429,9.585,9.585,0,0,1-.718-6.2,9.309,9.309,0,0,1,3.059-5.111,7.36,7.36,0,0,1,2.564-1.384,5.985,5.985,0,0,1,2.886-.1,4.641,4.641,0,0,1,2.62,1.58,4.843,4.843,0,0,1,1.027,2.993,6.009,6.009,0,0,1-.684,2.851,7.548,7.548,0,0,1-1.617,2.079,10.672,10.672,0,0,1-4.017,2.281,9.666,9.666,0,0,1-4.227.349,8.333,8.333,0,0,1-3.678-1.506,8.607,8.607,0,0,1-3.513-5.949,7.541,7.541,0,0,1,1.3-5.1,5.769,5.769,0,0,1,2.408-2.056c.662-.268,1.04-.259,1.056-.192.028.1-.3.252-.837.636a6.55,6.55,0,0,0-1.872,2.151,6.726,6.726,0,0,0-.767,4.357,7.144,7.144,0,0,0,3.124,4.677,7.26,7.26,0,0,0,6.443.656,8.917,8.917,0,0,0,3.225-1.95,4.345,4.345,0,0,0,1.506-3.23,2.273,2.273,0,0,0-1.941-2.293,3.92,3.92,0,0,0-1.854.094,5.225,5.225,0,0,0-1.749.979,6.9,6.9,0,0,0-2.206,3.759,6.972,6.972,0,0,0,.542,4.5,7.932,7.932,0,0,0,3.052,3.39,7.489,7.489,0,0,0,4.2,1.044,9.092,9.092,0,0,0,4.128-1.206,7.175,7.175,0,0,0,1.648-1.242,3.019,3.019,0,0,0,.836-1.456,1.327,1.327,0,0,0-.338-1.172,2.4,2.4,0,0,0-1.365-.643,3.236,3.236,0,0,0-1.608.146,5.067,5.067,0,0,0-1.5.877,6.616,6.616,0,0,0-1.954,2.878,7.064,7.064,0,0,0-.329,3.3,8.67,8.67,0,0,0,2.7,5.117,9.3,9.3,0,0,0,3.884,2.072c2.4.6,3.839.3,3.857.517" transform="translate(-251.992 -51.027)" fill="#e0e0e0"/>
            <rect id="Rectángulo_53413" data-name="Rectángulo 53413" width="30.078" height="8.507" transform="translate(56.713 159.725)" fill="#f5f5f5"/>
            <rect id="Rectángulo_53414" data-name="Rectángulo 53414" width="30.078" height="8.507" transform="translate(126.873)" fill="#f5f5f5"/>
            <path id="Trazado_259492" data-name="Trazado 259492" d="M238.233,21.972a1.1,1.1,0,0,1-.009-.155c0-.114-.006-.257-.01-.436q-.008-.6-.022-1.674c-.012-1.469-.03-3.579-.052-6.242l.093.1-30.076.064c.068-.073-.155.163.151-.164v2.176q0,1.082,0,2.147,0,2.129,0,4.184l-.15-.161,21.435.073,6.327.046,1.711.021.448.01a1.119,1.119,0,0,1,.158.011.692.692,0,0,1-.139.011l-.429.01-1.678.021-6.292.046-21.539.073h-.15v-.161q0-2.052,0-4.184,0-1.065,0-2.147,0-.54,0-1.085v-1.09c.307-.328.087-.091.155-.164l30.076.064h.094v.1c-.022,2.687-.04,4.818-.052,6.3q-.014,1.059-.022,1.652c0,.172-.007.309-.01.419a.67.67,0,0,1-.009.135" transform="translate(-94.001 -4.505)" fill="#e0e0e0"/>
            <path id="Trazado_259493" data-name="Trazado 259493" d="M662.223,273.667a1.114,1.114,0,0,1-.009-.155c0-.114-.005-.257-.01-.436q-.008-.6-.022-1.674c-.012-1.469-.03-3.579-.052-6.242l.093.1-30.076.064c.068-.073-.155.163.151-.164v2.176q0,1.082,0,2.147,0,2.129,0,4.184l-.15-.16,21.435.073,6.327.046,1.711.021.448.01a1.116,1.116,0,0,1,.158.011.632.632,0,0,1-.139.011l-.429.01-1.678.021-6.292.046-21.539.073H632v-.161q0-2.052,0-4.184,0-1.065,0-2.147,0-.54,0-1.085v-1.09c.307-.328.087-.091.155-.164l30.076.064h.094v.1c-.022,2.687-.04,4.819-.051,6.3q-.015,1.059-.023,1.652c0,.172-.007.309-.01.419a.661.661,0,0,1-.009.135" transform="translate(-255.875 -103.451)" fill="#e0e0e0"/>
            <path id="Trazado_259494" data-name="Trazado 259494" d="M676.233,260.785a1.075,1.075,0,0,1-.012-.162c0-.122-.007-.27-.012-.451q-.01-.628-.027-1.706c-.014-1.492-.035-3.6-.059-6.188l.11.118-18.07.046c-.138.146.185-.2.152-.163v2.216q0,1.1,0,2.165c0,1.423,0,2.8-.006,4.125l-.146-.156,12.927.074,3.766.043,1.016.02a2.864,2.864,0,0,1,.363.019,1.992,1.992,0,0,1-.328.019l-.985.02-3.733.043-13.026.074h-.146v-.157c0-1.322,0-2.7-.006-4.125q0-1.068,0-2.165,0-.548,0-1.1v-1.113c-.034.035.291-.311.155-.165l18.07.046h.111v.118c-.025,2.62-.045,4.751-.059,6.26q-.017,1.06-.027,1.679a5.363,5.363,0,0,1-.024.568" transform="translate(-265.807 -99.076)" fill="#e0e0e0"/>
            <path id="Trazado_259495" data-name="Trazado 259495" d="M416.152,353.446a.945.945,0,0,1-.01-.155c0-.114-.006-.257-.01-.436q-.008-.6-.022-1.674c-.012-1.469-.03-3.579-.051-6.242l.093.1-30.077.064c.068-.073-.155.163.152-.164v2.176q0,1.082,0,2.147,0,2.129,0,4.184l-.15-.161,21.435.073,6.327.046,1.711.021.448.01a1.14,1.14,0,0,1,.159.011.722.722,0,0,1-.14.011l-.429.01-1.678.021-6.293.046-21.539.073h-.15v-.161q0-2.052,0-4.184,0-1.065,0-2.147v-2.176c.307-.328.086-.091.155-.164l30.077.064h.093v.1c-.022,2.687-.04,4.819-.052,6.3q-.014,1.059-.022,1.652c0,.172-.007.309-.01.419a.784.784,0,0,1-.009.135" transform="translate(-161.928 -130.504)" fill="#e0e0e0"/>
            <path id="Trazado_259496" data-name="Trazado 259496" d="M430.161,340.564a1.067,1.067,0,0,1-.012-.162c0-.122-.007-.27-.012-.451q-.01-.628-.027-1.706c-.014-1.491-.035-3.6-.059-6.188l.11.118-18.07.046c-.138.146.185-.2.152-.163v2.216q0,1.1,0,2.165c0,1.423,0,2.8-.006,4.125l-.146-.156,12.927.074,3.766.043,1.016.02a2.886,2.886,0,0,1,.363.019,1.99,1.99,0,0,1-.328.019l-.985.02-3.733.043-13.026.074h-.146v-.157c0-1.322,0-2.7-.006-4.125q0-1.068,0-2.165,0-.548,0-1.1v-1.113c-.034.035.291-.311.155-.165l18.07.046h.111v.118c-.025,2.62-.045,4.751-.059,6.26q-.017,1.06-.027,1.679a5.345,5.345,0,0,1-.023.568" transform="translate(-171.86 -126.129)" fill="#e0e0e0"/>
            <rect id="Rectángulo_53415" data-name="Rectángulo 53415" width="30.078" height="8.507" transform="translate(311.656 8.813)" fill="#f5f5f5"/>
          </g>
        </g>
        <g id="Grupo_167842" data-name="Grupo 167842">
          <g id="Grupo_167841" data-name="Grupo 167841" clip-path="url(#clip-path)">
            <path id="Trazado_259497" data-name="Trazado 259497" d="M441.077,425.61c0,.1-98.746.172-220.528.172C98.725,425.782,0,425.7,0,425.61s98.725-.172,220.549-.172c121.782,0,220.528.077,220.528.172" transform="translate(0 -144.263)" fill="#263238"/>
          </g>
        </g>
        <g id="Grupo_167850" data-name="Grupo 167850" transform="translate(141.008 32.895)">
          <g id="Grupo_167881" data-name="Grupo 167881">
            <path id="Trazado_259498" data-name="Trazado 259498" d="M457.528,227.287c0-1.2-.056-68.675-.141-172.826l.141.143-204.653.028h-.018l.169-.172c-.007,62.563-.014,121.605-.019,172.826l-.15-.153,204.671.153-204.671.153h-.15v-.153c-.005-51.22-.012-110.262-.018-172.826v-.172h.187l204.653.028h.141v.144c-.085,104.15-.14,171.621-.141,172.826" transform="translate(-246.871 -51.304)" fill="#263238"/>
            <path id="Trazado_259499" data-name="Trazado 259499" d="M454.359,62.511H248.9a5.691,5.691,0,0,1-5.625-5.754V55.526a5.69,5.69,0,0,1,5.625-5.753H454.359a5.691,5.691,0,0,1,5.626,5.753v1.231a5.691,5.691,0,0,1-5.626,5.754" transform="translate(-243.278 -49.773)" fill="#263238"/>
            <path id="Trazado_259519" data-name="Trazado 259519" d="M549.485,87.5a2.222,2.222,0,0,1-2.443,2.029,2.312,2.312,0,0,1-1.9-2.611,2.222,2.222,0,0,1,2.442-2.029,2.312,2.312,0,0,1,1.9,2.611" transform="translate(-349.131 -61.673)" fill="#fff"/>
          </g>
        </g>
        <g id="Grupo_167858" data-name="Grupo 167858" transform="translate(300.711 173.66)">
          <g id="Grupo_167879" data-name="Grupo 167879">
            <path id="Trazado_259527" data-name="Trazado 259527" d="M561.134,260.185c-4.112.391-7.2,6.773-6.334,10.176.42,1.653,1.319,3.52.055,4.859s-4.08,1.428-5.267,2.787a5.275,5.275,0,0,0-1.185,3.851c.333,2.1.2,4.94-1.432,5.813l8.582,2.384c.8-.936,1.044-2.338,1.843-3.274-.921.987-1.64,4.322,2.862,4.363l2.6-2.657c7.753,1.4,15.925,3.249,21.765-.5" transform="translate(-503.149 -248.448)" fill="#263238"/>
            <path id="Trazado_259528" data-name="Trazado 259528" d="M608.912,267.17a48.009,48.009,0,0,1-2.173-4.544c-1.074-3.449.277-7.567-1.72-10.578-1.421-2.143-4.111-3.01-6.628-3.54s-4.9-.776-6.891-2.406c-1.459-1.194-2.387-2.939-3.842-4.139-2.073-1.709-4.939-2.091-7.625-2.01A16.089,16.089,0,0,0,572.1,242a8.832,8.832,0,0,0-4.388,6.652,26.052,26.052,0,0,1-.1,4.025c-.33,1.443-1.331,2.633-1.889,4a7.078,7.078,0,0,0,2.537,8.288l21.063,22.6c4.093,1.132,8.064-4.254,10.855-7.456s10.416-9.041,8.734-12.942" transform="translate(-510.831 -239.943)" fill="#263238"/>
            <path id="Trazado_259529" data-name="Trazado 259529" d="M570.642,268.973c.271-5.595,3.873-12.507,9.451-12l17.455,4.142a2.891,2.891,0,0,1,2.681,3.129l-.947,42.114.121.024s-3.763,11.894-15.316,8.474c-2.292-.678-3.244.177-3.739-2.38-.5-.157,0-.014-.01-.3-.189-3.15-.43-9.644-.43-9.644-.089-3.385-.109-4.773-.111-4.742,0,0-7.158-1.081-8.774-10.376-.8-4.623-.682-12.223-.382-18.439" transform="translate(-512.998 -247.087)" fill="#ffc09d"/>
            <path id="Trazado_259530" data-name="Trazado 259530" d="M595.534,289.079a1.2,1.2,0,0,0,1.169,1.189,1.143,1.143,0,0,0,1.216-1.1,1.2,1.2,0,0,0-1.169-1.189,1.143,1.143,0,0,0-1.217,1.1" transform="translate(-523.553 -260.127)" fill="#263238"/>
            <path id="Trazado_259531" data-name="Trazado 259531" d="M574.215,289.406a1.2,1.2,0,0,0,1.17,1.189,1.143,1.143,0,0,0,1.216-1.1,1.2,1.2,0,0,0-1.168-1.189,1.143,1.143,0,0,0-1.218,1.1" transform="translate(-514.595 -260.264)" fill="#263238"/>
            <path id="Trazado_259532" data-name="Trazado 259532" d="M573.22,283.8c.148.206,1.189-.594,2.59-.519,1.4.051,2.374.942,2.539.75.081-.085-.061-.449-.484-.851a3.2,3.2,0,0,0-2.017-.844,3.173,3.173,0,0,0-2.077.66c-.455.362-.624.713-.55.8" transform="translate(-514.171 -257.752)" fill="#263238"/>
            <path id="Trazado_259533" data-name="Trazado 259533" d="M595.248,284.037c.182.185,1.2-.7,2.688-.775,1.49-.1,2.623.67,2.776.466.075-.091-.114-.431-.609-.779a3.618,3.618,0,0,0-2.233-.613,3.524,3.524,0,0,0-2.128.859c-.441.4-.582.76-.493.842" transform="translate(-523.422 -257.752)" fill="#263238"/>
            <path id="Trazado_259534" data-name="Trazado 259534" d="M585.362,293.349a8.53,8.53,0,0,0-2.094-.346c-.329-.029-.641-.09-.7-.313a1.668,1.668,0,0,1,.2-.976q.446-1.2.935-2.514a43.032,43.032,0,0,0,2.085-6.571,43.109,43.109,0,0,0-2.609,6.388q-.467,1.324-.894,2.529a1.9,1.9,0,0,0-.151,1.291.824.824,0,0,0,.547.472,2.254,2.254,0,0,0,.559.07,8.365,8.365,0,0,0,2.117-.028" transform="translate(-517.897 -257.877)" fill="#263238"/>
            <path id="Trazado_259535" data-name="Trazado 259535" d="M586.6,324.838a23.706,23.706,0,0,0,12.429-3.511s-3.034,6.868-12.372,6.132Z" transform="translate(-519.798 -274.137)" fill="#ff9b6c"/>
            <path id="Trazado_259536" data-name="Trazado 259536" d="M588.671,305.8a2.317,2.317,0,0,1,2.065-.891,2.114,2.114,0,0,1,1.472.762,1.341,1.341,0,0,1,.125,1.531,1.555,1.555,0,0,1-1.68.451,4.863,4.863,0,0,1-1.658-.957,1.411,1.411,0,0,1-.372-.375.429.429,0,0,1-.005-.479" transform="translate(-520.617 -267.233)" fill="#ff725e"/>
            <path id="Trazado_259537" data-name="Trazado 259537" d="M591.36,302.557c-.209-.009-.191,1.386-1.372,2.395s-2.668.876-2.676,1.072c-.018.088.336.266.964.274a3.473,3.473,0,0,0,2.235-.816,3.027,3.027,0,0,0,1.061-2.006c.045-.584-.117-.928-.212-.918" transform="translate(-520.098 -266.251)" fill="#263238"/>
            <path id="Trazado_259538" data-name="Trazado 259538" d="M594.785,277.026c.132.348,1.413.164,2.924.323,1.515.13,2.737.553,2.933.237.087-.151-.13-.477-.627-.808a5.11,5.11,0,0,0-4.462-.427c-.55.231-.825.51-.768.675" transform="translate(-523.235 -255.103)" fill="#263238"/>
            <path id="Trazado_259539" data-name="Trazado 259539" d="M573.3,275.852c.263.288,1.27-.03,2.488-.061,1.216-.07,2.251.163,2.484-.146.1-.15-.065-.44-.519-.71a3.819,3.819,0,0,0-2.031-.449,3.766,3.766,0,0,0-1.975.616c-.426.307-.562.609-.447.75" transform="translate(-514.196 -254.455)" fill="#263238"/>
            <path id="Trazado_259540" data-name="Trazado 259540" d="M621.223,271.054c-1-1.555.562-3.486-.892-4.881-1.327-1.273-4.563-1.084-5.817-2.388a2.955,2.955,0,0,1-1.143-2.316c-.131-1.271-1.1-6.582-8.992-7.095l-.727,4.944c-.5-.193-1.025-.354-1.538-.5a85.632,85.632,0,0,0-20.07-3.2c-.709,1.453.235,3.256,1.586,4.142a15.511,15.511,0,0,0,4.567,1.56,6.029,6.029,0,0,1,3.942,2.581c.805,1.519.419,3.441,1.147,5,1.252,2.68,5.2,3.22,6.439,5.906.935,2.033-.076,4.38-.178,6.615a8.161,8.161,0,0,0,3.042,6.664c1.569,1.239,4.248,3.5,4.385,3l19.952-14.617c.985-3.023-4.338-3.283-5.7-5.412" transform="translate(-517.783 -246.006)" fill="#263238"/>
            <path id="Trazado_259541" data-name="Trazado 259541" d="M605.685,290.857a6.633,6.633,0,0,1-1.842-.485,8.928,8.928,0,0,1-5.466-6.515,9.172,9.172,0,0,1,.08-4.131c.165-.71.377-1.419.5-2.155a4.884,4.884,0,0,0-.1-2.228,2.776,2.776,0,0,0-1.449-1.684,13.463,13.463,0,0,0-2.308-.794,4.79,4.79,0,0,1-2.213-1.207,4.172,4.172,0,0,1-.964-2.255c-.238-1.571-.083-3.144-.712-4.417l-.117-.232-.147-.211a2.568,2.568,0,0,0-.324-.391,3.541,3.541,0,0,0-.808-.589,7.43,7.43,0,0,0-1.853-.62,13.019,13.019,0,0,1-3.454-1,7.285,7.285,0,0,1-3.4-3.846,6.526,6.526,0,0,1-.358-1.37,3,3,0,0,1-.034-.492,9.233,9.233,0,0,0,.5,1.82,7.385,7.385,0,0,0,1.134,1.885,7.238,7.238,0,0,0,2.255,1.814,13.053,13.053,0,0,0,3.41.947,7.638,7.638,0,0,1,1.923.63,3.808,3.808,0,0,1,.876.63,2.818,2.818,0,0,1,.356.424l.162.23.129.25c.678,1.375.514,2.975.755,4.495a3.885,3.885,0,0,0,.892,2.1,4.512,4.512,0,0,0,2.082,1.123,13.565,13.565,0,0,1,2.36.817,3.451,3.451,0,0,1,1,.769,3.066,3.066,0,0,1,.594,1.091,5.145,5.145,0,0,1,.1,2.363c-.126.761-.344,1.475-.51,2.173a9.016,9.016,0,0,0,1.244,7.258,9.122,9.122,0,0,0,3.916,3.216,10.038,10.038,0,0,0,1.323.462,3.446,3.446,0,0,1,.474.132" transform="translate(-517.325 -246.787)" fill="#263238"/>
            <path id="Trazado_259542" data-name="Trazado 259542" d="M562,260.663a12.934,12.934,0,0,0-1.432-.15,6.719,6.719,0,0,0-3.7,1.02,6.62,6.62,0,0,0-2.995,4.69,12.1,12.1,0,0,0,.119,3.4c.088.591.2,1.187.3,1.8a6.4,6.4,0,0,1,.068,1.92,2.282,2.282,0,0,1-1,1.671,3.9,3.9,0,0,1-1.822.469,6.6,6.6,0,0,0-1.7.268,4.209,4.209,0,0,0-1.4.825,4.117,4.117,0,0,0-1.393,2.616,8.547,8.547,0,0,0,.216,2.667,19.1,19.1,0,0,1,.379,2.226,5.8,5.8,0,0,1-.081,1.711,3.364,3.364,0,0,1-.379,1.013,1.9,1.9,0,0,1-.155.235c-.038.051-.06.075-.064.072a4.59,4.59,0,0,0,.482-1.342,5.948,5.948,0,0,0,.028-1.672,20.409,20.409,0,0,0-.419-2.2,8.626,8.626,0,0,1-.256-2.74,4.358,4.358,0,0,1,1.457-2.795,4.464,4.464,0,0,1,1.492-.889,6.78,6.78,0,0,1,1.773-.291,3.657,3.657,0,0,0,1.685-.427,1.983,1.983,0,0,0,.863-1.463,14.3,14.3,0,0,0-.362-3.634,12.207,12.207,0,0,1-.1-3.484,6.8,6.8,0,0,1,3.158-4.833,6.657,6.657,0,0,1,3.821-.956,6.016,6.016,0,0,1,1.069.154,1.548,1.548,0,0,1,.358.114" transform="translate(-503.062 -248.532)" fill="#263238"/>
            <path id="Trazado_259543" data-name="Trazado 259543" d="M616.107,281.136a.976.976,0,0,1,.041-.148,2.769,2.769,0,0,0,.113-.43,3.765,3.765,0,0,0-.055-1.692,4.177,4.177,0,0,0-1.43-2.227,3.537,3.537,0,0,0-1.5-.7c-.583-.12-1.227-.126-1.887-.3a2.508,2.508,0,0,1-.939-.46,2.481,2.481,0,0,1-.669-.866,5.46,5.46,0,0,1-.436-2.247,12.477,12.477,0,0,0-.147-2.411,3.117,3.117,0,0,0-.478-1.135,2.881,2.881,0,0,0-.948-.829,8.184,8.184,0,0,0-2.573-.717,8.23,8.23,0,0,1-2.735-.791,3.205,3.205,0,0,1-1.091-1,4.563,4.563,0,0,1-.594-1.379c-.261-.972-.336-1.985-.594-2.961a5.791,5.791,0,0,0-3.919-4.015,10.038,10.038,0,0,0-2.785-.259,6.484,6.484,0,0,1-1.381-.155,2.858,2.858,0,0,1-1.227-.608,6,6,0,0,1-1.332-2.229,5.843,5.843,0,0,0-1.352-1.967,6.109,6.109,0,0,0-3.9-1.648,5.53,5.53,0,0,0-3.363.99,6.344,6.344,0,0,0-1.831,1.962,5.8,5.8,0,0,0-.642,1.582c-.057.188-.067.339-.091.437a.813.813,0,0,1-.034.149,4.222,4.222,0,0,1,.088-.594,5.589,5.589,0,0,1,.616-1.61,6.347,6.347,0,0,1,1.834-2.011,5.624,5.624,0,0,1,3.427-1.037,6.235,6.235,0,0,1,4,1.667,5.993,5.993,0,0,1,1.4,2.013,5.881,5.881,0,0,0,1.294,2.165,3.817,3.817,0,0,0,2.5.714,10.174,10.174,0,0,1,2.832.261,5.969,5.969,0,0,1,4.047,4.144c.264,1,.339,2.011.594,2.96a4.391,4.391,0,0,0,.568,1.325,3.016,3.016,0,0,0,1.029.949c1.67.919,3.688.641,5.3,1.516a3.048,3.048,0,0,1,1,.883,3.261,3.261,0,0,1,.5,1.2,12.5,12.5,0,0,1,.141,2.443,5.342,5.342,0,0,0,.411,2.187,2.343,2.343,0,0,0,.626.82,2.376,2.376,0,0,0,.887.439c.635.173,1.28.186,1.875.312a3.643,3.643,0,0,1,1.546.731,4.231,4.231,0,0,1,1.436,2.291,3.7,3.7,0,0,1,.021,1.718,2.367,2.367,0,0,1-.132.429.938.938,0,0,1-.059.141" transform="translate(-516.324 -244.095)" fill="#455a64"/>
            <path id="Trazado_259544" data-name="Trazado 259544" d="M587.707,382.619h45.351l-3.981-9.928s-14.213-38.8-17.155-41.937c-3.856-4.118-10.223-7.42-10.223-7.42l-19.622,9.922s-5.693,16.158-6.45,22.523a45.78,45.78,0,0,0-.308,4.57A19.291,19.291,0,0,0,587.356,378.5Z" transform="translate(-515.058 -274.98)" fill="#e77a97"/>
            <path id="Trazado_259545" data-name="Trazado 259545" d="M577.019,315.262l-2.169,2.383s.338-4.6-.215-5.154-1.288,0-1.288,0a1.679,1.679,0,0,0-1.2-1.1,3.093,3.093,0,0,0-1.932.46s-1.84-1.17-2.852-.493a4.546,4.546,0,0,0-1.38,1.321,4.479,4.479,0,0,0-1.84.92,3.409,3.409,0,0,0-.736.89s-1.1.4-1.1,1.134-1.2,8.1-1.472,10.857-.917,7.029-.917,7.029l11.106-.2s.157-5.74.36-6.432a9.409,9.409,0,0,0,3.379-2.666c1.564-1.933,2.743-4.876,3.585-6.292.505-.85,1.947-3.267,1.951-3.477.012-.663-.739-.867-1.377-.706-.711.179-1.366,1.027-1.9,1.526" transform="translate(-508.589 -269.858)" fill="#ffc09d"/>
            <path id="Trazado_259546" data-name="Trazado 259546" d="M576.894,315.18a3.225,3.225,0,0,1,.245-.27c.165-.174.4-.445.745-.761a2.859,2.859,0,0,1,.647-.452,1.658,1.658,0,0,1,.945-.131,1.032,1.032,0,0,1,.507.217.71.71,0,0,1,.256.539,1.849,1.849,0,0,1-.236.582l-.3.558c-.422.76-.91,1.591-1.438,2.493-.511.9-.977,1.94-1.535,3.016a19.145,19.145,0,0,1-2.042,3.288,9.7,9.7,0,0,1-3.377,2.659l.077-.084a30.627,30.627,0,0,0-.229,3.086c-.037,1.075-.075,2.182-.114,3.313l-.005.136-.135,0-11.106.2-.175,0,.023-.176c.083-.639.173-1.325.263-2.015q.31-2.368.609-4.664c.173-1.538.38-3.041.593-4.507s.425-2.9.63-4.291c.1-.7.2-1.384.278-2.057.027-.177.013-.306.052-.524a1.1,1.1,0,0,1,.28-.5,2.47,2.47,0,0,1,.892-.568l-.081.079a4.5,4.5,0,0,1,1.171-1.257,5.071,5.071,0,0,1,1.5-.63l-.082.061a4.39,4.39,0,0,1,.912-.983,6.355,6.355,0,0,1,.523-.383,1.489,1.489,0,0,1,.642-.212,4.206,4.206,0,0,1,2.327.717h-.122a3.092,3.092,0,0,1,1.921-.482,1.731,1.731,0,0,1,1.364,1.194l-.155-.051a1.237,1.237,0,0,1,1.037-.22.784.784,0,0,1,.43.316.721.721,0,0,1,.1.241,1.3,1.3,0,0,1,.057.237,10.486,10.486,0,0,1,.115,1.77c0,1.109-.061,2.075-.123,2.894l-.1-.045,1.631-1.75.428-.448a1.038,1.038,0,0,1,.153-.145,1.136,1.136,0,0,1-.13.167l-.406.469L574.77,317.6l-.114.128.01-.172c.047-.817.089-1.783.08-2.884a10.352,10.352,0,0,0-.13-1.736,1.156,1.156,0,0,0-.137-.408.6.6,0,0,0-.335-.241,1.05,1.05,0,0,0-.861.2l-.111.077-.045-.128a1.525,1.525,0,0,0-1.2-1.04,2.889,2.889,0,0,0-1.768.463l-.06.035-.062-.035a4,4,0,0,0-2.181-.669,1.251,1.251,0,0,0-.532.176c-.17.113-.338.238-.5.37a4.213,4.213,0,0,0-.848.918l-.03.048-.052.013a4.836,4.836,0,0,0-1.415.6,3.111,3.111,0,0,0-.584.521,3.469,3.469,0,0,0-.479.612l-.033.06-.049.02a2.22,2.22,0,0,0-.783.5.826.826,0,0,0-.212.373c-.024.114-.021.329-.045.491-.075.685-.175,1.371-.273,2.069q-.3,2.09-.619,4.293c-.21,1.466-.416,2.966-.586,4.5q-.3,2.3-.608,4.673c-.09.692-.18,1.379-.264,2.019l-.152-.173,11.106-.187-.14.138c.043-1.132.085-2.24.125-3.317a29.246,29.246,0,0,1,.252-3.147l.009-.053.067-.031a9.52,9.52,0,0,0,3.289-2.568,19.148,19.148,0,0,0,2.038-3.234c.564-1.067,1.037-2.1,1.565-3.01.538-.9,1.033-1.722,1.465-2.475l.309-.552a2.011,2.011,0,0,0,.227-.51.688.688,0,0,0-.646-.644,1.563,1.563,0,0,0-.884.106,2.81,2.81,0,0,0-.635.422c-.683.623-1.025.993-1.044.971" transform="translate(-508.464 -269.776)" fill="#ff9b6c"/>
            <g id="Grupo_167853" data-name="Grupo 167853" transform="translate(64.87 75.366)" opacity="0.3">
              <g id="Grupo_167852" data-name="Grupo 167852">
                <g id="Grupo_167851" data-name="Grupo 167851" clip-path="url(#clip-path-2)">
                  <path id="Trazado_259547" data-name="Trazado 259547" d="M587.256,388.506l-3.986,3.574c5.626.191,10.39-2.6,14.93-5.924s12.929-10.815,14.441-16.237c-7.578,4.24-18.823,12.9-25.385,18.586" transform="translate(-583.27 -369.92)"/>
                </g>
              </g>
            </g>
            <path id="Trazado_259548" data-name="Trazado 259548" d="M482.514,380.253c-.1.016-7.736-.862-9.7-1.045a1.3,1.3,0,0,0-1.363.847c-.129.4-.053.825.651,1.078,1.965.708,8.791,1.558,8.791,1.558s-3.048-.22-3.166.978,1.4,2.008,1.4,2.008-1.015.422-.789,1.3,1.659,1.515,1.659,1.515l.769.32s-1.268-.008-1.288.694A1.705,1.705,0,0,0,480.838,391c.68.155,3.8.8,3.8.8l2.285-5.468-1.738-5.23Z" transform="translate(-471.395 -298.454)" fill="#ffc09d"/>
            <path id="Trazado_259549" data-name="Trazado 259549" d="M509.99,383.311s-10.029,1-10.8.632-8.682-4.508-9.9-4.836-7,.133-7,.133-1.245,1.332,1.523,2.177a20,20,0,0,0,4.135.689l-.685,9.256s4.909,1.946,7.153,1.788l3.129-.9,14.248,2.516Z" transform="translate(-475.853 -298.365)" fill="#ffc09d"/>
            <path id="Trazado_259550" data-name="Trazado 259550" d="M486.617,385.069a12.042,12.042,0,0,0,1.181.518,2.492,2.492,0,0,1,1.038.74,1.15,1.15,0,0,1,.143,1.211,1.6,1.6,0,0,1-1.337.627,6.9,6.9,0,0,1-1.973-.136" transform="translate(-477.392 -300.919)" fill="#ffc09d"/>
            <path id="Trazado_259551" data-name="Trazado 259551" d="M485.669,388.027a9.036,9.036,0,0,1,1.077.038,6.98,6.98,0,0,0,1.145-.07,1.181,1.181,0,0,0,1.012-.663,1.153,1.153,0,0,0-.379-1.143,3.445,3.445,0,0,0-.959-.586,2.559,2.559,0,0,1-.948-.536,8.617,8.617,0,0,1,1.029.338,3.262,3.262,0,0,1,1.067.578,1.4,1.4,0,0,1,.478,1.442,1.116,1.116,0,0,1-.549.631,2.1,2.1,0,0,1-.709.214,5.663,5.663,0,0,1-1.2.009,2.528,2.528,0,0,1-1.065-.251" transform="translate(-477.392 -300.917)" fill="#ff9b6c"/>
            <path id="Trazado_259552" data-name="Trazado 259552" d="M487.932,393.768a15.56,15.56,0,0,0,4.744-.208c.482-.1,1.033-.281,1.188-.747a.984.984,0,0,0-.387-1.031,2.527,2.527,0,0,0-1.085-.417,26.794,26.794,0,0,0-3.618-.384" transform="translate(-478.343 -303.403)" fill="#ffc09d"/>
            <path id="Trazado_259553" data-name="Trazado 259553" d="M488.773,390.959a8.924,8.924,0,0,1,1.795.022,15.714,15.714,0,0,1,1.94.245,2.385,2.385,0,0,1,1.115.464,1.275,1.275,0,0,1,.378.565.929.929,0,0,1-.054.721,1.6,1.6,0,0,1-1.128.682c-.4.082-.778.141-1.145.186a14.147,14.147,0,0,1-1.955.1,11.624,11.624,0,0,1-1.313-.1,1.4,1.4,0,0,1-.473-.1c0-.048.687.016,1.785-.014a17.288,17.288,0,0,0,1.919-.164c.358-.051.736-.116,1.116-.2a1.357,1.357,0,0,0,.927-.534.788.788,0,0,0-.252-.924,2.169,2.169,0,0,0-.976-.415c-.706-.153-1.357-.238-1.9-.3a12.836,12.836,0,0,1-1.775-.234" transform="translate(-478.343 -303.382)" fill="#ff9b6c"/>
            <path id="Trazado_259554" data-name="Trazado 259554" d="M490.086,396.131a4.3,4.3,0,0,1,.985-.09,1.437,1.437,0,0,1,.9.353.877.877,0,0,1,.253.9,1.232,1.232,0,0,1-.816.652,8,8,0,0,1-2.884.257" transform="translate(-478.593 -305.527)" fill="#ffc09d"/>
            <path id="Trazado_259555" data-name="Trazado 259555" d="M488.529,398.132a4.056,4.056,0,0,1,1.018-.09,8.764,8.764,0,0,0,1.081-.117,3.161,3.161,0,0,0,1.2-.426.665.665,0,0,0,.292-.474.774.774,0,0,0-.157-.512,1.276,1.276,0,0,0-.872-.437c-.6-.05-1,.038-1-.019a2,2,0,0,1,1.022-.194,1.435,1.435,0,0,1,1.074.479,1.032,1.032,0,0,1,.233.705.948.948,0,0,1-.406.692,3.141,3.141,0,0,1-1.337.46,6.472,6.472,0,0,1-1.123.056,3.042,3.042,0,0,1-1.021-.123" transform="translate(-478.594 -305.455)" fill="#ff9b6c"/>
            <path id="Trazado_259556" data-name="Trazado 259556" d="M482.174,379.759c.033,0-.029.225,0,.613a1.271,1.271,0,0,0,.261.629,1.729,1.729,0,0,0,.775.481,9.6,9.6,0,0,0,1.132.284,11.89,11.89,0,0,0,1.326.273c.946.136,2.006.229,3.122.306l.117.008.023.126c.041.227.061.473.124.713a8.089,8.089,0,0,0,1.4,3.013,11.022,11.022,0,0,0,1.909,1.972c1.231.982,2.141,1.378,2.113,1.43a2.723,2.723,0,0,1-.64-.263,10.687,10.687,0,0,1-1.6-1,10.464,10.464,0,0,1-2-1.974,8.106,8.106,0,0,1-1.474-3.115c-.064-.251-.086-.508-.128-.745l.14.133c-1.126-.081-2.187-.184-3.145-.339a11.355,11.355,0,0,1-1.338-.3,8.894,8.894,0,0,1-1.15-.328,1.853,1.853,0,0,1-.829-.572,1.336,1.336,0,0,1-.245-.72,1.754,1.754,0,0,1,.056-.467c.026-.1.043-.156.053-.154" transform="translate(-475.878 -298.688)" fill="#ff9b6c"/>
            <path id="Trazado_259557" data-name="Trazado 259557" d="M546.082,381.183l-23.935,2.652,1.063,13.855,28.926,1.632Z" transform="translate(-492.719 -299.286)" fill="#e77a97"/>
            <g id="Grupo_167856" data-name="Grupo 167856" transform="translate(46.767 82.063)" opacity="0.3">
              <g id="Grupo_167855" data-name="Grupo 167855">
                <g id="Grupo_167854" data-name="Grupo 167854" clip-path="url(#clip-path-3)">
                  <path id="Trazado_259558" data-name="Trazado 259558" d="M563.322,395.2l-1.973-7.485a10.167,10.167,0,0,0-1.38-3.448c-.731-1.009-2.218-2.982-3.448-2.78l-4.473.551c.157,2.335.427,4.786.648,7.138a12.38,12.38,0,0,0,2.392,6.566,7.5,7.5,0,0,0,6.13,2.982,2.567,2.567,0,0,0,2.054-.95,3.231,3.231,0,0,0,.05-2.573" transform="translate(-552.049 -381.469)"/>
                </g>
              </g>
            </g>
            <path id="Trazado_259559" data-name="Trazado 259559" d="M602.288,352.114c-2.067,5.535-25.124,21.266-25.124,21.266s-7.18,4.568-11.35,4.654c-5.388.11-9.825-4.491-9.853-9.073-.035-5.884-.259-28.629-.259-28.629l14.937-.684v16.6s11.4-11.146,14.091-14.2c5.228-5.931,10.5-11.323,14.9-9.442" transform="translate(-506.817 -278.716)" fill="#e77a97"/>
            <path id="Trazado_259560" data-name="Trazado 259560" d="M599.526,332.586s-.234-.061-.678-.2a4.738,4.738,0,0,0-.851-.129,2.519,2.519,0,0,0-.553,0,3.645,3.645,0,0,0-.629.06c-1.8.26-4.142,1.673-6.6,3.962-1.242,1.14-2.537,2.489-3.9,4l-2.119,2.37q-1.122,1.214-2.359,2.477c-3.29,3.375-7.066,7.122-11.208,11.194l-.219.216v-.308c0-5.082-.009-10.691-.015-16.6l.15.144-14.936.69.143-.151c.028,2.988.057,6.146.086,9.348.049,5.493.1,10.855.143,16.034q.008.972.017,1.934c.01.639-.007,1.287.049,1.9a8.33,8.33,0,0,0,1.151,3.495,10.023,10.023,0,0,0,5.508,4.4,9.2,9.2,0,0,0,3.422.417,13.552,13.552,0,0,0,3.288-.8,40.22,40.22,0,0,0,5.9-2.794,27,27,0,0,0,2.631-1.649l2.46-1.724q2.4-1.7,4.58-3.3a147.271,147.271,0,0,0,13.248-10.7,27.008,27.008,0,0,0,3.124-3.4,6.026,6.026,0,0,0,.391-.577,3.061,3.061,0,0,0,.25-.437c.118-.243.187-.366.187-.366a5.545,5.545,0,0,1-.778,1.415,25.777,25.777,0,0,1-3.093,3.453,141.447,141.447,0,0,1-13.2,10.783q-2.169,1.608-4.571,3.322l-2.457,1.732a27.223,27.223,0,0,1-2.646,1.669A40.388,40.388,0,0,1,569.5,377.3a13.81,13.81,0,0,1-3.356.819,9.457,9.457,0,0,1-3.528-.423,10.3,10.3,0,0,1-5.673-4.522,8.619,8.619,0,0,1-1.193-3.615c-.059-.652-.041-1.283-.053-1.926s-.012-1.286-.018-1.933c-.048-5.179-.1-10.541-.148-16.033-.029-3.2-.057-6.36-.084-9.348v-.145l.144-.006,14.937-.678.15-.007v.15c-.005,5.912-.01,11.521-.015,16.6l-.22-.093c4.151-4.062,7.937-7.8,11.238-11.157q1.239-1.259,2.365-2.463l2.13-2.359c1.375-1.5,2.682-2.849,3.937-3.986,2.486-2.282,4.865-3.69,6.694-3.93a3.761,3.761,0,0,1,.639-.05,2.55,2.55,0,0,1,.559.006,4.665,4.665,0,0,1,.857.15c.444.15.668.237.668.237" transform="translate(-506.708 -278.697)" fill="#263238"/>
            <path id="Trazado_259561" data-name="Trazado 259561" d="M562.164,386.112a1.723,1.723,0,0,1,.174-.486c.128-.306.332-.739.6-1.268a36.581,36.581,0,0,1,5.211-7.628c.395-.441.725-.79.963-1.02s.375-.353.39-.339a16.017,16.017,0,0,1-1.19,1.5c-.746.913-1.746,2.2-2.761,3.681s-1.846,2.884-2.424,3.91a15.864,15.864,0,0,1-.962,1.654" transform="translate(-509.531 -296.844)" fill="#ff725e"/>
            <path id="Trazado_259562" data-name="Trazado 259562" d="M689.062,334.091h0a4.014,4.014,0,0,0-4.792,3.044L673.293,387.1l8.027.018,10.786-48.232a4.015,4.015,0,0,0-3.044-4.792" transform="translate(-556.224 -279.459)" fill="#263238"/>
            <path id="Trazado_259563" data-name="Trazado 259563" d="M585.479,322.119a9.008,9.008,0,0,1-.266,3.273,9,9,0,0,1,.266-3.273" transform="translate(-519.188 -274.47)" fill="#ff9b6c"/>
            <path id="Trazado_259564" data-name="Trazado 259564" d="M581.262,383.494a7.7,7.7,0,0,1-.106-1.506c-.027-.925-.045-2.2-.045-3.608s.017-2.682.044-3.6a7.393,7.393,0,0,1,.107-1.494,7.392,7.392,0,0,1,.107,1.5c.027.925.044,2.205.044,3.618s-.017,2.69-.045,3.613a7.261,7.261,0,0,1-.106,1.485" transform="translate(-517.493 -295.966)" fill="#263238"/>
          </g>
        </g>
        <g id="Grupo_167866" data-name="Grupo 167866" transform="translate(82.875 96.297)">
          <g id="Grupo_167877" data-name="Grupo 167877">
            <path id="Trazado_259565" data-name="Trazado 259565" d="M339.171,257.687l2.592-1.584s3.393-3.021,4.316-3.68a21.153,21.153,0,0,1,4.99-2.223c.5.041,5.4-.268,6.564-.811s2.421-1.254,2.421-1.254a1.789,1.789,0,0,1,.126,2.1c-.7,1.205-4.279,3.48-4.279,3.48l1.343,8.757s-3.334,2.63-5.412,2.8-4.077-.237-4.664-.053-2.047.7-2.047.7Z" transform="translate(-217.449 -166.023)" fill="#ffc09d"/>
            <path id="Trazado_259566" data-name="Trazado 259566" d="M355.161,254.669l22.748-15.089,1.291,1.9L356.663,256.5Z" transform="translate(-224.168 -162.428)" fill="#263238"/>
            <path id="Trazado_259567" data-name="Trazado 259567" d="M369.01,257.356a1.548,1.548,0,0,1,.82,2.3c-.929,1.588-2.109,1.092-2.109,1.092a2.367,2.367,0,0,1-1.537,2.641,2.95,2.95,0,0,1-1.148,2.644l-1.106.572-.7-1.361s-4.163-.38-4.79-2.038l-.031-.86a1.236,1.236,0,0,1-.677-1.218c.135-.808.08-.825,1.647-1.36a15.811,15.811,0,0,1,4.887-.179s-1.782-.681-1.751-1.6.74-1.508,2.654-1.374a19.012,19.012,0,0,1,3.845.747" transform="translate(-225.24 -169.575)" fill="#ffc09d"/>
            <path id="Trazado_259568" data-name="Trazado 259568" d="M368.9,257.288a6.742,6.742,0,0,1-.688-.153c-.447-.1-1.1-.252-1.949-.376a13.728,13.728,0,0,0-1.4-.135,3.872,3.872,0,0,0-1.6.212,1.179,1.179,0,0,0-.617.553,1.016,1.016,0,0,0-.046.844,1.915,1.915,0,0,0,.673.678,5.087,5.087,0,0,0,.931.483l.8.321-.858-.07a18.374,18.374,0,0,0-4.087.016,5.229,5.229,0,0,0-1.049.279,4.112,4.112,0,0,0-.991.438.639.639,0,0,0-.2.422l-.048.284a1.011,1.011,0,0,0-.005.251,1.134,1.134,0,0,0,.6.8l.08.044,0,.085c.01.272.02.565.031.86l-.01-.048.1.192a2.424,2.424,0,0,0,.937.8,6.619,6.619,0,0,0,1.182.473,13.794,13.794,0,0,0,2.44.487l.081.009.036.07.7,1.363-.191-.061,1.107-.569-.017.01a2.786,2.786,0,0,0,1.1-2.515l-.008-.092.079-.038a2.714,2.714,0,0,0,1.238-1.069,2.139,2.139,0,0,0,.252-1.433l-.033-.183.174.063a1.375,1.375,0,0,0,1.075-.1,2.224,2.224,0,0,0,.754-.678,2.669,2.669,0,0,0,.4-.794,1.269,1.269,0,0,0-.028-.726,1.713,1.713,0,0,0-.647-.793c-.2-.139-.314-.193-.309-.2a.959.959,0,0,1,.342.154,1.7,1.7,0,0,1,.721.8,1.381,1.381,0,0,1,.057.8,2.769,2.769,0,0,1-.406.856,2.381,2.381,0,0,1-.8.749,1.556,1.556,0,0,1-1.242.124l.141-.121a2.336,2.336,0,0,1-.253,1.6,2.943,2.943,0,0,1-1.332,1.183l.071-.13a3.281,3.281,0,0,1-.208,1.5,2.856,2.856,0,0,1-.985,1.272l-.007.005-.01,0-1.1.576-.126.065-.066-.126-.709-1.359.117.078a13.875,13.875,0,0,1-2.5-.49,6.869,6.869,0,0,1-1.236-.493,2.7,2.7,0,0,1-1.055-.906l-.126-.24-.009-.016v-.032c-.01-.295-.02-.588-.03-.86l.083.129a1.427,1.427,0,0,1-.765-1.035,1.318,1.318,0,0,1,.008-.335l.05-.292a.934.934,0,0,1,.3-.595,4.13,4.13,0,0,1,1.085-.487,5.489,5.489,0,0,1,1.1-.288,18.226,18.226,0,0,1,4.16.01l-.061.252a5.382,5.382,0,0,1-.978-.52,2.127,2.127,0,0,1-.749-.784,1.32,1.32,0,0,1,.795-1.695,4.005,4.005,0,0,1,1.694-.2,13.012,13.012,0,0,1,1.42.169,17.559,17.559,0,0,1,1.945.448c.221.064.389.119.5.159a.581.581,0,0,1,.166.072" transform="translate(-225.133 -169.507)" fill="#ff9b6c"/>
            <path id="Trazado_259569" data-name="Trazado 259569" d="M366.181,267.32a13.778,13.778,0,0,0-7.327-1.114,3.063,3.063,0,0,1,1.085-.27,9.622,9.622,0,0,1,5.286.8,3.068,3.068,0,0,1,.956.58" transform="translate(-225.719 -173.467)" fill="#ff9b6c"/>
            <path id="Trazado_259570" data-name="Trazado 259570" d="M372.029,263.038c-.05.064-.818-.441-1.909-.734-1.082-.314-2.007-.377-2-.466a4.026,4.026,0,0,1,2.087.176,3.314,3.314,0,0,1,1.826,1.025" transform="translate(-229.611 -171.752)" fill="#ff9b6c"/>
            <path id="Trazado_259571" data-name="Trazado 259571" d="M203.475,109.73a3.907,3.907,0,0,1,4.016-2.069,5.34,5.34,0,0,1,6.577-.01,4.75,4.75,0,0,1,7.245,3.735,3.968,3.968,0,0,1,3.6,6.615,3.815,3.815,0,0,1-1.454,7.451l-19.184-11.276a3.906,3.906,0,0,1-.8-4.446" transform="translate(-160.28 -106.523)" fill="#263238"/>
            <path id="Trazado_259572" data-name="Trazado 259572" d="M217.522,129.524a16.185,16.185,0,0,0-16.438-14.549l-.838.017c-9.025.714-13.46,8.778-12.5,17.78l1.929,30.063,1.317,3.759,15.548,19.483,3.919-17.551.075-8.149s8.659-1.53,8.587-10.217c-.035-4.2-.809-12.83-1.6-20.635" transform="translate(-153.773 -110.073)" fill="#ffc09d"/>
            <path id="Trazado_259573" data-name="Trazado 259573" d="M218.887,191.036a21.042,21.042,0,0,1-11.367-3.123s2.79,6.212,11.357,5.278Z" transform="translate(-162.135 -140.72)" fill="#ff9b6c"/>
            <path id="Trazado_259574" data-name="Trazado 259574" d="M233.344,153.236a1.24,1.24,0,0,1-1.17,1.276,1.187,1.187,0,0,1-1.3-1.092,1.241,1.241,0,0,1,1.168-1.277,1.187,1.187,0,0,1,1.3,1.092" transform="translate(-171.946 -125.689)" fill="#263238"/>
            <path id="Trazado_259575" data-name="Trazado 259575" d="M232.751,147.312c-.15.165-1.1-.511-2.439-.48-1.334.012-2.3.718-2.447.558-.072-.071.078-.366.5-.685a3.4,3.4,0,0,1,1.955-.647,3.27,3.27,0,0,1,1.946.584c.417.307.562.6.487.67" transform="translate(-170.676 -123.134)" fill="#263238"/>
            <path id="Trazado_259576" data-name="Trazado 259576" d="M213.637,154.627a1.24,1.24,0,0,1-1.17,1.276,1.187,1.187,0,0,1-1.3-1.092,1.242,1.242,0,0,1,1.169-1.277,1.187,1.187,0,0,1,1.3,1.093" transform="translate(-163.665 -126.274)" fill="#263238"/>
            <path id="Trazado_259577" data-name="Trazado 259577" d="M210.725,147.445c-.151.165-1.106-.511-2.439-.48-1.333.012-2.3.718-2.447.558-.072-.071.077-.366.5-.685a3.406,3.406,0,0,1,1.955-.647,3.274,3.274,0,0,1,1.946.584c.416.306.561.6.488.67" transform="translate(-161.421 -123.189)" fill="#263238"/>
            <path id="Trazado_259578" data-name="Trazado 259578" d="M221.592,157.209a8.8,8.8,0,0,1,2.159-.436c.34-.042.662-.117.714-.35a1.739,1.739,0,0,0-.249-1.005q-.505-1.227-1.061-2.574a44.674,44.674,0,0,1-2.4-6.741,44.641,44.641,0,0,1,2.94,6.532q.533,1.356,1.019,2.591a1.974,1.974,0,0,1,.2,1.334.856.856,0,0,1-.55.51,2.3,2.3,0,0,1-.578.092,8.708,8.708,0,0,1-2.2.049" transform="translate(-167.689 -123.152)" fill="#263238"/>
            <path id="Trazado_259579" data-name="Trazado 259579" d="M215.322,166.989c.217-.017.249,1.432,1.51,2.434s2.8.812,2.816,1.014c.022.09-.338.288-.99.319a3.609,3.609,0,0,1-2.348-.764,3.143,3.143,0,0,1-1.174-2.043c-.068-.6.086-.967.186-.96" transform="translate(-165.328 -131.928)" fill="#263238"/>
            <path id="Trazado_259580" data-name="Trazado 259580" d="M210.244,140.88c-.151.35-1.308.063-2.7.114-1.4.02-2.553.366-2.7.024-.066-.164.161-.484.645-.789a4.177,4.177,0,0,1,2.061-.589,4,4,0,0,1,2.059.484c.484.28.71.589.643.756" transform="translate(-161.003 -120.437)" fill="#263238"/>
            <path id="Trazado_259581" data-name="Trazado 259581" d="M232.356,141.082c-.2.326-1.149.107-2.251.206-1.105.06-2.011.412-2.257.118-.11-.143.005-.46.383-.788a3.274,3.274,0,0,1,3.633-.262c.42.27.58.568.492.725" transform="translate(-170.659 -120.558)" fill="#263238"/>
            <path id="Trazado_259582" data-name="Trazado 259582" d="M215.09,124.777s-2.4-5.392-5.052-6.607c-3.207-1.471-4.5,2.042-7.545,1.258s-6.1-2.2-9.149.208c-3.332,2.63-1.709,4.393-1.839,8.251-.526,15.641-3.288,20.118-4.251,12.776-.106-.8-2.356-1.4-2.758-4.8-.521-4.409-.8-9.768.119-12.923.777-2.66,2.246-4.516,4.905-6.584,4.2-3.264,10.055-3.454,14.041-3.135s11.749,4.737,11.527,11.555" transform="translate(-152.259 -109.291)" fill="#263238"/>
            <path id="Trazado_259583" data-name="Trazado 259583" d="M186.327,158.58a2.358,2.358,0,0,0-2.592-2.22c-1.617.188-3.4,1.145-3.224,4.49.312,5.934,6.2,4.4,6.207,4.225,0-.116-.238-4.014-.39-6.5" transform="translate(-150.781 -127.456)" fill="#ffc09d"/>
            <path id="Trazado_259584" data-name="Trazado 259584" d="M186.786,164.309c-.027-.017-.1.078-.27.167a1.033,1.033,0,0,1-.772.056,2.559,2.559,0,0,1-1.3-2.232,3.412,3.412,0,0,1,.212-1.495,1.194,1.194,0,0,1,.736-.834.527.527,0,0,1,.624.251c.089.162.057.282.089.291s.122-.107.061-.349a.66.66,0,0,0-.253-.359.778.778,0,0,0-.579-.121,1.453,1.453,0,0,0-1.032.976,3.513,3.513,0,0,0-.271,1.673,2.686,2.686,0,0,0,1.643,2.483,1.109,1.109,0,0,0,.937-.206c.176-.157.2-.29.179-.3" transform="translate(-152.259 -128.854)" fill="#ff9b6c"/>
            <path id="Trazado_259585" data-name="Trazado 259585" d="M186.127,127.438a5.64,5.64,0,0,0,2.539,1.109,1.937,1.937,0,0,0,2.12-1.406c.061-.415-.049-.892.216-1.218.317-.387.917-.281,1.416-.238a3.792,3.792,0,0,0,3.878-2.8,1.59,1.59,0,0,0,2.138.157,8.519,8.519,0,0,0,1.581-1.763,2.443,2.443,0,0,1,2.017-1.062,5.868,5.868,0,0,0,1.3.258c.779-.085,1.141-1.007,1.242-1.783s.176-1.681.827-2.115a3.111,3.111,0,0,1,2.122-.1c.72.091,1.643-.1,1.813-.8a1.411,1.411,0,0,0-.288-1.072,3.847,3.847,0,0,0-4.57-1.363,5.213,5.213,0,0,0-9.6-.812,5.291,5.291,0,0,0-8.416,2.1,3.835,3.835,0,0,0-4.208,5.666,3.642,3.642,0,0,0-1.943,2.941,2.085,2.085,0,0,0,2.4,2.082,2.124,2.124,0,0,0,3.716,2.042" transform="translate(-150.703 -107.82)" fill="#263238"/>
            <path id="Trazado_259586" data-name="Trazado 259586" d="M183.694,136.522a1.423,1.423,0,0,0,.393,1.134,1.912,1.912,0,0,0,1.2.685,2.059,2.059,0,0,0,1.683-.527l-.252-.032a5.954,5.954,0,0,0,1.216,1.457,3.416,3.416,0,0,0,1.1.65,2.636,2.636,0,0,0,2.89-.931,3.426,3.426,0,0,0,.455-1.245,1.163,1.163,0,0,0,.036-.481c-.026-.005-.072.159-.165.449a4.019,4.019,0,0,1-.525,1.141,2.422,2.422,0,0,1-3.567.157A5.977,5.977,0,0,1,187,137.612l-.108-.172-.144.14a1.8,1.8,0,0,1-1.422.485,1.75,1.75,0,0,1-1.087-.544,2.882,2.882,0,0,1-.546-1" transform="translate(-152.117 -119.127)" fill="#455a64"/>
            <path id="Trazado_259587" data-name="Trazado 259587" d="M202.574,111.019c0,.021.156.038.423.146a2.038,2.038,0,0,1,.938.765l.074.112.08-.112a7.385,7.385,0,0,1,2.823-2.384,5.768,5.768,0,0,1,2.327-.561,4.82,4.82,0,0,1,2.529.667,4.894,4.894,0,0,1,1.526,1.388,4.02,4.02,0,0,1,.69,1.777l.023.187.179-.053a3.331,3.331,0,0,1,2.474.249,3.252,3.252,0,0,1,1.38,1.419,4.448,4.448,0,0,1,.406,1.751,1.205,1.205,0,0,0,.061-.487,3.3,3.3,0,0,0-.3-1.346,3.376,3.376,0,0,0-1.426-1.568,3.564,3.564,0,0,0-2.69-.319l.2.134a4.292,4.292,0,0,0-.728-1.934,5.162,5.162,0,0,0-1.63-1.493,5.086,5.086,0,0,0-2.709-.7,5.957,5.957,0,0,0-2.449.622,7.226,7.226,0,0,0-2.847,2.55h.153a2.015,2.015,0,0,0-1.059-.753.892.892,0,0,0-.456-.053" transform="translate(-160.057 -107.417)" fill="#455a64"/>
            <path id="Trazado_259588" data-name="Trazado 259588" d="M169.562,391.786l.209-31.223,4.393-11.39.006-3.073,49.622-.833v3.58l5.7,14.156.3,28.782H201.129l-2.394-13-.553,13Z" transform="translate(-146.187 -206.834)" fill="#263238"/>
            <path id="Trazado_259589" data-name="Trazado 259589" d="M187.172,193.337l10.357,8.113,6.559,8.328,2.4-8.634,1.718-6.771,2.821,2.8,7.149,15.224,8.041,73.586s-14.026,4.109-21.291,4.606-18.842-1.494-18.842-1.494V250.376l-4.123-38.343,4.974-14.693Z" transform="translate(-151.396 -142.999)" fill="#f5f5f5"/>
            <path id="Trazado_259590" data-name="Trazado 259590" d="M224.044,302.272a1.035,1.035,0,0,1-.02-.206c-.008-.152-.017-.353-.03-.606-.02-.551-.049-1.334-.085-2.331-.069-2.043-.168-4.969-.289-8.575-.251-7.24-.649-17.24-1.219-28.278s-1.209-21.031-1.707-28.258c-.251-3.6-.455-6.519-.6-8.558-.067-1-.119-1.777-.156-2.327-.014-.253-.025-.454-.033-.606a1.057,1.057,0,0,1,0-.207,1.006,1.006,0,0,1,.032.2c.016.151.037.351.063.6.05.549.122,1.328.213,2.323.18,2.018.418,4.94.693,8.553.552,7.224,1.222,17.213,1.8,28.258s.934,21.044,1.131,28.288c.1,3.621.164,6.553.193,8.579.012,1,.022,1.781.028,2.333v.607a1.047,1.047,0,0,1-.01.207" transform="translate(-167.338 -155.175)" fill="#263238"/>
            <path id="Trazado_259591" data-name="Trazado 259591" d="M172.221,198.037l-2.4,3.3L150.21,211.661l10.916,33.29,2.94,18.671L153.04,307.977s13.379,4.6,14.555,3.133a61.319,61.319,0,0,0,3.36-7.3,78.245,78.245,0,0,0,5.617-21.783c.819-7.551,1.57-17.177,1.021-23.7-1.029-12.2-2.646-32.344-2.793-37.637s-1.083-25.276-1.083-25.276Z" transform="translate(-138.055 -143.873)" fill="#a3314f"/>
            <path id="Trazado_259592" data-name="Trazado 259592" d="M229.614,196.554l6.491,3.79,21.013,6.905-1.682,14.863-.964,38.46,6.616,46.164s-7.057,2.5-9.85,1.471-6.616-7.351-6.763-11.174-5.587-40.871-5.587-40.871l-5.293-49.84Z" transform="translate(-171.418 -144.35)" fill="#a3314f"/>
            <path id="Trazado_259593" data-name="Trazado 259593" d="M241.5,203.054a2.351,2.351,0,0,1,.264.3l.726.89,2.7,3.378.057.072-.074.056-2.286,1.735-.032-.188,2.682.849.085.027v.089c-.052,4.781-.115,10.8-.185,17.326-.117,7.965-.221,15.173-.3,20.42-.052,2.594-.1,4.7-.125,6.188-.021.711-.038,1.273-.049,1.682-.009.177-.015.321-.02.437a.075.075,0,1,1-.031,0c0-.116-.006-.26-.009-.437,0-.409,0-.971-.008-1.683.007-1.486.017-3.594.029-6.189.054-5.248.128-12.456.209-20.421.093-6.526.178-12.545.246-17.326l.083.116-2.675-.873-.2-.065.168-.124,2.306-1.708-.017.129-2.631-3.431-.689-.919a2.332,2.332,0,0,1-.224-.327" transform="translate(-176.411 -147.081)" fill="#263238"/>
            <path id="Trazado_259594" data-name="Trazado 259594" d="M189.612,253.532a.6.6,0,0,1-.056-.144l-.14-.429-.535-1.647c-.469-1.429-1.166-3.492-2.06-6.029-.454-1.269-.95-2.655-1.482-4.143a49.847,49.847,0,0,1-1.508-4.832,109.273,109.273,0,0,1-2.107-11.391c-.728-5.3-1.2-10.3-1.484-14.6l0-.061.044-.042,2.311-2.229.012.183-2.192-1.668-.085-.065.063-.086,3.957-5.365,1.088-1.45.29-.372a.61.61,0,0,1,.107-.121.623.623,0,0,1-.081.139l-.265.39-1.042,1.483c-.929,1.3-2.251,3.147-3.878,5.422l-.023-.15,2.206,1.648.113.084-.1.1-2.3,2.245.039-.1c.311,4.288.8,9.281,1.522,14.571a113.529,113.529,0,0,0,2.078,11.364q.66,2.581,1.473,4.816l1.448,4.157c.869,2.548,1.535,4.622,1.97,6.063.218.721.378,1.283.481,1.666.045.178.082.321.111.437a.548.548,0,0,1,.027.152" transform="translate(-150.672 -145.398)" fill="#263238"/>
            <g id="Grupo_167861" data-name="Grupo 167861" transform="translate(22.097 128.241)" opacity="0.3">
              <g id="Grupo_167860" data-name="Grupo 167860">
                <g id="Grupo_167859" data-name="Grupo 167859" clip-path="url(#clip-path-4)">
                  <path id="Trazado_259595" data-name="Trazado 259595" d="M167.357,335.044l11.41,4.475.761-2.543,3.876,3.545.7-6.162-3.577-6.671-12.33,3.995Z" transform="translate(-167.357 -327.689)"/>
                </g>
              </g>
            </g>
            <path id="Trazado_259596" data-name="Trazado 259596" d="M213.457,329.722l-4.631-2.81-4.068-3.687a10.268,10.268,0,0,0,3.165,1.722,2.613,2.613,0,0,0,2.982-1.115s-1.668-1.053-2.24-1.371-6.346-4.624-7.808-4.942-11.115-2.287-11.115-2.287l-.154.5-4.771,10.17,4.24,1.138a28.261,28.261,0,0,1,2.161,3.56c.954,1.907,5.58,3.787,7.362,4.722s3.794-.7,3.794-.7c2.046.469,2.552-1.73,2.552-1.73,2.352-.318,2.552-2.879,2.552-2.879a56.054,56.054,0,0,0,5.586,1.887.8.8,0,0,0,.97-.51,1.354,1.354,0,0,0-.579-1.665" transform="translate(-152.596 -194.214)" fill="#ffc09d"/>
            <path id="Trazado_259597" data-name="Trazado 259597" d="M220.2,338.585a11.715,11.715,0,0,1-2.7-1.212,8.525,8.525,0,0,1-2.406-1.728c.052-.065,1.128.688,2.552,1.464a19.2,19.2,0,0,1,2.552,1.477" transform="translate(-165.317 -202.789)" fill="#ff9b6c"/>
            <path id="Trazado_259598" data-name="Trazado 259598" d="M210.957,340.063a12.235,12.235,0,0,1,2.661,1.577,24.923,24.923,0,0,1,2.5,1.805,11.736,11.736,0,0,1-2.675-1.556,22.853,22.853,0,0,1-2.49-1.826" transform="translate(-163.579 -204.644)" fill="#ff9b6c"/>
            <path id="Trazado_259599" data-name="Trazado 259599" d="M207.785,343.453c.056-.055.947.69,2.145,1.494a11.938,11.938,0,0,1,2.094,1.581,11.131,11.131,0,0,1-2.265-1.332,6.884,6.884,0,0,1-1.973-1.742" transform="translate(-162.245 -206.07)" fill="#ff9b6c"/>
            <path id="Trazado_259600" data-name="Trazado 259600" d="M209.836,322.014a2.606,2.606,0,0,1,1.032.223,7.884,7.884,0,0,1,2.224,1.243,10.432,10.432,0,0,1,1.787,1.809,3.048,3.048,0,0,1,.562.89c-.081.065-1.007-1.255-2.534-2.461a13.962,13.962,0,0,0-3.069-1.7" transform="translate(-163.108 -197.059)" fill="#ff9b6c"/>
            <path id="Trazado_259601" data-name="Trazado 259601" d="M131.3,279.233a4.345,4.345,0,0,1-2.042-3.535,39.493,39.493,0,0,1,.348-6.023c.815-6.79,11.929-46.215,11.929-46.215l11.176,30.724-3.838,13.377,19.557,9.364-5.445,15.367S137,282.781,131.3,279.233" transform="translate(-129.248 -155.655)" fill="#a3314f"/>
            <path id="Trazado_259602" data-name="Trazado 259602" d="M273.077,215l17.949,34.126.482.7,19.575-9.992,6.447,13.04-26.34,15.993a6.569,6.569,0,0,1-8.823-1.985l-11.641-17.375L267.6,235.227Z" transform="translate(-187.376 -152.101)" fill="#a3314f"/>
            <path id="Trazado_259603" data-name="Trazado 259603" d="M272.887,231.788a2.309,2.309,0,0,1,.035.43c.01.311.024.722.041,1.234.02,1.1.048,2.646.082,4.538.049,3.832.069,9.126.013,14.973s-.179,11.142-.3,14.973c-.071,1.89-.129,3.431-.17,4.535-.027.511-.049.921-.065,1.232a2.3,2.3,0,0,1-.043.429,2.308,2.308,0,0,1-.018-.431c0-.311,0-.721.008-1.234.018-1.1.043-2.646.074-4.537.068-3.831.157-9.123.213-14.97s.07-11.138.075-14.969c.006-1.891.01-3.433.013-4.538.006-.513.012-.923.016-1.234a2.3,2.3,0,0,1,.026-.431" transform="translate(-189.421 -159.154)" fill="#263238"/>
            <path id="Trazado_259604" data-name="Trazado 259604" d="M157.917,238.178a1.657,1.657,0,0,1,.124.344l.3,1c.259.911.614,2.167,1.05,3.7.873,3.131,2.07,7.459,3.286,12.268s2.178,9.2,2.784,12.4c.3,1.6.532,2.893.67,3.792.064.424.115.767.155,1.035a1.667,1.667,0,0,1,.034.365,1.656,1.656,0,0,1-.094-.354c-.054-.266-.125-.605-.21-1.025-.188-.928-.447-2.206-.764-3.77-.659-3.182-1.654-7.558-2.868-12.365s-2.38-9.142-3.2-12.287c-.4-1.546-.721-2.81-.957-3.728l-.244-1.018a1.682,1.682,0,0,1-.066-.36" transform="translate(-141.293 -161.839)" fill="#263238"/>
            <path id="Trazado_259605" data-name="Trazado 259605" d="M143.965,313.924a.5.5,0,0,1,.127.037l.366.13,1.408.528,5.256,2.019,18.105,7.053-.189.086,3.647-10.311,1.793-5.057.076.184-19.331-9.332.014.006a11.207,11.207,0,0,0-7.944.336,14.386,14.386,0,0,0-1.961,1.032l-.483.318a1,1,0,0,1-.17.1.866.866,0,0,1,.152-.126l.467-.344a12.924,12.924,0,0,1,1.948-1.088,11.266,11.266,0,0,1,3.409-.919,11.545,11.545,0,0,1,4.647.487l.006,0,.008,0,19.367,9.255.121.058-.045.127c-.582,1.643-1.181,3.337-1.791,5.059-1.28,3.608-2.517,7.091-3.658,10.307l-.05.141-.139-.055-18.066-7.153-5.225-2.1-1.391-.572-.357-.154a.5.5,0,0,1-.118-.06" transform="translate(-135.432 -187.19)" fill="#263238"/>
            <path id="Trazado_259606" data-name="Trazado 259606" d="M308.022,274.46a4.5,4.5,0,0,1,.048,1.343,20.864,20.864,0,0,1-.454,3.206c-.259,1.236-.522,2.343-.7,3.147a6.75,6.75,0,0,1-.33,1.3,5.27,5.27,0,0,1,.12-1.336c.122-.819.355-1.939.612-3.169s.448-2.347.537-3.162a8.6,8.6,0,0,1,.165-1.326" transform="translate(-203.753 -177.083)" fill="#263238"/>
            <path id="Trazado_259607" data-name="Trazado 259607" d="M307.487,275.882a14.073,14.073,0,0,1-.946,3.1,23,23,0,0,1-1.23,2.994,14.08,14.08,0,0,1,.947-3.1,23.112,23.112,0,0,1,1.229-2.994" transform="translate(-203.218 -177.681)" fill="#263238"/>
            <path id="Trazado_259608" data-name="Trazado 259608" d="M207.537,213.831a4.055,4.055,0,0,1-.551-.5l-1.458-1.45-4.924-5.031.213-.008a6.352,6.352,0,0,0-1.392,4.282l.02.34-.262-.212c-2.49-2.019-4.508-4-6.018-5.351-.749-.682-1.356-1.225-1.778-1.593a5.786,5.786,0,0,1-.64-.59,4.727,4.727,0,0,1,.709.506c.445.343,1.073.863,1.841,1.527,1.546,1.313,3.6,3.271,6.071,5.266l-.242.128a6.222,6.222,0,0,1,.125-1.661,6.29,6.29,0,0,1,1.345-2.835l.1-.121.109.114,4.849,5.105,1.4,1.51a4.1,4.1,0,0,1,.48.57" transform="translate(-155.088 -147.361)" fill="#263238"/>
            <path id="Trazado_259609" data-name="Trazado 259609" d="M226.6,202.184a1.692,1.692,0,0,1,.024.464c0,.3-.017.739-.06,1.291a27.123,27.123,0,0,1-.73,4.44l-.091.365-.173-.336a10.844,10.844,0,0,0-1.908-2.633c-.218-.221-.443-.431-.662-.62l.244-.082a41.19,41.19,0,0,1-1.781,5.881c-.282.724-.531,1.3-.712,1.689a2.906,2.906,0,0,1-.311.592,3.124,3.124,0,0,1,.208-.635c.167-.459.375-1.033.623-1.716a51.038,51.038,0,0,0,1.679-5.876l.054-.245.191.163c.226.194.458.409.682.637a10.733,10.733,0,0,1,1.945,2.717l-.263.029a33.077,33.077,0,0,0,.831-4.387c.132-1.092.173-1.74.209-1.738" transform="translate(-167.562 -146.716)" fill="#263238"/>
            <path id="Trazado_259610" data-name="Trazado 259610" d="M261.864,335.12l1.752,5.446,9.921-.917-3.093-5.2Z" transform="translate(-184.968 -202.287)" fill="#e77a97"/>
            <path id="Trazado_259611" data-name="Trazado 259611" d="M261.863,335.016a4.733,4.733,0,0,1,.591-.075l1.737-.172c1.5-.144,3.666-.348,6.241-.562l.084-.007.044.073,3.106,5.2.123.205-.238.023-.51.047-9.414.837-.1.008-.028-.089c-.533-1.7-.947-3.089-1.229-4.035l-.318-1.084a2.214,2.214,0,0,1-.093-.364,3.656,3.656,0,0,1,.152.4l.383,1.1,1.328,3.916-.123-.081,9.408-.9.51-.047-.116.227-3.081-5.211.128.066c-2.511.186-4.636.318-6.153.411l-1.778.1c-.417.023-.647.031-.66.023" transform="translate(-184.967 -202.184)" fill="#263238"/>
            <rect id="Rectángulo_53426" data-name="Rectángulo 53426" width="10.66" height="3.439" transform="translate(70.723 89.641)" fill="#e77a97"/>
            <path id="Trazado_259612" data-name="Trazado 259612" d="M261.768,264.438a1.4,1.4,0,0,1-.02-.252c-.007-.189-.014-.415-.024-.687-.013-.629-.031-1.468-.053-2.5l.1.1c-2.539.032-6.376.053-10.659.053l.151-.151h0v.886q0,.44,0,.872c0,.575,0,1.136,0,1.68l-.147-.147c3.036.008,5.678.039,7.58.068l2.243.041a8.117,8.117,0,0,1,.837.038,6,6,0,0,1-.769.038l-2.21.041c-1.894.028-4.582.06-7.681.067h-.146v-.147c0-.544,0-1.106,0-1.68q0-.431,0-.872V261h0l.151-.151c4.283,0,8.12.021,10.659.053l.1,0,0,.1c-.022,1.058-.04,1.916-.053,2.559a7.59,7.59,0,0,1-.045.88" transform="translate(-180.386 -171.358)" fill="#263238"/>
            <g id="Grupo_167864" data-name="Grupo 167864" transform="translate(68.527 63.177)" opacity="0.3">
              <g id="Grupo_167863" data-name="Grupo 167863">
                <g id="Grupo_167862" data-name="Grupo 167862" clip-path="url(#clip-path-5)">
                  <path id="Trazado_259613" data-name="Trazado 259613" d="M247.99,215.478l1.637,2.257s-.458,34.223-2.2,42.721Z" transform="translate(-247.431 -215.478)"/>
                </g>
              </g>
            </g>
          </g>
        </g>
        <g id="Grupo_167871" data-name="Grupo 167871" transform="translate(8.013 158.18)">
          <g id="Grupo_167878" data-name="Grupo 167878">
            <path id="Trazado_259614" data-name="Trazado 259614" d="M75.356,238.524a15.933,15.933,0,0,0-14.533-15.993L60,222.459c-8.907-.264-14.109,7.153-14.127,16.064L43.91,269.848l-.887,6.4L63.49,281.5l1.736-13.528s8.637-.573,9.494-9.081c.414-4.109.578-12.641.637-20.364" transform="translate(-26.089 -217.115)" fill="#b56760"/>
            <path id="Trazado_259615" data-name="Trazado 259615" d="M73.559,297.86a20.742,20.742,0,0,1-10.873-4.252s1.941,6.552,10.509,6.535Z" transform="translate(-34.351 -247.012)" fill="#8a4a43"/>
            <path id="Trazado_259616" data-name="Trazado 259616" d="M91.287,262.918a1.221,1.221,0,0,1-1.281,1.124,1.168,1.168,0,0,1-1.157-1.207,1.221,1.221,0,0,1,1.28-1.125,1.169,1.169,0,0,1,1.159,1.208" transform="translate(-45.343 -233.609)" fill="#263238"/>
            <path id="Trazado_259617" data-name="Trazado 259617" d="M91.512,255.991c-.165.146-1.026-.618-2.336-.731-1.306-.13-2.326.458-2.454.285-.064-.077.115-.35.56-.618a3.355,3.355,0,0,1,1.982-.424,3.219,3.219,0,0,1,1.842.779c.375.344.486.644.405.708" transform="translate(-44.445 -230.575)" fill="#263238"/>
            <path id="Trazado_259618" data-name="Trazado 259618" d="M70.436,261.9a1.22,1.22,0,0,1-1.281,1.123A1.167,1.167,0,0,1,68,261.816a1.222,1.222,0,0,1,1.28-1.124,1.169,1.169,0,0,1,1.158,1.208" transform="translate(-36.582 -233.181)" fill="#263238"/>
            <path id="Trazado_259619" data-name="Trazado 259619" d="M69.285,254.452c-.165.146-1.027-.618-2.336-.73-1.306-.13-2.326.458-2.454.285-.063-.077.114-.35.561-.618a3.347,3.347,0,0,1,1.982-.424,3.219,3.219,0,0,1,1.842.779c.374.344.486.644.406.708" transform="translate(-35.106 -229.929)" fill="#263238"/>
            <path id="Trazado_259620" data-name="Trazado 259620" d="M79.479,265.064a8.67,8.67,0,0,1,2.16-.2c.337,0,.659-.043.736-.267a1.708,1.708,0,0,0-.136-1.011q-.364-1.254-.764-2.632a43.933,43.933,0,0,1-1.632-6.854,44,44,0,0,1,2.18,6.706q.377,1.385.721,2.644a1.942,1.942,0,0,1,.057,1.327.84.84,0,0,1-.593.44,2.284,2.284,0,0,1-.575.029,8.559,8.559,0,0,1-2.155-.187" transform="translate(-41.407 -230.414)" fill="#263238"/>
            <path id="Trazado_259621" data-name="Trazado 259621" d="M72.492,273.981c.214.006.092,1.428,1.218,2.543s2.653,1.093,2.647,1.292c.012.091-.361.246-1,.208a3.556,3.556,0,0,1-2.217-1,3.1,3.1,0,0,1-.93-2.125c0-.6.188-.936.284-.92" transform="translate(-38.352 -238.765)" fill="#263238"/>
            <path id="Trazado_259622" data-name="Trazado 259622" d="M69.763,245.857c-.161.344-1.452.06-3,.11-1.553.018-2.831.358-3.007.021-.077-.161.168-.477.7-.777a5.227,5.227,0,0,1,4.58-.1c.544.277.8.582.732.746" transform="translate(-34.793 -226.434)" fill="#263238"/>
            <path id="Trazado_259623" data-name="Trazado 259623" d="M91.524,249.334c-.257.277-1.131-.111-2.214-.221-1.08-.148-2.021.023-2.2-.307-.079-.159.092-.444.518-.69a3.222,3.222,0,0,1,3.56.426c.356.339.455.657.34.793" transform="translate(-44.603 -227.75)" fill="#263238"/>
            <path id="Trazado_259624" data-name="Trazado 259624" d="M44.728,262.9a2.321,2.321,0,0,0-2.3-2.449c-1.6.011-3.449.757-3.634,4.049-.328,5.84,5.6,4.965,5.622,4.8.013-.113.2-3.953.312-6.4" transform="translate(-24.307 -233.081)" fill="#b56760"/>
            <path id="Trazado_259625" data-name="Trazado 259625" d="M44.717,268.4c-.024-.02-.106.066-.282.135a1.016,1.016,0,0,1-.761-.027,2.522,2.522,0,0,1-1.038-2.324A3.364,3.364,0,0,1,43,264.748a1.177,1.177,0,0,1,.809-.738.519.519,0,0,1,.584.313c.07.168.026.282.056.294s.13-.091.1-.335a.648.648,0,0,0-.209-.379.766.766,0,0,0-.554-.18,1.431,1.431,0,0,0-1.113.845,3.455,3.455,0,0,0-.444,1.608,2.644,2.644,0,0,0,1.342,2.605,1.091,1.091,0,0,0,.939-.1c.189-.134.227-.263.208-.275" transform="translate(-25.755 -234.455)" fill="#8a4a43"/>
            <path id="Trazado_259626" data-name="Trazado 259626" d="M42.2,236.467c.208,1.723-.408,4.429,1.125,4.3,3.04-.262,1.368,5.61,2.866,5.252,1.476-.354,2.975-1.86,3.658-5.529.868-4.658-.466-8.339,2.245-13.4a7.178,7.178,0,0,1,6.505-2.71,7.3,7.3,0,0,1,5.67,4.292c.527-1.589,1.72-3.921,3.3-4.471a4.271,4.271,0,0,1,4.584,1.139,3.475,3.475,0,0,1-.116,4.564,1.661,1.661,0,0,0,1.943-.362,2.835,2.835,0,0,1-1.07,1.983,2.614,2.614,0,0,0,1.649-.792l-.764,1.955c2.452.465,5.248-1.528,6.276-3.539a11.111,11.111,0,0,0-.048-9.574,10.251,10.251,0,0,0-7.607-6.208,7.879,7.879,0,0,0-8.281,3.53c-1.941-1.908-6.3-3.165-8.922-2.45a7.99,7.99,0,0,0-5.506,5.524,4.766,4.766,0,0,0-4.8.148q-.183.1-.357.22a7.111,7.111,0,0,0-3.09,6.146c.027.966.194,1.988.263,2.771.205,2.325.477,7.211.477,7.211" transform="translate(-25.432 -213.247)" fill="#263238"/>
            <path id="Trazado_259627" data-name="Trazado 259627" d="M90.971,234.6a.926.926,0,0,0,.221-.124,3.558,3.558,0,0,0,.57-.453,4.987,4.987,0,0,0,1.361-2.289,4.73,4.73,0,0,0-.549-3.87,5.1,5.1,0,0,0-4.123-2.371,5.776,5.776,0,0,0-2.478.535A7.732,7.732,0,0,0,84,227.317a9.221,9.221,0,0,0-2.327,3.2,9.043,9.043,0,0,0-.712,2.572c-.029.314-.048.558-.045.725a.935.935,0,0,0,.012.253,10.955,10.955,0,0,1,.911-3.474,9.258,9.258,0,0,1,2.318-3.1,6.514,6.514,0,0,1,4.287-1.748,4.9,4.9,0,0,1,3.928,2.242,4.579,4.579,0,0,1,.573,3.695,5.1,5.1,0,0,1-1.256,2.265c-.434.445-.737.624-.721.647" transform="translate(-42.011 -218.391)" fill="#455a64"/>
            <path id="Trazado_259628" data-name="Trazado 259628" d="M91.142,236.149a1.629,1.629,0,0,0,.22-.252c.137-.171.336-.424.585-.757a18.017,18.017,0,0,0,1.872-2.988,9.312,9.312,0,0,0,.765-2.325,6.763,6.763,0,0,0-.056-2.814,5.388,5.388,0,0,0-1.591-2.667,6.543,6.543,0,0,0-2.958-1.542,7.961,7.961,0,0,0-3.336-.008,10.38,10.38,0,0,0-2.91,1.085,8.065,8.065,0,0,0-3.594,3.745,5.861,5.861,0,0,0-.391,3.484,4.784,4.784,0,0,0,.293.917,1.592,1.592,0,0,0,.16.295,7.865,7.865,0,0,1-.354-1.23A5.914,5.914,0,0,1,80.3,227.7a7.955,7.955,0,0,1,3.542-3.611,8.851,8.851,0,0,1,6.075-1.034,6.326,6.326,0,0,1,2.845,1.476,5.169,5.169,0,0,1,1.532,2.54,6.613,6.613,0,0,1,.076,2.719,9.293,9.293,0,0,1-.72,2.285,19.929,19.929,0,0,1-1.788,3.006l-.546.785a1.658,1.658,0,0,0-.178.283" transform="translate(-41.473 -217.187)" fill="#455a64"/>
            <path id="Trazado_259629" data-name="Trazado 259629" d="M45.456,239.327c.036-.032-.46-.517-1.025-1.462a8.541,8.541,0,0,1-.358-8.194c.48-.99.932-1.516.893-1.545a1.564,1.564,0,0,0-.333.354,7.172,7.172,0,0,0-.722,1.109,8.224,8.224,0,0,0,.366,8.372A7.124,7.124,0,0,0,45.094,239a1.585,1.585,0,0,0,.362.323" transform="translate(-26.054 -219.499)" fill="#455a64"/>
            <path id="Trazado_259630" data-name="Trazado 259630" d="M53,241.276c.014-.023-.267-.175-.671-.56a4.231,4.231,0,0,1-1.167-1.982l-.153-.589-.043.608c-.058.821-.126,1.767-.2,2.793l.206-.082a7.65,7.65,0,0,1-2.375-5.383,7.752,7.752,0,0,1,.455-2.7,10.565,10.565,0,0,1,1.2-2.246c-.007-.006-.052.037-.132.123a4.9,4.9,0,0,0-.327.4,7.22,7.22,0,0,0-.911,1.662,7.631,7.631,0,0,0,1.924,8.326l.191.177.014-.26c.056-1.026.108-1.974.154-2.8l-.2.02a4.142,4.142,0,0,0,1.285,2.014,3.535,3.535,0,0,0,.536.381.662.662,0,0,0,.21.1" transform="translate(-28.331 -220.763)" fill="#455a64"/>
            <path id="Trazado_259631" data-name="Trazado 259631" d="M62.5,226.5a5.535,5.535,0,0,1,1.6-1.444,4.95,4.95,0,0,1,2.225-.627,5.221,5.221,0,0,1,2.728.7,6.038,6.038,0,0,1,2.065,1.944,7.191,7.191,0,0,1,.934,2.145,14.024,14.024,0,0,1,.293,2.162,2.109,2.109,0,0,0,.053-.591,7.306,7.306,0,0,0-.169-1.612,6.984,6.984,0,0,0-.911-2.232,6.1,6.1,0,0,0-2.137-2.039,5.334,5.334,0,0,0-2.865-.713,4.957,4.957,0,0,0-2.308.707,4.327,4.327,0,0,0-1.21,1.086,2.861,2.861,0,0,0-.238.373c-.048.089-.068.137-.061.142" transform="translate(-34.273 -217.845)" fill="#455a64"/>
            <path id="Trazado_259632" data-name="Trazado 259632" d="M66.05,220.576a8.133,8.133,0,0,1,1.686-.354,5.828,5.828,0,0,1,3.858,1.2,7.27,7.27,0,0,1,2.326,3.361c.347,1.011.4,1.682.451,1.675a1.506,1.506,0,0,0-.014-.472,7.279,7.279,0,0,0-2.6-4.768,5.738,5.738,0,0,0-4.031-1.176,4.394,4.394,0,0,0-1.255.311,1.377,1.377,0,0,0-.416.225" transform="translate(-35.764 -216.089)" fill="#455a64"/>
            <path id="Trazado_259633" data-name="Trazado 259633" d="M35.675,300.736a29.079,29.079,0,0,0-7.595,12.942c-2.448,9.831,6.537,57.285,6.537,57.285l47.423-.068L71.873,333.35S60.109,310.4,59.938,309.887s-.575-5.416-.575-5.416l-21.7-8.924Z" transform="translate(-19.634 -247.826)" fill="#727997"/>
            <path id="Trazado_259634" data-name="Trazado 259634" d="M196.783,387.517c-.453-1-3.713-2.87-3.713-2.87-.272-1-1.9-1.945-1.9-1.945a6.164,6.164,0,0,0-2.087-1.27c-1.27-.453-12.663.9-12.663.9l-8.507.593.485,11.2c0,.272,7.983-2.9,7.983-2.9s3.357.817,6.35,1.361,8.774-1.6,8.774-1.6l2.215,2.145a6.746,6.746,0,0,1,.687,3.02c0,.907,1.148,1.734,1.873,1.1s.214-3.783.214-3.783a1.3,1.3,0,0,0,1.251-.18c.593-.429-.514-4.774-.967-5.772" transform="translate(-78.565 -283.873)" fill="#b56760"/>
            <path id="Trazado_259635" data-name="Trazado 259635" d="M208.851,392.595a2.091,2.091,0,0,1,1.286.088,4.629,4.629,0,0,1,2.414,1.947,8.958,8.958,0,0,1,1.1,2.9,4.8,4.8,0,0,1,.183,1.266,6.117,6.117,0,0,1-.39-1.214,10.73,10.73,0,0,0-1.15-2.789,4.819,4.819,0,0,0-2.23-1.907,8.335,8.335,0,0,0-1.215-.289" transform="translate(-95.764 -288.578)" fill="#8a4a43"/>
            <g id="Grupo_167869" data-name="Grupo 167869" transform="translate(16.934 83.044)" opacity="0.3">
              <g id="Grupo_167868" data-name="Grupo 167868">
                <g id="Grupo_167867" data-name="Grupo 167867" clip-path="url(#clip-path-6)">
                  <path id="Trazado_259636" data-name="Trazado 259636" d="M43.023,356.467S64.971,379.913,73.407,384.5c9.1,4.945,13.088,4.8,13.088,4.8l-1.414-6.477Z" transform="translate(-43.023 -356.467)" fill="#636363"/>
                </g>
              </g>
            </g>
            <path id="Trazado_259637" data-name="Trazado 259637" d="M121.641,353.554l-36.557-4.37s-22.15-27.247-27.828-31.466-15.195-2.812-18.172,0a11.461,11.461,0,0,0-2.99,5.506,18.172,18.172,0,0,0,.742,11.175l1.193,3.055c.649.486,35.126,31.533,44.049,32.182s40.258-1.865,40.258-1.865Z" transform="translate(-22.944 -256.023)" fill="#727997"/>
            <path id="Trazado_259638" data-name="Trazado 259638" d="M65.747,313.646a6.6,6.6,0,0,1-.99-.251c-.631-.182-1.539-.464-2.649-.849-2.225-.756-5.254-1.92-8.576-3.257s-6.324-2.562-8.511-3.409l-2.592-1a6.584,6.584,0,0,1-.943-.389,6.577,6.577,0,0,1,.982.278c.626.2,1.526.5,2.629.907,2.209.8,5.226,1.991,8.548,3.328s6.334,2.53,8.535,3.336c1.1.409,1.995.722,2.614.938a6.616,6.616,0,0,1,.954.363" transform="translate(-25.443 -251.585)" fill="#263238"/>
            <path id="Trazado_259639" data-name="Trazado 259639" d="M53.153,315.129c-.009.027-.4-.1-1.123-.264a17.1,17.1,0,0,0-3.1-.451,15.8,15.8,0,0,0-4.6.408,14.021,14.021,0,0,0-2.568.9,13.676,13.676,0,0,0-2.483,1.539,10.9,10.9,0,0,0-3.465,4.374,15.106,15.106,0,0,0-1.128,4.471,29.542,29.542,0,0,0-.152,3.132c0,.343,0,.625,0,.855a1.129,1.129,0,0,1-.019.3,1.125,1.125,0,0,1-.042-.3c-.016-.23-.036-.513-.06-.855a23.87,23.87,0,0,1,.057-3.156,14.781,14.781,0,0,1,1.085-4.56,11.021,11.021,0,0,1,3.535-4.5,13.727,13.727,0,0,1,2.541-1.568,14.044,14.044,0,0,1,2.629-.908,15.441,15.441,0,0,1,4.675-.351,15.179,15.179,0,0,1,3.11.55c.362.093.632.2.818.262a1.116,1.116,0,0,1,.277.116" transform="translate(-22.465 -255.646)" fill="#263238"/>
            <path id="Trazado_259640" data-name="Trazado 259640" d="M59.061,319.647s.206.157.6.475c.194.161.44.355.721.6l.938.888c1.417,1.348,3.4,3.421,5.858,6.145,4.918,5.439,11.746,13.433,19.813,23.278l-.082-.045,36.569,4.535.125.016.006.125c.221,4.5.452,9.22.688,14.027l.008.147-.146.012-1.126.088c-6.477.5-12.805.928-18.921,1.277-3.059.165-6.063.326-9.008.431s-5.83.2-8.649.15c-.7.005-1.406-.045-2.1-.072-.175-.01-.347-.01-.522-.03l-.524-.085a6.01,6.01,0,0,1-1.015-.257,21.635,21.635,0,0,1-3.721-1.662,73.312,73.312,0,0,1-6.581-4.124c-4.119-2.852-7.809-5.709-11.145-8.353-6.657-5.309-11.879-9.806-15.471-12.928l-4.113-3.622-1.062-.951c-.238-.216-.358-.328-.358-.328s.134.1.379.3l1.081.928,4.15,3.579c3.615,3.094,8.856,7.565,15.526,12.849,3.342,2.633,7.037,5.477,11.154,8.314a73.241,73.241,0,0,0,6.565,4.1,21.429,21.429,0,0,0,3.675,1.636,14.1,14.1,0,0,0,4.087.426c2.808.042,5.691-.051,8.633-.159s5.946-.271,9-.438c6.113-.353,12.44-.785,18.915-1.283l1.125-.088-.139.158c-.234-4.807-.464-9.528-.684-14.027l.13.14-36.563-4.582-.05-.006-.032-.039c-8.042-9.858-14.842-17.876-19.725-23.34-2.436-2.736-4.406-4.824-5.8-6.187l-.925-.9-.707-.612c-.381-.328-.572-.506-.572-.506" transform="translate(-24.75 -257.952)" fill="#263238"/>
            <path id="Trazado_259641" data-name="Trazado 259641" d="M117.978,379.949a12.677,12.677,0,0,1,1.764-5.87c.081.038-.471,1.3-.953,2.914s-.723,2.968-.811,2.956" transform="translate(-57.573 -280.822)" fill="#263238"/>
            <path id="Trazado_259642" data-name="Trazado 259642" d="M17.833,326.785h0a4.015,4.015,0,0,0-4.014,4.014v53.339h8.028V330.8a4.014,4.014,0,0,0-4.014-4.014" transform="translate(-13.819 -260.951)" fill="#263238"/>
          </g>
        </g>
        <path id="Trazado_259643" data-name="Trazado 259643" d="M408.559,369.98H381.1l7.512,24h28.522Z" transform="translate(-144.104 -120.92)" fill="#fff"/>
        <g id="Grupo_167873" data-name="Grupo 167873">
          <g id="Grupo_167872" data-name="Grupo 167872" clip-path="url(#clip-path)">
            <path id="Trazado_259644" data-name="Trazado 259644" d="M375.77,369.98c-.527.363-8.628,27.35-8.628,27.35h17.345Z" transform="translate(-140.17 -125.458)" fill="#e0e0e0"/>
            <path id="Trazado_259645" data-name="Trazado 259645" d="M419.388,397.243a.552.552,0,0,1-.056-.127l-.141-.383-.526-1.5-1.929-5.636L410.1,369.947l.142.107-14.566.011-14.711-.011.143-.213,6.216,19.7c.748,2.41,1.344,4.328,1.759,5.665q.292.968.457,1.512c.045.161.082.289.111.392a.069.069,0,1,1-.024.009l-.135-.383-.5-1.5-1.841-5.635c-1.561-4.851-3.757-11.675-6.326-19.659l-.069-.213h.211l14.711-.011,14.566.011h.106l.036.107,6.521,19.7,1.849,5.667q.308.969.48,1.513c.048.161.087.289.117.392a.56.56,0,0,1,.032.136" transform="translate(-145.369 -125.37)" fill="#263238"/>
            <path id="Trazado_259646" data-name="Trazado 259646" d="M399.747,397.331c-.084.03-2.1-6.068-4.51-13.619s-4.29-13.7-4.206-13.731,2.1,6.066,4.51,13.62,4.29,13.7,4.206,13.73" transform="translate(-149.289 -125.458)" fill="#263238"/>
            <path id="Trazado_259647" data-name="Trazado 259647" d="M409.68,397.331c-.084.03-2.1-6.068-4.51-13.619s-4.29-13.7-4.206-13.731,2.1,6.066,4.51,13.62,4.29,13.7,4.206,13.73" transform="translate(-153.082 -125.458)" fill="#263238"/>
            <path id="Trazado_259648" data-name="Trazado 259648" d="M419.612,397.331c-.084.03-2.1-6.068-4.51-13.619s-4.29-13.7-4.206-13.731,2.1,6.066,4.51,13.62,4.29,13.7,4.206,13.73" transform="translate(-156.874 -125.458)" fill="#263238"/>
            <path id="Trazado_259649" data-name="Trazado 259649" d="M429.544,397.331c-.084.03-2.1-6.068-4.51-13.619s-4.29-13.7-4.206-13.731,2.1,6.066,4.51,13.62,4.29,13.7,4.206,13.73" transform="translate(-160.666 -125.458)" fill="#263238"/>
            <path id="Trazado_259650" data-name="Trazado 259650" d="M388.7,374.062a10.6,10.6,0,0,1-3.8,0,10.6,10.6,0,0,1,3.8,0" transform="translate(-146.95 -126.784)" fill="#263238"/>
            <path id="Trazado_259651" data-name="Trazado 259651" d="M398.322,374.062a10.6,10.6,0,0,1-3.8,0,10.6,10.6,0,0,1,3.8,0" transform="translate(-150.623 -126.784)" fill="#263238"/>
            <path id="Trazado_259652" data-name="Trazado 259652" d="M407.85,374.062a10.6,10.6,0,0,1-3.8,0,10.6,10.6,0,0,1,3.8,0" transform="translate(-154.261 -126.784)" fill="#263238"/>
            <path id="Trazado_259653" data-name="Trazado 259653" d="M426.191,374.062a6.142,6.142,0,0,1-2.885,0,6.142,6.142,0,0,1,2.885,0" transform="translate(-161.613 -126.784)" fill="#263238"/>
            <path id="Trazado_259654" data-name="Trazado 259654" d="M418.072,374.062a10.6,10.6,0,0,1-3.8,0,10.6,10.6,0,0,1,3.8,0" transform="translate(-158.163 -126.784)" fill="#263238"/>
            <path id="Trazado_259655" data-name="Trazado 259655" d="M412.543,377.027c0,.1-6.5.172-14.511.172s-14.513-.077-14.513-.172,6.5-.172,14.513-.172,14.511.077,14.511.172" transform="translate(-146.423 -127.789)" fill="#263238"/>
            <path id="Trazado_259656" data-name="Trazado 259656" d="M414.572,382.6c0,.1-6.5.172-14.511.172s-14.513-.077-14.513-.172,6.5-.172,14.513-.172,14.511.077,14.511.172" transform="translate(-147.197 -129.679)" fill="#263238"/>
            <path id="Trazado_259657" data-name="Trazado 259657" d="M416.383,388.846c0,.1-6.5.172-14.511.172s-14.513-.077-14.513-.172,6.5-.172,14.513-.172,14.511.077,14.511.172" transform="translate(-147.889 -131.797)" fill="#263238"/>
            <path id="Trazado_259658" data-name="Trazado 259658" d="M418.764,395.089c0,.1-6.5.172-14.511.172s-14.513-.077-14.513-.172,6.5-.172,14.513-.172,14.511.077,14.511.172" transform="translate(-148.798 -133.914)" fill="#263238"/>
            <path id="Trazado_259659" data-name="Trazado 259659" d="M420.613,401.332c0,.1-6.5.172-14.511.172s-14.513-.077-14.513-.172,6.5-.172,14.513-.172,14.511.077,14.511.172" transform="translate(-149.504 -136.031)" fill="#263238"/>
            <path id="Trazado_259660" data-name="Trazado 259660" d="M409.635,387.294a.768.768,0,0,1,.263-.029c.172-.007.427-.011.754,0a6.351,6.351,0,0,1,2.732.587,3.727,3.727,0,0,1,1.469,1.379,2.8,2.8,0,0,1,.294,2.373,3.178,3.178,0,0,1-1.792,1.832,4.675,4.675,0,0,1-2.651.168,8.72,8.72,0,0,1-2.514-.873,3.812,3.812,0,0,1-1.741-1.885,2.758,2.758,0,0,1,.073-2.392,2.692,2.692,0,0,1,1.6-1.211,3.6,3.6,0,0,1,1.605-.085,6.7,6.7,0,0,1,1.168.3c.313.108.55.206.71.274a.842.842,0,0,1,.239.122,7.5,7.5,0,0,1-.984-.268,4.67,4.67,0,0,0-2.676-.111,2.485,2.485,0,0,0-1.432,1.124,2.457,2.457,0,0,0-.03,2.119,3.521,3.521,0,0,0,1.616,1.714,8.606,8.606,0,0,0,2.423.832,4.419,4.419,0,0,0,2.482-.144,2.876,2.876,0,0,0,1.628-1.629,2.5,2.5,0,0,0-.243-2.109,3.539,3.539,0,0,0-1.345-1.313,6.719,6.719,0,0,0-2.637-.671,7.17,7.17,0,0,1-1.011-.1" transform="translate(-155.088 -131.264)" fill="#ff725e"/>
            <path id="Trazado_259661" data-name="Trazado 259661" d="M407.562,393.321a7.848,7.848,0,0,1,1.039-1.2l2.617-2.777,2.613-2.782a7.758,7.758,0,0,1,1.131-1.105,7.379,7.379,0,0,1-.967,1.273c-.631.753-1.528,1.77-2.551,2.858s-1.979,2.04-2.687,2.71a7.046,7.046,0,0,1-1.2,1.026" transform="translate(-155.601 -130.704)" fill="#ff725e"/>
            <path id="Trazado_259662" data-name="Trazado 259662" d="M416.861,393.226a10.084,10.084,0,0,1-1.575-.991c-.951-.649-2.254-1.567-3.681-2.6s-2.71-1.981-3.629-2.682a10.353,10.353,0,0,1-1.448-1.193,10.274,10.274,0,0,1,1.579.993c.951.65,2.252,1.566,3.678,2.6s2.706,1.978,3.625,2.679a10.5,10.5,0,0,1,1.452,1.195" transform="translate(-155.207 -130.808)" fill="#ff725e"/>
            <path id="Trazado_259663" data-name="Trazado 259663" d="M408.947,379.093a4.938,4.938,0,0,1-3.246-.178,19.223,19.223,0,0,1,3.246.178" transform="translate(-154.891 -128.471)" fill="#ff725e"/>
            <path id="Trazado_259664" data-name="Trazado 259664" d="M409.491,380.548c.006.1-.5.208-1.122.252s-1.137,0-1.143-.091.5-.208,1.122-.252,1.137,0,1.143.091" transform="translate(-155.474 -129.004)" fill="#ff725e"/>
            <path id="Trazado_259665" data-name="Trazado 259665" d="M419.214,379.434c.008.093-.515.221-1.17.222s-1.179-.121-1.172-.214.53-.127,1.17-.13,1.163.026,1.171.122" transform="translate(-159.157 -128.622)" fill="#ff725e"/>
            <path id="Trazado_259666" data-name="Trazado 259666" d="M430.758,384.7c.006.095-.335.2-.762.232s-.779-.016-.786-.111.335-.2.762-.232.78.017.786.111" transform="translate(-163.867 -130.409)" fill="#ff725e"/>
            <path id="Trazado_259667" data-name="Trazado 259667" d="M401.935,385.837a3.84,3.84,0,0,1-2.831-.079,13.759,13.759,0,0,1,2.831.079" transform="translate(-152.373 -130.787)" fill="#ff725e"/>
            <path id="Trazado_259668" data-name="Trazado 259668" d="M394.141,392.642c0,.1-.508.2-1.144.233s-1.155-.017-1.159-.112.508-.2,1.144-.232,1.155.016,1.159.111" transform="translate(-149.599 -133.101)" fill="#ff725e"/>
            <path id="Trazado_259669" data-name="Trazado 259669" d="M409.225,405.432c.014.094-.49.26-1.125.371s-1.163.126-1.178.032.49-.26,1.125-.372,1.163-.126,1.178-.032" transform="translate(-155.358 -137.458)" fill="#ff725e"/>
            <path id="Trazado_259670" data-name="Trazado 259670" d="M417.006,399.449a5.416,5.416,0,0,1-3.247-.077,13.9,13.9,0,0,1,3.247.077" transform="translate(-157.968 -135.4)" fill="#ff725e"/>
            <path id="Trazado_259671" data-name="Trazado 259671" d="M427.939,398.389c.006.095-.54.208-1.217.251s-1.232,0-1.237-.093.54-.208,1.218-.251,1.231,0,1.236.093" transform="translate(-162.445 -135.054)" fill="#ff725e"/>
            <path id="Trazado_259672" data-name="Trazado 259672" d="M375.769,369.98c.084.03-1.779,6.178-4.161,13.73s-4.383,13.651-4.467,13.621,1.779-6.176,4.162-13.731,4.382-13.65,4.467-13.619" transform="translate(-140.169 -125.458)" fill="#263238"/>
            <path id="Trazado_259673" data-name="Trazado 259673" d="M423.5,407.336c0,.1-6.5.172-14.511.172s-14.513-.077-14.513-.172,6.5-.172,14.513-.172,14.511.077,14.511.172" transform="translate(-150.605 -138.067)" fill="#263238"/>
            <path id="Trazado_259674" data-name="Trazado 259674" d="M238.66,346.582l-.294-.067a1.163,1.163,0,0,0-1.377.947l-8.106,39.412H188.635a1.244,1.244,0,0,0,0,2.483h42.189l8.725-41.287a1.245,1.245,0,0,0-.89-1.488" transform="translate(-71.575 -117.491)" fill="#e0e0e0"/>
            <path id="Trazado_259675" data-name="Trazado 259675" d="M238.559,346.572a1.019,1.019,0,0,1,.657.4,1.321,1.321,0,0,1,.287.944c-.061.4-.164.838-.264,1.348-.422,2.038-1.035,5.006-1.817,8.782-1.586,7.573-3.848,18.375-6.563,31.339l-.024.115h-.111l-42.264.02a1.355,1.355,0,0,1-1.217-1.11,1.381,1.381,0,0,1,1.47-1.714h8.116l11.348.005,20.6.019-.134.115,6.268-30.19,1.772-8.43a3.631,3.631,0,0,1,.379-1.258,1.17,1.17,0,0,1,.769-.484,1.2,1.2,0,0,1,.545.049c.119.03.178.052.178.052s-.062-.007-.182-.03a1.257,1.257,0,0,0-.534-.026,1.137,1.137,0,0,0-.725.48,3.633,3.633,0,0,0-.348,1.236c-.394,1.96-.968,4.814-1.7,8.448-1.485,7.289-3.6,17.7-6.156,30.215l-.023.115h-.11l-20.6.018-11.348.005h-8.116a1.133,1.133,0,0,0-.65.127,1.1,1.1,0,0,0-.505,1.17,1.025,1.025,0,0,0,.92.839l42.246.027-.135.116c2.762-12.953,5.063-23.746,6.676-31.312l1.891-8.764c.106-.5.218-.954.283-1.334a1.275,1.275,0,0,0-.255-.906,1.262,1.262,0,0,0-.624-.426" transform="translate(-71.475 -117.481)" fill="#263238"/>
            <rect id="Rectángulo_53431" data-name="Rectángulo 53431" width="287.196" height="9.29" transform="translate(82.036 271.921)" fill="#e0e0e0"/>
            <path id="Trazado_259676" data-name="Trazado 259676" d="M419.795,420.639c0-.272-.012-3-.037-9.29l.037.04-287.182.132H132.6l.161-.172v9.29l-.161-.172,287.2.172-287.2.172h-.161v-9.635h.175l287.182.132h.038v.04c-.025,6.294-.036,9.018-.037,9.29" transform="translate(-50.563 -139.427)" fill="#263238"/>
            <rect id="Rectángulo_53432" data-name="Rectángulo 53432" width="59.456" height="5.706" transform="translate(277.009 266.119)" fill="#fafafa"/>
            <path id="Trazado_259677" data-name="Trazado 259677" d="M507.437,408.275s-.008-.135-.012-.385-.009-.629-.015-1.1c-.009-.975-.021-2.392-.036-4.216l.064.068c-9.907.061-32.8.1-59.453.1h0l.161-.172c0,1.955,0,3.891,0,5.706l-.16-.172,42.172.073,12.642.051,3.433.024.9.012c.2,0,.312.012.312.012s-.095.008-.291.012l-.875.012-3.4.024-12.605.051-42.289.073h-.161v-.172c0-1.815,0-3.751,0-5.706l.161-.172h0c26.651,0,49.546.042,59.453.1h.064v.068c-.015,1.841-.028,3.271-.036,4.256q-.009.7-.015,1.09c0,.243-.012.361-.012.361" transform="translate(-170.972 -136.45)" fill="#263238"/>
            <rect id="Rectángulo_53433" data-name="Rectángulo 53433" width="58.77" height="3.178" transform="translate(271.552 262.941)" fill="#fafafa"/>
            <path id="Trazado_259678" data-name="Trazado 259678" d="M497.924,400.931a1.984,1.984,0,0,1-.009-.2c0-.143-.006-.336-.01-.59-.006-.535-.016-1.321-.027-2.388l.047.05c-7.459.071-30.969.122-58.767.122h0c.071-.077-.161.172.16-.172v1.618c0,.533,0,1.055,0,1.56l-.161-.172,41.61.071,12.543.052,3.413.024.892.013c.2,0,.312.012.312.012s-.094.008-.289.012l-.871.012-3.376.024-12.505.052-41.729.071h-.161v-3.349c.322-.344.09-.1.162-.173h0c27.8,0,51.307.052,58.767.122h.048v.05c-.012,1.079-.021,1.876-.027,2.417,0,.249-.008.438-.011.578a1.35,1.35,0,0,1-.009.182" transform="translate(-167.602 -134.812)" fill="#263238"/>
            <path id="Trazado_259679" data-name="Trazado 259679" d="M506.055,408.031c0,.1-12.873.172-28.749.172s-28.752-.077-28.752-.172,12.871-.172,28.752-.172,28.749.077,28.749.172" transform="translate(-171.252 -138.302)" fill="#263238"/>
            <path id="Trazado_259680" data-name="Trazado 259680" d="M508.345,405.741c0,.1-12.873.172-28.749.172s-28.753-.077-28.753-.172,12.871-.172,28.753-.172,28.749.077,28.749.172" transform="translate(-172.126 -137.526)" fill="#263238"/>
            <path id="Trazado_259690" data-name="Trazado 259690" d="M.15.01,2.237,0l-.15,32.234L0,32.245Z" transform="translate(194.847 233.944) rotate(-4.129)" fill="#e0e0e0"/>
            <path id="Trazado_259681" data-name="Trazado 259681" d="M317.212,387.724l2.967-.229.7,10.385a1.559,1.559,0,0,1-1.376,1.7,1.523,1.523,0,0,1-1.591-1.471Z" transform="translate(-121.108 -131.397)" fill="#455a64"/>
            <path id="Trazado_259691" data-name="Trazado 259691" d="M.062,0,.64,0,.578,13.506l-.578,0Z" transform="translate(195.144 251.584) rotate(-4.112)" fill="#455a64"/>
            <path id="Trazado_259682" data-name="Trazado 259682" d="M320.062,387.481a18.388,18.388,0,0,1-2.99.459l.132-.167c.054.726.112,1.511.173,2.34.1,1.535.18,2.926.218,3.934a8.288,8.288,0,0,1,0,1.636,8.194,8.194,0,0,1-.224-1.619c-.1-1-.208-2.392-.312-3.926-.051-.83-.1-1.616-.143-2.342l-.009-.154.141-.013a18.321,18.321,0,0,1,3.017-.149" transform="translate(-120.99 -131.383)" fill="#263238"/>
            <rect id="Rectángulo_53436" data-name="Rectángulo 53436" width="2.086" height="25.174" transform="translate(199.295 234.687)" fill="#e0e0e0"/>
            <path id="Trazado_259683" data-name="Trazado 259683" d="M324.561,363.822h-2.975V353.41a1.491,1.491,0,1,1,2.975,0Z" transform="translate(-122.778 -119.3)" fill="#455a64"/>
            <rect id="Rectángulo_53437" data-name="Rectángulo 53437" width="0.577" height="13.511" transform="translate(201.783 235.812)" fill="#455a64"/>
            <path id="Trazado_259684" data-name="Trazado 259684" d="M321.586,365.88a18.326,18.326,0,0,1,3.012-.229l-.143.156c0-.728-.009-1.515-.015-2.347,0-1.539.018-2.932.047-3.94a8.268,8.268,0,0,1,.114-1.632,8.361,8.361,0,0,1,.114,1.632c.029,1.009.047,2.4.047,3.94-.006.831-.01,1.619-.015,2.347v.155H324.6a18.324,18.324,0,0,1-3.019-.083" transform="translate(-122.778 -121.357)" fill="#263238"/>
            <rect id="Rectángulo_53438" data-name="Rectángulo 53438" width="2.086" height="25.174" transform="translate(203.499 240.595)" fill="#e0e0e0"/>
            <path id="Trazado_259685" data-name="Trazado 259685" d="M331.363,372.761h-2.975V362.349a1.491,1.491,0,1,1,2.975,0Z" transform="translate(-125.374 -122.331)" fill="#455a64"/>
            <rect id="Rectángulo_53439" data-name="Rectángulo 53439" width="0.577" height="13.511" transform="translate(205.988 241.72)" fill="#455a64"/>
            <path id="Trazado_259686" data-name="Trazado 259686" d="M328.388,374.819a18.336,18.336,0,0,1,3.012-.229l-.143.156c0-.728-.009-1.515-.015-2.347,0-1.539.018-2.932.047-3.94a8.21,8.21,0,0,1,.114-1.632,8.358,8.358,0,0,1,.114,1.632c.029,1.009.047,2.4.047,3.94-.006.831-.01,1.619-.015,2.347v.155h-.142a18.32,18.32,0,0,1-3.019-.083" transform="translate(-125.374 -124.389)" fill="#263238"/>
            <rect id="Rectángulo_53440" data-name="Rectángulo 53440" width="2.086" height="25.174" transform="translate(207.464 233.765)" fill="#e0e0e0"/>
            <path id="Trazado_259687" data-name="Trazado 259687" d="M337.775,362.427H334.8V352.015a1.491,1.491,0,1,1,2.975,0Z" transform="translate(-127.822 -118.827)" fill="#455a64"/>
            <rect id="Rectángulo_53441" data-name="Rectángulo 53441" width="0.577" height="13.511" transform="translate(209.952 234.89)" fill="#455a64"/>
            <path id="Trazado_259688" data-name="Trazado 259688" d="M334.8,364.485a18.428,18.428,0,0,1,3.012-.229l-.142.156c0-.728-.01-1.515-.015-2.347,0-1.539.018-2.932.047-3.94a8.265,8.265,0,0,1,.114-1.632,8.305,8.305,0,0,1,.114,1.632c.029,1.009.047,2.4.047,3.94-.006.831-.01,1.619-.015,2.347v.155h-.142a18.313,18.313,0,0,1-3.019-.083" transform="translate(-127.822 -120.884)" fill="#263238"/>
            <path id="Trazado_259689" data-name="Trazado 259689" d="M330.774,400.647H317.4l-1.759-20.888H332.69Z" transform="translate(-120.507 -128.774)" fill="#ffb500"/>
          </g>
        </g>
      </g>
    </g>
  </g>
</svg>
