<svg id="Grupo_238385" data-name="Grupo 238385" xmlns="http://www.w3.org/2000/svg" width="64.092" height="64.092" viewBox="0 0 64.092 64.092">
  <circle id="Elipse_5726" data-name="Elipse 5726" cx="32.046" cy="32.046" r="32.046" fill="#ff7d00"/>
  <path id="Trazado_268109" data-name="Trazado 268109" d="M11.87,0H.956V-2.363L5.983-7.648q1.858-2.116,1.858-3.362a2.339,2.339,0,0,0-.44-1.536,1.572,1.572,0,0,0-1.278-.526,1.592,1.592,0,0,0-1.343.7,2.892,2.892,0,0,0-.516,1.756H.634a5.136,5.136,0,0,1,.72-2.659,5.047,5.047,0,0,1,2-1.907,5.935,5.935,0,0,1,2.857-.687,5.839,5.839,0,0,1,3.9,1.171,4.18,4.18,0,0,1,1.37,3.362,4.883,4.883,0,0,1-.344,1.8A7.891,7.891,0,0,1,10.071-7.7,26.924,26.924,0,0,1,7.734-5.124L5.715-2.793H11.87Z" transform="translate(24.791 38.535)" fill="#fff"/>
</svg>
