<svg xmlns="http://www.w3.org/2000/svg" xmlns:xlink="http://www.w3.org/1999/xlink" width="176" height="176" viewBox="0 0 176 176">
  <defs>
    <filter id="Elipse_5918" x="0" y="0" width="176" height="176" filterUnits="userSpaceOnUse">
      <feOffset dy="6" input="SourceAlpha"/>
      <feGaussianBlur stdDeviation="4.5" result="blur"/>
      <feFlood flood-opacity="0.161"/>
      <feComposite operator="in" in2="blur"/>
      <feComposite in="SourceGraphic"/>
    </filter>
  </defs>
  <g id="Grupo_238388" data-name="Grupo 238388" transform="translate(-166.833 -3923.564)">
    <g transform="matrix(1, 0, 0, 1, 166.83, 3923.56)" filter="url(#Elipse_5918)">
      <circle id="Elipse_5918-2" data-name="Elipse 5918" cx="74.5" cy="74.5" r="74.5" transform="translate(13.5 7.5)" fill="#dbdf9a"/>
    </g>
    <g id="Grupo_237034" data-name="Grupo 237034" transform="translate(216.994 3963.393)">
      <path id="Trazado_259057" data-name="Trazado 259057" d="M25.2,84.036A10.032,10.032,0,0,1,23.621,82.4a2.229,2.229,0,0,1-.123-1.568q3.4-13.056,6.889-26.09c.283-1.06.77-2.068.011-3.111a.345.345,0,0,1-.05-.154,10.454,10.454,0,0,0-3.889-6.7c-1.7-1.472-3.184-3.193-4.813-4.752a9.5,9.5,0,0,1-2.919-8.193A19.31,19.31,0,0,1,24.64,19.4c.681-.664,1.324-1.368,2.023-2.011a12.062,12.062,0,0,0,3.49-5.478,6.378,6.378,0,0,1,4.723-4.306,1.98,1.98,0,0,0,.962-.6A9.725,9.725,0,0,1,39.061,4.57,35.764,35.764,0,0,1,55.16.543,36.919,36.919,0,0,1,72.831,4.157a10.314,10.314,0,0,1,4.21,3.106,1.087,1.087,0,0,0,.608.316,6.58,6.58,0,0,1,5.033,4.709,10.431,10.431,0,0,0,2.709,4.465,64.583,64.583,0,0,1,4.49,4.719,18.42,18.42,0,0,1,4.127,11.58,8.8,8.8,0,0,1-2.622,6.617C89,42.083,86.564,44.455,84.2,46.9a5.723,5.723,0,0,0-1.115,1.915c-.492,1.281-.876,2.6-1.286,3.915a1.028,1.028,0,0,0,.026.542c1.212,4.442,2.449,8.876,3.643,13.323,1.23,4.579,2.421,9.169,3.624,13.755.49,1.869.043,2.791-1.769,3.688ZM70.248,5.74l-.2-.117c-.7-.283-1.417-.539-2.1-.859a.81.81,0,0,0-1.061.262c-.885.921-1.814,1.8-2.7,2.719a8.565,8.565,0,0,0-2.257,8.265c.454,2.008,1.044,3.987,1.6,5.971a1.176,1.176,0,0,0,.494.671,14.789,14.789,0,0,1,6.385,6.427c.317.891.682,1.769.943,2.676.7,2.443.418,4.955.447,7.443.013,1.14-.2,1.415-1.258,1.784-1.055-.373-1.2-.576-1.2-1.726,0-1.277.02-2.553.019-3.83a11.73,11.73,0,0,0-7.6-11.095,16.826,16.826,0,0,0-7.543-.787A11.826,11.826,0,0,0,43.348,35.037c-.03,5.813.031,11.626.137,17.438a5.6,5.6,0,0,0,.806,2.5c.659,1.17,1.461,1.278,2.585.518a2.625,2.625,0,0,0,.8-.8,39.57,39.57,0,0,1,6.821-8.473,2.092,2.092,0,0,0,.577-1.2c.088-.88.027-1.775.027-2.653-2.267-.439-2.668-.731-3.85-2.65a1.614,1.614,0,0,0-.7-.588A2.978,2.978,0,0,1,48.6,36.206a7.587,7.587,0,0,1,6.772-7.586,7.692,7.692,0,0,1,8.613,6.216c.391,2.345.024,3.081-2.159,4.39a1.026,1.026,0,0,0-.353.425,4.165,4.165,0,0,1-3.9,2.646,14.387,14.387,0,0,1-.009,1.515,3.408,3.408,0,0,0,1.247,3.083,34.033,34.033,0,0,1,6.05,7.529,3.752,3.752,0,0,0,1.331,1.249c.93.525,1.459.35,2.1-.494a4.619,4.619,0,0,0,.96-2.876q0-3.178.034-6.356c.009-1.06.222-1.334,1.209-1.638,1.041.288,1.217.515,1.223,1.6,0,.763,0,1.526,0,2.29a2.7,2.7,0,0,0,.613-1.166c.525-1.909,1.02-3.825,1.553-5.732a41.38,41.38,0,0,0,1.984-10.527c.088-6.493.054-12.987.032-19.481a4.074,4.074,0,0,0-1.766-3.509,41.207,41.207,0,0,0-3.867-2.045ZM41.017,53.387a2.169,2.169,0,0,0-.935-2.211,5.869,5.869,0,0,1-2-3.187c-.154-.53-.311-1.059-.5-1.687l-1.94,3.991a10.4,10.4,0,0,1-1.414,2.262,6.9,6.9,0,0,0-1.694,3.515Q30.9,62.145,29.314,68.236c-.992,3.8-1.964,7.6-2.945,11.394l-.55,1.893H86.846c-.046-.2-.071-.333-.1-.461-1.73-6.58-3.4-13.177-5.219-19.731-.9-3.24-1.205-6.676-3.467-9.5a33.49,33.49,0,0,1-2.924-5.316l-1.3,3.3a4.356,4.356,0,0,1-.713.884,3.783,3.783,0,0,0-1.591,3.043,6.294,6.294,0,0,1-1.95,3.719c2.078,4.011,4.929,5.025,7.343,2.655a1.333,1.333,0,0,0,.209-.121,1.507,1.507,0,0,1,1.995-.212,1.567,1.567,0,0,1,.522,1.949Q78.921,64,78.2,66.268c-.177.3-.375.592-.524.907-.13.275-.37.663-.272.851a2.435,2.435,0,0,1-.022,2.04c-.48,1.4-.986,2.791-1.481,4.186l-.311.5-.2.308a12.547,12.547,0,0,1-4.766,3.917,11.209,11.209,0,0,1-7.908.476A15.653,15.653,0,0,1,56.5,74.728c-.749.662-1.452,1.261-2.13,1.888-.765.708-1.2.74-2.056.1a1.338,1.338,0,0,1,.306-1.824c.36-.331.686-.7,1.042-1.033a4.378,4.378,0,0,0,1.463-2.99c.063-.933.473-1.344,1.2-1.36.761-.016,1.191.406,1.26,1.381a4.312,4.312,0,0,0,1.418,2.925c.375.355.73.73,1.1,1.093a8.45,8.45,0,0,0,12.873-.774,24.405,24.405,0,0,0,1.665-2.795,35.468,35.468,0,0,0-3.549,1.276,1.217,1.217,0,0,1-1.744-.655c-.269-.691.079-1.247.9-1.639a17.245,17.245,0,0,0,2.7-1.47,9.767,9.767,0,0,0,3.724-5.569c-.265.084-.41.132-.556.176a6.45,6.45,0,0,1-7.638-2.967c-.321-.535-.595-1.1-.945-1.613a1.123,1.123,0,0,0-.658-.471A5.536,5.536,0,0,1,63.755,57a16.532,16.532,0,0,1-14.724.059A6.672,6.672,0,0,1,46.9,58.1a2.937,2.937,0,0,0-2.485,2.065,4.826,4.826,0,0,1-.331.56,5.989,5.989,0,0,1-4.636,2.945,22.983,22.983,0,0,1-3.335-.18c0-.044-.01.008,0,.056a3.957,3.957,0,0,0,.11.39,10.128,10.128,0,0,0,6.116,6.345c.932.365,1.284.927,1.037,1.632-.265.754-.95,1.022-1.877.662-1.091-.424-2.161-.9-3.263-1.366.771,3.777,5.338,6.812,9.356,6.219a1.423,1.423,0,0,1,1.774.88L48.92,79.62a6.724,6.724,0,0,1-1.665.3c-1.372-.094-2.736-.31-4.1-.476a13.254,13.254,0,0,1-4.565-2.895A12.744,12.744,0,0,1,35.324,70.2c-.168-.732-.494-1.448-.015-2.2.074-.117-.041-.413-.147-.577a20.257,20.257,0,0,1-2.195-6.1,1.49,1.49,0,0,1,2.3-1.552c.313.213.589.48.893.708a3.959,3.959,0,0,0,5.689-.836c.481-.682.864-1.433,1.316-2.195a7.651,7.651,0,0,1-2.144-4.065m-5.55-32.3c-.891-.224-1.162-.819-1.151-1.7.034-2.744.016-5.488.014-8.232,0-.194-.032-.388-.054-.649a5.123,5.123,0,0,0-2.052,2.749,18.146,18.146,0,0,1-2.019,3.859,29.791,29.791,0,0,1-3.481,3.65A17.291,17.291,0,0,0,21.173,31.96a7.178,7.178,0,0,0,2.1,6.235c2.394,2.332,4.725,4.728,7.1,7.077a5.587,5.587,0,0,1,1.569,2.706c.194.8.43,1.583.663,2.428a26.744,26.744,0,0,0,3.666-8.286,2.584,2.584,0,0,0-.1-1.115,45.878,45.878,0,0,1-1.849-15.2c.039-1.023.294-1.338,1.312-1.489.861.143,1.124.708,1.145,1.515.062,2.441,0,4.9.267,7.319.532,4.9,2.232,9.544,3.438,14.3a5.422,5.422,0,0,0,.394.853c0-4.326-.015-8.508,0-12.691A14.048,14.048,0,0,1,48.468,22.75a1.656,1.656,0,0,0,.713-.869c.558-1.9,1.1-3.8,1.556-5.729A8.62,8.62,0,0,0,48.5,7.733c-.9-.94-1.82-1.869-2.776-2.755a1.034,1.034,0,0,0-.893-.2c-1.8.751-3.6,1.5-5.346,2.371a4.72,4.72,0,0,0-2.71,4.562c.007,2.553,0,5.107,0,7.66,0,1.149-.2,1.408-1.307,1.717M78.377,10.5c-.011.236-.02.343-.02.449q0,8.922.012,17.845a32.249,32.249,0,0,1-1.139,9.254c-.726,2.461-1.1,4.822.162,7.225.889,1.688,1.662,3.437,2.487,5.158a5.344,5.344,0,0,0,.686-1.785,7.038,7.038,0,0,1,2.233-3.87c2.272-2.183,4.462-4.449,6.7-6.668a6.62,6.62,0,0,0,2.064-5.124A16.228,16.228,0,0,0,87.908,22.92a49.078,49.078,0,0,0-3.883-4.058,13.02,13.02,0,0,1-3.732-6A3.817,3.817,0,0,0,78.377,10.5M51.89,21.434a23.9,23.9,0,0,1,8.93-.016c-.388-1.463-.745-2.824-1.112-4.183A11.184,11.184,0,0,1,62.779,5.673c.588-.585,1.229-1.117,1.845-1.673l-.154-.251A40.247,40.247,0,0,0,48.128,3.9c.731.846,1.579,1.531,2.309,2.324a10.808,10.808,0,0,1,2.817,9.77c-.341,1.8-.886,3.565-1.363,5.442M50.56,54.74c1.731,2.036,9.824,2.039,11.578,0a33.515,33.515,0,0,0-5.8-6.841A33.618,33.618,0,0,0,50.56,54.74m3.26-15.583c.965,1.018,4.366.944,4.952,0a3.852,3.852,0,0,1-1.334-4.277,1.137,1.137,0,0,1,1.277-.894A1.074,1.074,0,0,1,59.789,35.1a5.263,5.263,0,0,1,0,.976c-.078.656.194.866.833.828.577-.034.985-.089.991-.839a5.28,5.28,0,0,0-10.536-.22c-.01.7.148,1.026.928,1.071.859.049.95-.369.888-1.027a4.678,4.678,0,0,1,0-.651c.036-.78.424-1.23,1.1-1.253a1.123,1.123,0,0,1,1.288,1.08c.114,1.545.33,3.162-1.469,4.1" transform="translate(-18.671 -0.531)" fill="#030302"/>
      <path id="Trazado_259058" data-name="Trazado 259058" d="M111.985,281.16a1.422,1.422,0,0,0-1.774-.88c-4.018.592-8.585-2.442-9.356-6.22,1.1.464,2.172.942,3.263,1.366.927.36,1.612.092,1.877-.662.247-.7-.106-1.267-1.037-1.632a10.129,10.129,0,0,1-6.116-6.345,3.957,3.957,0,0,1-.11-.39c-.011-.048,0-.1,0-.056a23.05,23.05,0,0,0,3.335.18,5.99,5.99,0,0,0,4.636-2.945,4.828,4.828,0,0,0,.331-.56,2.937,2.937,0,0,1,2.485-2.066,6.664,6.664,0,0,0,2.136-1.044,16.532,16.532,0,0,0,14.724-.059,5.537,5.537,0,0,0,3.109,1.4,1.123,1.123,0,0,1,.658.471c.35.514.624,1.078.945,1.613a6.45,6.45,0,0,0,7.638,2.967c.146-.044.291-.092.556-.176a9.766,9.766,0,0,1-3.724,5.569,17.225,17.225,0,0,1-2.7,1.47c-.819.392-1.167.949-.9,1.64a1.217,1.217,0,0,0,1.744.655,35.457,35.457,0,0,1,3.549-1.276,24.4,24.4,0,0,1-1.665,2.795,8.45,8.45,0,0,1-12.873.774c-.367-.363-.723-.738-1.1-1.093a4.311,4.311,0,0,1-1.418-2.925c-.069-.975-.5-1.4-1.26-1.381-.723.015-1.133.427-1.2,1.36a4.378,4.378,0,0,1-1.463,2.99c-.356.335-.682.7-1.042,1.033a1.338,1.338,0,0,0-.306,1.823l-2.946,1.6" transform="translate(-81.293 -203.377)" fill="#f7f4f7"/>
      <path id="Trazado_259059" data-name="Trazado 259059" d="M159.11,126.644c-.987.3-1.2.578-1.208,1.638q-.028,3.178-.034,6.356a4.619,4.619,0,0,1-.96,2.876c-.643.844-1.172,1.02-2.1.494a3.752,3.752,0,0,1-1.331-1.249,34.024,34.024,0,0,0-6.049-7.529,3.407,3.407,0,0,1-1.247-3.083,14.331,14.331,0,0,0,.009-1.515,4.165,4.165,0,0,0,3.9-2.645,1.024,1.024,0,0,1,.353-.425c2.183-1.309,2.55-2.045,2.158-4.39a7.692,7.692,0,0,0-8.613-6.216,7.587,7.587,0,0,0-6.772,7.586,2.979,2.979,0,0,0,1.944,2.922,1.611,1.611,0,0,1,.7.588c1.183,1.92,1.583,2.212,3.85,2.65,0,.878.061,1.773-.027,2.653a2.092,2.092,0,0,1-.577,1.2,39.552,39.552,0,0,0-6.821,8.473,2.621,2.621,0,0,1-.8.8c-1.124.76-1.927.652-2.585-.518a5.6,5.6,0,0,1-.806-2.5c-.106-5.812-.167-11.625-.137-17.438a11.825,11.825,0,0,1,10.874-11.492,16.82,16.82,0,0,1,7.543.787,11.73,11.73,0,0,1,7.6,11.095c0,1.276-.016,2.553-.019,3.83,0,1.15.141,1.352,1.2,1.725l-.044,3.324" transform="translate(-107.287 -82.868)" fill="#f6f3f6"/>
      <path id="Trazado_259060" data-name="Trazado 259060" d="M44.437,60.164c-1.018.151-1.273.466-1.312,1.489a45.888,45.888,0,0,0,1.849,15.2,2.581,2.581,0,0,1,.1,1.115,26.734,26.734,0,0,1-3.666,8.286c-.232-.845-.469-1.631-.662-2.428a5.586,5.586,0,0,0-1.569-2.706c-2.377-2.349-4.709-4.745-7.1-7.077a7.178,7.178,0,0,1-2.1-6.235,17.291,17.291,0,0,1,5.551-11.193,29.758,29.758,0,0,0,3.481-3.65,18.139,18.139,0,0,0,2.019-3.859,5.12,5.12,0,0,1,2.052-2.749c.023.261.054.455.054.648,0,2.744.02,5.489-.014,8.233-.011.881.26,1.476,1.151,1.7q.085,1.613.17,3.226" transform="translate(-27.471 -36.378)" fill="#975d33"/>
      <path id="Trazado_259061" data-name="Trazado 259061" d="M286.33,46.3a3.816,3.816,0,0,1,1.916,2.362,13.021,13.021,0,0,0,3.732,6,49.125,49.125,0,0,1,3.882,4.058,16.228,16.228,0,0,1,3.654,10.061,6.621,6.621,0,0,1-2.064,5.124c-2.237,2.219-4.428,4.485-6.7,6.668a7.036,7.036,0,0,0-2.233,3.87,5.346,5.346,0,0,1-.686,1.785c-.825-1.721-1.6-3.47-2.487-5.158-1.266-2.4-.888-4.764-.162-7.225a32.25,32.25,0,0,0,1.139-9.254q-.023-8.922-.012-17.845c0-.106.009-.212.02-.449" transform="translate(-226.624 -36.332)" fill="#975d33"/>
      <path id="Trazado_259062" data-name="Trazado 259062" d="M68.829,244.63c1.367.167,2.731.382,4.1.477a6.727,6.727,0,0,0,1.665-.3q6.56.006,13.119.005a2.835,2.835,0,0,0,.676-.17,11.21,11.21,0,0,0,7.908-.476,12.552,12.552,0,0,0,4.766-3.917l.2-.308.311-.5c.168-.112.426-.186.491-.341a33.949,33.949,0,0,0,1.73-4.4,13.528,13.528,0,0,0,.079-3.238q.72-2.27,1.441-4.539a1.567,1.567,0,0,0-.522-1.949,1.506,1.506,0,0,0-1.995.212,1.344,1.344,0,0,1-.209.121c-.5-1.823-.966-3.656-1.506-5.466-.485-1.625-1.052-3.224-1.584-4.835l1.3-3.3a33.456,33.456,0,0,0,2.924,5.316c2.262,2.824,2.566,6.26,3.467,9.5,1.823,6.554,3.489,13.151,5.219,19.731.034.128.059.258.1.461H51.495l.55-1.893q7.975,0,15.95,0a4.061,4.061,0,0,0,.834-.177" transform="translate(-44.347 -165.713)" fill="#af6d3c"/>
      <path id="Trazado_259063" data-name="Trazado 259063" d="M95.972,39.448q-.085-1.613-.17-3.226c1.1-.309,1.306-.568,1.307-1.717,0-2.553.007-5.107,0-7.66a4.721,4.721,0,0,1,2.71-4.562c1.744-.868,3.547-1.62,5.346-2.371a1.034,1.034,0,0,1,.893.2c.956.886,1.872,1.815,2.776,2.755a8.62,8.62,0,0,1,2.237,8.419c-.453,1.925-1,3.83-1.556,5.729a1.656,1.656,0,0,1-.713.869A14.047,14.047,0,0,0,101.22,50.74c-.019,4.182,0,8.365,0,12.691a5.425,5.425,0,0,1-.394-.853c-1.207-4.752-2.906-9.395-3.438-14.3-.263-2.421-.206-4.878-.267-7.319-.02-.806-.284-1.371-1.145-1.515m2.77-3.734c0,.314-.019.722,0,1.128a1.213,1.213,0,0,0,2.423.06c.043-.512.02-1.03.015-1.546a5.638,5.638,0,0,1,1.7-4.173c.708-.713,1.414-1.425,2.13-2.13.9-.881,1.628-.787,2.285.282a1.239,1.239,0,0,0,1.71.6,1.272,1.272,0,0,0,.445-1.764,3.665,3.665,0,0,0-5.81-1.19c-.781.712-1.494,1.5-2.257,2.233a8.236,8.236,0,0,0-2.648,6.5" transform="translate(-79.006 -15.662)" fill="#bf7b4e"/>
      <path id="Trazado_259064" data-name="Trazado 259064" d="M70.8,258.2a4.063,4.063,0,0,1-.834.177q-7.975.014-15.95.005c.981-3.8,1.953-7.6,2.945-11.394q1.592-6.089,3.222-12.167a6.894,6.894,0,0,1,1.694-3.515A10.4,10.4,0,0,0,63.3,229.04c.171.391.312.8.516,1.169.98,1.794,1.594,2.594,3.323,2.4a8.543,8.543,0,0,0,1.534-.47,7.648,7.648,0,0,0,2.144,4.065c-.453.762-.835,1.513-1.317,2.195a3.959,3.959,0,0,1-5.689.836c-.3-.228-.58-.495-.893-.708a1.49,1.49,0,0,0-2.3,1.552,20.257,20.257,0,0,0,2.195,6.1c.1.164.221.46.147.577-.479.751-.153,1.467.015,2.2a12.744,12.744,0,0,0,3.264,6.356A13.251,13.251,0,0,0,70.8,258.2" transform="translate(-46.323 -179.279)" fill="#bf7c4e"/>
      <path id="Trazado_259065" data-name="Trazado 259065" d="M157.706,30.246c.477-1.876,1.022-3.64,1.363-5.442a10.808,10.808,0,0,0-2.817-9.77c-.73-.793-1.578-1.478-2.308-2.324a40.246,40.246,0,0,1,16.342-.149l.154.251c-.616.556-1.257,1.088-1.845,1.673a11.185,11.185,0,0,0-3.071,11.562c.366,1.359.723,2.72,1.112,4.183a23.9,23.9,0,0,0-8.93.016" transform="translate(-124.487 -9.343)" fill="#dfdcdf"/>
      <path id="Trazado_259066" data-name="Trazado 259066" d="M255.83,63q.022-1.662.044-3.324c1.057-.368,1.271-.643,1.258-1.784-.029-2.488.255-5-.447-7.443-.261-.907-.626-1.785-.943-2.676.1-1.117.258-2.233.276-3.351.048-2.972.035-5.944.046-8.916a8.9,8.9,0,0,1,.913,1.95,22.309,22.309,0,0,1,.207,2.9,1.169,1.169,0,0,0,1.141,1.238,1.078,1.078,0,0,0,1.266-.995c.218-2.667-.138-5.195-2.079-7.255q-.805-.855-1.616-1.7a6.391,6.391,0,0,0,.129-.858,25.484,25.484,0,0,0-.424-6.355,41.255,41.255,0,0,1,3.867,2.045,4.074,4.074,0,0,1,1.767,3.509c.022,6.493.056,12.988-.032,19.481a41.382,41.382,0,0,1-1.984,10.527c-.533,1.906-1.028,3.823-1.553,5.732a2.7,2.7,0,0,1-.613,1.166c0-.763,0-1.526,0-2.29-.006-1.083-.182-1.31-1.223-1.6" transform="translate(-204.007 -19.223)" fill="#af6d3c"/>
      <path id="Trazado_259067" data-name="Trazado 259067" d="M224.7,20.575a25.491,25.491,0,0,1,.424,6.355,6.463,6.463,0,0,1-.129.858c-.435-.405-.853-.832-1.309-1.213a3.683,3.683,0,0,0-5.777,1.537,1.213,1.213,0,0,0,2.125,1.139c.112-.15.172-.339.279-.494a1.147,1.147,0,0,1,1.76-.313c1.072,1.025,2.064,2.134,3.089,3.209-.011,2.972,0,5.945-.046,8.916-.018,1.118-.18,2.234-.276,3.351a14.79,14.79,0,0,0-6.385-6.427,1.178,1.178,0,0,1-.494-.672c-.558-1.984-1.148-3.962-1.6-5.97a8.565,8.565,0,0,1,2.257-8.265c.885-.92,1.814-1.8,2.7-2.719a.81.81,0,0,1,1.061-.262c.685.32,1.4.576,2.1.859l.2.117Z" transform="translate(-173.103 -15.371)" fill="#be7b4e"/>
      <path id="Trazado_259068" data-name="Trazado 259068" d="M165.111,224.88a33.589,33.589,0,0,1,5.781-6.845,33.52,33.52,0,0,1,5.8,6.841c-1.754,2.044-9.847,2.041-11.578,0" transform="translate(-133.222 -170.671)" fill="#dfdcdf"/>
      <path id="Trazado_259069" data-name="Trazado 259069" d="M256.675,226.831c.531,1.611,1.1,3.211,1.583,4.835.541,1.81,1.008,3.643,1.507,5.466-2.414,2.369-5.265,1.356-7.343-2.655a6.293,6.293,0,0,0,1.95-3.719,3.784,3.784,0,0,1,1.591-3.043,4.344,4.344,0,0,0,.713-.884" transform="translate(-201.52 -177.551)" fill="#bf7c4e"/>
      <path id="Trazado_259070" data-name="Trazado 259070" d="M170.24,148.679c1.8-.933,1.584-2.55,1.469-4.1a1.123,1.123,0,0,0-1.289-1.08c-.679.023-1.067.473-1.1,1.253a4.682,4.682,0,0,0,0,.651c.062.657-.029,1.076-.888,1.027-.78-.044-.939-.37-.928-1.071a5.28,5.28,0,0,1,10.536.22c-.005.75-.414.8-.991.839-.639.038-.911-.172-.833-.828a5.267,5.267,0,0,0,0-.976,1.074,1.074,0,0,0-1.074-1.109,1.137,1.137,0,0,0-1.277.894,3.852,3.852,0,0,0,1.334,4.277c-.586.943-3.987,1.017-4.952,0" transform="translate(-135.091 -110.053)" fill="#635b63"/>
      <path id="Trazado_259071" data-name="Trazado 259071" d="M171.377,345.983a2.845,2.845,0,0,1-.676.17q-6.559.009-13.119-.005l.443-1.306,2.946-1.6c.853.643,1.292.61,2.056-.1.678-.627,1.381-1.226,2.13-1.888a15.655,15.655,0,0,0,6.219,4.728" transform="translate(-127.332 -267.058)" fill="#bf7c4e"/>
      <path id="Trazado_259072" data-name="Trazado 259072" d="M101.99,217.8a8.53,8.53,0,0,1-1.534.47c-1.728.2-2.342-.6-3.323-2.4-.2-.373-.345-.779-.516-1.17l1.941-3.991c.185.628.342,1.157.5,1.687a5.872,5.872,0,0,0,2,3.187,2.169,2.169,0,0,1,.935,2.211" transform="translate(-79.643 -164.945)" fill="#ae6c3c"/>
      <path id="Trazado_259073" data-name="Trazado 259073" d="M283.782,302.405a13.528,13.528,0,0,1-.078,3.238,34.009,34.009,0,0,1-1.73,4.4c-.065.155-.322.229-.491.341.5-1.395,1-2.785,1.481-4.186a2.435,2.435,0,0,0,.022-2.04c-.1-.188.142-.576.272-.851.149-.315.347-.606.524-.907" transform="translate(-224.252 -236.668)" fill="#b7774a"/>
      <path id="Trazado_259074" data-name="Trazado 259074" d="M279.333,341.379l-.2.308.2-.308" transform="translate(-222.413 -267.155)" fill="#b7774a"/>
      <path id="Trazado_259075" data-name="Trazado 259075" d="M254.787,24.031l-.2-.117.2.117" transform="translate(-203.209 -18.822)" fill="#af6d3c"/>
      <path id="Trazado_259076" data-name="Trazado 259076" d="M109.276,57.792a8.236,8.236,0,0,1,2.648-6.5c.763-.733,1.476-1.52,2.257-2.233a3.665,3.665,0,0,1,5.81,1.19,1.272,1.272,0,0,1-.445,1.764,1.239,1.239,0,0,1-1.71-.6c-.657-1.069-1.389-1.164-2.285-.282-.716.7-1.422,1.417-2.13,2.13a5.638,5.638,0,0,0-1.7,4.173c0,.515.028,1.034-.015,1.546a1.213,1.213,0,0,1-2.423-.06c-.024-.406,0-.814,0-1.128" transform="translate(-89.54 -37.74)" fill="#030201"/>
      <path id="Trazado_259077" data-name="Trazado 259077" d="M231.314,54.054c-1.025-1.074-2.017-2.184-3.089-3.209a1.147,1.147,0,0,0-1.761.313c-.107.155-.167.344-.279.494a1.212,1.212,0,0,1-2.125-1.139,3.683,3.683,0,0,1,5.777-1.537c.456.381.873.807,1.309,1.213q.808.852,1.616,1.7c1.94,2.06,2.3,4.588,2.079,7.255a1.078,1.078,0,0,1-1.266.995,1.17,1.17,0,0,1-1.141-1.238,22.282,22.282,0,0,0-.206-2.9,8.913,8.913,0,0,0-.913-1.95" transform="translate(-179.257 -37.773)" fill="#030201"/>
    </g>
  </g>
</svg>
