<svg xmlns="http://www.w3.org/2000/svg" width="123.54" height="123.871" viewBox="0 0 123.54 123.871">
  <g id="Grupo_237036" data-name="Grupo 237036" transform="translate(-11.909 -11.122)">
    <g id="Grupo_237037" data-name="Grupo 237037" transform="translate(11.909 11.122)">
      <path id="Trazado_261988" data-name="Trazado 261988" d="M103.542,206.5H114.8c.02-.383.056-.753.056-1.123q.005-8.364,0-16.727c0-2.022.676-2.7,2.69-2.7q7.654-.007,15.309,0c1.86,0,2.587.712,2.587,2.547q.007,28.308,0,56.616c0,1.947-.718,2.613-2.782,2.613q-28.11,0-56.219.023a7.913,7.913,0,0,0-2.575.526,23.152,23.152,0,0,1-18.7-.865,23.134,23.134,0,0,1-20.652-.007c-5.829,2.95-11.907,3.1-18.1,1.07a9.786,9.786,0,0,1-2.676-1.479,4.316,4.316,0,0,1-1.837-3.638q.015-25.477,0-50.954a4.591,4.591,0,0,1,2.111-3.9c2.154-1.556,4.677-2.03,7.225-2.414,1.452-.042,2.91-.179,4.357-.108A18.079,18.079,0,0,1,33.758,188a5.125,5.125,0,0,1,2.889,4.905c-.083,4.5-.024,9.008-.024,13.512V207.9a25.5,25.5,0,0,1,16.439-.029c.216.129.424.275.651.383,2.39,1.135,3.747,2.871,3.518,5.667-.113,1.383-.02,2.782-.02,4.144.182.035.229.059.266.048.368-.1.733-.221,1.1-.323a23.726,23.726,0,0,1,15.231.55,6.372,6.372,0,0,1,3.9,3.65c.031.642.089,1.283.09,1.925q.01,9.2,0,18.4v1.206h4.117c0-6.034,0-11.992,0-17.95,0-1.845.721-2.558,2.568-2.564,3-.009,6,0,9.006,0h4.855v-11.32c.014-1.018,0-2.037.049-3.052a2.021,2.021,0,0,1,2.092-2.093c1.016-.047,2.034-.035,3.052-.048m27.7-16.343H119.061V243.56h12.186Zm-16.475,20.6h-12.2v32.794h12.2ZM98.34,227.192H86.107v16.33H98.34ZM16.033,196.929c0,1.645.051,3.1-.02,4.551a1.372,1.372,0,0,0,1,1.572,32.672,32.672,0,0,0,5.061,1.282,16.806,16.806,0,0,0,9.172-1.162c.506-.231,1.16-.8,1.2-1.262.148-1.607.057-3.235.057-4.964a25.465,25.465,0,0,1-16.47-.016m0,10.314c0,1.563.058,3.018-.022,4.466a1.448,1.448,0,0,0,1.052,1.669A32.369,32.369,0,0,0,22,214.622a17,17,0,0,0,9.177-1.127c.518-.229,1.218-.771,1.26-1.221.152-1.633.06-3.289.06-5.046a25.484,25.484,0,0,1-16.469.015m0,10.282c0,1.638.051,3.094-.02,4.543a1.372,1.372,0,0,0,.993,1.574,33.073,33.073,0,0,0,5.06,1.284,16.78,16.78,0,0,0,9.171-1.166,2.21,2.21,0,0,0,1.21-1.383c.157-1.562.057-3.151.057-4.841a25.477,25.477,0,0,1-16.471-.012m37.06,0a25.478,25.478,0,0,1-16.472.02c0,1.555.079,2.971-.026,4.373a1.569,1.569,0,0,0,1.206,1.832,30.966,30.966,0,0,0,4.828,1.182,16.948,16.948,0,0,0,9.173-1.155,2.224,2.224,0,0,0,1.232-1.368c.16-1.565.059-3.156.059-4.884m-37.06,10.3c0,1.645.051,3.1-.02,4.55a1.372,1.372,0,0,0,1,1.572,32.639,32.639,0,0,0,5.061,1.282,16.806,16.806,0,0,0,9.172-1.162c.506-.231,1.16-.8,1.2-1.262.148-1.607.057-3.235.057-4.964a25.465,25.465,0,0,1-16.47-.016m20.589.007c0,1.554.07,3-.025,4.436a1.5,1.5,0,0,0,1.136,1.747,31.47,31.47,0,0,0,4.949,1.22,16.9,16.9,0,0,0,9.171-1.177c.5-.23,1.141-.809,1.183-1.275.147-1.6.056-3.224.056-4.958a25.361,25.361,0,0,1-16.471.007m20.589-.007c0,1.645.051,3.1-.02,4.55a1.371,1.371,0,0,0,1,1.572,32.648,32.648,0,0,0,5.061,1.282,16.807,16.807,0,0,0,9.172-1.162c.506-.231,1.16-.8,1.2-1.262.148-1.607.057-3.235.057-4.964a25.466,25.466,0,0,1-16.471-.016M16.033,238.126c0,1.568.058,3.023-.021,4.47a1.447,1.447,0,0,0,1.05,1.67A32.514,32.514,0,0,0,22,245.511a17,17,0,0,0,9.177-1.127c.518-.23,1.22-.769,1.262-1.219.152-1.634.06-3.29.06-5.044a25.454,25.454,0,0,1-16.469.005m20.589.079c0,1.47.07,2.917-.025,4.351a1.5,1.5,0,0,0,1.134,1.749,31.86,31.86,0,0,0,4.949,1.221,16.964,16.964,0,0,0,9.171-1.177c.5-.228,1.143-.807,1.186-1.273.147-1.6.056-3.225.056-4.867-6.386,1.693-9.663,1.789-16.471,0m20.589,0c0,1.526.07,2.941-.025,4.345A1.5,1.5,0,0,0,58.31,244.3a31.943,31.943,0,0,0,4.948,1.224,16.969,16.969,0,0,0,9.172-1.171c.5-.228,1.152-.8,1.195-1.267.148-1.6.057-3.23.057-4.872-6.644,1.793-10.005,1.687-16.471-.014m-41-46.057c3.2,2.887,14.076,2.509,16.061-.037-2.322-2.629-13.225-2.78-16.061.037m20.581,20.518c2.8,2.947,14.315,2.634,16.068-.027-3.262-2.638-12.557-2.654-16.068.027m36.726,10.4c-2.758-2.94-14.288-2.638-16.068.032,3.28,2.636,12.557,2.649,16.068-.032" transform="translate(-11.909 -125.965)" fill="#010101"/>
      <path id="Trazado_261989" data-name="Trazado 261989" d="M32.459,67.029l-2.15.208C28.687,50.451,33.4,35.87,45.956,24.595,61.623,10.522,79.822,7.357,99.166,15.652c17.61,7.551,27.012,21.75,29.564,40.782l-2.174.3h-2.033a45.318,45.318,0,0,0-13.8-28.617c-3.322,2.768-6.561,5.439-9.747,8.169a1.443,1.443,0,0,0-.211,1.286c.963,2.565,1.985,5.11,3.034,7.641a2.542,2.542,0,0,1-.359,2.756c-1.9,2.486-3.787,4.986-5.633,7.513a2.791,2.791,0,0,1-2.52,1.22c-2.659-.041-5.318-.017-7.978-.01-.382,0-.863-.083-1.128.107-2.037,1.463-4.031,2.984-6.049,4.494,2.1,3.143,4.073,6.154,6.121,9.116a1.917,1.917,0,0,0,1.34.66c1.841.074,3.687.027,5.532.032,2.085,0,2.732.663,2.734,2.792q0,6.178,0,12.355c0,.416-.034.831-.058,1.369H93.8l-2.1-.1v-12.3c-1.909,0-3.707-.045-5.5.016a2.806,2.806,0,0,1-2.672-1.4C81.008,70,78.444,66.2,75.911,62.386c-1-1.512-.852-2.437.566-3.508,2.5-1.886,4.976-3.793,7.523-5.607a4.05,4.05,0,0,1,2.12-.672c2.613-.079,5.231,0,7.844-.062a2.017,2.017,0,0,0,1.356-.667c1.317-1.633,2.521-3.357,3.82-5.006a1.508,1.508,0,0,0,.189-1.734c-1.034-2.487-2.008-5-3-7.5-.761-1.912-.647-2.341.913-3.641,3.418-2.848,6.832-5.7,10.554-8.808-2.878-1.725-5.589-3.328-8.272-4.974-.688-.422-1.1-.252-1.631.283-3.858,3.9-7.762,7.762-11.605,11.679a2.639,2.639,0,0,0-.684,1.644q-.1,4.952-.014,9.905a2.855,2.855,0,0,1-1.415,2.669C80.342,48.9,76.545,51.466,72.726,54c-1.435.95-2.181.868-3.395-.337-2.192-2.174-4.343-4.39-6.578-6.519A2.883,2.883,0,0,0,61,46.425c-2.656-.076-5.316-.022-7.974-.037-1.688-.009-2.438-.752-2.452-2.423-.017-1.972.012-3.945-.021-5.917a1.319,1.319,0,0,0-.36-.97c-2.162-1.357-4.362-2.654-6.594-4a45.07,45.07,0,0,0-9.061,21.545c3.079,0,5.993.067,8.9-.028a3.426,3.426,0,0,1,3.225,1.64c1.37,1.969,2.881,3.838,4.283,5.784a1.831,1.831,0,0,0,1.69.86c4.63-.038,9.261,0,13.891-.033a2.642,2.642,0,0,1,2.53,1.4c1.872,3.17,3.786,6.314,5.668,9.478.893,1.5.725,2.376-.649,3.421-1.978,1.5-3.939,3.036-5.976,4.456a2.248,2.248,0,0,0-1.076,2.229c.075,1.225.018,2.459.018,3.78H64.984l-2.066-.107c0-1.739.084-3.367-.024-4.982a3.5,3.5,0,0,1,1.7-3.451c2.005-1.368,3.9-2.9,5.892-4.391-1.4-2.338-2.756-4.56-4.052-6.817a1.611,1.611,0,0,0-1.629-.9c-4.582.039-9.164,0-13.747.031a2.684,2.684,0,0,1-2.4-1.182c-1.225-1.7-2.624-3.29-3.733-5.063a3.912,3.912,0,0,0-4.1-2.048c-2.193.186-4.413.044-6.581.044v7.946l-1.783.334M54.685,42.271c2.664,0,5.15-.086,7.624.047a4.274,4.274,0,0,1,2.469,1.016c2.026,1.845,3.932,3.825,5.84,5.8a1.1,1.1,0,0,0,1.714.2q4.12-2.853,8.34-5.561a1.6,1.6,0,0,0,.788-1.58c-.029-2.915.082-5.835-.048-8.744a4.886,4.886,0,0,1,1.705-4.05c3.489-3.358,6.873-6.827,10.3-10.255.31-.311.605-.637.95-1-16.651-6.242-36.932-.928-47.9,11.845,2.282,1.371,4.538,2.757,6.827,4.088A2.585,2.585,0,0,1,54.7,36.6c-.046,1.835-.012,3.672-.012,5.675" transform="translate(-23.794 -11.122)" fill="#010302"/>
      <path id="Trazado_261990" data-name="Trazado 261990" d="M189.793,120.159H191.8c.023-.538.057-.953.058-1.369q.006-6.178,0-12.355c0-2.129-.648-2.788-2.734-2.792-1.845,0-3.691.043-5.532-.032a1.916,1.916,0,0,1-1.34-.66c-2.048-2.961-4.024-5.972-6.121-9.116,2.017-1.51,4.012-3.031,6.048-4.494.266-.191.747-.106,1.128-.107,2.66-.008,5.319-.032,7.978.01a2.791,2.791,0,0,0,2.52-1.22c1.845-2.528,3.73-5.028,5.633-7.513a2.542,2.542,0,0,0,.359-2.756c-1.048-2.532-2.07-5.076-3.034-7.642a1.443,1.443,0,0,1,.211-1.286c3.187-2.731,6.425-5.4,9.747-8.169a45.318,45.318,0,0,1,13.8,28.617h2.033q.11,2.57.22,5.139a5.876,5.876,0,0,1-.4.491q-14.673,14.684-29.353,29.36c-.209.21-.453.386-.68.577-1.3-1.314-3.028-2.4-2.548-4.682" transform="translate(-119.79 -43.663)" fill="#ced371"/>
      <path id="Trazado_261991" data-name="Trazado 261991" d="M37.167,158.091l1.783-.334v-7.946c2.168,0,4.388.142,6.581-.044a3.912,3.912,0,0,1,4.1,2.048c1.109,1.772,2.508,3.36,3.733,5.062a2.683,2.683,0,0,0,2.4,1.183c4.582-.027,9.165.008,13.747-.031a1.612,1.612,0,0,1,1.629.9c1.3,2.257,2.655,4.479,4.052,6.817-1.991,1.5-3.887,3.024-5.892,4.391a3.5,3.5,0,0,0-1.7,3.451c.108,1.615.024,3.243.024,4.982l2.066.107-.037,5.414a25.5,25.5,0,0,0-16.439.029v-1.482c0-4.5-.058-9.009.024-13.512a5.126,5.126,0,0,0-2.889-4.905,18.079,18.079,0,0,0-8.156-2.021c-1.447-.071-2.9.066-4.357.108q-.334-2.11-.67-4.219" transform="translate(-28.501 -102.185)" fill="#ced371"/>
      <path id="Trazado_261992" data-name="Trazado 261992" d="M202.851,163.781c.227-.192.471-.367.681-.577q14.68-14.676,29.353-29.36a5.749,5.749,0,0,0,.4-.491l8.915-9.245H239.5v-4.146c2.821,0,5.678-.089,8.525.043,1.158.054,1.7,1.028,1.7,2.213-.006,2.613,0,5.225,0,7.923H245.68v-2.808c-.166-.057-.281-.124-.3-.1q-6.442,6.465-12.87,12.942a6.025,6.025,0,0,0-.5.4Q219,153.587,205.988,166.6a3.474,3.474,0,0,0-.305.406,15.361,15.361,0,0,1-1.232,1.108c-.606.443-1.249,1.149-1.9,1.171-3.456.116-6.918.055-10.426.055v-4.107c2.619,0,5.184-.084,7.74.034a2.98,2.98,0,0,0,2.981-1.487" transform="translate(-130.3 -82.602)" fill="#010302"/>
      <path id="Trazado_261993" data-name="Trazado 261993" d="M231.634,205.768a3.473,3.473,0,0,1,.305-.406q13.007-13.015,26.021-26.022a6.148,6.148,0,0,1,.5-.4,38.932,38.932,0,0,1-4.833,14.341c-1.693,3-3.811,5.754-5.739,8.618-1.018.014-2.036,0-3.052.048a2.021,2.021,0,0,0-2.092,2.093c-.047,1.016-.035,2.035-.049,3.053-.371.279-.73.572-1.114.832-1.674,1.136-3.355,2.262-5.034,3.392l-4.909-5.546" transform="translate(-156.251 -121.362)" fill="#ced371"/>
      <path id="Trazado_261994" data-name="Trazado 261994" d="M107.857,112.467l4.908,5.546c-.638.413-1.257.86-1.917,1.233a51.856,51.856,0,0,1-12.577,4.845,6.373,6.373,0,0,0-3.9-3.65,23.725,23.725,0,0,0-15.23-.55c-.369.1-.734.218-1.1.323-.037.011-.083-.013-.266-.048,0-1.362-.093-2.761.02-4.144.229-2.8-1.128-4.532-3.518-5.667-.226-.108-.434-.255-.651-.383l.037-5.414h2.054c0-1.321.058-2.555-.018-3.78a2.248,2.248,0,0,1,1.076-2.229c2.038-1.42,4-2.952,5.976-4.456,1.374-1.045,1.542-1.92.649-3.421-1.882-3.164-3.8-6.308-5.668-9.478a2.642,2.642,0,0,0-2.53-1.4c-4.63.034-9.261-.005-13.891.033a1.831,1.831,0,0,1-1.69-.86c-1.4-1.947-2.914-3.816-4.283-5.784a3.427,3.427,0,0,0-3.225-1.64c-2.908.1-5.821.028-8.9.028a45.073,45.073,0,0,1,9.06-21.545c2.232,1.341,4.432,2.639,6.594,4a1.319,1.319,0,0,1,.36.97c.033,1.972,0,3.945.02,5.918.015,1.671.765,2.414,2.452,2.423,2.658.015,5.318-.039,7.974.037a2.883,2.883,0,0,1,1.758.714c2.234,2.13,4.386,4.345,6.578,6.519,1.214,1.2,1.96,1.287,3.395.337,3.82-2.529,7.616-5.093,11.445-7.607a2.854,2.854,0,0,0,1.415-2.669q-.076-4.952.014-9.905a2.639,2.639,0,0,1,.684-1.644c3.844-3.917,7.747-7.776,11.605-11.679.529-.535.943-.705,1.631-.283,2.683,1.646,5.394,3.249,8.272,4.974-3.722,3.107-7.136,5.96-10.554,8.808-1.561,1.3-1.674,1.729-.913,3.641,1,2.5,1.97,5.015,3,7.5a1.508,1.508,0,0,1-.189,1.734c-1.3,1.649-2.5,3.372-3.82,5.006a2.02,2.02,0,0,1-1.356.667c-2.614.063-5.231-.017-7.844.061a4.051,4.051,0,0,0-2.12.673c-2.547,1.813-5.028,3.721-7.523,5.606-1.418,1.071-1.57,2-.566,3.508,2.533,3.818,5.1,7.615,7.61,11.447a2.805,2.805,0,0,0,2.672,1.4c1.794-.061,3.592-.016,5.5-.016v12.3l2.1.1c-.48,2.284,1.245,3.368,2.548,4.682a2.98,2.98,0,0,1-2.981,1.487c-2.556-.118-5.121-.034-7.74-.034V114.8c3.507,0,6.969.062,10.425-.055.647-.022,1.29-.728,1.9-1.171a15.43,15.43,0,0,0,1.232-1.107M90.05,110.772H86.089v4.007H90.05Z" transform="translate(-32.473 -28.062)" fill="#9be4eb"/>
      <rect id="Rectángulo_58568" data-name="Rectángulo 58568" width="12.186" height="53.406" transform="translate(107.152 64.189)" fill="#a3314f"/>
      <rect id="Rectángulo_58569" data-name="Rectángulo 58569" width="12.2" height="32.794" transform="translate(90.663 84.792)" fill="#a3314f"/>
      <rect id="Rectángulo_58570" data-name="Rectángulo 58570" width="12.233" height="16.33" transform="translate(74.198 101.227)" fill="#a3314f"/>
      <path id="Trazado_261996" data-name="Trazado 261996" d="M23.884,217.966a25.464,25.464,0,0,0,16.471.016c0,1.729.091,3.358-.057,4.964-.043.463-.7,1.031-1.2,1.262a16.808,16.808,0,0,1-9.172,1.162,32.645,32.645,0,0,1-5.061-1.282,1.371,1.371,0,0,1-1-1.572c.071-1.45.02-2.906.02-4.55" transform="translate(-19.76 -147.002)" fill="#ffb500"/>
      <path id="Trazado_261997" data-name="Trazado 261997" d="M23.879,248a25.484,25.484,0,0,0,16.469-.015c0,1.757.092,3.413-.06,5.046-.042.451-.742.992-1.26,1.221a17,17,0,0,1-9.178,1.127,32.375,32.375,0,0,1-4.941-1.244,1.448,1.448,0,0,1-1.052-1.669c.08-1.448.022-2.9.022-4.466" transform="translate(-19.755 -166.721)" fill="#ffb500"/>
      <path id="Trazado_261998" data-name="Trazado 261998" d="M23.884,278a25.478,25.478,0,0,0,16.472.012c0,1.69.1,3.278-.058,4.841a2.209,2.209,0,0,1-1.209,1.383,16.78,16.78,0,0,1-9.171,1.166,33.07,33.07,0,0,1-5.061-1.284,1.371,1.371,0,0,1-.993-1.574c.071-1.45.02-2.905.02-4.543" transform="translate(-19.76 -186.438)" fill="#ffb500"/>
      <path id="Trazado_261999" data-name="Trazado 261999" d="M100.345,277.984c0,1.728.1,3.319-.059,4.884a2.222,2.222,0,0,1-1.232,1.367,16.948,16.948,0,0,1-9.173,1.155,30.959,30.959,0,0,1-4.827-1.182,1.569,1.569,0,0,1-1.206-1.832c.106-1.4.026-2.818.026-4.373a25.478,25.478,0,0,0,16.472-.02" transform="translate(-59.161 -186.429)" fill="#ffb500"/>
      <path id="Trazado_262000" data-name="Trazado 262000" d="M23.884,308a25.463,25.463,0,0,0,16.471.016c0,1.729.091,3.358-.057,4.964-.043.463-.7,1.031-1.2,1.262a16.808,16.808,0,0,1-9.172,1.162,32.645,32.645,0,0,1-5.061-1.282,1.371,1.371,0,0,1-1-1.572c.071-1.449.02-2.905.02-4.55" transform="translate(-19.76 -206.148)" fill="#ffb500"/>
      <path id="Trazado_262001" data-name="Trazado 262001" d="M83.881,308.009A25.356,25.356,0,0,0,100.352,308c0,1.734.09,3.357-.056,4.958-.043.467-.682,1.046-1.184,1.276a16.894,16.894,0,0,1-9.171,1.177,31.577,31.577,0,0,1-4.949-1.22,1.5,1.5,0,0,1-1.136-1.747c.095-1.436.025-2.883.025-4.437" transform="translate(-59.168 -206.148)" fill="#ffb500"/>
      <path id="Trazado_262002" data-name="Trazado 262002" d="M143.907,308a25.463,25.463,0,0,0,16.471.016c0,1.729.091,3.358-.057,4.964-.043.463-.7,1.031-1.2,1.262a16.8,16.8,0,0,1-9.172,1.163,32.645,32.645,0,0,1-5.061-1.282,1.371,1.371,0,0,1-1-1.572c.071-1.449.02-2.905.02-4.55" transform="translate(-98.606 -206.148)" fill="#ffb500"/>
      <path id="Trazado_262003" data-name="Trazado 262003" d="M23.879,338.033a25.453,25.453,0,0,0,16.469-.005c0,1.755.092,3.411-.06,5.044-.042.45-.744.99-1.262,1.219a17,17,0,0,1-9.177,1.127,32.515,32.515,0,0,1-4.941-1.245,1.447,1.447,0,0,1-1.05-1.67c.079-1.447.022-2.9.022-4.47" transform="translate(-19.755 -225.873)" fill="#ffb500"/>
      <path id="Trazado_262004" data-name="Trazado 262004" d="M83.881,338.274c6.808,1.793,10.085,1.7,16.471,0,0,1.642.091,3.265-.056,4.867-.043.466-.684,1.045-1.186,1.272a16.963,16.963,0,0,1-9.171,1.177,31.854,31.854,0,0,1-4.949-1.221,1.5,1.5,0,0,1-1.134-1.748c.095-1.435.025-2.881.025-4.352" transform="translate(-59.169 -226.035)" fill="#ffb500"/>
      <path id="Trazado_262005" data-name="Trazado 262005" d="M143.892,338.26c6.465,1.7,9.827,1.807,16.471.014,0,1.642.091,3.269-.057,4.873-.043.464-.691,1.039-1.2,1.266a16.972,16.972,0,0,1-9.172,1.171,31.936,31.936,0,0,1-4.948-1.224,1.5,1.5,0,0,1-1.124-1.754c.094-1.4.024-2.819.024-4.345" transform="translate(-98.591 -226.025)" fill="#ffb500"/>
      <path id="Trazado_262006" data-name="Trazado 262006" d="M24.438,200.068c2.837-2.818,13.739-2.666,16.061-.037-1.985,2.547-12.857,2.925-16.061.037" transform="translate(-20.14 -133.89)" fill="#fdc94a"/>
      <path id="Trazado_262007" data-name="Trazado 262007" d="M84.427,259.975c3.511-2.682,12.806-2.665,16.068-.027-1.753,2.661-13.266,2.974-16.068.027" transform="translate(-59.547 -173.279)" fill="#fdc94a"/>
      <path id="Trazado_262008" data-name="Trazado 262008" d="M160.709,290.143c-3.511,2.68-12.787,2.667-16.068.032,1.78-2.669,13.31-2.971,16.068-.032" transform="translate(-99.103 -193.044)" fill="#fdc94a"/>
      <path id="Trazado_262009" data-name="Trazado 262009" d="M86.2,50.7c0-2-.034-3.839.012-5.675A2.585,2.585,0,0,0,84.8,42.5c-2.288-1.331-4.544-2.717-6.827-4.088,10.972-12.772,31.252-18.087,47.9-11.845-.344.364-.64.69-.95,1-3.423,3.427-6.807,6.9-10.3,10.255a4.886,4.886,0,0,0-1.705,4.05c.13,2.909.019,5.829.048,8.744a1.6,1.6,0,0,1-.788,1.58q-4.211,2.719-8.34,5.561a1.1,1.1,0,0,1-1.714-.2c-1.907-1.972-3.813-3.952-5.84-5.8a4.274,4.274,0,0,0-2.469-1.016c-2.474-.133-4.96-.047-7.624-.047" transform="translate(-55.308 -19.553)" fill="#ced371"/>
      <rect id="Rectángulo_58571" data-name="Rectángulo 58571" width="3.961" height="4.007" transform="translate(53.616 82.711)"/>
    </g>
  </g>
</svg>
