<svg xmlns="http://www.w3.org/2000/svg" xmlns:xlink="http://www.w3.org/1999/xlink" width="397.179" height="356.411" viewBox="0 0 397.179 356.411">
  <defs>
    <clipPath id="clip-path">
      <rect id="Rectángulo_53263" data-name="Rectángulo 53263" width="65.393" height="64.614" transform="translate(0 0)" fill="none"/>
    </clipPath>
  </defs>
  <g id="Grupo_237001" data-name="Grupo 237001" transform="translate(-927.821 -2462.064)">
    <g id="Rectángulo_53262" data-name="Rectángulo 53262" transform="translate(1024.667 2506.226)" fill="#fff" stroke="#707070" stroke-width="3">
      <rect width="300" height="197" stroke="none"/>
      <rect x="1.5" y="1.5" width="297" height="194" fill="none"/>
    </g>
    <path id="Trazado_259013" data-name="Trazado 259013" d="M0,0H297.892" transform="translate(1025.041 2604.486)" fill="none" stroke="#707070" stroke-width="3"/>
    <line id="Línea_1157" data-name="Línea 1157" x1="0.1" y2="194.965" transform="translate(1174.833 2506.6)" fill="none" stroke="#707070" stroke-width="3"/>
    <g id="Grupo_167704" data-name="Grupo 167704" transform="translate(1067.465 2524.784)">
      <path id="Trazado_259015" data-name="Trazado 259015" d="M128.861,89.695c-2.237,2.9-5.281,4.939-7.94,7.388-2.707,2.494-5.515,4.88-8.294,7.3a.829.829,0,0,0-.3.957c1.467,6.43,2.9,12.867,4.365,19.3a3.013,3.013,0,0,1-.509,2.934,2.7,2.7,0,0,1-3.672.4q-4.375-2.582-8.738-5.184c-2.836-1.684-5.676-3.361-8.5-5.062a.846.846,0,0,0-1.013.007q-8.582,5.121-17.182,10.212a2.746,2.746,0,0,1-3.638-.287,2.5,2.5,0,0,1-.71-2.379c.786-3.589,1.607-7.17,2.408-10.756a1.115,1.115,0,0,1,1.238-.954c.775.458.875.72.65,1.711-.765,3.384-1.539,6.767-2.277,10.157a1.027,1.027,0,0,0,.223.865.981.981,0,0,0,.89.016c1.571-.9,3.111-1.85,4.662-2.783.214-.113.433-.217.64-.34,4.191-2.486,8.39-4.958,12.562-7.476a1.751,1.751,0,0,1,2.064-.017q8.833,5.295,17.715,10.509a1.265,1.265,0,0,0,1.063.084c.193-.108.263-.665.193-.979q-2.229-10.051-4.524-20.087a1.763,1.763,0,0,1,.639-1.967q7.753-6.753,15.446-13.576a1.3,1.3,0,0,0,.44-.975c-.038-.221-.548-.371-.86-.528a1.137,1.137,0,0,0-.393-.056c-6.69-.621-13.378-1.261-20.071-1.841A1.83,1.83,0,0,1,103.665,85c-1.244-2.979-2.56-5.928-3.849-8.889-.27-.718-.589-1.442.287-2,.769-.15,1.179.221,1.469.906,1.222,2.89,2.485,5.762,3.705,8.653a.906.906,0,0,0,.85.663q6.788.6,13.573,1.235c2.03.186,4.058.407,6.091.551a3.145,3.145,0,0,1,3.07,2.237Z" transform="translate(-60.68 -63.389)" fill="#040403"/>
      <path id="Trazado_259016" data-name="Trazado 259016" d="M50.649,30.9c-.876.553-.557,1.278-.287,2-1.192,1.415-2.432,2.794-3.567,4.254A77.543,77.543,0,0,0,35.072,58.673,70.061,70.061,0,0,0,32.1,70.2,59.756,59.756,0,0,0,31.065,80.31c-1.55.934-3.091,1.885-4.662,2.783a.982.982,0,0,1-.89-.015,1.027,1.027,0,0,1-.223-.865c.738-3.39,1.512-6.773,2.277-10.157.224-.991.125-1.252-.651-1.711l.459-2.282c.88-.016,1.112-.2,1.314-1.073.4-1.726.755-3.463,1.192-5.179a1.5,1.5,0,0,0-.575-1.68q-6.82-5.954-13.611-11.94c-.684-.6-1.391-1.176-2.035-1.817a1.167,1.167,0,0,1-.344-.89c.045-.213.456-.422.74-.5a8.443,8.443,0,0,1,1.321-.139c6.448-.605,12.894-1.228,19.345-1.8a1.755,1.755,0,0,0,1.671-1.216Q40.417,32.4,44.514,23a1.425,1.425,0,0,1,.781-.753c.516-.142.673.363.841.754q1.006,2.351,2.021,4.7c.348.8.645.951,1.5.811l.991,2.4" transform="translate(-11.227 -20.173)" fill="#fdc74f"/>
      <path id="Trazado_259017" data-name="Trazado 259017" d="M39.266,18.293c-.858.14-1.155-.012-1.5-.811q-1.02-2.345-2.021-4.7c-.168-.392-.325-.9-.841-.755a1.426,1.426,0,0,0-.781.753Q30.03,22.191,26,31.626a1.755,1.755,0,0,1-1.671,1.216c-6.451.567-12.9,1.19-19.345,1.8a8.423,8.423,0,0,0-1.321.139c-.284.074-.7.282-.74.5a1.168,1.168,0,0,0,.344.89C3.912,36.8,4.62,37.379,5.3,37.98q6.8,5.974,13.611,11.94a1.5,1.5,0,0,1,.575,1.68c-.437,1.716-.794,3.453-1.192,5.179-.2.876-.434,1.056-1.314,1.072a1.161,1.161,0,0,1-.637-1.486c.361-1.484.649-2.985,1.018-4.466a.82.82,0,0,0-.315-.953q-7.512-6.573-15-13.17a2.738,2.738,0,0,1-.822-3.659A2.611,2.611,0,0,1,3.39,32.779q4.072-.393,8.145-.771,6.027-.559,12.057-1.1a.863.863,0,0,0,.806-.628Q28.313,21.135,32.256,12c.785-1.823,2.4-2.549,3.938-1.665a3.346,3.346,0,0,1,1.245,1.4c.794,1.652,1.47,3.361,2.206,5.042a1.137,1.137,0,0,1-.379,1.517" transform="translate(-0.834 -9.961)" fill="#040403"/>
      <path id="Trazado_259018" data-name="Trazado 259018" d="M119.768,133.657a59.741,59.741,0,0,1,1.031-10.115,70.06,70.06,0,0,1,2.976-11.522A77.543,77.543,0,0,1,135.5,90.5c1.136-1.459,2.375-2.838,3.567-4.254,1.289,2.96,2.605,5.909,3.849,8.889a1.83,1.83,0,0,0,1.768,1.276c6.693.58,13.382,1.22,20.071,1.841a1.134,1.134,0,0,1,.393.056c.312.157.822.308.86.528a1.3,1.3,0,0,1-.439.975q-7.7,6.815-15.446,13.576a1.763,1.763,0,0,0-.639,1.968q2.306,10.033,4.524,20.086c.07.314,0,.871-.193.979a1.267,1.267,0,0,1-1.063-.084q-8.877-5.222-17.715-10.509a1.752,1.752,0,0,0-2.064.017c-4.171,2.518-8.371,4.99-12.562,7.476-.208.123-.427.227-.641.34" transform="translate(-99.93 -73.52)" fill="#fedb63"/>
    </g>
    <g id="Grupo_167705" data-name="Grupo 167705" transform="translate(1215.607 2525.128)" clip-path="url(#clip-path)">
      <path id="Trazado_259020" data-name="Trazado 259020" d="M136.629,321.87a2.513,2.513,0,0,0-.423-.213,6.288,6.288,0,0,1-4.68-6.876,6.114,6.114,0,0,1,5.711-5.528,82.844,82.844,0,0,1,9.215.036,5.668,5.668,0,0,1,5.006,3.779,6.129,6.129,0,0,1-.795,6.308c-.485.661-.815.712-1.575.312a1.167,1.167,0,0,1,.108-1.548,4.4,4.4,0,0,0-2.258-6.819.966.966,0,0,0-.173-.078,4.241,4.241,0,0,0-4.421,1.363,4.42,4.42,0,0,0,3.11,7.334c.651.037,1.174.137,1.377.84l-.656,1.089Zm4.392-1.95c-2.3-2.971-2.265-5.886.017-8.833-1.165,0-2.244-.039-3.32.008a4.374,4.374,0,0,0-4.31,4.169,4.306,4.306,0,0,0,3.79,4.629,31.818,31.818,0,0,0,3.823.027" transform="translate(-109.169 -257.009)" fill="#040303"/>
      <path id="Trazado_259021" data-name="Trazado 259021" d="M51.2,12c-.586-.575-.64-.894-.191-1.611,3.641-5.806,8.84-9.3,15.68-9.854A71.712,71.712,0,0,1,78.951.578,20.247,20.247,0,0,1,96.2,15.315,20.573,20.573,0,0,1,83.925,39.959c-1.136.44-1.126.447-1.146,1.647a17.011,17.011,0,0,1-.137,2.852,6.08,6.08,0,0,1-5.8,5.059c-2.9.11-5.812.114-8.712-.008a6.122,6.122,0,0,1-5.8-5.848,16.48,16.48,0,0,1,1.28-8.506,13.339,13.339,0,0,1,7.455-6.808,7.894,7.894,0,0,0,5.391-7.734,7.718,7.718,0,0,0-3.46-6.265.658.658,0,0,0-.892,0,7.836,7.836,0,0,0-3.5,6.565,6.278,6.278,0,0,1-4.957,6.119A7.656,7.656,0,0,1,62,27.2c-2.418.017-4.836.014-7.253.006a6.284,6.284,0,0,1-6.6-6.765,38.327,38.327,0,0,1,.79-5.26c.138-.757.5-.936,1.294-.87a1.106,1.106,0,0,1,.521,1.459,17.2,17.2,0,0,0-.726,5.141,4.36,4.36,0,0,0,2.959,4.115c1.518.507,3.084.187,4.781.287a6.156,6.156,0,0,1-1.756-3.894,18.15,18.15,0,0,1,.164-3.423A20.334,20.334,0,0,1,67.049,2.684a3.842,3.842,0,0,0,.39-.28l.033-.006-.022.018a10.6,10.6,0,0,0-1.315.046,18.559,18.559,0,0,0-13.5,8.953A1.1,1.1,0,0,1,51.2,12M63.82,24.963a4.321,4.321,0,0,0,2.87-4.2,9.792,9.792,0,0,1,7.5-9.381,9.987,9.987,0,0,1,6.614.706c.143.088.284.179.429.263a9.714,9.714,0,0,1,4.179,12.36,9.837,9.837,0,0,1-5.881,5.455A11.23,11.23,0,0,0,73,36.388a13.949,13.949,0,0,0-.818,7.8,4.28,4.28,0,0,0,5.754,3.173,3.905,3.905,0,0,0,2.71-2.865,12.562,12.562,0,0,0,.208-2.835c.027-2.082.457-2.742,2.372-3.483A18.538,18.538,0,0,0,94.885,18.555C93.741,10.84,89.341,5.681,81.967,3.136A15.549,15.549,0,0,0,74.7,2.414c-.232.01-.467,0-.7.034A18.337,18.337,0,0,0,64.176,6.97a18,18,0,0,0-6.274,14.1,4.331,4.331,0,0,0,5.919,3.9M74.713,13.207c.292.276.475.446.654.62a9.672,9.672,0,0,1,1.877,11.562,9.915,9.915,0,0,1-5.552,4.77,11.352,11.352,0,0,0-6.616,6.392,15.512,15.512,0,0,0-.838,7A4.041,4.041,0,0,0,67.3,47.411a30.19,30.19,0,0,0,4.359.32,18.224,18.224,0,0,1-1.35-3.222,17.338,17.338,0,0,1-.17-3.669,13.1,13.1,0,0,1,1.74-6.491,13.609,13.609,0,0,1,7.288-6.114A7.83,7.83,0,0,0,82.112,15.44a7.738,7.738,0,0,0-7.4-2.233" transform="translate(-39.984 -0.676)" fill="#040302"/>
      <path id="Trazado_259022" data-name="Trazado 259022" d="M60.407,22.292a1.1,1.1,0,0,0,1.426-.589,18.559,18.559,0,0,1,13.5-8.953,10.6,10.6,0,0,1,1.315-.046l-.011-.012a3.84,3.84,0,0,1-.39.28A20.334,20.334,0,0,0,65.374,28.283a18.151,18.151,0,0,0-.164,3.423A6.156,6.156,0,0,0,66.966,35.6c-1.7-.1-3.263.22-4.781-.287A4.359,4.359,0,0,1,59.227,31.2a17.2,17.2,0,0,1,.726-5.141,1.106,1.106,0,0,0-.521-1.459l.976-2.305" transform="translate(-49.186 -10.965)" fill="#a3314f"/>
      <path id="Trazado_259023" data-name="Trazado 259023" d="M194.213,330.329c-.2-.7-.726-.8-1.377-.84a4.42,4.42,0,0,1-3.11-7.334,4.241,4.241,0,0,1,4.421-1.363.958.958,0,0,1,.173.078c-.126.142-.245.289-.378.424a5.342,5.342,0,0,0,.042,7.558c.4.394.815.765,1.223,1.146l-.994.331" transform="translate(-156.551 -266.557)" fill="#b55a72"/>
      <path id="Trazado_259024" data-name="Trazado 259024" d="M213.813,331.091c-.408-.381-.827-.752-1.223-1.146a5.342,5.342,0,0,1-.042-7.558c.132-.135.252-.282.378-.424a4.4,4.4,0,0,1,2.258,6.819,1.166,1.166,0,0,0-.108,1.548l-1.263.761" transform="translate(-175.156 -267.65)" fill="#e77a97"/>
      <path id="Trazado_259025" data-name="Trazado 259025" d="M150.316,329.34a31.812,31.812,0,0,1-3.823-.027,4.306,4.306,0,0,1-3.79-4.629,4.374,4.374,0,0,1,4.31-4.169c1.076-.047,2.155-.008,3.32-.008-2.282,2.947-2.32,5.862-.017,8.833" transform="translate(-118.464 -266.429)" fill="#a3314f"/>
      <path id="Trazado_259026" data-name="Trazado 259026" d="M146.974,21.7a9.987,9.987,0,0,0-6.614-.706,9.792,9.792,0,0,0-7.5,9.381,4.321,4.321,0,0,1-2.87,4.2,3.9,3.9,0,0,1-2.078-3.4,17.372,17.372,0,0,1,1.256-7.807,18.671,18.671,0,0,1,7.139-8.907,51.582,51.582,0,0,1,4.561-2.435,15.549,15.549,0,0,1,7.268.722c7.374,2.545,11.774,7.7,12.918,15.419A18.538,18.538,0,0,1,149.4,47.792c-1.916.74-2.345,1.4-2.372,3.483a12.564,12.564,0,0,1-.208,2.835,3.905,3.905,0,0,1-2.711,2.865,3.427,3.427,0,0,1-1.82-2.453,14.19,14.19,0,0,1,.049-6.778,12.191,12.191,0,0,1,7.836-8.887,8.716,8.716,0,0,0,5.6-5.865,8.343,8.343,0,0,0-1.269-7.634,8.54,8.54,0,0,0-7.533-3.66" transform="translate(-106.151 -10.29)" fill="#e77a97"/>
      <path id="Trazado_259027" data-name="Trazado 259027" d="M153.061,75.42a7.738,7.738,0,0,1,7.4,2.233,7.83,7.83,0,0,1-2.944,12.793,13.608,13.608,0,0,0-7.288,6.114,13.1,13.1,0,0,0-1.74,6.491,17.337,17.337,0,0,0,.17,3.669,18.226,18.226,0,0,0,1.35,3.222,30.19,30.19,0,0,1-4.359-.32,4.041,4.041,0,0,1-3.064-3.855,15.512,15.512,0,0,1,.838-7,11.352,11.352,0,0,1,6.616-6.392,9.914,9.914,0,0,0,5.552-4.77,9.672,9.672,0,0,0-1.877-11.562c-.179-.174-.362-.344-.654-.62" transform="translate(-118.333 -62.889)" fill="#a3314f"/>
      <path id="Trazado_259028" data-name="Trazado 259028" d="M197.187,69.6a8.54,8.54,0,0,1,7.533,3.66,8.343,8.343,0,0,1,1.269,7.634,8.716,8.716,0,0,1-5.6,5.865,12.19,12.19,0,0,0-7.836,8.887,14.19,14.19,0,0,0-.049,6.778,3.427,3.427,0,0,0,1.82,2.453,4.279,4.279,0,0,1-5.754-3.173,13.949,13.949,0,0,1,.818-7.8,11.23,11.23,0,0,1,6.529-6.227,9.836,9.836,0,0,0,5.881-5.455,9.714,9.714,0,0,0-4.178-12.36c-.145-.084-.286-.175-.429-.263" transform="translate(-156.364 -58.192)" fill="#b55a72"/>
      <path id="Trazado_259029" data-name="Trazado 259029" d="M122.352,12.751a51.607,51.607,0,0,0-4.561,2.435,18.67,18.67,0,0,0-7.139,8.907A17.369,17.369,0,0,0,109.4,31.9a3.9,3.9,0,0,0,2.078,3.4,4.331,4.331,0,0,1-5.919-3.9,18,18,0,0,1,6.274-14.1,18.336,18.336,0,0,1,9.828-4.522c.229-.033.464-.024.7-.034" transform="translate(-87.637 -11.014)" fill="#b55a72"/>
      <path id="Trazado_259030" data-name="Trazado 259030" d="M161.66,12.552l.022-.018-.033.006.011.012" transform="translate(-134.195 -10.813)" fill="#fb7b42"/>
    </g>
    <g id="Grupo_167709" data-name="Grupo 167709" transform="translate(1065.908 2614.311)">
      <path id="Trazado_259033" data-name="Trazado 259033" d="M30.168,70.092a1.044,1.044,0,0,1-1.24.838c-4.427-.727-8-3.091-9.421-7.984a12.047,12.047,0,0,1,.415-7.832,3.94,3.94,0,0,0,.186-2.423c-.819-3.389-1.677-6.77-2.467-10.166-.418-1.8-.727-3.618-1.063-5.317a48.772,48.772,0,0,1-5-1.769c-4.606-2.19-7.3-5.975-8.57-10.834a2.258,2.258,0,0,1,1.852-2.78,19.126,19.126,0,0,1,13.3,1.506c.015.008.041,0,.082-.01.239-.312.394-.574.078-1.01a18.948,18.948,0,0,1-3.465-12.17,20.187,20.187,0,0,1,2.478-9.009A6.09,6.09,0,0,1,18.382,0h.974a2.326,2.326,0,0,1,1.429,1.77A31.216,31.216,0,0,0,22.174,5.9a14.61,14.61,0,0,0,5.955,7.2,1.1,1.1,0,0,0,1.087.087,22.538,22.538,0,0,1,16.661-.462,3.371,3.371,0,0,0,3.966-.866c.334-.321.687-.623,1-.961a19.694,19.694,0,0,0,4.54-8.918A2.6,2.6,0,0,1,56.777,0h.974A3.1,3.1,0,0,1,59.21,1.724a20.391,20.391,0,0,1,.04,18.429A20.189,20.189,0,0,1,57.9,22.329c-.3.467-.321.456-.015,1.007,1.087-.42,2.164-.863,3.26-1.249.859-.3,1.121-.178,1.593.589a1.193,1.193,0,0,1-.959,1.253c-1.077.382-2.129.836-3.2,1.264A15.044,15.044,0,0,1,59,26.8c.29,2.054.546,4.113.815,6.17v2.017c.076-.01.166-.016.253-.035A13.937,13.937,0,0,0,71.136,24.829c.32-1.026.244-1.117-.864-1.189-1.229-.133-2.456-.3-3.689-.384a1.138,1.138,0,0,1-1.217-.883c.148-.828.433-1.137,1.237-1.069,1.634.139,3.272.288,4.887.559A2.233,2.233,0,0,1,73.171,24.8C71.548,30.608,68,34.615,62.157,36.434c-.814.254-1.656.419-2.507.63-.233,1.4-.387,2.853-.726,4.26-.682,2.828-1.5,5.622-2.192,8.448-.334,1.367-.516,2.771-.735,4.164a1.54,1.54,0,0,0,.159.718,12.233,12.233,0,0,1-.645,11.08c-1.855,3.149-4.786,4.635-8.28,5.2-.529.086-1.055.186-1.583.28H37.023a2.233,2.233,0,0,0-.514-.129c-1-.01-1.99,0-2.986,0l-.664-.853c.15-.739.606-.993,1.348-.988,3.246.02,6.492.022,9.737-.012a13.737,13.737,0,0,0,5.179-.8l.307-.11-.006.005a16.1,16.1,0,0,0,2.771-1.64A8.984,8.984,0,0,0,55.1,58.4a10.215,10.215,0,0,0-6.952-8.87,4.229,4.229,0,0,0-.7-.3,64.237,64.237,0,0,0-6.278-1.4,25.321,25.321,0,0,0-13.842,2,10.6,10.6,0,0,0-6.016,12.281c.976,4.005,3.73,6.14,7.685,6.843.7.124,1.1.425,1.167,1.134M54.635,18.258l1.952,2.556c.172-.26.346-.5.5-.761A17.025,17.025,0,0,0,59.339,9.231a36.185,36.185,0,0,0-1-4.439L57.474,2.51c-1.492,4.707-3.533,8.937-7.507,11.739l4.669,4.009M17.667,5.416a1.926,1.926,0,0,0-.142.3,18.747,18.747,0,0,0,.466,11.96c.415,1.078,1.025,2.081,1.589,3.207l1.88-2.471,4.868-4.122c-4.062-2.83-6.1-7.1-7.48-12.029l-.924,2.384-.089.219-.168.547m-1.249,27.55a29.092,29.092,0,0,1,1.049-7.313.652.652,0,0,0-.25-.569A16.379,16.379,0,0,0,6,23.632c-1.185.083-1.249.161-.895,1.281a13.922,13.922,0,0,0,10,9.793c.429.121.871.2,1.315.3Zm36.455,17,1.507,1.343c.257-1.123.524-2.353.821-3.577.9-3.721,2.221-7.343,2.5-11.211a26.272,26.272,0,0,0-1.35-11.683A16.972,16.972,0,0,0,45.923,14.767a20,20,0,0,0-6.731-1.38,38.193,38.193,0,0,0,.026,3.871c.169,1.629.634,3.229.777,4.858.286,3.26-1.356,5.448-4.416,6.06a9.473,9.473,0,0,1-1.862.2,6.988,6.988,0,0,0-6.339,3.686c-.442.733-.878,1.47-1.352,2.183-.614.924-1.224,1.855-1.9,2.731a6.609,6.609,0,0,1-3.955,2.4l-1.227.267,3.02,11.665c.7-.6,1.385-1.3,2.171-1.854A15.751,15.751,0,0,1,26.649,48c7.773-3.571,19.682-3.09,26.224,1.968M37.147,13.391a.715.715,0,0,0-.24-.017,40.43,40.43,0,0,0-4.768.833C26.023,16,21.677,19.787,19.5,25.876a20.233,20.233,0,0,0-1.08,6.335c-.045,1.77.108,3.545.176,5.376a4.983,4.983,0,0,0,4.194-2.068c1.161-1.643,2.18-3.385,3.315-5.047a8.143,8.143,0,0,1,6.517-3.937,18.946,18.946,0,0,0,3.019-.4,2.646,2.646,0,0,0,2.245-2.27,11.719,11.719,0,0,0,.025-2.894c-.188-1.671-.544-3.323-.747-4.993a22.031,22.031,0,0,1-.018-2.59" transform="translate(-2.931)" fill="#040303"/>
      <path id="Trazado_259035" data-name="Trazado 259035" d="M222.87,511.04c1,0,1.99-.011,2.986,0a2.236,2.236,0,0,1,.514.129h-3.478a.125.125,0,0,0-.022-.129" transform="translate(-192.278 -439.952)" fill="#1c1c1c"/>
      <path id="Trazado_259036" data-name="Trazado 259036" d="M302.036,512h0Z" transform="translate(-260.432 -440.783)" fill="#6c6c6c"/>
      <path id="Trazado_259037" data-name="Trazado 259037" d="M409.8,160.852a1.137,1.137,0,0,0,1.216.883c1.233.079,2.46.251,3.689.384a13.973,13.973,0,0,1-6.545,7.83,28.369,28.369,0,0,1-3.913,1.5c-.269-2.057-.525-4.116-.815-6.17a14.974,14.974,0,0,0-.419-1.605c1.075-.428,2.126-.882,3.2-1.264a1.194,1.194,0,0,0,.959-1.253l2.624-.3" transform="translate(-347.36 -138.478)" fill="#fdbfb7"/>
      <path id="Trazado_259038" data-name="Trazado 259038" d="M142.019,364.729c-.068-.709-.469-1.01-1.167-1.134-3.955-.7-6.71-2.838-7.685-6.843a10.6,10.6,0,0,1,6.016-12.281,25.322,25.322,0,0,1,13.842-2,64.231,64.231,0,0,1,6.278,1.4,4.237,4.237,0,0,1,.7.3c.172.173.337.353.517.518a18.289,18.289,0,0,1,2.322,2.159,11.834,11.834,0,0,1,2.461,9,9.709,9.709,0,0,1-3.426,6.409,5.4,5.4,0,0,0-.6.7l.006-.005-.307.11a13.736,13.736,0,0,1-5.179.8c-3.246.035-6.492.033-9.737.012-.742,0-1.2.249-1.348.988l-2.692-.143m5.1-10.937a9.833,9.833,0,0,0-.668-1.686c-.39-.624-1.023-.587-1.485-.013a3.155,3.155,0,0,0,0,3.445c.467.581,1.091.623,1.48-.009a9.867,9.867,0,0,0,.671-1.737m8.477.033a9.873,9.873,0,0,0-.674-1.726c-.386-.624-1.021-.578-1.483,0a3.141,3.141,0,0,0,.012,3.445c.469.575,1.091.608,1.483-.024a9.841,9.841,0,0,0,.662-1.7" transform="translate(-114.782 -294.637)" fill="#fdc0b7"/>
      <path id="Trazado_259039" data-name="Trazado 259039" d="M151.949,132.83c-6.542-5.058-18.45-5.539-26.224-1.968a15.734,15.734,0,0,0-2.519,1.45c-.786.557-1.476,1.252-2.171,1.854L118.015,122.5l1.228-.267a6.609,6.609,0,0,0,3.955-2.4c.68-.875,1.29-1.806,1.9-2.73.473-.713.909-1.45,1.352-2.183a6.988,6.988,0,0,1,6.339-3.686,9.472,9.472,0,0,0,1.862-.2c3.06-.613,4.7-2.8,4.416-6.06-.143-1.629-.608-3.229-.777-4.858a38.231,38.231,0,0,1-.026-3.871A20,20,0,0,1,145,97.627a1.954,1.954,0,0,0,.327.4c.992.711,2.03,1.364,2.988,2.118a16.725,16.725,0,0,1,5.42,8.059,27.418,27.418,0,0,1,1.035,11.538,44.087,44.087,0,0,1-1.691,8.172c-.471,1.609-.758,3.272-1.128,4.911m-6.39-11.494a1.537,1.537,0,0,0-1.519,1.557,1.562,1.562,0,0,0,1.519,1.5,1.528,1.528,0,0,0,1.542-1.533,1.51,1.51,0,0,0-1.541-1.523m-15.23,1.544a1.529,1.529,0,0,0-3.056-.077,1.529,1.529,0,1,0,3.056.077" transform="translate(-102.007 -82.86)" fill="#e5e5e5"/>
      <path id="Trazado_259040" data-name="Trazado 259040" d="M132.97,96.137a22.028,22.028,0,0,0,.018,2.59c.2,1.67.559,3.322.747,4.993a11.719,11.719,0,0,1-.025,2.894,2.646,2.646,0,0,1-2.245,2.27,18.948,18.948,0,0,1-3.019.4,8.143,8.143,0,0,0-6.517,3.937c-1.135,1.662-2.155,3.4-3.315,5.047a4.983,4.983,0,0,1-4.194,2.068c-.068-1.831-.22-3.606-.176-5.376a20.234,20.234,0,0,1,1.08-6.335c2.176-6.089,6.521-9.874,12.638-11.669a40.426,40.426,0,0,1,4.768-.833.714.714,0,0,1,.24.017" transform="translate(-98.753 -82.745)" fill="#595b5d"/>
      <path id="Trazado_259041" data-name="Trazado 259041" d="M24.989,167.511a16.379,16.379,0,0,1,11.218,1.451.652.652,0,0,1,.25.569,29.1,29.1,0,0,0-1.049,7.313,2.742,2.742,0,0,1-.618-.054,14.528,14.528,0,0,1-7.851-5.492,32.223,32.223,0,0,1-1.95-3.786" transform="translate(-21.921 -143.878)" fill="#fdbfb6"/>
      <path id="Trazado_259042" data-name="Trazado 259042" d="M318.962,141.371c.37-1.639.656-3.3,1.128-4.911a44.091,44.091,0,0,0,1.692-8.172,27.418,27.418,0,0,0-1.035-11.538,16.725,16.725,0,0,0-5.42-8.059c-.958-.754-2-1.407-2.988-2.118a1.955,1.955,0,0,1-.327-.4,16.972,16.972,0,0,1,10.426,10.075,26.272,26.272,0,0,1,1.35,11.683c-.276,3.868-1.595,7.49-2.5,11.211-.3,1.223-.564,2.454-.821,3.577l-1.507-1.343" transform="translate(-269.02 -91.401)" fill="#cbcbcb"/>
      <path id="Trazado_259043" data-name="Trazado 259043" d="M109.131,18.667l.924-2.384c1.383,4.926,3.418,9.2,7.481,12.029l-4.868,4.122c-.152-.281-.289-.57-.457-.842a20.072,20.072,0,0,1-3.049-9.728c-.04-.813-.189-1.62-.288-2.43l.168-.547.089-.219" transform="translate(-94.138 -14.018)" fill="#ba7b52"/>
      <path id="Trazado_259044" data-name="Trazado 259044" d="M345.752,33.794l-4.669-4.009c3.974-2.8,6.016-7.032,7.507-11.739l.869,2.282c-.011.484-.014.969-.036,1.453a32.9,32.9,0,0,1-.187,3.371,19.07,19.07,0,0,1-1.91,6.162c-.457.863-1.045,1.656-1.574,2.48" transform="translate(-294.048 -15.536)" fill="#ba7c52"/>
      <path id="Trazado_259045" data-name="Trazado 259045" d="M411.878,179.284a28.364,28.364,0,0,0,3.913-1.5,13.973,13.973,0,0,0,6.545-7.83c1.108.072,1.184.164.864,1.189a13.937,13.937,0,0,1-11.069,10.122c-.087.019-.177.025-.253.035Z" transform="translate(-354.995 -146.316)" fill="#fab0a5"/>
      <path id="Trazado_259046" data-name="Trazado 259046" d="M18.283,169.9a32.221,32.221,0,0,0,1.95,3.786,14.528,14.528,0,0,0,7.851,5.492,2.741,2.741,0,0,0,.618.054v2.04c-.444-.1-.885-.178-1.315-.3a13.922,13.922,0,0,1-10-9.793c-.355-1.119-.29-1.2.895-1.281" transform="translate(-15.215 -146.268)" fill="#fbb1a6"/>
      <path id="Trazado_259047" data-name="Trazado 259047" d="M374.647,47.918c.529-.825,1.118-1.617,1.574-2.48a19.068,19.068,0,0,0,1.91-6.162,32.9,32.9,0,0,0,.187-3.371c.022-.484.024-.968.036-1.453a36.191,36.191,0,0,1,1,4.439A17.024,17.024,0,0,1,377.1,49.714c-.155.256-.329.5-.5.761l-1.952-2.556" transform="translate(-322.943 -29.661)" fill="#ac653d"/>
      <path id="Trazado_259048" data-name="Trazado 259048" d="M103.31,38.934c.1.81.248,1.617.288,2.43a20.072,20.072,0,0,0,3.049,9.728c.168.271.305.561.457.842l-1.88,2.472c-.565-1.126-1.174-2.129-1.589-3.207a18.748,18.748,0,0,1-.467-11.96,1.939,1.939,0,0,1,.142-.3" transform="translate(-88.574 -33.518)" fill="#ac643d"/>
      <path id="Trazado_259049" data-name="Trazado 259049" d="M329.3,374.9a5.384,5.384,0,0,1,.6-.7,9.709,9.709,0,0,0,3.426-6.409,11.834,11.834,0,0,0-2.461-9,18.286,18.286,0,0,0-2.322-2.159c-.179-.165-.345-.345-.517-.518a10.216,10.216,0,0,1,6.952,8.87,8.983,8.983,0,0,1-2.905,8.282A16.071,16.071,0,0,1,329.3,374.9" transform="translate(-282.803 -306.578)" fill="#fab0a5"/>
      <path id="Trazado_259050" data-name="Trazado 259050" d="M335.033,491.295l.307-.11-.307.11" transform="translate(-288.839 -422.864)" fill="#fab0a5"/>
      <path id="Trazado_259051" data-name="Trazado 259051" d="M110.17,33.424l-.089.219.089-.219" transform="translate(-95.177 -28.775)" fill="#ac643d"/>
      <path id="Trazado_259052" data-name="Trazado 259052" d="M218.956,412.034a9.871,9.871,0,0,1-.671,1.737c-.389.632-1.013.591-1.48.009a3.155,3.155,0,0,1,0-3.445c.462-.574,1.095-.611,1.485.013a9.838,9.838,0,0,1,.668,1.686" transform="translate(-186.616 -352.878)" fill="#161515"/>
      <path id="Trazado_259053" data-name="Trazado 259053" d="M279.889,412.052a9.837,9.837,0,0,1-.662,1.7c-.391.632-1.014.6-1.483.024a3.141,3.141,0,0,1-.012-3.445c.462-.581,1.1-.627,1.483,0a9.871,9.871,0,0,1,.673,1.726" transform="translate(-239.071 -352.864)" fill="#161514"/>
      <path id="Trazado_259054" data-name="Trazado 259054" d="M306.632,276.621a1.51,1.51,0,0,1,1.541,1.523,1.528,1.528,0,0,1-1.542,1.533,1.562,1.562,0,0,1-1.519-1.5,1.537,1.537,0,0,1,1.519-1.557" transform="translate(-263.08 -238.144)" fill="#151515"/>
      <path id="Trazado_259055" data-name="Trazado 259055" d="M187.621,278.158a1.529,1.529,0,1,1-3.056-.078,1.529,1.529,0,0,1,3.056.078" transform="translate(-159.3 -238.137)" fill="#151515"/>
    </g>
    <g id="Grupo_167712" data-name="Grupo 167712" transform="translate(1216.008 2614.426)">
      <path id="Trazado_259057" data-name="Trazado 259057" d="M24.232,71.632a8.542,8.542,0,0,1-1.347-1.393,1.9,1.9,0,0,1-.1-1.335q2.9-11.116,5.866-22.215c.241-.9.656-1.761.009-2.648a.294.294,0,0,1-.042-.131,8.9,8.9,0,0,0-3.312-5.7c-1.449-1.253-2.711-2.719-4.1-4.046a8.086,8.086,0,0,1-2.485-6.976A16.441,16.441,0,0,1,23.753,16.6c.58-.565,1.127-1.165,1.723-1.713a10.271,10.271,0,0,0,2.972-4.664,5.431,5.431,0,0,1,4.022-3.667,1.686,1.686,0,0,0,.819-.515A8.28,8.28,0,0,1,36.033,3.97,30.452,30.452,0,0,1,49.74.541,31.435,31.435,0,0,1,64.786,3.618a8.781,8.781,0,0,1,3.584,2.645.926.926,0,0,0,.517.269,5.6,5.6,0,0,1,4.285,4.01,8.882,8.882,0,0,0,2.306,3.8A54.988,54.988,0,0,1,79.3,18.362a15.684,15.684,0,0,1,3.514,9.86,7.489,7.489,0,0,1-2.232,5.634c-2.034,2.055-4.106,4.075-6.114,6.155a4.873,4.873,0,0,0-.949,1.631c-.419,1.091-.746,2.217-1.095,3.334a.875.875,0,0,0,.022.462c1.032,3.782,2.085,7.558,3.1,11.344,1.047,3.9,2.061,7.807,3.086,11.712.418,1.591.036,2.377-1.506,3.14ZM62.587,4.966l-.174-.1c-.6-.241-1.207-.459-1.79-.731a.69.69,0,0,0-.9.223c-.753.784-1.544,1.532-2.3,2.315A7.292,7.292,0,0,0,55.5,13.711c.387,1.71.889,3.395,1.364,5.084a1,1,0,0,0,.421.572,12.593,12.593,0,0,1,5.437,5.473c.27.759.581,1.506.8,2.279.6,2.08.356,4.219.381,6.338.011.971-.171,1.205-1.071,1.519-.9-.318-1.021-.49-1.019-1.469,0-1.087.017-2.174.016-3.261A9.988,9.988,0,0,0,55.363,20.8a14.326,14.326,0,0,0-6.422-.67,10.069,10.069,0,0,0-9.259,9.785c-.025,4.949.026,9.9.117,14.847a4.767,4.767,0,0,0,.687,2.127c.561,1,1.244,1.088,2.2.441a2.235,2.235,0,0,0,.679-.678,33.692,33.692,0,0,1,5.808-7.215,1.781,1.781,0,0,0,.491-1.023c.075-.749.023-1.512.023-2.259-1.931-.374-2.271-.622-3.278-2.257a1.374,1.374,0,0,0-.6-.5,2.536,2.536,0,0,1-1.655-2.488,6.46,6.46,0,0,1,5.766-6.459,6.55,6.55,0,0,1,7.333,5.293c.333,2,.021,2.623-1.838,3.738a.873.873,0,0,0-.3.362,3.547,3.547,0,0,1-3.323,2.253,12.25,12.25,0,0,1-.007,1.29,2.9,2.9,0,0,0,1.062,2.625A28.977,28.977,0,0,1,58,46.418a3.2,3.2,0,0,0,1.133,1.063c.792.447,1.242.3,1.79-.421a3.933,3.933,0,0,0,.817-2.449q0-2.706.029-5.412c.008-.9.189-1.136,1.029-1.395.886.245,1.036.438,1.041,1.36,0,.65,0,1.3,0,1.949a2.3,2.3,0,0,0,.522-.993c.447-1.625.868-3.257,1.322-4.88a35.233,35.233,0,0,0,1.689-8.964c.075-5.528.046-11.058.027-16.587a3.469,3.469,0,0,0-1.5-2.988A35.083,35.083,0,0,0,62.6,4.962ZM37.7,45.535a1.847,1.847,0,0,0-.8-1.883,5,5,0,0,1-1.7-2.714c-.131-.451-.265-.9-.422-1.437l-1.652,3.4a8.858,8.858,0,0,1-1.2,1.926,5.871,5.871,0,0,0-1.442,2.993q-1.4,5.174-2.744,10.36c-.845,3.231-1.673,6.468-2.508,9.7l-.468,1.612H76.719c-.039-.173-.061-.284-.089-.392-1.473-5.6-2.891-11.22-4.444-16.8-.768-2.759-1.026-5.684-2.952-8.089a28.515,28.515,0,0,1-2.49-4.527l-1.111,2.806a3.709,3.709,0,0,1-.607.753,3.221,3.221,0,0,0-1.355,2.591A5.359,5.359,0,0,1,62.012,49c1.769,3.416,4.2,4.278,6.252,2.261a1.134,1.134,0,0,0,.178-.1,1.283,1.283,0,0,1,1.7-.18,1.334,1.334,0,0,1,.445,1.66q-.614,1.932-1.227,3.865c-.151.257-.32.5-.446.772-.111.234-.315.564-.232.725a2.073,2.073,0,0,1-.019,1.737c-.408,1.192-.84,2.376-1.261,3.564l-.265.429-.172.262a10.683,10.683,0,0,1-4.058,3.335,9.544,9.544,0,0,1-6.734.405,13.328,13.328,0,0,1-5.3-4.025c-.638.563-1.237,1.074-1.814,1.608-.651.6-1.024.63-1.751.083a1.139,1.139,0,0,1,.26-1.553c.306-.282.584-.594.887-.88a3.728,3.728,0,0,0,1.246-2.546c.054-.794.4-1.145,1.019-1.158.648-.014,1.014.346,1.073,1.176A3.671,3.671,0,0,0,53,62.928c.319.3.622.622.934.931A7.2,7.2,0,0,0,64.9,63.2a20.779,20.779,0,0,0,1.418-2.38A30.2,30.2,0,0,0,63.3,61.906a1.036,1.036,0,0,1-1.485-.558c-.229-.588.067-1.062.764-1.4a14.682,14.682,0,0,0,2.3-1.252,8.316,8.316,0,0,0,3.171-4.742c-.225.071-.349.112-.473.15a5.492,5.492,0,0,1-6.5-2.527c-.273-.455-.507-.936-.8-1.374a.956.956,0,0,0-.56-.4,4.713,4.713,0,0,1-2.647-1.195,14.076,14.076,0,0,1-12.537.051,5.681,5.681,0,0,1-1.819.889,2.5,2.5,0,0,0-2.116,1.759,4.11,4.11,0,0,1-.282.477A5.1,5.1,0,0,1,36.357,54.3a19.568,19.568,0,0,1-2.84-.153c0-.038-.008.007,0,.048a3.37,3.37,0,0,0,.093.332,8.624,8.624,0,0,0,5.208,5.4c.793.311,1.094.79.883,1.39-.225.642-.809.87-1.6.564-.929-.361-1.84-.768-2.778-1.163.656,3.216,4.545,5.8,7.966,5.3a1.211,1.211,0,0,1,1.511.749l-.377,1.112a5.725,5.725,0,0,1-1.418.259c-1.168-.08-2.329-.264-3.493-.406a11.286,11.286,0,0,1-3.887-2.465,10.851,10.851,0,0,1-2.779-5.412c-.143-.623-.42-1.233-.013-1.873.063-.1-.035-.352-.125-.491a17.249,17.249,0,0,1-1.869-5.19A1.268,1.268,0,0,1,32.8,50.974c.267.182.5.409.76.6a3.371,3.371,0,0,0,4.844-.712c.41-.58.736-1.22,1.121-1.869A6.514,6.514,0,0,1,37.7,45.535m-4.726-27.5c-.759-.191-.989-.7-.98-1.447.029-2.336.014-4.673.012-7.009,0-.165-.027-.33-.046-.552a4.362,4.362,0,0,0-1.747,2.341,15.45,15.45,0,0,1-1.719,3.286,25.365,25.365,0,0,1-2.964,3.108,14.723,14.723,0,0,0-4.727,9.53,6.112,6.112,0,0,0,1.79,5.308c2.038,1.985,4.024,4.026,6.048,6.026a4.757,4.757,0,0,1,1.336,2.3c.165.678.366,1.348.564,2.067a22.771,22.771,0,0,0,3.121-7.055,2.2,2.2,0,0,0-.087-.949A39.063,39.063,0,0,1,32,22.051c.033-.871.25-1.139,1.117-1.268.733.122.957.6.975,1.29.053,2.079,0,4.17.228,6.232.453,4.173,1.9,8.127,2.928,12.173a4.617,4.617,0,0,0,.335.726c0-3.683-.013-7.245,0-10.806a11.961,11.961,0,0,1,6.457-10.949,1.41,1.41,0,0,0,.607-.74c.475-1.616.939-3.238,1.325-4.878a7.339,7.339,0,0,0-1.9-7.168c-.77-.8-1.55-1.592-2.364-2.346a.881.881,0,0,0-.76-.169c-1.532.639-3.067,1.28-4.552,2.019a4.019,4.019,0,0,0-2.308,3.884c.006,2.174,0,4.348,0,6.523,0,.978-.173,1.2-1.113,1.462m36.536-9.02c-.009.2-.017.292-.017.382q0,7.6.01,15.194a27.459,27.459,0,0,1-.97,7.879c-.618,2.1-.939,4.106.138,6.152.757,1.437,1.415,2.926,2.117,4.392a4.55,4.55,0,0,0,.584-1.52,5.993,5.993,0,0,1,1.9-3.3c1.934-1.858,3.8-3.788,5.7-5.677a5.636,5.636,0,0,0,1.758-4.363,13.818,13.818,0,0,0-3.111-8.567,41.79,41.79,0,0,0-3.306-3.455,11.086,11.086,0,0,1-3.178-5.111,3.25,3.25,0,0,0-1.631-2.011M46.956,18.329a20.353,20.353,0,0,1,7.6-.014c-.331-1.246-.635-2.4-.947-3.562a9.523,9.523,0,0,1,2.615-9.845c.5-.5,1.046-.951,1.571-1.424l-.131-.214A34.269,34.269,0,0,0,43.753,3.4c.622.72,1.344,1.3,1.966,1.979a9.2,9.2,0,0,1,2.4,8.319c-.291,1.534-.754,3.036-1.161,4.633M45.823,46.688c1.474,1.734,8.365,1.736,9.858,0a28.536,28.536,0,0,0-4.936-5.824,28.624,28.624,0,0,0-4.922,5.829M48.6,33.42c.822.867,3.718.8,4.216,0a3.28,3.28,0,0,1-1.136-3.642.968.968,0,0,1,1.088-.762.915.915,0,0,1,.914.944,4.482,4.482,0,0,1,0,.831c-.067.558.165.738.709.705.491-.029.839-.076.844-.714a4.5,4.5,0,0,0-8.971-.187c-.009.6.126.874.79.912.731.042.809-.314.756-.874a3.983,3.983,0,0,1,0-.555c.031-.664.361-1.047.94-1.067a.956.956,0,0,1,1.1.92c.1,1.316.281,2.692-1.251,3.487" transform="translate(-18.671 -0.531)" fill="#030302"/>
      <path id="Trazado_259058" data-name="Trazado 259058" d="M110.016,277.994a1.211,1.211,0,0,0-1.511-.749c-3.421.5-7.31-2.08-7.966-5.3.938.4,1.849.8,2.778,1.163.789.306,1.372.078,1.6-.564.21-.6-.09-1.079-.883-1.39a8.624,8.624,0,0,1-5.208-5.4,3.37,3.37,0,0,1-.093-.332c-.01-.041,0-.085,0-.048a19.624,19.624,0,0,0,2.84.153,5.1,5.1,0,0,0,3.947-2.508,4.111,4.111,0,0,0,.282-.477,2.5,2.5,0,0,1,2.116-1.759,5.673,5.673,0,0,0,1.819-.889,14.076,14.076,0,0,0,12.537-.051,4.715,4.715,0,0,0,2.647,1.195.956.956,0,0,1,.56.4c.3.438.531.918.8,1.374a5.492,5.492,0,0,0,6.5,2.527c.124-.037.248-.078.473-.15a8.316,8.316,0,0,1-3.171,4.742,14.665,14.665,0,0,1-2.3,1.252c-.7.334-.993.808-.764,1.4a1.036,1.036,0,0,0,1.485.558,30.2,30.2,0,0,1,3.022-1.087,20.775,20.775,0,0,1-1.418,2.379,7.2,7.2,0,0,1-10.961.659c-.313-.309-.616-.628-.934-.931a3.671,3.671,0,0,1-1.208-2.49c-.059-.83-.424-1.19-1.073-1.176-.616.013-.965.364-1.019,1.158a3.728,3.728,0,0,1-1.246,2.546c-.3.285-.581.6-.887.88a1.139,1.139,0,0,0-.26,1.552l-2.508,1.363" transform="translate(-83.882 -211.765)" fill="#f7f4f7"/>
      <path id="Trazado_259059" data-name="Trazado 259059" d="M155.077,123.546c-.84.259-1.021.492-1.029,1.395q-.024,2.706-.029,5.412a3.933,3.933,0,0,1-.817,2.449c-.547.719-1,.868-1.79.421a3.2,3.2,0,0,1-1.133-1.063,28.972,28.972,0,0,0-5.151-6.411,2.9,2.9,0,0,1-1.062-2.625,12.2,12.2,0,0,0,.007-1.29,3.546,3.546,0,0,0,3.323-2.252.872.872,0,0,1,.3-.362c1.859-1.115,2.171-1.741,1.838-3.738a6.55,6.55,0,0,0-7.333-5.292,6.46,6.46,0,0,0-5.766,6.459,2.536,2.536,0,0,0,1.655,2.488,1.372,1.372,0,0,1,.6.5c1.007,1.634,1.348,1.883,3.279,2.257,0,.748.052,1.51-.023,2.259a1.781,1.781,0,0,1-.491,1.023,33.678,33.678,0,0,0-5.808,7.215,2.232,2.232,0,0,1-.679.678c-.957.647-1.641.556-2.2-.441a4.769,4.769,0,0,1-.687-2.127c-.09-4.948-.142-9.9-.117-14.847a10.069,10.069,0,0,1,9.259-9.785,14.321,14.321,0,0,1,6.422.67,9.988,9.988,0,0,1,6.469,9.447c0,1.087-.014,2.174-.016,3.261,0,.979.12,1.151,1.019,1.469l-.038,2.831" transform="translate(-110.951 -86.273)" fill="#f6f3f6"/>
      <path id="Trazado_259060" data-name="Trazado 259060" d="M42.281,58.113c-.867.128-1.084.4-1.117,1.268a39.072,39.072,0,0,0,1.575,12.942,2.2,2.2,0,0,1,.087.949A22.763,22.763,0,0,1,39.7,80.326c-.2-.719-.4-1.389-.564-2.067a4.756,4.756,0,0,0-1.336-2.3c-2.024-2-4.009-4.04-6.048-6.026a6.112,6.112,0,0,1-1.79-5.308,14.722,14.722,0,0,1,4.727-9.53,25.338,25.338,0,0,0,2.964-3.108A15.445,15.445,0,0,0,39.375,48.7a4.36,4.36,0,0,1,1.747-2.341c.019.222.046.387.046.552,0,2.337.017,4.673-.012,7.01-.009.75.221,1.257.98,1.447q.072,1.374.144,2.747" transform="translate(-27.835 -37.86)" fill="#975d33"/>
      <path id="Trazado_259061" data-name="Trazado 259061" d="M286.061,46.3a3.249,3.249,0,0,1,1.631,2.011,11.087,11.087,0,0,0,3.178,5.111,41.824,41.824,0,0,1,3.306,3.455,13.818,13.818,0,0,1,3.111,8.567,5.637,5.637,0,0,1-1.758,4.363c-1.9,1.889-3.77,3.819-5.7,5.677a5.991,5.991,0,0,0-1.9,3.3,4.552,4.552,0,0,1-.584,1.52c-.7-1.466-1.361-2.955-2.117-4.392-1.078-2.046-.756-4.057-.138-6.152a27.458,27.458,0,0,0,.97-7.879q-.019-7.6-.01-15.194c0-.09.008-.181.017-.382" transform="translate(-235.223 -37.813)" fill="#975d33"/>
      <path id="Trazado_259062" data-name="Trazado 259062" d="M66.254,239.738c1.164.142,2.325.326,3.493.406a5.728,5.728,0,0,0,1.418-.259q5.586.005,11.17,0a2.413,2.413,0,0,0,.575-.145,9.545,9.545,0,0,0,6.734-.405A10.688,10.688,0,0,0,93.7,236l.171-.262.265-.429c.143-.1.363-.158.418-.29a28.908,28.908,0,0,0,1.473-3.75,11.519,11.519,0,0,0,.067-2.757q.613-1.933,1.227-3.865a1.334,1.334,0,0,0-.445-1.66,1.283,1.283,0,0,0-1.7.18,1.146,1.146,0,0,1-.178.1c-.425-1.552-.822-3.113-1.283-4.654-.413-1.383-.9-2.745-1.348-4.117l1.111-2.806a28.486,28.486,0,0,0,2.49,4.527c1.926,2.4,2.185,5.33,2.952,8.089,1.552,5.58,2.971,11.2,4.444,16.8.029.109.05.219.089.392H51.5l.468-1.612q6.79,0,13.58,0a3.454,3.454,0,0,0,.71-.151" transform="translate(-45.409 -172.543)" fill="#af6d3c"/>
      <path id="Trazado_259063" data-name="Trazado 259063" d="M95.946,36.54q-.072-1.374-.144-2.747c.94-.263,1.112-.484,1.113-1.462,0-2.174.006-4.348,0-6.523a4.02,4.02,0,0,1,2.308-3.885c1.485-.739,3.02-1.379,4.552-2.019a.881.881,0,0,1,.76.169c.814.754,1.594,1.546,2.364,2.346a7.339,7.339,0,0,1,1.9,7.168c-.386,1.639-.85,3.261-1.325,4.878a1.41,1.41,0,0,1-.607.74,11.961,11.961,0,0,0-6.456,10.949c-.017,3.561,0,7.122,0,10.806a4.618,4.618,0,0,1-.335-.726c-1.027-4.046-2.474-8-2.928-12.173-.224-2.061-.175-4.153-.228-6.232-.017-.687-.241-1.168-.975-1.29m2.359-3.179c0,.267-.017.615,0,.96a1.033,1.033,0,0,0,2.063.051c.037-.436.017-.877.013-1.316a4.8,4.8,0,0,1,1.45-3.554c.6-.607,1.2-1.214,1.814-1.814.763-.75,1.386-.67,1.945.24a1.055,1.055,0,0,0,1.456.511,1.083,1.083,0,0,0,.379-1.5,3.121,3.121,0,0,0-4.947-1.013c-.665.606-1.272,1.277-1.922,1.9a7.013,7.013,0,0,0-2.255,5.534" transform="translate(-81.501 -16.288)" fill="#bf7b4e"/>
      <path id="Trazado_259064" data-name="Trazado 259064" d="M68.312,253.866a3.458,3.458,0,0,1-.71.151q-6.79.012-13.58,0c.835-3.234,1.663-6.47,2.508-9.7q1.356-5.184,2.743-10.36a5.87,5.87,0,0,1,1.442-2.993,8.857,8.857,0,0,0,1.2-1.926c.145.333.266.679.439,1,.835,1.527,1.357,2.209,2.829,2.04a7.274,7.274,0,0,0,1.306-.4,6.512,6.512,0,0,0,1.826,3.461c-.385.648-.711,1.288-1.121,1.869a3.371,3.371,0,0,1-4.844.712c-.259-.194-.494-.421-.76-.6a1.268,1.268,0,0,0-1.955,1.321,17.249,17.249,0,0,0,1.869,5.19c.089.14.188.392.125.491-.408.64-.13,1.249.013,1.873a10.851,10.851,0,0,0,2.779,5.412,11.283,11.283,0,0,0,3.887,2.465" transform="translate(-47.467 -186.671)" fill="#bf7c4e"/>
      <path id="Trazado_259065" data-name="Trazado 259065" d="M157.147,27.506c.406-1.6.87-3.1,1.161-4.633a9.2,9.2,0,0,0-2.4-8.319c-.622-.675-1.344-1.259-1.965-1.979a34.268,34.268,0,0,1,13.915-.127l.131.214c-.525.474-1.07.926-1.571,1.424A9.523,9.523,0,0,0,163.8,23.93c.312,1.157.616,2.316.947,3.562a20.353,20.353,0,0,0-7.6.014" transform="translate(-128.862 -9.707)" fill="#dfdcdf"/>
      <path id="Trazado_259066" data-name="Trazado 259066" d="M255.8,57.269l.038-2.831c.9-.314,1.082-.548,1.071-1.519-.024-2.119.217-4.258-.381-6.338-.222-.773-.533-1.52-.8-2.279.082-.951.219-1.9.235-2.854.041-2.53.029-5.061.039-7.592a7.577,7.577,0,0,1,.777,1.66,19,19,0,0,1,.176,2.47,1,1,0,0,0,.972,1.054A.918.918,0,0,0,259,38.2a7.568,7.568,0,0,0-1.77-6.177q-.686-.728-1.376-1.451a5.447,5.447,0,0,0,.11-.731,21.7,21.7,0,0,0-.361-5.411,35.123,35.123,0,0,1,3.293,1.741,3.469,3.469,0,0,1,1.5,2.988c.019,5.529.048,11.059-.027,16.587a35.236,35.236,0,0,1-1.689,8.964c-.454,1.623-.876,3.255-1.322,4.88a2.3,2.3,0,0,1-.522.993c0-.65,0-1.3,0-1.949,0-.922-.155-1.115-1.041-1.36" transform="translate(-211.67 -19.995)" fill="#af6d3c"/>
      <path id="Trazado_259067" data-name="Trazado 259067" d="M223.419,20.415a21.7,21.7,0,0,1,.361,5.411,5.5,5.5,0,0,1-.11.731c-.371-.345-.726-.708-1.114-1.033a3.136,3.136,0,0,0-4.919,1.309,1.032,1.032,0,0,0,1.809.97c.1-.128.146-.289.238-.421a.976.976,0,0,1,1.5-.266c.913.873,1.758,1.817,2.63,2.732-.009,2.531,0,5.062-.039,7.592-.016.952-.153,1.9-.235,2.854A12.593,12.593,0,0,0,218.1,34.82a1,1,0,0,1-.421-.572c-.475-1.689-.977-3.373-1.364-5.084a7.293,7.293,0,0,1,1.922-7.038c.754-.784,1.545-1.532,2.3-2.315a.69.69,0,0,1,.9-.223c.583.273,1.192.49,1.79.731l.174.1Z" transform="translate(-179.488 -15.985)" fill="#be7b4e"/>
      <path id="Trazado_259068" data-name="Trazado 259068" d="M165.111,223.863a28.6,28.6,0,0,1,4.922-5.828,28.542,28.542,0,0,1,4.936,5.824c-1.493,1.74-8.384,1.738-9.858,0" transform="translate(-137.959 -177.706)" fill="#dfdcdf"/>
      <path id="Trazado_259069" data-name="Trazado 259069" d="M256.043,226.831c.452,1.371.935,2.734,1.348,4.117.461,1.541.858,3.1,1.283,4.654-2.056,2.017-4.483,1.155-6.252-2.261a5.358,5.358,0,0,0,1.66-3.166,3.222,3.222,0,0,1,1.355-2.591,3.7,3.7,0,0,0,.607-.753" transform="translate(-209.081 -184.871)" fill="#bf7c4e"/>
      <path id="Trazado_259070" data-name="Trazado 259070" d="M169.833,147.471c1.532-.795,1.348-2.171,1.251-3.487a.956.956,0,0,0-1.1-.92c-.578.019-.909.4-.939,1.067a3.985,3.985,0,0,0,0,.555c.053.56-.025.916-.756.874-.664-.038-.8-.315-.79-.912a4.5,4.5,0,0,1,8.971.187c0,.638-.352.685-.844.714-.544.032-.776-.147-.709-.705a4.481,4.481,0,0,0,0-.831.915.915,0,0,0-.914-.944.968.968,0,0,0-1.088.761,3.28,3.28,0,0,0,1.136,3.642c-.5.8-3.394.866-4.216,0" transform="translate(-139.905 -114.582)" fill="#635b63"/>
      <path id="Trazado_259071" data-name="Trazado 259071" d="M169.328,345.28a2.422,2.422,0,0,1-.575.145q-5.585.008-11.17,0l.377-1.112,2.508-1.363c.726.548,1.1.52,1.751-.083.577-.534,1.176-1.044,1.814-1.608a13.33,13.33,0,0,0,5.3,4.025" transform="translate(-131.826 -278.079)" fill="#bf7c4e"/>
      <path id="Trazado_259072" data-name="Trazado 259072" d="M101.192,216.748a7.264,7.264,0,0,1-1.306.4c-1.472.169-1.994-.512-2.829-2.04-.173-.317-.294-.663-.439-1l1.652-3.4c.157.535.291.985.422,1.437a5,5,0,0,0,1.7,2.714,1.847,1.847,0,0,1,.8,1.883" transform="translate(-82.165 -171.743)" fill="#ae6c3c"/>
      <path id="Trazado_259073" data-name="Trazado 259073" d="M283.441,302.405a11.518,11.518,0,0,1-.067,2.757,28.956,28.956,0,0,1-1.473,3.75c-.055.132-.275.2-.418.29.422-1.187.853-2.372,1.261-3.564a2.073,2.073,0,0,0,.019-1.737c-.083-.16.121-.49.232-.725.126-.268.3-.516.446-.772" transform="translate(-232.753 -246.433)" fill="#b7774a"/>
      <path id="Trazado_259074" data-name="Trazado 259074" d="M279.3,341.379l-.171.262.171-.262" transform="translate(-230.838 -278.18)" fill="#b7774a"/>
      <path id="Trazado_259075" data-name="Trazado 259075" d="M254.756,24.014l-.174-.1.174.1" transform="translate(-210.84 -19.578)" fill="#af6d3c"/>
      <path id="Trazado_259076" data-name="Trazado 259076" d="M109.275,56.352a7.013,7.013,0,0,1,2.255-5.534c.65-.624,1.256-1.295,1.922-1.9A3.121,3.121,0,0,1,118.4,49.93a1.083,1.083,0,0,1-.379,1.5,1.055,1.055,0,0,1-1.456-.511c-.559-.911-1.183-.991-1.945-.24-.609.6-1.211,1.207-1.814,1.814a4.8,4.8,0,0,0-1.45,3.554c0,.439.024.88-.013,1.316a1.033,1.033,0,0,1-2.063-.051c-.02-.345,0-.693,0-.96" transform="translate(-92.47 -39.278)" fill="#030201"/>
      <path id="Trazado_259077" data-name="Trazado 259077" d="M230.221,53.176c-.873-.915-1.717-1.859-2.63-2.732a.977.977,0,0,0-1.5.266c-.091.132-.142.293-.237.421a1.032,1.032,0,0,1-1.809-.97,3.136,3.136,0,0,1,4.919-1.309c.388.324.744.687,1.114,1.033q.688.726,1.376,1.451a7.569,7.569,0,0,1,1.77,6.177.918.918,0,0,1-1.078.847,1,1,0,0,1-.972-1.054,18.979,18.979,0,0,0-.176-2.47,7.588,7.588,0,0,0-.777-1.66" transform="translate(-185.897 -39.313)" fill="#030201"/>
    </g>
    <path id="Trazado_268146" data-name="Trazado 268146" d="M58.73,12.992V17H56.387V5.625h4.438a5.134,5.134,0,0,1,2.254.469,3.454,3.454,0,0,1,1.5,1.332A3.714,3.714,0,0,1,65.1,9.391a3.266,3.266,0,0,1-1.145,2.637,4.767,4.767,0,0,1-3.168.965Zm0-1.9h2.094a2.059,2.059,0,0,0,1.418-.437,1.591,1.591,0,0,0,.488-1.25,1.876,1.876,0,0,0-.492-1.352,1.839,1.839,0,0,0-1.359-.531H58.73ZM71.371,17a2.507,2.507,0,0,1-.227-.758,2.732,2.732,0,0,1-2.133.914,3,3,0,0,1-2.059-.719,2.312,2.312,0,0,1-.816-1.812,2.389,2.389,0,0,1,1-2.062,4.915,4.915,0,0,1,2.879-.727h1.039v-.484a1.393,1.393,0,0,0-.3-.937,1.183,1.183,0,0,0-.949-.352,1.345,1.345,0,0,0-.895.273.929.929,0,0,0-.324.75H66.324a2.268,2.268,0,0,1,.453-1.359,3,3,0,0,1,1.281-.98,4.669,4.669,0,0,1,1.859-.355,3.689,3.689,0,0,1,2.48.785,2.747,2.747,0,0,1,.918,2.207v3.664a4.041,4.041,0,0,0,.336,1.82V17ZM69.5,15.43a1.945,1.945,0,0,0,.922-.223,1.462,1.462,0,0,0,.625-.6V13.156h-.844q-1.7,0-1.8,1.172l-.008.133a.9.9,0,0,0,.3.7A1.153,1.153,0,0,0,69.5,15.43Zm10.3-4.766a6.134,6.134,0,0,0-.812-.062,1.654,1.654,0,0,0-1.68.867V17H75.051V8.547h2.133l.063,1.008a2.092,2.092,0,0,1,1.883-1.164,2.366,2.366,0,0,1,.7.1Zm4.18-4.2V8.547h1.445V10.2H83.98v4.219a1.007,1.007,0,0,0,.18.672.9.9,0,0,0,.688.2,3.6,3.6,0,0,0,.664-.055v1.711a4.648,4.648,0,0,1-1.367.2,2.156,2.156,0,0,1-2.422-2.4V10.2H80.488V8.547h1.234V6.469ZM89.066,17H86.8V8.547h2.266Zm-2.4-10.641a1.112,1.112,0,0,1,.34-.836,1.465,1.465,0,0,1,1.848,0,1.105,1.105,0,0,1,.344.836,1.108,1.108,0,0,1-.348.844,1.448,1.448,0,0,1-1.836,0A1.108,1.108,0,0,1,86.668,6.359Zm7.773,8.977a1.481,1.481,0,0,0,1.016-.344,1.2,1.2,0,0,0,.406-.914H97.98a2.9,2.9,0,0,1-.469,1.574,3.093,3.093,0,0,1-1.262,1.109,3.949,3.949,0,0,1-1.77.395A3.67,3.67,0,0,1,91.621,16a4.56,4.56,0,0,1-1.047-3.184v-.148a4.508,4.508,0,0,1,1.039-3.117,3.627,3.627,0,0,1,2.852-1.164,3.555,3.555,0,0,1,2.543.9,3.2,3.2,0,0,1,.973,2.4H95.863a1.551,1.551,0,0,0-.406-1.072,1.51,1.51,0,0,0-2.223.163,3.333,3.333,0,0,0-.4,1.866v.235a3.375,3.375,0,0,0,.4,1.878A1.377,1.377,0,0,0,94.441,15.336ZM101.652,17H99.387V8.547h2.266Zm-2.4-10.641a1.112,1.112,0,0,1,.34-.836,1.465,1.465,0,0,1,1.848,0,1.105,1.105,0,0,1,.344.836,1.108,1.108,0,0,1-.348.844,1.448,1.448,0,0,1-1.836,0A1.108,1.108,0,0,1,99.254,6.359Zm11.867,6.492a5.07,5.07,0,0,1-.887,3.129,2.843,2.843,0,0,1-2.395,1.176,2.633,2.633,0,0,1-2.07-.891V20.25h-2.258V8.547h2.094l.078.828a2.654,2.654,0,0,1,2.141-.984,2.862,2.862,0,0,1,2.43,1.156,5.207,5.207,0,0,1,.867,3.188Zm-2.258-.164a3.327,3.327,0,0,0-.418-1.82,1.361,1.361,0,0,0-1.215-.641,1.478,1.478,0,0,0-1.461.813V14.5a1.5,1.5,0,0,0,1.477.836Q108.863,15.336,108.863,12.688ZM117.418,17a2.507,2.507,0,0,1-.227-.758,2.732,2.732,0,0,1-2.133.914A3,3,0,0,1,113,16.438a2.312,2.312,0,0,1-.816-1.812,2.389,2.389,0,0,1,1-2.062,4.915,4.915,0,0,1,2.879-.727H117.1v-.484a1.393,1.393,0,0,0-.3-.937,1.183,1.183,0,0,0-.949-.352,1.345,1.345,0,0,0-.895.273.929.929,0,0,0-.324.75h-2.258a2.268,2.268,0,0,1,.453-1.359,3,3,0,0,1,1.281-.98,4.669,4.669,0,0,1,1.859-.355,3.689,3.689,0,0,1,2.48.785,2.747,2.747,0,0,1,.918,2.207v3.664a4.041,4.041,0,0,0,.336,1.82V17Zm-1.867-1.57a1.945,1.945,0,0,0,.922-.223,1.462,1.462,0,0,0,.625-.6V13.156h-.844q-1.7,0-1.8,1.172l-.008.133a.9.9,0,0,0,.3.7A1.153,1.153,0,0,0,115.551,15.43Zm9.063-.094a1.481,1.481,0,0,0,1.016-.344,1.2,1.2,0,0,0,.406-.914h2.117a2.9,2.9,0,0,1-.469,1.574,3.093,3.093,0,0,1-1.262,1.109,3.949,3.949,0,0,1-1.77.395A3.67,3.67,0,0,1,121.793,16a4.56,4.56,0,0,1-1.047-3.184v-.148a4.508,4.508,0,0,1,1.039-3.117,3.627,3.627,0,0,1,2.852-1.164,3.555,3.555,0,0,1,2.543.9,3.2,3.2,0,0,1,.973,2.4h-2.117a1.551,1.551,0,0,0-.406-1.072,1.51,1.51,0,0,0-2.223.163,3.333,3.333,0,0,0-.4,1.866v.235a3.375,3.375,0,0,0,.4,1.878A1.377,1.377,0,0,0,124.613,15.336ZM131.824,17h-2.266V8.547h2.266Zm-2.4-10.641a1.112,1.112,0,0,1,.34-.836,1.465,1.465,0,0,1,1.848,0,1.105,1.105,0,0,1,.344.836,1.109,1.109,0,0,1-.348.844,1.448,1.448,0,0,1-1.836,0A1.109,1.109,0,0,1,129.426,6.359Zm3.906,6.336a5.013,5.013,0,0,1,.484-2.242,3.546,3.546,0,0,1,1.395-1.523,4.069,4.069,0,0,1,2.113-.539,3.849,3.849,0,0,1,2.793,1.047,4.2,4.2,0,0,1,1.207,2.844l.016.578a4.418,4.418,0,0,1-1.086,3.121,4.209,4.209,0,0,1-5.832,0,4.5,4.5,0,0,1-1.09-3.187Zm2.258.16a3.16,3.16,0,0,0,.453,1.843,1.628,1.628,0,0,0,2.578.008,3.457,3.457,0,0,0,.461-2.015,3.128,3.128,0,0,0-.461-1.831,1.5,1.5,0,0,0-1.3-.649,1.474,1.474,0,0,0-1.281.646A3.516,3.516,0,0,0,135.59,12.856ZM137.77,5h2.461l-2.164,2.422H136.23Zm7.039,3.547.07.977a2.951,2.951,0,0,1,2.43-1.133,2.453,2.453,0,0,1,2,.789,3.682,3.682,0,0,1,.672,2.359V17h-2.258V11.594a1.465,1.465,0,0,0-.312-1.043,1.4,1.4,0,0,0-1.039-.324,1.553,1.553,0,0,0-1.43.813V17h-2.258V8.547Zm10.516,4.164a5.094,5.094,0,0,1,.887-3.148,2.877,2.877,0,0,1,2.426-1.172,2.589,2.589,0,0,1,2.039.922V5h2.266V17H160.9l-.109-.9a2.657,2.657,0,0,1-2.172,1.055,2.869,2.869,0,0,1-2.395-1.176A5.258,5.258,0,0,1,155.324,12.711Zm2.258.168A3.337,3.337,0,0,0,158,14.7a1.349,1.349,0,0,0,1.2.634,1.511,1.511,0,0,0,1.477-.884V11.111a1.489,1.489,0,0,0-1.461-.884Q157.582,10.227,157.582,12.879Zm11,4.277a4.15,4.15,0,0,1-3.027-1.141,4.054,4.054,0,0,1-1.168-3.039v-.219a5.106,5.106,0,0,1,.492-2.277,3.612,3.612,0,0,1,1.395-1.547,3.914,3.914,0,0,1,2.059-.543,3.508,3.508,0,0,1,2.73,1.094,4.444,4.444,0,0,1,1,3.1v.922h-5.383a2.1,2.1,0,0,0,.66,1.328,2,2,0,0,0,1.395.5,2.437,2.437,0,0,0,2.039-.945l1.109,1.242a3.389,3.389,0,0,1-1.375,1.121A4.511,4.511,0,0,1,168.582,17.156Zm-.258-6.945a1.411,1.411,0,0,0-1.09.455,2.357,2.357,0,0,0-.535,1.3h3.141v-.181a1.681,1.681,0,0,0-.406-1.165A1.456,1.456,0,0,0,168.324,10.211Zm11.117-1.664.07.945a2.971,2.971,0,0,1,2.43-1.1,2.255,2.255,0,0,1,2.242,1.289,2.9,2.9,0,0,1,2.539-1.289,2.521,2.521,0,0,1,2.047.8,3.681,3.681,0,0,1,.672,2.41V17h-2.266V11.609a1.61,1.61,0,0,0-.281-1.051,1.246,1.246,0,0,0-.992-.332,1.409,1.409,0,0,0-1.406.969L184.5,17h-2.258V11.617a1.59,1.59,0,0,0-.289-1.062,1.259,1.259,0,0,0-.984-.328,1.463,1.463,0,0,0-1.391.8V17h-2.258V8.547Zm15.625,8.609a4.15,4.15,0,0,1-3.027-1.141,4.054,4.054,0,0,1-1.168-3.039v-.219a5.106,5.106,0,0,1,.492-2.277,3.612,3.612,0,0,1,1.395-1.547,3.914,3.914,0,0,1,2.059-.543,3.508,3.508,0,0,1,2.73,1.094,4.444,4.444,0,0,1,1,3.1v.922H193.16a2.1,2.1,0,0,0,.66,1.328,2,2,0,0,0,1.395.5,2.437,2.437,0,0,0,2.039-.945l1.109,1.242a3.389,3.389,0,0,1-1.375,1.121A4.511,4.511,0,0,1,195.066,17.156Zm-.258-6.945a1.411,1.411,0,0,0-1.09.455,2.357,2.357,0,0,0-.535,1.3h3.141v-.181a1.681,1.681,0,0,0-.406-1.165A1.456,1.456,0,0,0,194.809,10.211Zm9.766.453a6.134,6.134,0,0,0-.812-.062,1.654,1.654,0,0,0-1.68.867V17h-2.258V8.547h2.133l.063,1.008A2.092,2.092,0,0,1,203.9,8.391a2.366,2.366,0,0,1,.7.1Zm4.453,4.672a1.481,1.481,0,0,0,1.016-.344,1.2,1.2,0,0,0,.406-.914h2.117a2.9,2.9,0,0,1-.469,1.574,3.093,3.093,0,0,1-1.262,1.109,3.949,3.949,0,0,1-1.77.395A3.67,3.67,0,0,1,206.207,16a4.56,4.56,0,0,1-1.047-3.184v-.148A4.508,4.508,0,0,1,206.2,9.555a3.627,3.627,0,0,1,2.852-1.164,3.555,3.555,0,0,1,2.543.9,3.2,3.2,0,0,1,.973,2.4h-2.117a1.551,1.551,0,0,0-.406-1.072,1.51,1.51,0,0,0-2.223.163,3.333,3.333,0,0,0-.4,1.866v.235a3.375,3.375,0,0,0,.4,1.878A1.377,1.377,0,0,0,209.027,15.336ZM218.754,17a2.507,2.507,0,0,1-.227-.758,2.732,2.732,0,0,1-2.133.914,3,3,0,0,1-2.059-.719,2.312,2.312,0,0,1-.816-1.812,2.389,2.389,0,0,1,1-2.062,4.915,4.915,0,0,1,2.879-.727h1.039v-.484a1.393,1.393,0,0,0-.3-.937,1.183,1.183,0,0,0-.949-.352,1.345,1.345,0,0,0-.895.273.929.929,0,0,0-.324.75h-2.258a2.268,2.268,0,0,1,.453-1.359,3,3,0,0,1,1.281-.98,4.669,4.669,0,0,1,1.859-.355,3.689,3.689,0,0,1,2.48.785,2.747,2.747,0,0,1,.918,2.207v3.664a4.041,4.041,0,0,0,.336,1.82V17Zm-1.867-1.57a1.945,1.945,0,0,0,.922-.223,1.462,1.462,0,0,0,.625-.6V13.156h-.844q-1.7,0-1.8,1.172l-.008.133a.9.9,0,0,0,.3.7A1.153,1.153,0,0,0,216.887,15.43Zm5.2-2.719a5.094,5.094,0,0,1,.887-3.148,2.877,2.877,0,0,1,2.426-1.172,2.589,2.589,0,0,1,2.039.922V5H229.7V17H227.66l-.109-.9a2.657,2.657,0,0,1-2.172,1.055,2.869,2.869,0,0,1-2.395-1.176A5.258,5.258,0,0,1,222.082,12.711Zm2.258.168a3.337,3.337,0,0,0,.414,1.823,1.349,1.349,0,0,0,1.2.634,1.511,1.511,0,0,0,1.477-.884V11.111a1.489,1.489,0,0,0-1.461-.884Q224.34,10.227,224.34,12.879ZM231.1,12.7a5.013,5.013,0,0,1,.484-2.242,3.546,3.546,0,0,1,1.395-1.523,4.069,4.069,0,0,1,2.113-.539,3.849,3.849,0,0,1,2.793,1.047,4.2,4.2,0,0,1,1.207,2.844l.016.578a4.418,4.418,0,0,1-1.086,3.121,4.209,4.209,0,0,1-5.832,0A4.5,4.5,0,0,1,231.1,12.8Zm2.258.16a3.16,3.16,0,0,0,.453,1.843,1.628,1.628,0,0,0,2.578.008,3.457,3.457,0,0,0,.461-2.015,3.128,3.128,0,0,0-.461-1.831,1.5,1.5,0,0,0-1.3-.649,1.474,1.474,0,0,0-1.281.646A3.516,3.516,0,0,0,233.355,12.856ZM14.3,36.352H9.8V41H7.453V29.625h7.406v1.9H9.8v2.938h4.5Zm6.32-1.687A6.134,6.134,0,0,0,19.8,34.6a1.654,1.654,0,0,0-1.68.867V41H15.867V32.547H18l.063,1.008a2.092,2.092,0,0,1,1.883-1.164,2.366,2.366,0,0,1,.7.1Zm4.977,6.492a4.15,4.15,0,0,1-3.027-1.141A4.054,4.054,0,0,1,21.4,36.977v-.219a5.106,5.106,0,0,1,.492-2.277,3.612,3.612,0,0,1,1.395-1.547,3.914,3.914,0,0,1,2.059-.543,3.508,3.508,0,0,1,2.73,1.094,4.444,4.444,0,0,1,1,3.1v.922H23.688a2.1,2.1,0,0,0,.66,1.328,2,2,0,0,0,1.395.5,2.437,2.437,0,0,0,2.039-.945l1.109,1.242a3.389,3.389,0,0,1-1.375,1.121A4.511,4.511,0,0,1,25.594,41.156Zm-.258-6.945a1.411,1.411,0,0,0-1.09.455,2.357,2.357,0,0,0-.535,1.3h3.141v-.181a1.681,1.681,0,0,0-.406-1.165A1.456,1.456,0,0,0,25.336,34.211Zm7.094-1.664.07.977a2.951,2.951,0,0,1,2.43-1.133,2.453,2.453,0,0,1,2,.789,3.682,3.682,0,0,1,.672,2.359V41H35.344V35.594a1.465,1.465,0,0,0-.312-1.043,1.4,1.4,0,0,0-1.039-.324,1.553,1.553,0,0,0-1.43.813V41H30.3V32.547Zm9.586-2.078v2.078h1.445V34.2H42.016v4.219a1.007,1.007,0,0,0,.18.672.9.9,0,0,0,.688.2,3.6,3.6,0,0,0,.664-.055v1.711a4.648,4.648,0,0,1-1.367.2,2.156,2.156,0,0,1-2.422-2.4V34.2H38.523V32.547h1.234V30.469Zm6.594,10.688a4.15,4.15,0,0,1-3.027-1.141,4.054,4.054,0,0,1-1.168-3.039v-.219a5.106,5.106,0,0,1,.492-2.277A3.612,3.612,0,0,1,46.3,32.934a3.914,3.914,0,0,1,2.059-.543,3.508,3.508,0,0,1,2.73,1.094,4.444,4.444,0,0,1,1,3.1v.922H46.7a2.1,2.1,0,0,0,.66,1.328,2,2,0,0,0,1.395.5,2.437,2.437,0,0,0,2.039-.945l1.109,1.242a3.389,3.389,0,0,1-1.375,1.121A4.511,4.511,0,0,1,48.609,41.156Zm-.258-6.945a1.411,1.411,0,0,0-1.09.455,2.357,2.357,0,0,0-.535,1.3h3.141v-.181a1.681,1.681,0,0,0-.406-1.165A1.456,1.456,0,0,0,48.352,34.211ZM62.25,41a2.507,2.507,0,0,1-.227-.758,2.732,2.732,0,0,1-2.133.914,3,3,0,0,1-2.059-.719,2.312,2.312,0,0,1-.816-1.812,2.389,2.389,0,0,1,1-2.062,4.915,4.915,0,0,1,2.879-.727H61.93v-.484a1.393,1.393,0,0,0-.3-.937,1.183,1.183,0,0,0-.949-.352,1.345,1.345,0,0,0-.895.273.929.929,0,0,0-.324.75H57.2a2.268,2.268,0,0,1,.453-1.359,3,3,0,0,1,1.281-.98,4.669,4.669,0,0,1,1.859-.355,3.689,3.689,0,0,1,2.48.785,2.747,2.747,0,0,1,.918,2.207v3.664a4.041,4.041,0,0,0,.336,1.82V41Zm-1.867-1.57a1.945,1.945,0,0,0,.922-.223,1.462,1.462,0,0,0,.625-.6V37.156h-.844q-1.7,0-1.8,1.172l-.008.133a.9.9,0,0,0,.3.7A1.153,1.153,0,0,0,60.383,39.43ZM72.3,41H70.031V29H72.3ZM73.8,36.7a5.013,5.013,0,0,1,.484-2.242,3.546,3.546,0,0,1,1.395-1.523,4.069,4.069,0,0,1,2.113-.539,3.849,3.849,0,0,1,2.793,1.047A4.2,4.2,0,0,1,81.8,36.281l.016.578a4.418,4.418,0,0,1-1.086,3.121,4.209,4.209,0,0,1-5.832,0A4.5,4.5,0,0,1,73.8,36.8Zm2.258.16a3.16,3.16,0,0,0,.453,1.843,1.628,1.628,0,0,0,2.578.008,3.457,3.457,0,0,0,.461-2.015,3.128,3.128,0,0,0-.461-1.831,1.5,1.5,0,0,0-1.3-.649,1.474,1.474,0,0,0-1.281.646A3.516,3.516,0,0,0,76.063,36.856Zm11.719,1.808a.727.727,0,0,0-.41-.652,4.659,4.659,0,0,0-1.316-.426q-3.016-.633-3.016-2.562a2.323,2.323,0,0,1,.934-1.879,3.766,3.766,0,0,1,2.441-.754,4.053,4.053,0,0,1,2.574.758,2.388,2.388,0,0,1,.965,1.969H87.7a1.092,1.092,0,0,0-.312-.8A1.322,1.322,0,0,0,86.406,34a1.351,1.351,0,0,0-.883.258.814.814,0,0,0-.312.656.7.7,0,0,0,.355.605,3.657,3.657,0,0,0,1.2.4,9.8,9.8,0,0,1,1.422.379,2.336,2.336,0,0,1,1.789,2.273,2.2,2.2,0,0,1-.992,1.871,4.28,4.28,0,0,1-2.562.715,4.47,4.47,0,0,1-1.887-.379,3.166,3.166,0,0,1-1.293-1.039,2.414,2.414,0,0,1-.469-1.426h2.141a1.179,1.179,0,0,0,.445.922,1.766,1.766,0,0,0,1.109.32,1.635,1.635,0,0,0,.98-.246A.766.766,0,0,0,87.781,38.664Zm11.148.672a1.481,1.481,0,0,0,1.016-.344,1.2,1.2,0,0,0,.406-.914h2.117A2.9,2.9,0,0,1,102,39.652a3.093,3.093,0,0,1-1.262,1.109,3.949,3.949,0,0,1-1.77.395A3.67,3.67,0,0,1,96.109,40a4.56,4.56,0,0,1-1.047-3.184v-.148A4.508,4.508,0,0,1,96.1,33.555a3.627,3.627,0,0,1,2.852-1.164,3.555,3.555,0,0,1,2.543.9,3.2,3.2,0,0,1,.973,2.4h-2.117a1.551,1.551,0,0,0-.406-1.072,1.51,1.51,0,0,0-2.223.163,3.333,3.333,0,0,0-.4,1.866v.235a3.375,3.375,0,0,0,.4,1.878A1.377,1.377,0,0,0,98.93,39.336Zm4.477-2.641a5.013,5.013,0,0,1,.484-2.242,3.546,3.546,0,0,1,1.395-1.523,4.069,4.069,0,0,1,2.113-.539,3.849,3.849,0,0,1,2.793,1.047,4.2,4.2,0,0,1,1.207,2.844l.016.578a4.418,4.418,0,0,1-1.086,3.121,4.209,4.209,0,0,1-5.832,0,4.5,4.5,0,0,1-1.09-3.187Zm2.258.16a3.16,3.16,0,0,0,.453,1.843,1.628,1.628,0,0,0,2.578.008,3.457,3.457,0,0,0,.461-2.015,3.128,3.128,0,0,0-.461-1.831,1.5,1.5,0,0,0-1.3-.649,1.474,1.474,0,0,0-1.281.646A3.516,3.516,0,0,0,105.664,36.856Zm9.219-4.309.07.977a2.951,2.951,0,0,1,2.43-1.133,2.453,2.453,0,0,1,2,.789,3.682,3.682,0,0,1,.672,2.359V41H117.8V35.594a1.465,1.465,0,0,0-.312-1.043,1.4,1.4,0,0,0-1.039-.324,1.553,1.553,0,0,0-1.43.813V41h-2.258V32.547Zm11.461,6.117a.727.727,0,0,0-.41-.652,4.659,4.659,0,0,0-1.316-.426q-3.016-.633-3.016-2.562a2.323,2.323,0,0,1,.934-1.879,3.766,3.766,0,0,1,2.441-.754,4.053,4.053,0,0,1,2.574.758,2.388,2.388,0,0,1,.965,1.969h-2.258a1.092,1.092,0,0,0-.312-.8,1.322,1.322,0,0,0-.977-.316,1.351,1.351,0,0,0-.883.258.814.814,0,0,0-.312.656.7.7,0,0,0,.355.605,3.657,3.657,0,0,0,1.2.4,9.8,9.8,0,0,1,1.422.379,2.336,2.336,0,0,1,1.789,2.273,2.205,2.205,0,0,1-.992,1.871,4.28,4.28,0,0,1-2.562.715,4.47,4.47,0,0,1-1.887-.379,3.166,3.166,0,0,1-1.293-1.039,2.414,2.414,0,0,1-.469-1.426h2.141a1.179,1.179,0,0,0,.445.922,1.766,1.766,0,0,0,1.109.32,1.635,1.635,0,0,0,.98-.246A.766.766,0,0,0,126.344,38.664ZM132.375,41h-2.266V32.547h2.266Zm-2.4-10.641a1.112,1.112,0,0,1,.34-.836,1.465,1.465,0,0,1,1.848,0,1.193,1.193,0,0,1,0,1.68,1.448,1.448,0,0,1-1.836,0A1.109,1.109,0,0,1,129.977,30.359Zm3.906,6.352a5.094,5.094,0,0,1,.887-3.148,2.877,2.877,0,0,1,2.426-1.172,2.589,2.589,0,0,1,2.039.922V29H141.5V41h-2.039l-.109-.9a2.657,2.657,0,0,1-2.172,1.055,2.869,2.869,0,0,1-2.395-1.176A5.258,5.258,0,0,1,133.883,36.711Zm2.258.168a3.337,3.337,0,0,0,.414,1.823,1.349,1.349,0,0,0,1.2.634,1.511,1.511,0,0,0,1.477-.884V35.111a1.489,1.489,0,0,0-1.461-.884Q136.141,34.227,136.141,36.879Zm11,4.277a4.15,4.15,0,0,1-3.027-1.141,4.054,4.054,0,0,1-1.168-3.039v-.219a5.106,5.106,0,0,1,.492-2.277,3.612,3.612,0,0,1,1.395-1.547,3.914,3.914,0,0,1,2.059-.543,3.508,3.508,0,0,1,2.73,1.094,4.444,4.444,0,0,1,1,3.1v.922h-5.383a2.1,2.1,0,0,0,.66,1.328,2,2,0,0,0,1.395.5,2.437,2.437,0,0,0,2.039-.945l1.109,1.242a3.389,3.389,0,0,1-1.375,1.121A4.511,4.511,0,0,1,147.141,41.156Zm-.258-6.945a1.411,1.411,0,0,0-1.09.455,2.357,2.357,0,0,0-.535,1.3H148.4v-.181a1.681,1.681,0,0,0-.406-1.165A1.456,1.456,0,0,0,146.883,34.211Zm9.766.453a6.134,6.134,0,0,0-.812-.062,1.654,1.654,0,0,0-1.68.867V41H151.9V32.547h2.133l.063,1.008a2.092,2.092,0,0,1,1.883-1.164,2.366,2.366,0,0,1,.7.1ZM162.4,41a2.507,2.507,0,0,1-.227-.758,2.732,2.732,0,0,1-2.133.914,3,3,0,0,1-2.059-.719,2.312,2.312,0,0,1-.816-1.812,2.389,2.389,0,0,1,1-2.062,4.915,4.915,0,0,1,2.879-.727h1.039v-.484a1.393,1.393,0,0,0-.3-.937,1.183,1.183,0,0,0-.949-.352,1.345,1.345,0,0,0-.895.273.929.929,0,0,0-.324.75h-2.258a2.268,2.268,0,0,1,.453-1.359,3,3,0,0,1,1.281-.98,4.669,4.669,0,0,1,1.859-.355,3.689,3.689,0,0,1,2.48.785,2.747,2.747,0,0,1,.918,2.207v3.664a4.041,4.041,0,0,0,.336,1.82V41Zm-1.867-1.57a1.945,1.945,0,0,0,.922-.223,1.462,1.462,0,0,0,.625-.6V37.156h-.844q-1.7,0-1.8,1.172l-.008.133a.9.9,0,0,0,.3.7A1.153,1.153,0,0,0,160.531,39.43Zm5.2-2.719a5.094,5.094,0,0,1,.887-3.148,2.877,2.877,0,0,1,2.426-1.172,2.589,2.589,0,0,1,2.039.922V29h2.266V41H171.3l-.109-.9a2.657,2.657,0,0,1-2.172,1.055,2.869,2.869,0,0,1-2.395-1.176A5.258,5.258,0,0,1,165.727,36.711Zm2.258.168A3.337,3.337,0,0,0,168.4,38.7a1.349,1.349,0,0,0,1.2.634,1.511,1.511,0,0,0,1.477-.884V35.111a1.489,1.489,0,0,0-1.461-.884Q167.984,34.227,167.984,36.879Zm6.758-.184a5.013,5.013,0,0,1,.484-2.242,3.546,3.546,0,0,1,1.395-1.523,4.069,4.069,0,0,1,2.113-.539,3.849,3.849,0,0,1,2.793,1.047,4.2,4.2,0,0,1,1.207,2.844l.016.578a4.418,4.418,0,0,1-1.086,3.121,4.209,4.209,0,0,1-5.832,0,4.5,4.5,0,0,1-1.09-3.187Zm2.258.16a3.16,3.16,0,0,0,.453,1.843,1.628,1.628,0,0,0,2.578.008,3.457,3.457,0,0,0,.461-2.015,3.128,3.128,0,0,0-.461-1.831,1.5,1.5,0,0,0-1.3-.649,1.474,1.474,0,0,0-1.281.646A3.516,3.516,0,0,0,177,36.856Zm11.719,1.808a.727.727,0,0,0-.41-.652,4.659,4.659,0,0,0-1.316-.426q-3.016-.633-3.016-2.562a2.323,2.323,0,0,1,.934-1.879,3.766,3.766,0,0,1,2.441-.754,4.053,4.053,0,0,1,2.574.758,2.388,2.388,0,0,1,.965,1.969h-2.258a1.092,1.092,0,0,0-.312-.8,1.322,1.322,0,0,0-.977-.316,1.351,1.351,0,0,0-.883.258.814.814,0,0,0-.312.656.7.7,0,0,0,.355.605,3.657,3.657,0,0,0,1.2.4,9.8,9.8,0,0,1,1.422.379,2.336,2.336,0,0,1,1.789,2.273,2.205,2.205,0,0,1-.992,1.871,4.28,4.28,0,0,1-2.562.715,4.47,4.47,0,0,1-1.887-.379,3.166,3.166,0,0,1-1.293-1.039,2.414,2.414,0,0,1-.469-1.426h2.141a1.179,1.179,0,0,0,.445.922,1.766,1.766,0,0,0,1.109.32,1.635,1.635,0,0,0,.98-.246A.766.766,0,0,0,188.719,38.664Zm11.148.672a1.481,1.481,0,0,0,1.016-.344,1.2,1.2,0,0,0,.406-.914h2.117a2.9,2.9,0,0,1-.469,1.574,3.093,3.093,0,0,1-1.262,1.109,3.949,3.949,0,0,1-1.77.395A3.67,3.67,0,0,1,197.047,40,4.56,4.56,0,0,1,196,36.82v-.148a4.508,4.508,0,0,1,1.039-3.117,3.627,3.627,0,0,1,2.852-1.164,3.555,3.555,0,0,1,2.543.9,3.2,3.2,0,0,1,.973,2.4h-2.117a1.551,1.551,0,0,0-.406-1.072,1.51,1.51,0,0,0-2.223.163,3.333,3.333,0,0,0-.4,1.866v.235a3.375,3.375,0,0,0,.4,1.878A1.377,1.377,0,0,0,199.867,39.336Zm4.477-2.641a5.013,5.013,0,0,1,.484-2.242,3.546,3.546,0,0,1,1.395-1.523,4.069,4.069,0,0,1,2.113-.539,3.849,3.849,0,0,1,2.793,1.047,4.2,4.2,0,0,1,1.207,2.844l.016.578a4.418,4.418,0,0,1-1.086,3.121,4.209,4.209,0,0,1-5.832,0,4.5,4.5,0,0,1-1.09-3.187Zm2.258.16a3.16,3.16,0,0,0,.453,1.843,1.628,1.628,0,0,0,2.578.008,3.457,3.457,0,0,0,.461-2.015,3.128,3.128,0,0,0-.461-1.831,1.5,1.5,0,0,0-1.3-.649,1.474,1.474,0,0,0-1.281.646A3.516,3.516,0,0,0,206.6,36.856Zm9.258-4.309.07.945a2.971,2.971,0,0,1,2.43-1.1A2.255,2.255,0,0,1,220.6,33.68a2.9,2.9,0,0,1,2.539-1.289,2.521,2.521,0,0,1,2.047.8,3.681,3.681,0,0,1,.672,2.41V41h-2.266V35.609a1.61,1.61,0,0,0-.281-1.051,1.246,1.246,0,0,0-.992-.332,1.409,1.409,0,0,0-1.406.969l.008,5.8h-2.258V35.617a1.59,1.59,0,0,0-.289-1.062,1.259,1.259,0,0,0-.984-.328,1.463,1.463,0,0,0-1.391.8V41h-2.258V32.547Zm19.344,4.3a5.07,5.07,0,0,1-.887,3.129,2.843,2.843,0,0,1-2.395,1.176,2.633,2.633,0,0,1-2.07-.891V44.25h-2.258v-11.7h2.094l.078.828a2.654,2.654,0,0,1,2.141-.984,2.862,2.862,0,0,1,2.43,1.156,5.207,5.207,0,0,1,.867,3.188Zm-2.258-.164a3.327,3.327,0,0,0-.418-1.82,1.361,1.361,0,0,0-1.215-.641,1.479,1.479,0,0,0-1.461.813V38.5a1.5,1.5,0,0,0,1.477.836Q232.945,39.336,232.945,36.688Zm7.547,4.469a4.15,4.15,0,0,1-3.027-1.141,4.054,4.054,0,0,1-1.168-3.039v-.219a5.106,5.106,0,0,1,.492-2.277,3.612,3.612,0,0,1,1.395-1.547,3.914,3.914,0,0,1,2.059-.543,3.508,3.508,0,0,1,2.73,1.094,4.444,4.444,0,0,1,1,3.1v.922h-5.383a2.1,2.1,0,0,0,.66,1.328,2,2,0,0,0,1.395.5,2.437,2.437,0,0,0,2.039-.945l1.109,1.242a3.389,3.389,0,0,1-1.375,1.121A4.511,4.511,0,0,1,240.492,41.156Zm-.258-6.945a1.411,1.411,0,0,0-1.09.455,2.357,2.357,0,0,0-.535,1.3h3.141v-.181a1.681,1.681,0,0,0-.406-1.165A1.456,1.456,0,0,0,240.234,34.211Zm7.719-3.742v2.078H249.4V34.2h-1.445v4.219a1.007,1.007,0,0,0,.18.672.9.9,0,0,0,.688.2,3.6,3.6,0,0,0,.664-.055v1.711a4.648,4.648,0,0,1-1.367.2,2.156,2.156,0,0,1-2.422-2.4V34.2h-1.234V32.547H245.7V30.469Zm6.594,10.688a4.15,4.15,0,0,1-3.027-1.141,4.054,4.054,0,0,1-1.168-3.039v-.219a5.106,5.106,0,0,1,.492-2.277,3.612,3.612,0,0,1,1.395-1.547,3.914,3.914,0,0,1,2.059-.543,3.508,3.508,0,0,1,2.73,1.094,4.444,4.444,0,0,1,1,3.1v.922h-5.383a2.1,2.1,0,0,0,.66,1.328,2,2,0,0,0,1.395.5,2.437,2.437,0,0,0,2.039-.945l1.109,1.242a3.389,3.389,0,0,1-1.375,1.121A4.511,4.511,0,0,1,254.547,41.156Zm-.258-6.945a1.411,1.411,0,0,0-1.09.455,2.357,2.357,0,0,0-.535,1.3H255.8v-.181a1.681,1.681,0,0,0-.406-1.165A1.456,1.456,0,0,0,254.289,34.211Zm7.094-1.664.07.977a2.951,2.951,0,0,1,2.43-1.133,2.453,2.453,0,0,1,2,.789,3.681,3.681,0,0,1,.672,2.359V41H264.3V35.594a1.465,1.465,0,0,0-.312-1.043,1.4,1.4,0,0,0-1.039-.324,1.553,1.553,0,0,0-1.43.813V41h-2.258V32.547Zm10.4,6.789a1.481,1.481,0,0,0,1.016-.344,1.2,1.2,0,0,0,.406-.914h2.117a2.9,2.9,0,0,1-.469,1.574,3.093,3.093,0,0,1-1.262,1.109,3.949,3.949,0,0,1-1.77.395A3.67,3.67,0,0,1,268.961,40a4.56,4.56,0,0,1-1.047-3.184v-.148a4.508,4.508,0,0,1,1.039-3.117,3.627,3.627,0,0,1,2.852-1.164,3.555,3.555,0,0,1,2.543.9,3.2,3.2,0,0,1,.973,2.4H273.2a1.551,1.551,0,0,0-.406-1.072,1.51,1.51,0,0,0-2.223.163,3.333,3.333,0,0,0-.4,1.866v.235a3.375,3.375,0,0,0,.4,1.878A1.377,1.377,0,0,0,271.781,39.336ZM278.992,41h-2.266V32.547h2.266Zm-2.4-10.641a1.112,1.112,0,0,1,.34-.836,1.465,1.465,0,0,1,1.848,0,1.193,1.193,0,0,1,0,1.68,1.448,1.448,0,0,1-1.836,0A1.108,1.108,0,0,1,276.594,30.359ZM285.75,41a2.508,2.508,0,0,1-.227-.758,2.732,2.732,0,0,1-2.133.914,3,3,0,0,1-2.059-.719,2.312,2.312,0,0,1-.816-1.812,2.389,2.389,0,0,1,1-2.062,4.915,4.915,0,0,1,2.879-.727h1.039v-.484a1.393,1.393,0,0,0-.3-.937,1.183,1.183,0,0,0-.949-.352,1.345,1.345,0,0,0-.895.273.929.929,0,0,0-.324.75H280.7a2.268,2.268,0,0,1,.453-1.359,3,3,0,0,1,1.281-.98,4.669,4.669,0,0,1,1.859-.355,3.689,3.689,0,0,1,2.48.785,2.747,2.747,0,0,1,.918,2.207v3.664a4.041,4.041,0,0,0,.336,1.82V41Zm-1.867-1.57a1.945,1.945,0,0,0,.922-.223,1.462,1.462,0,0,0,.625-.6V37.156h-.844q-1.7,0-1.8,1.172l-.008.133a.9.9,0,0,0,.3.7A1.153,1.153,0,0,0,283.883,39.43Z" transform="translate(1029.667 2774.226)" fill="#12263f"/>
    <path id="Trazado_268150" data-name="Trazado 268150" d="M.9,9.455l.533-4.7h5.18v1.53H2.939L2.71,8.274A2.908,2.908,0,0,1,4.1,7.925a2.664,2.664,0,0,1,2.069.819,3.271,3.271,0,0,1,.749,2.292,3.351,3.351,0,0,1-.378,1.6,2.666,2.666,0,0,1-1.082,1.1,3.379,3.379,0,0,1-1.663.39,3.588,3.588,0,0,1-1.555-.34,2.758,2.758,0,0,1-1.133-.955,2.6,2.6,0,0,1-.441-1.4H2.482a1.356,1.356,0,0,0,.4.9,1.278,1.278,0,0,0,.9.321,1.128,1.128,0,0,0,.958-.448,2.073,2.073,0,0,0,.336-1.266A1.714,1.714,0,0,0,4.7,9.728a1.421,1.421,0,0,0-1.1-.419,1.588,1.588,0,0,0-1.06.343l-.178.165Zm10.4-2.92a1.827,1.827,0,0,1,.552-1.381,2,2,0,0,1,1.447-.53,2.034,2.034,0,0,1,1.46.524,1.862,1.862,0,0,1,.552,1.419v.457A1.8,1.8,0,0,1,14.758,8.4a2.024,2.024,0,0,1-1.447.521A2.037,2.037,0,0,1,11.854,8.4,1.848,1.848,0,0,1,11.3,6.986Zm1.219.489a.855.855,0,0,0,.219.613.754.754,0,0,0,.574.232.719.719,0,0,0,.565-.235A.909.909,0,0,0,14.085,7v-.47a.89.89,0,0,0-.209-.616.816.816,0,0,0-1.143,0,.909.909,0,0,0-.216.644Zm3.2,4.71a1.8,1.8,0,0,1,.559-1.381,2.031,2.031,0,0,1,1.447-.524,2.052,2.052,0,0,1,1.457.517,1.852,1.852,0,0,1,.555,1.425v.457a1.817,1.817,0,0,1-.546,1.374,2.012,2.012,0,0,1-1.454.524,2.036,2.036,0,0,1-1.466-.527,1.84,1.84,0,0,1-.552-1.4Zm1.219.5a.849.849,0,0,0,.229.6.745.745,0,0,0,.571.248q.774,0,.774-.857v-.482a.863.863,0,0,0-.216-.613.82.82,0,0,0-1.143,0,.89.89,0,0,0-.216.632Zm-3.263,1.079-.9-.482L17.291,5.6l.9.482Z" transform="translate(991.667 2683.226)" fill="#12263f"/>
    <path id="Trazado_268151" data-name="Trazado 268151" d="M5.084,14H3.25V6.929l-2.19.679V6.116L4.888,4.745h.2Zm9.223-3.821a4.682,4.682,0,0,1-.793,2.933,2.77,2.77,0,0,1-2.323,1.016,2.789,2.789,0,0,1-2.311-1,4.545,4.545,0,0,1-.819-2.856v-1.7a4.621,4.621,0,0,1,.8-2.939,2.79,2.79,0,0,1,2.314-1,2.793,2.793,0,0,1,2.311.993,4.531,4.531,0,0,1,.819,2.853Zm-1.834-1.87a3.384,3.384,0,0,0-.314-1.674,1.062,1.062,0,0,0-.981-.524,1.043,1.043,0,0,0-.955.5A3.167,3.167,0,0,0,9.9,8.168v2.249A3.553,3.553,0,0,0,10.2,12.1a1.048,1.048,0,0,0,.987.55,1.03,1.03,0,0,0,.971-.527,3.468,3.468,0,0,0,.311-1.614Zm6.284-1.773a1.827,1.827,0,0,1,.552-1.381,2,2,0,0,1,1.447-.53,2.034,2.034,0,0,1,1.46.524,1.862,1.862,0,0,1,.552,1.419v.457A1.8,1.8,0,0,1,22.217,8.4a2.28,2.28,0,0,1-2.9,0,1.849,1.849,0,0,1-.555-1.412Zm1.219.489a.855.855,0,0,0,.219.613.754.754,0,0,0,.574.232.719.719,0,0,0,.565-.235A.909.909,0,0,0,21.544,7v-.47a.89.89,0,0,0-.209-.616.816.816,0,0,0-1.143,0,.909.909,0,0,0-.216.644Zm3.2,4.71a1.8,1.8,0,0,1,.559-1.381,2.031,2.031,0,0,1,1.447-.524,2.052,2.052,0,0,1,1.457.517,1.852,1.852,0,0,1,.555,1.425v.457a1.817,1.817,0,0,1-.546,1.374,2.012,2.012,0,0,1-1.454.524,2.036,2.036,0,0,1-1.466-.527,1.84,1.84,0,0,1-.552-1.4Zm1.219.5a.849.849,0,0,0,.229.6.745.745,0,0,0,.571.248q.774,0,.774-.857v-.482a.863.863,0,0,0-.216-.613.82.82,0,0,0-1.143,0,.89.89,0,0,0-.216.632Zm-3.263,1.079-.9-.482L24.75,5.6l.9.482Z" transform="translate(991.667 2617.226)" fill="#12263f"/>
    <path id="Trazado_268152" data-name="Trazado 268152" d="M6.963,14H.628V12.743l2.99-3.187a7.376,7.376,0,0,0,.911-1.174,1.887,1.887,0,0,0,.3-.952,1.412,1.412,0,0,0-.311-.968,1.123,1.123,0,0,0-.889-.352,1.211,1.211,0,0,0-.981.428,1.7,1.7,0,0,0-.359,1.127H.444a3.03,3.03,0,0,1,.4-1.542A2.841,2.841,0,0,1,1.987,5.028a3.463,3.463,0,0,1,1.669-.4,3.279,3.279,0,0,1,2.219.686,2.425,2.425,0,0,1,.79,1.936,3.108,3.108,0,0,1-.355,1.4,7.761,7.761,0,0,1-1.219,1.657l-2.1,2.215H6.963Zm7.344-3.821a4.682,4.682,0,0,1-.793,2.933,2.77,2.77,0,0,1-2.323,1.016,2.789,2.789,0,0,1-2.311-1,4.545,4.545,0,0,1-.819-2.856v-1.7a4.621,4.621,0,0,1,.8-2.939,2.79,2.79,0,0,1,2.314-1,2.793,2.793,0,0,1,2.311.993,4.531,4.531,0,0,1,.819,2.853Zm-1.834-1.87a3.384,3.384,0,0,0-.314-1.674,1.062,1.062,0,0,0-.981-.524,1.043,1.043,0,0,0-.955.5A3.167,3.167,0,0,0,9.9,8.168v2.249A3.553,3.553,0,0,0,10.2,12.1a1.048,1.048,0,0,0,.987.55,1.03,1.03,0,0,0,.971-.527,3.468,3.468,0,0,0,.311-1.614Zm6.284-1.773a1.827,1.827,0,0,1,.552-1.381,2,2,0,0,1,1.447-.53,2.034,2.034,0,0,1,1.46.524,1.862,1.862,0,0,1,.552,1.419v.457A1.8,1.8,0,0,1,22.217,8.4a2.28,2.28,0,0,1-2.9,0,1.849,1.849,0,0,1-.555-1.412Zm1.219.489a.855.855,0,0,0,.219.613.754.754,0,0,0,.574.232.719.719,0,0,0,.565-.235A.909.909,0,0,0,21.544,7v-.47a.89.89,0,0,0-.209-.616.816.816,0,0,0-1.143,0,.909.909,0,0,0-.216.644Zm3.2,4.71a1.8,1.8,0,0,1,.559-1.381,2.031,2.031,0,0,1,1.447-.524,2.052,2.052,0,0,1,1.457.517,1.852,1.852,0,0,1,.555,1.425v.457a1.817,1.817,0,0,1-.546,1.374,2.012,2.012,0,0,1-1.454.524,2.036,2.036,0,0,1-1.466-.527,1.84,1.84,0,0,1-.552-1.4Zm1.219.5a.849.849,0,0,0,.229.6.745.745,0,0,0,.571.248q.774,0,.774-.857v-.482a.863.863,0,0,0-.216-.613.82.82,0,0,0-1.143,0,.89.89,0,0,0-.216.632Zm-3.263,1.079-.9-.482L24.75,5.6l.9.482Z" transform="translate(991.667 2560.226)" fill="#12263f"/>
    <path id="Trazado_268147" data-name="Trazado 268147" d="M.9,9.455l.533-4.7h5.18v1.53H2.939L2.71,8.274A2.908,2.908,0,0,1,4.1,7.925a2.664,2.664,0,0,1,2.069.819,3.271,3.271,0,0,1,.749,2.292,3.351,3.351,0,0,1-.378,1.6,2.666,2.666,0,0,1-1.082,1.1,3.379,3.379,0,0,1-1.663.39,3.588,3.588,0,0,1-1.555-.34,2.758,2.758,0,0,1-1.133-.955,2.6,2.6,0,0,1-.441-1.4H2.482a1.356,1.356,0,0,0,.4.9,1.278,1.278,0,0,0,.9.321,1.128,1.128,0,0,0,.958-.448,2.073,2.073,0,0,0,.336-1.266A1.714,1.714,0,0,0,4.7,9.728a1.421,1.421,0,0,0-1.1-.419,1.588,1.588,0,0,0-1.06.343l-.178.165Zm13.114-.273,1.155-2.05h1.961L15.177,10.5,17.215,14H15.247l-1.225-2.158L12.8,14H10.829l2.038-3.5L10.918,7.132h1.968Z" transform="translate(1089.667 2713.226)" fill="#12263f"/>
    <path id="Trazado_268148" data-name="Trazado 268148" d="M5.084,14H3.25V6.929l-2.19.679V6.116L4.888,4.745h.2Zm8.931-4.818,1.155-2.05h1.961L15.177,10.5,17.215,14H15.247l-1.225-2.158L12.8,14H10.829l2.038-3.5L10.918,7.132h1.968Z" transform="translate(1165.667 2713.226)" fill="#12263f"/>
    <path id="Trazado_268149" data-name="Trazado 268149" d="M6.849,10.179a4.682,4.682,0,0,1-.793,2.933,2.77,2.77,0,0,1-2.323,1.016,2.789,2.789,0,0,1-2.311-1A4.545,4.545,0,0,1,.6,10.274v-1.7a4.621,4.621,0,0,1,.8-2.939,2.79,2.79,0,0,1,2.314-1,2.793,2.793,0,0,1,2.311.993,4.531,4.531,0,0,1,.819,2.853ZM5.015,8.308A3.384,3.384,0,0,0,4.7,6.634,1.062,1.062,0,0,0,3.72,6.11a1.043,1.043,0,0,0-.955.5,3.167,3.167,0,0,0-.327,1.56v2.249A3.553,3.553,0,0,0,2.745,12.1a1.048,1.048,0,0,0,.987.55,1.03,1.03,0,0,0,.971-.527,3.468,3.468,0,0,0,.311-1.614Zm3.625,8.009-.958-.5.229-.413a3.3,3.3,0,0,0,.438-1.542V12.438H9.9l-.006,1.27a3.3,3.3,0,0,1-.355,1.422A3.645,3.645,0,0,1,8.639,16.317Zm2.895-6.862.533-4.7h5.18v1.53H13.571l-.229,1.987a2.908,2.908,0,0,1,1.39-.349,2.664,2.664,0,0,1,2.069.819,3.271,3.271,0,0,1,.749,2.292,3.351,3.351,0,0,1-.378,1.6,2.666,2.666,0,0,1-1.082,1.1,3.379,3.379,0,0,1-1.663.39,3.588,3.588,0,0,1-1.555-.34,2.758,2.758,0,0,1-1.133-.955,2.6,2.6,0,0,1-.441-1.4h1.815a1.356,1.356,0,0,0,.4.9,1.278,1.278,0,0,0,.9.321,1.128,1.128,0,0,0,.958-.448,2.073,2.073,0,0,0,.336-1.266,1.714,1.714,0,0,0-.387-1.206,1.421,1.421,0,0,0-1.1-.419,1.588,1.588,0,0,0-1.06.343l-.178.165Zm13.114-.273L25.8,7.132h1.961L25.81,10.5,27.847,14H25.879l-1.225-2.158L23.436,14H21.461L23.5,10.5,21.55,7.132h1.968Z" transform="translate(1234.667 2713.226)" fill="#12263f"/>
    <path id="Trazado_268153" data-name="Trazado 268153" d="M36.67,12.1H33.331L32.7,14H30.671l3.44-9.242h1.765L39.336,14H37.311Zm-2.825-1.542h2.311L34.994,7.094ZM42.014,14H40.174V4.25h1.841Zm3.707-8.557V7.132H46.9V8.478H45.721v3.428a.818.818,0,0,0,.146.546.733.733,0,0,0,.559.165,2.925,2.925,0,0,0,.54-.044v1.39a3.776,3.776,0,0,1-1.111.165,1.752,1.752,0,0,1-1.968-1.949v-3.7h-1V7.132h1V5.443Zm1.72,5.059a4.073,4.073,0,0,1,.394-1.822,2.881,2.881,0,0,1,1.133-1.238A3.306,3.306,0,0,1,50.685,7a3.128,3.128,0,0,1,2.269.851,3.414,3.414,0,0,1,.981,2.311l.013.47a3.59,3.59,0,0,1-.882,2.536,3.42,3.42,0,0,1-4.739,0,3.653,3.653,0,0,1-.885-2.59Zm1.834.13a2.567,2.567,0,0,0,.368,1.5,1.323,1.323,0,0,0,2.095.006,2.809,2.809,0,0,0,.375-1.637,2.542,2.542,0,0,0-.375-1.488,1.217,1.217,0,0,0-1.054-.528,1.2,1.2,0,0,0-1.041.524A2.857,2.857,0,0,0,49.276,10.633Z" transform="translate(1060.667 2484.279)" fill="#12263f"/>
    <path id="Trazado_268154" data-name="Trazado 268154" d="M30.328,14V4.758h3.237a4.251,4.251,0,0,1,2.552.644,2.2,2.2,0,0,1,.87,1.888,2.088,2.088,0,0,1-.349,1.2,2.017,2.017,0,0,1-.971.759,1.951,1.951,0,0,1,1.12.717,2.121,2.121,0,0,1,.409,1.32,2.439,2.439,0,0,1-.851,2.019,3.829,3.829,0,0,1-2.425.7Zm1.9-4.024V12.47h1.631a1.574,1.574,0,0,0,1.051-.321,1.1,1.1,0,0,0,.378-.885,1.161,1.161,0,0,0-1.314-1.289Zm0-1.346h1.409q1.441-.025,1.441-1.149a1.062,1.062,0,0,0-.365-.9A1.92,1.92,0,0,0,33.566,6.3H32.233ZM42.484,14a2.037,2.037,0,0,1-.184-.616,2.22,2.22,0,0,1-1.733.743,2.439,2.439,0,0,1-1.673-.584,1.878,1.878,0,0,1-.663-1.473,1.941,1.941,0,0,1,.809-1.676A3.994,3.994,0,0,1,41.38,9.8h.844V9.411a1.132,1.132,0,0,0-.244-.762.961.961,0,0,0-.771-.286,1.093,1.093,0,0,0-.727.222.755.755,0,0,0-.263.609H38.384a1.843,1.843,0,0,1,.368-1.1,2.434,2.434,0,0,1,1.041-.8A3.794,3.794,0,0,1,41.3,7a3,3,0,0,1,2.015.638,2.232,2.232,0,0,1,.746,1.793v2.977a3.284,3.284,0,0,0,.273,1.479V14Zm-1.517-1.276a1.58,1.58,0,0,0,.749-.181,1.188,1.188,0,0,0,.508-.486V10.877h-.686q-1.377,0-1.466.952l-.006.108a.734.734,0,0,0,.241.565A.937.937,0,0,0,40.967,12.724Zm6.449-5.592v7.243a2.457,2.457,0,0,1-.6,1.768,2.292,2.292,0,0,1-1.739.632,3.73,3.73,0,0,1-.908-.108V15.212a3.443,3.443,0,0,0,.578.057q.832,0,.832-.882V7.132ZM45.429,5.354a.9.9,0,0,1,.276-.679,1.194,1.194,0,0,1,1.5,0,.9.9,0,0,1,.276.679.9.9,0,0,1-.282.686,1.177,1.177,0,0,1-1.492,0A.9.9,0,0,1,45.429,5.354ZM48.565,10.5a4.073,4.073,0,0,1,.394-1.822,2.881,2.881,0,0,1,1.133-1.238A3.306,3.306,0,0,1,51.809,7a3.128,3.128,0,0,1,2.269.851,3.414,3.414,0,0,1,.981,2.311l.013.47a3.59,3.59,0,0,1-.882,2.536,3.42,3.42,0,0,1-4.739,0,3.653,3.653,0,0,1-.885-2.59Zm1.834.13a2.567,2.567,0,0,0,.368,1.5,1.323,1.323,0,0,0,2.095.006,2.809,2.809,0,0,0,.375-1.637,2.542,2.542,0,0,0-.375-1.488,1.217,1.217,0,0,0-1.054-.528,1.2,1.2,0,0,0-1.041.524A2.857,2.857,0,0,0,50.4,10.633Z" transform="translate(1205.583 2483.779)" fill="#12263f"/>
    <g id="Grupo_236998" data-name="Grupo 236998" transform="translate(-3.413 25)">
      <rect id="Rectángulo_58540" data-name="Rectángulo 58540" width="291" height="15.821" transform="translate(1037.413 2437.064)" fill="#a3314f"/>
      <path id="Trazado_261944" data-name="Trazado 261944" d="M-4826.08-9244v16l-9.253-8.3Z" transform="translate(5863.413 11681.063)" fill="#a3314f"/>
    </g>
    <path id="Trazado_268155" data-name="Trazado 268155" d="M62.9,10.921a3.27,3.27,0,0,1-1.1,2.349,3.868,3.868,0,0,1-2.618.857,3.478,3.478,0,0,1-2.8-1.2,4.906,4.906,0,0,1-1.019-3.285V9.081a5.54,5.54,0,0,1,.47-2.349,3.52,3.52,0,0,1,1.343-1.558,4.2,4.2,0,0,1,4.605.314,3.515,3.515,0,0,1,1.13,2.406h-1.9a1.93,1.93,0,0,0-.5-1.3,1.845,1.845,0,0,0-1.3-.4,1.618,1.618,0,0,0-1.425.682A3.824,3.824,0,0,0,57.3,8.992v.7a4.093,4.093,0,0,0,.454,2.19,1.588,1.588,0,0,0,1.431.692,1.88,1.88,0,0,0,1.317-.4,1.821,1.821,0,0,0,.5-1.247Zm5.243,2.38a2.3,2.3,0,0,1-1.879.825,2.17,2.17,0,0,1-1.685-.635,2.71,2.71,0,0,1-.594-1.86v-4.5h1.834v4.442q0,1.074.978,1.074A1.325,1.325,0,0,0,68.084,12V7.132h1.841V14H68.2Zm2.875-2.8a4.073,4.073,0,0,1,.394-1.822,2.881,2.881,0,0,1,1.133-1.238A3.306,3.306,0,0,1,74.266,7a3.127,3.127,0,0,1,2.269.851,3.414,3.414,0,0,1,.981,2.311l.013.47a3.59,3.59,0,0,1-.882,2.536,3.42,3.42,0,0,1-4.739,0,3.653,3.653,0,0,1-.885-2.59Zm1.834.13a2.567,2.567,0,0,0,.368,1.5,1.323,1.323,0,0,0,2.095.006,2.809,2.809,0,0,0,.375-1.637,2.542,2.542,0,0,0-.375-1.488,1.217,1.217,0,0,0-1.054-.528,1.2,1.2,0,0,0-1.041.524A2.857,2.857,0,0,0,72.857,10.633Zm8-5.189V7.132H82.03V8.478H80.855v3.428a.818.818,0,0,0,.146.546.733.733,0,0,0,.559.165,2.926,2.926,0,0,0,.54-.044v1.39a3.777,3.777,0,0,1-1.111.165,1.752,1.752,0,0,1-1.968-1.949v-3.7h-1V7.132h1V5.443ZM87.031,14a2.037,2.037,0,0,1-.184-.616,2.22,2.22,0,0,1-1.733.743,2.439,2.439,0,0,1-1.673-.584,1.878,1.878,0,0,1-.663-1.473,1.941,1.941,0,0,1,.809-1.676,3.994,3.994,0,0,1,2.339-.59h.844V9.411a1.132,1.132,0,0,0-.244-.762.961.961,0,0,0-.771-.286,1.093,1.093,0,0,0-.727.222.755.755,0,0,0-.263.609H82.931a1.843,1.843,0,0,1,.368-1.1,2.434,2.434,0,0,1,1.041-.8A3.794,3.794,0,0,1,85.851,7a3,3,0,0,1,2.015.638,2.232,2.232,0,0,1,.746,1.793v2.977a3.284,3.284,0,0,0,.273,1.479V14Zm-1.517-1.276a1.58,1.58,0,0,0,.749-.181,1.188,1.188,0,0,0,.508-.486V10.877h-.686q-1.377,0-1.466.952l-.006.108a.734.734,0,0,0,.241.565A.937.937,0,0,0,85.514,12.724Zm7.458-2.209a4.139,4.139,0,0,1,.72-2.558A2.338,2.338,0,0,1,95.664,7a2.1,2.1,0,0,1,1.657.749V4.25h1.841V14H97.505l-.089-.73a2.159,2.159,0,0,1-1.765.857,2.331,2.331,0,0,1-1.946-.955A4.272,4.272,0,0,1,92.973,10.515Zm1.834.137a2.711,2.711,0,0,0,.336,1.481,1.1,1.1,0,0,0,.978.515,1.228,1.228,0,0,0,1.2-.718V9.215A1.21,1.21,0,0,0,96.134,8.5Q94.807,8.5,94.807,10.652Zm8.938,3.475a3.372,3.372,0,0,1-2.46-.927,3.294,3.294,0,0,1-.949-2.469v-.178a4.149,4.149,0,0,1,.4-1.85,2.935,2.935,0,0,1,1.133-1.257A3.18,3.18,0,0,1,103.542,7a2.85,2.85,0,0,1,2.219.889,3.611,3.611,0,0,1,.809,2.52v.749H102.2a1.7,1.7,0,0,0,.536,1.079,1.621,1.621,0,0,0,1.133.406,1.98,1.98,0,0,0,1.657-.768l.9,1.009a2.754,2.754,0,0,1-1.117.911A3.665,3.665,0,0,1,103.745,14.127Zm-.209-5.643a1.146,1.146,0,0,0-.885.37,1.915,1.915,0,0,0-.435,1.058h2.552V9.765a1.366,1.366,0,0,0-.33-.947A1.183,1.183,0,0,0,103.535,8.484Zm9.033-1.352.057.768A2.414,2.414,0,0,1,114.6,7a1.832,1.832,0,0,1,1.822,1.047A2.358,2.358,0,0,1,118.484,7a2.049,2.049,0,0,1,1.663.651,2.991,2.991,0,0,1,.546,1.958V14h-1.841V9.62a1.308,1.308,0,0,0-.229-.854,1.013,1.013,0,0,0-.806-.27,1.145,1.145,0,0,0-1.143.787L116.681,14h-1.834V9.626a1.292,1.292,0,0,0-.235-.863,1.023,1.023,0,0,0-.8-.267,1.189,1.189,0,0,0-1.13.647V14h-1.834V7.132Zm12.7,7a3.372,3.372,0,0,1-2.46-.927,3.294,3.294,0,0,1-.949-2.469v-.178a4.149,4.149,0,0,1,.4-1.85,2.935,2.935,0,0,1,1.133-1.257A3.18,3.18,0,0,1,125.06,7a2.85,2.85,0,0,1,2.219.889,3.611,3.611,0,0,1,.809,2.52v.749h-4.374a1.7,1.7,0,0,0,.536,1.079,1.621,1.621,0,0,0,1.133.406,1.98,1.98,0,0,0,1.657-.768l.9,1.009a2.754,2.754,0,0,1-1.117.911A3.665,3.665,0,0,1,125.263,14.127Zm-.209-5.643a1.146,1.146,0,0,0-.885.37,1.915,1.915,0,0,0-.435,1.058h2.552V9.765a1.366,1.366,0,0,0-.33-.947A1.183,1.183,0,0,0,125.054,8.484Zm7.935.368a4.984,4.984,0,0,0-.66-.051,1.344,1.344,0,0,0-1.365.7V14h-1.834V7.132h1.733l.051.819A1.7,1.7,0,0,1,132.443,7a1.922,1.922,0,0,1,.571.083Zm3.618,3.8a1.2,1.2,0,0,0,.825-.279.979.979,0,0,0,.33-.743h1.72a2.353,2.353,0,0,1-.381,1.279,2.513,2.513,0,0,1-1.025.9,3.208,3.208,0,0,1-1.438.321,2.982,2.982,0,0,1-2.323-.936,3.705,3.705,0,0,1-.851-2.587v-.121a3.663,3.663,0,0,1,.844-2.533A2.947,2.947,0,0,1,136.626,7a2.889,2.889,0,0,1,2.066.733,2.6,2.6,0,0,1,.79,1.952h-1.72a1.261,1.261,0,0,0-.33-.871,1.227,1.227,0,0,0-1.806.132,2.708,2.708,0,0,0-.327,1.516v.191a2.742,2.742,0,0,0,.324,1.526A1.119,1.119,0,0,0,136.607,12.648ZM144.51,14a2.037,2.037,0,0,1-.184-.616,2.22,2.22,0,0,1-1.733.743,2.439,2.439,0,0,1-1.673-.584,1.878,1.878,0,0,1-.663-1.473,1.941,1.941,0,0,1,.809-1.676,3.994,3.994,0,0,1,2.339-.59h.844V9.411A1.132,1.132,0,0,0,144,8.649a.961.961,0,0,0-.771-.286,1.093,1.093,0,0,0-.727.222.755.755,0,0,0-.263.609h-1.834a1.843,1.843,0,0,1,.368-1.1,2.434,2.434,0,0,1,1.041-.8A3.794,3.794,0,0,1,143.329,7a3,3,0,0,1,2.015.638,2.232,2.232,0,0,1,.746,1.793v2.977a3.283,3.283,0,0,0,.273,1.479V14Zm-1.517-1.276a1.58,1.58,0,0,0,.749-.181,1.188,1.188,0,0,0,.508-.486V10.877h-.686q-1.377,0-1.466.952l-.006.108a.734.734,0,0,0,.241.565A.937.937,0,0,0,142.992,12.724Zm4.221-2.209a4.139,4.139,0,0,1,.72-2.558A2.338,2.338,0,0,1,149.905,7a2.1,2.1,0,0,1,1.657.749V4.25H153.4V14h-1.657l-.089-.73a2.159,2.159,0,0,1-1.765.857,2.331,2.331,0,0,1-1.946-.955A4.272,4.272,0,0,1,147.214,10.515Zm1.834.137a2.711,2.711,0,0,0,.336,1.481,1.1,1.1,0,0,0,.978.515,1.227,1.227,0,0,0,1.2-.718V9.215a1.21,1.21,0,0,0-1.187-.718Q149.048,8.5,149.048,10.652Zm5.491-.149a4.073,4.073,0,0,1,.394-1.822,2.881,2.881,0,0,1,1.133-1.238A3.306,3.306,0,0,1,157.782,7a3.128,3.128,0,0,1,2.269.851,3.414,3.414,0,0,1,.981,2.311l.013.47a3.59,3.59,0,0,1-.882,2.536,3.42,3.42,0,0,1-4.739,0,3.653,3.653,0,0,1-.885-2.59Zm1.834.13a2.567,2.567,0,0,0,.368,1.5,1.323,1.323,0,0,0,2.095.006,2.809,2.809,0,0,0,.375-1.637,2.542,2.542,0,0,0-.375-1.488,1.217,1.217,0,0,0-1.054-.528,1.2,1.2,0,0,0-1.041.524A2.857,2.857,0,0,0,156.373,10.633Zm12.9-1.781a4.984,4.984,0,0,0-.66-.051,1.344,1.344,0,0,0-1.365.7V14h-1.834V7.132h1.733l.051.819A1.7,1.7,0,0,1,168.726,7a1.922,1.922,0,0,1,.571.083Zm4.043,5.275a3.372,3.372,0,0,1-2.46-.927,3.294,3.294,0,0,1-.949-2.469v-.178a4.149,4.149,0,0,1,.4-1.85,2.935,2.935,0,0,1,1.133-1.257A3.18,3.18,0,0,1,173.112,7a2.85,2.85,0,0,1,2.219.889,3.611,3.611,0,0,1,.809,2.52v.749h-4.374a1.7,1.7,0,0,0,.536,1.079,1.621,1.621,0,0,0,1.133.406,1.98,1.98,0,0,0,1.657-.768l.9,1.009a2.754,2.754,0,0,1-1.117.911A3.665,3.665,0,0,1,173.315,14.127Zm-.209-5.643a1.146,1.146,0,0,0-.885.37,1.915,1.915,0,0,0-.435,1.058h2.552V9.765a1.366,1.366,0,0,0-.33-.947A1.183,1.183,0,0,0,173.106,8.484ZM179.117,14h-1.841V4.25h1.841Zm5.491,0a2.037,2.037,0,0,1-.184-.616,2.22,2.22,0,0,1-1.733.743,2.439,2.439,0,0,1-1.673-.584,1.878,1.878,0,0,1-.663-1.473,1.941,1.941,0,0,1,.809-1.676A3.994,3.994,0,0,1,183.5,9.8h.844V9.411a1.132,1.132,0,0,0-.244-.762.961.961,0,0,0-.771-.286,1.093,1.093,0,0,0-.727.222.755.755,0,0,0-.263.609h-1.834a1.843,1.843,0,0,1,.368-1.1,2.434,2.434,0,0,1,1.041-.8A3.794,3.794,0,0,1,183.427,7a3,3,0,0,1,2.015.638,2.232,2.232,0,0,1,.746,1.793v2.977a3.283,3.283,0,0,0,.273,1.479V14Zm-1.517-1.276a1.58,1.58,0,0,0,.749-.181,1.188,1.188,0,0,0,.508-.486V10.877h-.686q-1.377,0-1.466.952l-.006.108a.734.734,0,0,0,.241.565A.937.937,0,0,0,183.091,12.724Zm6.7-7.281V7.132h1.174V8.478h-1.174v3.428a.818.818,0,0,0,.146.546.733.733,0,0,0,.559.165,2.925,2.925,0,0,0,.54-.044v1.39a3.776,3.776,0,0,1-1.111.165,1.752,1.752,0,0,1-1.968-1.949v-3.7h-1V7.132h1V5.443ZM193.926,14h-1.841V7.132h1.841Zm-1.949-8.646a.9.9,0,0,1,.276-.679,1.19,1.19,0,0,1,1.5,0,.9.9,0,0,1,.279.679.9.9,0,0,1-.282.686,1.177,1.177,0,0,1-1.492,0A.9.9,0,0,1,191.977,5.354Zm6.03,6.4,1.276-4.627H201.2L198.884,14h-1.752l-2.317-6.868h1.917ZM205.891,14a2.037,2.037,0,0,1-.184-.616,2.22,2.22,0,0,1-1.733.743,2.439,2.439,0,0,1-1.673-.584,1.878,1.878,0,0,1-.663-1.473,1.941,1.941,0,0,1,.809-1.676,3.994,3.994,0,0,1,2.339-.59h.844V9.411a1.132,1.132,0,0,0-.244-.762.961.961,0,0,0-.771-.286,1.093,1.093,0,0,0-.727.222.755.755,0,0,0-.263.609h-1.834a1.843,1.843,0,0,1,.368-1.1,2.434,2.434,0,0,1,1.041-.8A3.794,3.794,0,0,1,204.711,7a3,3,0,0,1,2.015.638,2.232,2.232,0,0,1,.746,1.793v2.977a3.283,3.283,0,0,0,.273,1.479V14Zm-1.517-1.276a1.58,1.58,0,0,0,.749-.181,1.188,1.188,0,0,0,.508-.486V10.877h-.686q-1.377,0-1.466.952l-.006.108a.734.734,0,0,0,.241.565A.937.937,0,0,0,204.374,12.724Z" transform="translate(1045 2463.064)" fill="#fff"/>
    <g id="Grupo_236999" data-name="Grupo 236999" transform="translate(-3.413 300.459)">
      <rect id="Rectángulo_58540-2" data-name="Rectángulo 58540" width="291" height="17.862" transform="translate(1037.413 2437.064)" fill="#a3314f"/>
      <path id="Trazado_261944-2" data-name="Trazado 261944" d="M-4826.08-9244v18.041l-9.253-9.358Z" transform="translate(5863.413 11681.063)" fill="#a3314f"/>
    </g>
    <path id="Trazado_268145" data-name="Trazado 268145" d="M109.47,12.47h4.043V14h-5.948V4.758h1.9ZM116.421,14H114.58V7.132h1.841Zm-1.949-8.646a.9.9,0,0,1,.276-.679,1.19,1.19,0,0,1,1.5,0,.9.9,0,0,1,.279.679.9.9,0,0,1-.282.686,1.177,1.177,0,0,1-1.492,0A.9.9,0,0,1,114.472,5.354Zm3.174,5.148a4.105,4.105,0,0,1,.72-2.558A2.355,2.355,0,0,1,120.344,7a2.109,2.109,0,0,1,1.758.844l.121-.717h1.612v9.509h-1.841V13.41a2.115,2.115,0,0,1-1.663.717,2.338,2.338,0,0,1-1.955-.952A4.307,4.307,0,0,1,117.646,10.5Zm1.834.13a2.693,2.693,0,0,0,.346,1.5,1.107,1.107,0,0,0,.974.515,1.234,1.234,0,0,0,1.193-.674V9.132a1.224,1.224,0,0,0-1.181-.648A1.121,1.121,0,0,0,119.83,9,2.974,2.974,0,0,0,119.481,10.633Zm9.909,2.669a2.3,2.3,0,0,1-1.879.825,2.17,2.17,0,0,1-1.685-.635,2.71,2.71,0,0,1-.594-1.86v-4.5h1.834v4.442q0,1.074.978,1.074A1.325,1.325,0,0,0,129.326,12V7.132h1.841V14H129.44Zm5.1.7h-1.841V7.132h1.841Zm-1.949-8.646a.9.9,0,0,1,.276-.679,1.19,1.19,0,0,1,1.5,0,.9.9,0,0,1,.279.679.9.9,0,0,1-.282.686,1.177,1.177,0,0,1-1.492,0A.9.9,0,0,1,132.538,5.354Zm3.174,5.161a4.139,4.139,0,0,1,.72-2.558A2.338,2.338,0,0,1,138.4,7a2.1,2.1,0,0,1,1.657.749V4.25H141.9V14h-1.657l-.089-.73a2.159,2.159,0,0,1-1.765.857,2.331,2.331,0,0,1-1.946-.955A4.272,4.272,0,0,1,135.712,10.515Zm1.834.137a2.711,2.711,0,0,0,.336,1.481,1.1,1.1,0,0,0,.978.515,1.227,1.227,0,0,0,1.2-.718V9.215a1.21,1.21,0,0,0-1.187-.718Q137.546,8.5,137.546,10.652Zm8.938,3.475a3.372,3.372,0,0,1-2.46-.927,3.294,3.294,0,0,1-.949-2.469v-.178a4.149,4.149,0,0,1,.4-1.85,2.935,2.935,0,0,1,1.133-1.257A3.18,3.18,0,0,1,146.281,7a2.85,2.85,0,0,1,2.219.889,3.611,3.611,0,0,1,.809,2.52v.749h-4.374a1.7,1.7,0,0,0,.536,1.079,1.621,1.621,0,0,0,1.133.406,1.98,1.98,0,0,0,1.657-.768l.9,1.009a2.754,2.754,0,0,1-1.117.911A3.665,3.665,0,0,1,146.484,14.127Zm-.209-5.643a1.146,1.146,0,0,0-.885.37,1.915,1.915,0,0,0-.435,1.058h2.552V9.765a1.366,1.366,0,0,0-.33-.947A1.183,1.183,0,0,0,146.274,8.484Zm6.183,4.037h3.358V14h-5.7V12.883l3.231-4.272H150.21V7.132h5.5V8.213Z" transform="translate(1043 2738.523)" fill="#fff"/>
    <g id="Grupo_237000" data-name="Grupo 237000" transform="translate(3381.064 1442.813) rotate(90)">
      <rect id="Rectángulo_58540-3" data-name="Rectángulo 58540" width="265.798" height="16" transform="translate(1037.413 2437.064)" fill="#a3314f"/>
      <path id="Trazado_261944-3" data-name="Trazado 261944" d="M-4826.08-9244v16.179l-9.253-8.393Z" transform="translate(5863.413 11681.063)" fill="#a3314f"/>
    </g>
    <path id="Trazado_268142" data-name="Trazado 268142" d="M32.824,6.3H29.993V14h-1.9V6.3H25.3V4.758h7.528ZM36.7,14a2.037,2.037,0,0,1-.184-.616,2.22,2.22,0,0,1-1.733.743,2.439,2.439,0,0,1-1.673-.584,1.878,1.878,0,0,1-.663-1.473,1.941,1.941,0,0,1,.809-1.676A3.994,3.994,0,0,1,35.6,9.8h.844V9.411a1.132,1.132,0,0,0-.244-.762.961.961,0,0,0-.771-.286,1.093,1.093,0,0,0-.727.222.755.755,0,0,0-.263.609H32.6a1.843,1.843,0,0,1,.368-1.1,2.434,2.434,0,0,1,1.041-.8A3.794,3.794,0,0,1,35.522,7a3,3,0,0,1,2.015.638,2.232,2.232,0,0,1,.746,1.793v2.977a3.284,3.284,0,0,0,.273,1.479V14Zm-1.517-1.276a1.58,1.58,0,0,0,.749-.181,1.188,1.188,0,0,0,.508-.486V10.877h-.686q-1.377,0-1.466.952l-.006.108a.734.734,0,0,0,.241.565A.937.937,0,0,0,35.186,12.724Zm8.227-.622a.591.591,0,0,0-.333-.53,3.785,3.785,0,0,0-1.07-.346q-2.45-.514-2.45-2.082a1.887,1.887,0,0,1,.759-1.527A3.06,3.06,0,0,1,42.3,7a3.293,3.293,0,0,1,2.092.616,1.94,1.94,0,0,1,.784,1.6H43.343a.888.888,0,0,0-.254-.651,1.075,1.075,0,0,0-.793-.257,1.1,1.1,0,0,0-.717.209.661.661,0,0,0-.254.533.565.565,0,0,0,.289.492,2.971,2.971,0,0,0,.974.324,7.959,7.959,0,0,1,1.155.308A1.9,1.9,0,0,1,45.2,12.026a1.792,1.792,0,0,1-.806,1.52,3.478,3.478,0,0,1-2.082.581,3.632,3.632,0,0,1-1.533-.308,2.572,2.572,0,0,1-1.051-.844,1.962,1.962,0,0,1-.381-1.158h1.739a.958.958,0,0,0,.362.749,1.435,1.435,0,0,0,.9.26,1.328,1.328,0,0,0,.8-.2A.622.622,0,0,0,43.412,12.1ZM50.357,14a2.037,2.037,0,0,1-.184-.616,2.22,2.22,0,0,1-1.733.743,2.439,2.439,0,0,1-1.673-.584A1.878,1.878,0,0,1,46.1,12.07a1.941,1.941,0,0,1,.809-1.676,3.994,3.994,0,0,1,2.339-.59H50.1V9.411a1.132,1.132,0,0,0-.244-.762.961.961,0,0,0-.771-.286,1.093,1.093,0,0,0-.727.222.755.755,0,0,0-.263.609H46.256a1.843,1.843,0,0,1,.368-1.1,2.434,2.434,0,0,1,1.041-.8A3.794,3.794,0,0,1,49.176,7a3,3,0,0,1,2.015.638,2.232,2.232,0,0,1,.746,1.793v2.977a3.284,3.284,0,0,0,.273,1.479V14ZM48.84,12.724a1.58,1.58,0,0,0,.749-.181,1.188,1.188,0,0,0,.508-.486V10.877h-.686q-1.377,0-1.466.952l-.006.108a.734.734,0,0,0,.241.565A.937.937,0,0,0,48.84,12.724ZM56.3,10.515a4.139,4.139,0,0,1,.72-2.558A2.338,2.338,0,0,1,58.99,7a2.1,2.1,0,0,1,1.657.749V4.25h1.841V14H60.83l-.089-.73a2.159,2.159,0,0,1-1.765.857,2.331,2.331,0,0,1-1.946-.955A4.272,4.272,0,0,1,56.3,10.515Zm1.834.137a2.711,2.711,0,0,0,.336,1.481,1.1,1.1,0,0,0,.978.515,1.227,1.227,0,0,0,1.2-.718V9.215A1.21,1.21,0,0,0,59.459,8.5Q58.133,8.5,58.133,10.652Zm8.938,3.475a3.372,3.372,0,0,1-2.46-.927,3.294,3.294,0,0,1-.949-2.469v-.178a4.149,4.149,0,0,1,.4-1.85,2.935,2.935,0,0,1,1.133-1.257A3.18,3.18,0,0,1,66.867,7a2.85,2.85,0,0,1,2.219.889,3.611,3.611,0,0,1,.809,2.52v.749H65.521a1.7,1.7,0,0,0,.536,1.079,1.621,1.621,0,0,0,1.133.406,1.98,1.98,0,0,0,1.657-.768l.9,1.009a2.754,2.754,0,0,1-1.117.911A3.665,3.665,0,0,1,67.07,14.127Zm-.209-5.643a1.146,1.146,0,0,0-.885.37,1.915,1.915,0,0,0-.435,1.058h2.552V9.765a1.366,1.366,0,0,0-.33-.947A1.183,1.183,0,0,0,66.861,8.484ZM77.03,12.648a1.2,1.2,0,0,0,.825-.279.979.979,0,0,0,.33-.743h1.72a2.353,2.353,0,0,1-.381,1.279,2.513,2.513,0,0,1-1.025.9,3.208,3.208,0,0,1-1.438.321,2.982,2.982,0,0,1-2.323-.936,3.705,3.705,0,0,1-.851-2.587v-.121a3.663,3.663,0,0,1,.844-2.533A2.947,2.947,0,0,1,77.049,7a2.889,2.889,0,0,1,2.066.733,2.6,2.6,0,0,1,.79,1.952h-1.72a1.261,1.261,0,0,0-.33-.871,1.227,1.227,0,0,0-1.806.132,2.708,2.708,0,0,0-.327,1.516v.191a2.742,2.742,0,0,0,.324,1.526A1.119,1.119,0,0,0,77.03,12.648Zm7.782-3.8a4.984,4.984,0,0,0-.66-.051,1.344,1.344,0,0,0-1.365.7V14H80.952V7.132h1.733l.051.819A1.7,1.7,0,0,1,84.266,7a1.922,1.922,0,0,1,.571.083Zm4.043,5.275A3.372,3.372,0,0,1,86.4,13.2a3.294,3.294,0,0,1-.949-2.469v-.178a4.149,4.149,0,0,1,.4-1.85,2.935,2.935,0,0,1,1.133-1.257A3.18,3.18,0,0,1,88.652,7a2.85,2.85,0,0,1,2.219.889,3.611,3.611,0,0,1,.809,2.52v.749H87.306a1.7,1.7,0,0,0,.536,1.079,1.621,1.621,0,0,0,1.133.406,1.98,1.98,0,0,0,1.657-.768l.9,1.009a2.754,2.754,0,0,1-1.117.911A3.665,3.665,0,0,1,88.855,14.127Zm-.209-5.643a1.146,1.146,0,0,0-.885.37,1.915,1.915,0,0,0-.435,1.058h2.552V9.765a1.366,1.366,0,0,0-.33-.947A1.183,1.183,0,0,0,88.646,8.484Zm6.932,4.164a1.2,1.2,0,0,0,.825-.279.979.979,0,0,0,.33-.743h1.72a2.353,2.353,0,0,1-.381,1.279,2.513,2.513,0,0,1-1.025.9,3.208,3.208,0,0,1-1.438.321,2.982,2.982,0,0,1-2.323-.936,3.705,3.705,0,0,1-.851-2.587v-.121a3.663,3.663,0,0,1,.844-2.533A2.947,2.947,0,0,1,95.6,7a2.889,2.889,0,0,1,2.066.733,2.6,2.6,0,0,1,.79,1.952h-1.72a1.261,1.261,0,0,0-.33-.871,1.227,1.227,0,0,0-1.806.132,2.708,2.708,0,0,0-.327,1.516v.191a2.742,2.742,0,0,0,.324,1.526A1.119,1.119,0,0,0,95.577,12.648ZM101.436,14H99.6V7.132h1.841ZM99.488,5.354a.9.9,0,0,1,.276-.679,1.19,1.19,0,0,1,1.5,0,.9.9,0,0,1,.279.679.9.9,0,0,1-.282.686,1.177,1.177,0,0,1-1.492,0A.9.9,0,0,1,99.488,5.354Zm5.18,1.777.057.768A2.414,2.414,0,0,1,106.7,7a1.832,1.832,0,0,1,1.822,1.047A2.358,2.358,0,0,1,110.583,7a2.049,2.049,0,0,1,1.663.651,2.991,2.991,0,0,1,.546,1.958V14h-1.841V9.62a1.308,1.308,0,0,0-.229-.854,1.013,1.013,0,0,0-.806-.27,1.145,1.145,0,0,0-1.143.787L108.781,14h-1.834V9.626a1.292,1.292,0,0,0-.235-.863,1.023,1.023,0,0,0-.8-.267,1.189,1.189,0,0,0-1.13.647V14h-1.834V7.132ZM116.137,14H114.3V7.132h1.841Zm-1.949-8.646a.9.9,0,0,1,.276-.679,1.19,1.19,0,0,1,1.5,0,.9.9,0,0,1,.279.679.9.9,0,0,1-.282.686,1.177,1.177,0,0,1-1.492,0A.9.9,0,0,1,114.189,5.354Zm6.621,8.772a3.372,3.372,0,0,1-2.46-.927,3.294,3.294,0,0,1-.949-2.469v-.178a4.149,4.149,0,0,1,.4-1.85,2.935,2.935,0,0,1,1.133-1.257A3.18,3.18,0,0,1,120.606,7a2.85,2.85,0,0,1,2.219.889,3.611,3.611,0,0,1,.809,2.52v.749H119.26a1.7,1.7,0,0,0,.536,1.079,1.621,1.621,0,0,0,1.133.406,1.98,1.98,0,0,0,1.657-.768l.9,1.009a2.754,2.754,0,0,1-1.117.911A3.665,3.665,0,0,1,120.809,14.127ZM120.6,8.484a1.146,1.146,0,0,0-.885.37,1.915,1.915,0,0,0-.435,1.058h2.552V9.765a1.366,1.366,0,0,0-.33-.947A1.183,1.183,0,0,0,120.6,8.484Zm5.764-1.352.057.793A2.4,2.4,0,0,1,128.395,7a1.993,1.993,0,0,1,1.625.641,2.991,2.991,0,0,1,.546,1.917V14h-1.834V9.607a1.19,1.19,0,0,0-.254-.847,1.137,1.137,0,0,0-.844-.263,1.262,1.262,0,0,0-1.162.66V14h-1.834V7.132Zm7.789-1.688V7.132h1.174V8.478h-1.174v3.428a.818.818,0,0,0,.146.546.733.733,0,0,0,.559.165,2.925,2.925,0,0,0,.54-.044v1.39a3.776,3.776,0,0,1-1.111.165,1.752,1.752,0,0,1-1.968-1.949v-3.7h-1V7.132h1V5.443Zm1.72,5.059a4.073,4.073,0,0,1,.394-1.822A2.881,2.881,0,0,1,137.4,7.443,3.306,3.306,0,0,1,139.116,7a3.128,3.128,0,0,1,2.269.851,3.414,3.414,0,0,1,.981,2.311l.013.47a3.59,3.59,0,0,1-.882,2.536,3.42,3.42,0,0,1-4.739,0,3.653,3.653,0,0,1-.885-2.59Zm1.834.13a2.567,2.567,0,0,0,.368,1.5,1.323,1.323,0,0,0,2.095.006,2.809,2.809,0,0,0,.375-1.637,2.542,2.542,0,0,0-.375-1.488,1.217,1.217,0,0,0-1.054-.528,1.2,1.2,0,0,0-1.041.524A2.857,2.857,0,0,0,137.707,10.633Zm8.753-.118a4.139,4.139,0,0,1,.72-2.558A2.338,2.338,0,0,1,149.152,7a2.1,2.1,0,0,1,1.657.749V4.25h1.841V14h-1.657l-.089-.73a2.159,2.159,0,0,1-1.765.857,2.331,2.331,0,0,1-1.946-.955A4.272,4.272,0,0,1,146.46,10.515Zm1.834.137a2.711,2.711,0,0,0,.336,1.481,1.1,1.1,0,0,0,.978.515,1.227,1.227,0,0,0,1.2-.718V9.215a1.21,1.21,0,0,0-1.187-.718Q148.295,8.5,148.295,10.652Zm8.938,3.475a3.372,3.372,0,0,1-2.46-.927,3.294,3.294,0,0,1-.949-2.469v-.178a4.149,4.149,0,0,1,.4-1.85,2.935,2.935,0,0,1,1.133-1.257A3.18,3.18,0,0,1,157.029,7a2.85,2.85,0,0,1,2.219.889,3.611,3.611,0,0,1,.809,2.52v.749h-4.374a1.7,1.7,0,0,0,.536,1.079,1.621,1.621,0,0,0,1.133.406,1.98,1.98,0,0,0,1.657-.768l.9,1.009a2.754,2.754,0,0,1-1.117.911A3.665,3.665,0,0,1,157.232,14.127Zm-.209-5.643a1.146,1.146,0,0,0-.885.37,1.915,1.915,0,0,0-.435,1.058h2.552V9.765a1.366,1.366,0,0,0-.33-.947A1.183,1.183,0,0,0,157.023,8.484Zm9.033-1.352.057.768a2.414,2.414,0,0,1,1.974-.9,1.832,1.832,0,0,1,1.822,1.047A2.358,2.358,0,0,1,171.971,7a2.049,2.049,0,0,1,1.663.651,2.991,2.991,0,0,1,.546,1.958V14H172.34V9.62a1.308,1.308,0,0,0-.229-.854,1.013,1.013,0,0,0-.806-.27,1.145,1.145,0,0,0-1.143.787L170.169,14h-1.834V9.626a1.292,1.292,0,0,0-.235-.863,1.023,1.023,0,0,0-.8-.267,1.189,1.189,0,0,0-1.13.647V14h-1.834V7.132Zm12.7,7a3.372,3.372,0,0,1-2.46-.927,3.294,3.294,0,0,1-.949-2.469v-.178a4.149,4.149,0,0,1,.4-1.85,2.935,2.935,0,0,1,1.133-1.257A3.18,3.18,0,0,1,178.548,7a2.85,2.85,0,0,1,2.219.889,3.611,3.611,0,0,1,.809,2.52v.749H177.2a1.7,1.7,0,0,0,.536,1.079,1.621,1.621,0,0,0,1.133.406,1.98,1.98,0,0,0,1.657-.768l.9,1.009a2.754,2.754,0,0,1-1.117.911A3.665,3.665,0,0,1,178.751,14.127Zm-.209-5.643a1.146,1.146,0,0,0-.885.37,1.915,1.915,0,0,0-.435,1.058h2.552V9.765a1.366,1.366,0,0,0-.33-.947A1.183,1.183,0,0,0,178.541,8.484Zm7.935.368a4.984,4.984,0,0,0-.66-.051,1.344,1.344,0,0,0-1.365.7V14h-1.834V7.132h1.733l.051.819A1.7,1.7,0,0,1,185.93,7a1.922,1.922,0,0,1,.571.083Zm3.618,3.8a1.2,1.2,0,0,0,.825-.279.979.979,0,0,0,.33-.743h1.72a2.353,2.353,0,0,1-.381,1.279,2.513,2.513,0,0,1-1.025.9,3.208,3.208,0,0,1-1.438.321,2.982,2.982,0,0,1-2.323-.936,3.705,3.705,0,0,1-.851-2.587v-.121a3.663,3.663,0,0,1,.844-2.533A2.947,2.947,0,0,1,190.113,7a2.889,2.889,0,0,1,2.066.733,2.6,2.6,0,0,1,.79,1.952h-1.72a1.261,1.261,0,0,0-.33-.871,1.227,1.227,0,0,0-1.806.132,2.708,2.708,0,0,0-.327,1.516v.191a2.742,2.742,0,0,0,.324,1.526A1.119,1.119,0,0,0,190.094,12.648ZM198,14a2.037,2.037,0,0,1-.184-.616,2.22,2.22,0,0,1-1.733.743,2.439,2.439,0,0,1-1.673-.584,1.878,1.878,0,0,1-.663-1.473,1.941,1.941,0,0,1,.809-1.676,3.994,3.994,0,0,1,2.339-.59h.844V9.411a1.132,1.132,0,0,0-.244-.762.961.961,0,0,0-.771-.286,1.093,1.093,0,0,0-.727.222.755.755,0,0,0-.263.609H193.9a1.843,1.843,0,0,1,.368-1.1,2.434,2.434,0,0,1,1.041-.8A3.794,3.794,0,0,1,196.816,7a3,3,0,0,1,2.015.638,2.232,2.232,0,0,1,.746,1.793v2.977a3.283,3.283,0,0,0,.273,1.479V14Zm-1.517-1.276a1.58,1.58,0,0,0,.749-.181,1.188,1.188,0,0,0,.508-.486V10.877h-.686q-1.377,0-1.466.952l-.006.108a.734.734,0,0,0,.241.565A.937.937,0,0,0,196.48,12.724Zm4.221-2.209a4.139,4.139,0,0,1,.72-2.558A2.338,2.338,0,0,1,203.392,7a2.1,2.1,0,0,1,1.657.749V4.25h1.841V14h-1.657l-.089-.73a2.159,2.159,0,0,1-1.765.857,2.331,2.331,0,0,1-1.946-.955A4.272,4.272,0,0,1,200.7,10.515Zm1.834.137a2.711,2.711,0,0,0,.336,1.481,1.1,1.1,0,0,0,.978.515,1.227,1.227,0,0,0,1.2-.718V9.215a1.21,1.21,0,0,0-1.187-.718Q202.535,8.5,202.535,10.652Zm5.491-.149a4.073,4.073,0,0,1,.394-1.822,2.881,2.881,0,0,1,1.133-1.238A3.306,3.306,0,0,1,211.27,7a3.128,3.128,0,0,1,2.269.851,3.414,3.414,0,0,1,.981,2.311l.013.47a3.59,3.59,0,0,1-.882,2.536,3.42,3.42,0,0,1-4.739,0,3.653,3.653,0,0,1-.885-2.59Zm1.834.13a2.567,2.567,0,0,0,.368,1.5,1.323,1.323,0,0,0,2.095.006A2.809,2.809,0,0,0,212.7,10.5a2.542,2.542,0,0,0-.375-1.488,1.217,1.217,0,0,0-1.054-.528,1.2,1.2,0,0,0-1.041.524A2.857,2.857,0,0,0,209.861,10.633Z" transform="translate(929 2733.059) rotate(-90)" fill="#fff"/>
    <path id="Trazado_268144" data-name="Trazado 268144" d="M36.67,12.1H33.331L32.7,14H30.671l3.44-9.242h1.765L39.336,14H37.311Zm-2.825-1.542h2.311L34.994,7.094ZM42.014,14H40.174V4.25h1.841Zm3.707-8.557V7.132H46.9V8.478H45.721v3.428a.818.818,0,0,0,.146.546.733.733,0,0,0,.559.165,2.925,2.925,0,0,0,.54-.044v1.39a3.776,3.776,0,0,1-1.111.165,1.752,1.752,0,0,1-1.968-1.949v-3.7h-1V7.132h1V5.443Zm1.72,5.059a4.073,4.073,0,0,1,.394-1.822,2.881,2.881,0,0,1,1.133-1.238A3.306,3.306,0,0,1,50.685,7a3.128,3.128,0,0,1,2.269.851,3.414,3.414,0,0,1,.981,2.311l.013.47a3.59,3.59,0,0,1-.882,2.536,3.42,3.42,0,0,1-4.739,0,3.653,3.653,0,0,1-.885-2.59Zm1.834.13a2.567,2.567,0,0,0,.368,1.5,1.323,1.323,0,0,0,2.095.006,2.809,2.809,0,0,0,.375-1.637,2.542,2.542,0,0,0-.375-1.488,1.217,1.217,0,0,0-1.054-.528,1.2,1.2,0,0,0-1.041.524A2.857,2.857,0,0,0,49.276,10.633Z" transform="translate(955.5 2725.7) rotate(-90)" fill="#12263f"/>
    <path id="Trazado_268143" data-name="Trazado 268143" d="M30.328,14V4.758h3.237a4.251,4.251,0,0,1,2.552.644,2.2,2.2,0,0,1,.87,1.888,2.088,2.088,0,0,1-.349,1.2,2.017,2.017,0,0,1-.971.759,1.951,1.951,0,0,1,1.12.717,2.121,2.121,0,0,1,.409,1.32,2.439,2.439,0,0,1-.851,2.019,3.829,3.829,0,0,1-2.425.7Zm1.9-4.024V12.47h1.631a1.574,1.574,0,0,0,1.051-.321,1.1,1.1,0,0,0,.378-.885,1.161,1.161,0,0,0-1.314-1.289Zm0-1.346h1.409q1.441-.025,1.441-1.149a1.062,1.062,0,0,0-.365-.9A1.92,1.92,0,0,0,33.566,6.3H32.233ZM42.484,14a2.037,2.037,0,0,1-.184-.616,2.22,2.22,0,0,1-1.733.743,2.439,2.439,0,0,1-1.673-.584,1.878,1.878,0,0,1-.663-1.473,1.941,1.941,0,0,1,.809-1.676A3.994,3.994,0,0,1,41.38,9.8h.844V9.411a1.132,1.132,0,0,0-.244-.762.961.961,0,0,0-.771-.286,1.093,1.093,0,0,0-.727.222.755.755,0,0,0-.263.609H38.384a1.843,1.843,0,0,1,.368-1.1,2.434,2.434,0,0,1,1.041-.8A3.794,3.794,0,0,1,41.3,7a3,3,0,0,1,2.015.638,2.232,2.232,0,0,1,.746,1.793v2.977a3.284,3.284,0,0,0,.273,1.479V14Zm-1.517-1.276a1.58,1.58,0,0,0,.749-.181,1.188,1.188,0,0,0,.508-.486V10.877h-.686q-1.377,0-1.466.952l-.006.108a.734.734,0,0,0,.241.565A.937.937,0,0,0,40.967,12.724Zm6.449-5.592v7.243a2.457,2.457,0,0,1-.6,1.768,2.292,2.292,0,0,1-1.739.632,3.73,3.73,0,0,1-.908-.108V15.212a3.443,3.443,0,0,0,.578.057q.832,0,.832-.882V7.132ZM45.429,5.354a.9.9,0,0,1,.276-.679,1.194,1.194,0,0,1,1.5,0,.9.9,0,0,1,.276.679.9.9,0,0,1-.282.686,1.177,1.177,0,0,1-1.492,0A.9.9,0,0,1,45.429,5.354ZM48.565,10.5a4.073,4.073,0,0,1,.394-1.822,2.881,2.881,0,0,1,1.133-1.238A3.306,3.306,0,0,1,51.809,7a3.128,3.128,0,0,1,2.269.851,3.414,3.414,0,0,1,.981,2.311l.013.47a3.59,3.59,0,0,1-.882,2.536,3.42,3.42,0,0,1-4.739,0,3.653,3.653,0,0,1-.885-2.59Zm1.834.13a2.567,2.567,0,0,0,.368,1.5,1.323,1.323,0,0,0,2.095.006,2.809,2.809,0,0,0,.375-1.637,2.542,2.542,0,0,0-.375-1.488,1.217,1.217,0,0,0-1.054-.528,1.2,1.2,0,0,0-1.041.524A2.857,2.857,0,0,0,50.4,10.633Z" transform="translate(955 2609.784) rotate(-90)" fill="#12263f"/>
  </g>
</svg>
